<svg width="31" height="31" viewBox="0 0 31 31" fill="none" xmlns="http://www.w3.org/2000/svg">
<mask id="mask0_1039_2681" style="mask-type:alpha" maskUnits="userSpaceOnUse" x="0" y="0" width="31" height="31">
<rect width="31" height="31" fill="#D9D9D9"/>
</mask>
<g mask="url(#mask0_1039_2681)">
<g clip-path="url(#clip0_1039_2681)">
<path d="M14.9451 4.30248C15.5335 3.96569 16.2998 3.96417 16.8877 4.30248C19.8454 5.97369 22.8039 7.64228 25.761 9.3145C26.3172 9.62779 26.6893 10.2468 26.6836 10.8877V20.9423C26.6877 21.6097 26.2789 22.2435 25.6921 22.5497C22.7442 24.2117 19.7978 25.8757 16.8505 27.5377C16.2499 27.8811 15.4681 27.8546 14.8863 27.4831C14.0025 26.9708 13.1172 26.461 12.2334 25.9491C12.0528 25.8415 11.8492 25.7558 11.7216 25.5807C11.8344 25.4287 12.036 25.4098 12.1997 25.3434C12.5686 25.2261 12.9075 25.0378 13.2464 24.8551C13.3321 24.7964 13.4367 24.8189 13.5189 24.8714C14.2746 25.3047 15.0237 25.7506 15.7819 26.1798C15.9437 26.2732 16.1075 26.1492 16.2458 26.0721C19.1385 24.4372 22.0349 22.8084 24.9272 21.1729C25.0343 21.1214 25.0936 21.0076 25.0849 20.8902C25.0869 17.5734 25.0854 14.256 25.0859 10.9392C25.0981 10.806 25.0211 10.6836 24.9006 10.6291C21.963 8.97468 19.0268 7.31774 16.0897 5.66292C16.0388 5.62794 15.9785 5.60917 15.9167 5.60908C15.855 5.60899 15.7946 5.62758 15.7436 5.66242C12.8065 7.31774 9.87082 8.97619 6.93368 10.6305C6.81367 10.6851 6.73313 10.8055 6.74741 10.9392C6.74791 14.256 6.74741 17.5734 6.74741 20.8907C6.74231 20.948 6.75489 21.0055 6.78345 21.0554C6.81201 21.1053 6.85518 21.1452 6.90714 21.1699C7.69094 21.6144 8.47574 22.0557 9.26006 22.4986C9.70189 22.7365 10.2444 22.8778 10.7312 22.6956C11.1608 22.5415 11.4619 22.1031 11.4537 21.647C11.4578 18.3495 11.4517 15.0516 11.4568 11.7546C11.446 11.6083 11.5849 11.4873 11.7272 11.5011C12.1038 11.4985 12.4809 11.496 12.8575 11.5021C13.0147 11.4985 13.1229 11.6562 13.1035 11.8037C13.1019 15.122 13.1075 18.4404 13.1009 21.7587C13.1019 22.6431 12.7386 23.6054 11.9206 24.0381C10.9128 24.5601 9.66725 24.4494 8.67165 23.9488C7.80977 23.5187 6.98726 23.011 6.14067 22.5501C5.55236 22.2456 5.14559 21.6093 5.14973 20.9424V10.8877C5.14356 10.2335 5.53039 9.60328 6.10391 9.29456C9.05132 7.6312 11.9982 5.96659 14.9451 4.30248Z" fill="#8CC84B"/>
<path d="M17.5164 11.2676C18.8018 11.1849 20.178 11.2186 21.3347 11.8519C22.2304 12.3372 22.7269 13.3557 22.7427 14.3507C22.7177 14.4849 22.5774 14.5589 22.4493 14.5497C22.0763 14.5492 21.7032 14.5548 21.3303 14.5471C21.1721 14.5533 21.0801 14.4074 21.0603 14.2675C20.9531 13.7914 20.6935 13.3199 20.2454 13.0903C19.5575 12.7459 18.7599 12.7632 18.0098 12.7704C17.4623 12.7994 16.8735 12.8469 16.4095 13.1689C16.0534 13.4128 15.9452 13.9052 16.0723 14.3017C16.1922 14.5865 16.5208 14.6783 16.7898 14.763C18.3389 15.1682 19.9806 15.1278 21.5001 15.6611C22.1293 15.8784 22.7447 16.301 22.9601 16.9597C23.2418 17.8426 23.1183 18.8978 22.4902 19.6066C21.9808 20.1898 21.2389 20.5073 20.499 20.6797C19.5146 20.8992 18.4931 20.9047 17.4934 20.8073C16.5535 20.7001 15.5753 20.4532 14.8497 19.8127C14.2291 19.2739 13.9261 18.4344 13.9561 17.6242C13.9633 17.4873 14.0996 17.3919 14.2307 17.4032C14.6062 17.4002 14.9818 17.3991 15.3574 17.4037C15.5074 17.393 15.6186 17.5226 15.6263 17.664C15.6957 18.1176 15.8661 18.5937 16.2617 18.8626C17.025 19.3551 17.9828 19.3214 18.8569 19.3351C19.581 19.303 20.3938 19.2933 20.9848 18.8147C21.2966 18.5417 21.3889 18.085 21.3047 17.6921C21.2134 17.3604 20.8664 17.2058 20.5684 17.1047C19.0391 16.6209 17.3791 16.7965 15.8646 16.2494C15.2497 16.0321 14.6552 15.6213 14.4189 14.9896C14.0893 14.0956 14.2404 12.9898 14.9343 12.305C15.611 11.6238 16.5877 11.3615 17.5164 11.2676Z" fill="#8CC84B"/>
</g>
</g>
<defs>
<clipPath id="clip0_1039_2681">
<rect width="23.8333" height="23.8333" fill="white" transform="translate(4 4)"/>
</clipPath>
</defs>
</svg>
