<svg width="31" height="31" viewBox="0 0 31 31" fill="none" xmlns="http://www.w3.org/2000/svg">
<mask id="mask0_1039_2661" style="mask-type:alpha" maskUnits="userSpaceOnUse" x="0" y="0" width="31" height="31">
<rect width="31" height="31" fill="#D9D9D9"/>
</mask>
<g mask="url(#mask0_1039_2661)">
<g clip-path="url(#clip0_1039_2661)">
<path d="M4.70972 7.98873L15.7334 4.06104L27.0538 7.91888L25.2209 22.5036L15.7334 27.758L6.39425 22.5735L4.70972 7.98873Z" fill="#E23237"/>
<path d="M27.0538 7.91888L15.7334 4.06104V27.758L25.2209 22.5124L27.0538 7.91888Z" fill="#B52E31"/>
<path d="M15.7509 6.82812L8.88184 22.1112L11.4479 22.0675L12.827 18.6199H15.7596H15.7684H18.989L20.499 22.1112L22.9516 22.1548L15.7509 6.82812ZM15.7684 11.7246L18.09 16.5775H15.8644H15.7509H13.726L15.7684 11.7246Z" fill="white"/>
</g>
</g>
<defs>
<clipPath id="clip0_1039_2661">
<rect width="23.8333" height="23.8333" fill="white" transform="translate(4 4)"/>
</clipPath>
</defs>
</svg>
