<svg width="31" height="31" viewBox="0 0 31 31" fill="none" xmlns="http://www.w3.org/2000/svg">
<mask id="mask0_1039_2699" style="mask-type:alpha" maskUnits="userSpaceOnUse" x="0" y="0" width="31" height="31">
<rect width="31" height="31" fill="#D9D9D9"/>
</mask>
<g mask="url(#mask0_1039_2699)">
<g clip-path="url(#clip0_1039_2699)">
<path d="M23.5958 12.1766C23.3485 12.0915 23.0924 12.011 22.8286 11.9348C22.8719 11.7579 22.9117 11.5833 22.9471 11.4115C23.5279 8.59241 23.1481 6.32131 21.8515 5.57356C20.6081 4.85657 18.5748 5.60415 16.5212 7.39134C16.3237 7.5632 16.1256 7.74515 15.9277 7.93584C15.7958 7.80968 15.6641 7.68775 15.5328 7.57113C13.3805 5.66014 11.2232 4.85483 9.92787 5.60474C8.68571 6.32381 8.31785 8.45887 8.84063 11.1306C8.89112 11.3887 8.95014 11.6522 9.01688 11.9201C8.71153 12.0068 8.41679 12.0992 8.13477 12.1975C5.61148 13.0772 4 14.456 4 15.8861C4 17.3631 5.72993 18.8446 8.35812 19.7429C8.56551 19.8138 8.78073 19.8808 9.00254 19.9445C8.93052 20.2343 8.86792 20.5183 8.81537 20.7952C8.31689 23.4206 8.70617 25.5052 9.94499 26.2197C11.2246 26.9576 13.3721 26.1992 15.4633 24.3712C15.6286 24.2268 15.7944 24.0735 15.9606 23.9129C16.176 24.1203 16.391 24.3166 16.6049 24.5007C18.6304 26.2437 20.631 26.9476 21.8687 26.2311C23.147 25.491 23.5625 23.2517 23.0231 20.5271C22.9819 20.319 22.934 20.1064 22.8801 19.89C23.031 19.8455 23.179 19.7994 23.3234 19.7516C26.0556 18.8463 27.8333 17.3829 27.8333 15.8861C27.8333 14.4508 26.1699 13.0628 23.5958 12.1766ZM23.0032 18.7851C22.8729 18.8283 22.7391 18.87 22.6029 18.9104C22.3013 17.9555 21.8941 16.9401 21.396 15.8911C21.8714 14.867 22.2627 13.8645 22.5559 12.9158C22.7997 12.9864 23.0364 13.0608 23.2644 13.1393C25.4699 13.8985 26.8152 15.0211 26.8152 15.8861C26.8152 16.8074 25.3623 18.0034 23.0032 18.7851ZM22.0243 20.7248C22.2628 21.9296 22.2969 23.0188 22.1389 23.8703C21.9969 24.6355 21.7115 25.1456 21.3585 25.3499C20.6074 25.7847 19.0012 25.2196 17.2689 23.7289C17.0704 23.558 16.8703 23.3756 16.6697 23.1825C17.3412 22.448 18.0124 21.5941 18.6675 20.6458C19.8196 20.5436 20.9082 20.3765 21.8953 20.1483C21.9439 20.3444 21.9871 20.5368 22.0243 20.7248ZM12.1253 25.2748C11.3915 25.534 10.807 25.5414 10.4537 25.3377C9.70197 24.9041 9.38943 23.2303 9.81573 20.9851C9.86455 20.728 9.92266 20.4639 9.98967 20.1939C10.966 20.4098 12.0465 20.5651 13.2015 20.6588C13.8609 21.5867 14.5515 22.4396 15.2474 23.1864C15.0954 23.3332 14.9439 23.4729 14.7933 23.6046C13.8686 24.4129 12.9419 24.9864 12.1253 25.2748ZM8.68742 18.7795C7.52527 18.3823 6.56553 17.866 5.90768 17.3027C5.31656 16.7965 5.01811 16.2939 5.01811 15.8861C5.01811 15.0182 6.31197 13.9113 8.4699 13.1589C8.73175 13.0676 9.00583 12.9816 9.29029 12.9008C9.58852 13.8709 9.97974 14.8852 10.4518 15.9109C9.97363 16.9518 9.57684 17.9822 9.27567 18.9637C9.07289 18.9054 8.87646 18.8441 8.68742 18.7795ZM9.83984 10.9351C9.39193 8.646 9.68937 6.91921 10.4379 6.48591C11.2353 6.0243 12.9984 6.68245 14.8567 8.33251C14.9755 8.43797 15.0948 8.54836 15.2143 8.66256C14.5219 9.40608 13.8376 10.2526 13.184 11.175C12.0631 11.2789 10.9902 11.4458 10.0037 11.6693C9.94165 11.4198 9.88671 11.1747 9.83984 10.9351ZM20.1204 13.4736C19.8846 13.0663 19.6425 12.6685 19.3957 12.2817C20.1561 12.3778 20.8847 12.5054 21.5689 12.6616C21.3635 13.3199 21.1074 14.0082 20.8061 14.7138C20.5899 14.3034 20.3612 13.8896 20.1204 13.4736ZM15.928 9.39019C16.3977 9.89896 16.868 10.467 17.3305 11.0833C16.8644 11.0613 16.3925 11.0499 15.9167 11.0499C15.4454 11.0499 14.9769 11.0611 14.5136 11.0827C14.9767 10.4721 15.4511 9.90484 15.928 9.39019ZM11.7088 13.4807C11.4732 13.8891 11.2488 14.3007 11.036 14.7131C10.7395 14.0099 10.4858 13.3185 10.2787 12.6508C10.9587 12.4987 11.6838 12.3742 12.4394 12.2799C12.1891 12.6703 11.945 13.0711 11.7088 13.4807ZM12.4612 19.5649C11.6805 19.4778 10.9444 19.3598 10.2646 19.2118C10.4751 18.5322 10.7343 17.826 11.0371 17.1077C11.2505 17.5197 11.4758 17.9315 11.7128 18.3409C11.9542 18.758 12.2044 19.1665 12.4612 19.5649ZM15.9562 22.4538C15.4736 21.9331 14.9923 21.3571 14.5222 20.7377C14.9785 20.7556 15.4438 20.7647 15.9167 20.7647C16.4025 20.7647 16.8827 20.7538 17.3554 20.7328C16.8913 21.3634 16.4226 21.9402 15.9562 22.4538ZM20.8158 17.0711C21.1343 17.7972 21.4029 18.4997 21.6161 19.1677C20.9251 19.3253 20.179 19.4523 19.3929 19.5466C19.6403 19.1546 19.8845 18.75 20.1245 18.3339C20.3673 17.9129 20.5979 17.4912 20.8158 17.0711ZM19.2426 17.8252C18.87 18.4712 18.4875 19.0879 18.0992 19.6699C17.392 19.7205 16.6614 19.7466 15.9167 19.7466C15.175 19.7466 14.4535 19.7235 13.7588 19.6784C13.3549 19.0887 12.9641 18.4703 12.5939 17.8308C12.2247 17.1931 11.8849 16.55 11.5771 15.9105C11.8849 15.2696 12.2238 14.6257 12.5909 13.9892C12.9589 13.3509 13.3462 12.7356 13.7464 12.1495C14.4552 12.096 15.1821 12.068 15.9166 12.068C16.6545 12.068 17.3823 12.0962 18.0909 12.1502C18.485 12.732 18.8697 13.3455 19.2392 13.9838C19.6129 14.6293 19.9562 15.2688 20.2667 15.8961C19.9572 16.534 19.6146 17.18 19.2426 17.8252ZM21.3429 6.45562C22.141 6.91587 22.4514 8.77204 21.95 11.2061C21.9179 11.3614 21.882 11.5196 21.8428 11.6799C20.854 11.4517 19.7803 11.282 18.6561 11.1765C18.0012 10.2439 17.3226 9.39607 16.6414 8.66209C16.8246 8.48588 17.0074 8.31789 17.1896 8.15936C18.9491 6.62811 20.5936 6.02354 21.3429 6.45562ZM15.9167 13.7579C17.092 13.7579 18.0449 14.7107 18.0449 15.8861C18.0449 17.0615 17.092 18.0143 15.9167 18.0143C14.7413 18.0143 13.7884 17.0615 13.7884 15.8861C13.7884 14.7107 14.7413 13.7579 15.9167 13.7579Z" fill="#00D8FF"/>
</g>
</g>
<defs>
<clipPath id="clip0_1039_2699">
<rect width="23.8333" height="23.8333" fill="white" transform="translate(4 4)"/>
</clipPath>
</defs>
</svg>
