<svg width="31" height="31" viewBox="0 0 31 31" fill="none" xmlns="http://www.w3.org/2000/svg">
<mask id="mask0_1039_2697" style="mask-type:alpha" maskUnits="userSpaceOnUse" x="0" y="0" width="31" height="31">
<rect width="31" height="31" fill="#D9D9D9"/>
</mask>
<g mask="url(#mask0_1039_2697)">
<path d="M8.46867 5.48975H23.3645C25.003 5.48975 26.3437 6.83037 26.3437 8.46891V23.3647C26.3437 25.0033 25.003 26.3439 23.3645 26.3439H8.46867C6.83013 26.3439 5.4895 25.0033 5.4895 23.3647V8.46891C5.4895 6.83037 6.83013 5.48975 8.46867 5.48975Z" fill="black"/>
<path d="M24.4817 15.9167C24.4817 14.725 23.0666 13.7568 20.9812 13.0865C21.5025 10.9266 21.2791 9.21354 20.3109 8.69219C20.0129 8.54323 19.7895 8.46875 19.4916 8.46875C18.5234 8.46875 17.3317 9.13906 16.14 10.3307C14.8739 9.13906 13.6822 8.46875 12.714 8.46875C12.4161 8.46875 12.1181 8.54323 11.8947 8.69219C10.9265 9.21354 10.703 10.9266 11.2244 13.0865C9.13898 13.7568 7.72388 14.725 7.72388 15.9167C7.72388 17.1083 9.13898 18.0766 11.2244 18.7469C10.703 20.9068 10.852 22.6198 11.8947 23.2156C12.1181 23.3646 12.4161 23.4391 12.714 23.4391C13.6822 23.4391 14.8739 22.7687 16.0655 21.5771C17.2572 22.7687 18.5234 23.4391 19.4171 23.4391C19.715 23.4391 20.0129 23.3646 20.2364 23.2156C21.2046 22.6198 21.428 20.9068 20.9067 18.7469C23.0666 18.0766 24.4817 17.0339 24.4817 15.9167ZM19.4916 9.28802C19.6405 9.28802 19.7895 9.28802 19.864 9.3625C20.3109 9.66042 20.5343 10.6286 20.3853 11.8948C20.3109 12.1927 20.3109 12.5651 20.2364 12.863C19.5661 12.7141 18.8213 12.5651 18.0765 12.4906C17.6296 11.8948 17.1827 11.299 16.7359 10.8521C17.7786 9.80937 18.8213 9.28802 19.4916 9.28802ZM18.3744 17.2573C18.151 17.7042 17.853 18.0766 17.6296 18.5234C17.1083 18.5234 16.6614 18.5979 16.14 18.5979C15.6187 18.5979 15.0973 18.5979 14.6504 18.5234C14.3525 18.151 14.1291 17.7042 13.9056 17.2573C13.6822 16.8104 13.4588 16.3635 13.2353 15.9167C13.4588 15.4698 13.6822 15.0229 13.9056 14.576C14.1291 14.1292 14.427 13.6823 14.7249 13.3099C15.1718 13.3099 15.6931 13.2354 16.2145 13.2354C16.7359 13.2354 17.1827 13.2354 17.7041 13.3099C18.002 13.6823 18.2254 14.1292 18.5234 14.576C18.7468 15.0229 18.9702 15.4698 19.1937 15.9167C18.8958 16.3635 18.5978 16.8104 18.3744 17.2573ZM19.4916 16.8849C19.6405 17.3318 19.7895 17.7042 19.9385 18.151C19.4916 18.2255 19.0447 18.3 18.5978 18.3745C18.7468 18.151 18.8958 17.9276 19.0447 17.6297C19.1937 17.4062 19.3426 17.1083 19.4916 16.8849ZM16.0655 20.3854C15.7676 20.0875 15.4697 19.7151 15.1718 19.3427C15.4697 19.3427 15.7676 19.3427 16.0655 19.3427C16.3635 19.3427 16.6614 19.3427 16.9593 19.3427C16.6614 19.7151 16.3635 20.0875 16.0655 20.3854ZM13.5333 18.3745C13.0864 18.3 12.6395 18.2255 12.1926 18.151C12.3416 17.7042 12.4905 17.3318 12.6395 16.8849C12.7885 17.1083 12.9374 17.4062 13.0864 17.6297C13.2353 17.9276 13.3843 18.151 13.5333 18.3745ZM12.714 14.9484C12.565 14.5016 12.4161 14.0547 12.2671 13.6823C12.714 13.6078 13.1609 13.5333 13.6077 13.4589C13.4588 13.6823 13.3098 13.9802 13.1609 14.2036C12.9374 14.4271 12.7885 14.725 12.714 14.9484ZM16.0655 11.4479C16.3635 11.7458 16.6614 12.1182 16.9593 12.4906C16.6614 12.4906 16.3635 12.4906 16.0655 12.4906C15.7676 12.4906 15.4697 12.4906 15.1718 12.4906C15.4697 12.1182 15.7676 11.7458 16.0655 11.4479ZM19.0447 14.2036C18.8958 13.9057 18.7468 13.6823 18.5978 13.4589C19.0447 13.5333 19.4916 13.6078 19.9385 13.6823C19.7895 14.1292 19.6405 14.576 19.4916 14.9484C19.3426 14.725 19.1937 14.4271 19.0447 14.2036ZM11.8202 11.8948C11.6713 10.6286 11.8202 9.66042 12.3416 9.3625C12.4161 9.28802 12.565 9.28802 12.714 9.28802C13.3843 9.28802 14.427 9.80937 15.5442 10.9266C15.0973 11.4479 14.6504 11.9693 14.2036 12.5651C13.4588 12.6396 12.714 12.7885 12.0437 12.9375C11.8947 12.5651 11.8202 12.1927 11.8202 11.8948ZM10.4796 17.5552C9.28794 17.0339 8.54315 16.438 8.54315 15.8422C8.54315 15.3208 9.28794 14.6505 10.4796 14.1292C10.7775 13.9802 11.0754 13.9057 11.4478 13.8312C11.6713 14.5016 11.8947 15.1719 12.1926 15.8422C11.8947 16.5125 11.5968 17.1828 11.4478 17.8531C11.0754 17.8531 10.7775 17.7042 10.4796 17.5552ZM12.3416 22.4708C11.8947 22.1729 11.6713 21.2047 11.8202 19.9385C11.8947 19.6406 11.8947 19.2682 12.0437 18.8958C12.714 19.0448 13.3843 19.1937 14.1291 19.2682C14.576 19.8641 15.0228 20.4599 15.5442 20.9812C14.427 22.024 13.3843 22.6198 12.714 22.6198C12.565 22.5453 12.4161 22.5453 12.3416 22.4708ZM20.3853 19.9385C20.5343 21.2047 20.3853 22.1729 19.864 22.4708C19.7895 22.5453 19.6405 22.5453 19.4916 22.5453C18.8213 22.5453 17.7786 22.024 16.6614 20.9068C17.1083 20.3854 17.6296 19.8641 18.0765 19.1937C18.8213 19.1193 19.5661 19.0448 20.1619 18.8214C20.2364 19.2682 20.3109 19.6406 20.3853 19.9385ZM21.726 17.5552C21.428 17.7042 21.1301 17.7786 20.7577 17.9276C20.5343 17.2573 20.3109 16.587 20.0129 15.9167C20.3109 15.2464 20.6088 14.5016 20.7577 13.9057C21.1301 13.9802 21.428 14.1292 21.726 14.2036C22.9176 14.725 23.6624 15.3208 23.6624 15.9167C23.6624 16.438 22.9176 17.1083 21.726 17.5552Z" fill="#00D8FF"/>
<path d="M16.14 17.4807C17.0337 17.4807 17.7041 16.8104 17.7041 15.9166C17.7041 15.0229 17.0337 14.3525 16.14 14.3525C15.2462 14.3525 14.5759 15.0229 14.5759 15.9166C14.5759 16.8104 15.2462 17.4807 16.14 17.4807Z" fill="#00D8FF"/>
</g>
</svg>
