<svg width="31" height="31" viewBox="0 0 31 31" fill="none" xmlns="http://www.w3.org/2000/svg">
<mask id="mask0_1039_2684" style="mask-type:alpha" maskUnits="userSpaceOnUse" x="0" y="0" width="31" height="31">
<rect width="31" height="31" fill="#D9D9D9"/>
</mask>
<g mask="url(#mask0_1039_2684)">
<g clip-path="url(#clip0_1039_2684)">
<path d="M29.2952 9.74195C29.2952 9.24056 29.1949 8.83945 28.9944 8.43834C28.7938 8.03722 28.493 7.73639 27.9916 7.53584C24.4819 5.53028 20.8719 3.42445 17.3622 1.41889C16.3594 0.817225 15.4569 0.917503 14.5544 1.41889C13.0502 2.22111 6.03078 6.23222 3.92495 7.43556C3.02245 7.93695 2.62134 8.73917 2.62134 9.74195C2.62134 13.8533 2.62134 17.9647 2.62134 22.0761C2.62134 22.5775 2.72162 22.9786 2.92217 23.3797C3.12273 23.7808 3.42356 24.0817 3.92495 24.3825C6.03078 25.5858 13.1505 29.6972 14.5544 30.4994C15.4569 31.1011 16.4597 31.1011 17.3622 30.4994C20.8719 28.4939 24.4819 26.3881 27.9916 24.3825C28.3927 24.0817 28.7938 23.7808 28.9944 23.3797C29.1949 22.9786 29.2952 22.5775 29.2952 22.0761C29.2952 22.0761 29.2952 13.8533 29.2952 9.74195Z" fill="#A9B9CB"/>
<path d="M17.3622 1.31782C16.3594 0.716151 15.4569 0.816428 14.5544 1.31782C13.0502 2.22032 6.03078 6.23143 3.92495 7.43476C3.02245 7.93615 2.62134 8.73837 2.62134 9.74115C2.62134 13.8525 2.62134 17.9639 2.62134 22.0753C2.62134 22.5767 2.72162 22.9778 2.92217 23.3789C3.12273 23.78 3.42356 24.0809 3.92495 24.3817C4.62689 24.7828 5.32884 25.1839 6.03078 25.585L25.4847 6.03087C22.7772 4.52671 20.0697 2.92226 17.3622 1.31782Z" fill="#7F8B99"/>
<path d="M18.7659 14.0533H22.8773C22.8773 12.3486 21.1726 8.03662 16.0584 8.03662C12.8495 8.03662 8.5376 10.0422 8.5376 15.9586C8.5376 21.7747 12.7493 23.68 16.0584 23.68C21.3732 23.68 22.6768 19.9697 22.6768 17.9641L18.6657 17.7636C18.6657 17.7636 18.7659 20.1702 16.0584 20.1702C13.5515 20.1702 13.0501 17.0616 13.0501 15.9586C13.0501 14.3541 13.6518 11.7469 16.0584 11.7469C18.4651 11.7469 18.7659 14.0533 18.7659 14.0533Z" fill="white"/>
</g>
</g>
<defs>
<clipPath id="clip0_1039_2684">
<rect width="30.0833" height="30.0833" fill="white" transform="translate(0.916748 0.916504)"/>
</clipPath>
</defs>
</svg>
