<svg width="31" height="31" viewBox="0 0 31 31" fill="none" xmlns="http://www.w3.org/2000/svg">
<mask id="mask0_1039_2706" style="mask-type:alpha" maskUnits="userSpaceOnUse" x="0" y="0" width="31" height="31">
<rect width="31" height="31" fill="#D9D9D9"/>
</mask>
<g mask="url(#mask0_1039_2706)">
<g clip-path="url(#clip0_1039_2706)">
<path d="M9.77508 4.9165H21.8473C22.4362 4.9165 23.0251 4.99012 23.5404 5.21095C24.3501 5.50539 25.0862 6.02067 25.6015 6.68317C26.1904 7.34567 26.5584 8.15539 26.632 9.03873C26.7056 9.33317 26.7056 9.70123 26.7056 9.99567V21.7734C26.7056 22.1415 26.7056 22.5096 26.632 22.8776C26.4848 23.6873 26.0431 24.4971 25.4542 25.1596C24.8654 25.8221 24.1292 26.2637 23.3195 26.5582C22.8042 26.7054 22.289 26.779 21.7737 26.779C21.5529 26.779 9.62786 26.779 9.48064 26.779C8.67091 26.7054 7.86119 26.4109 7.12508 25.9693C6.38897 25.454 5.80008 24.7915 5.43203 24.0554C5.13758 23.3929 4.91675 22.6568 4.91675 21.9207V9.77484C4.91675 9.03873 5.06397 8.30261 5.35841 7.71373C5.72647 6.97761 6.31536 6.2415 6.97786 5.79984C7.71397 5.28456 8.52369 4.99012 9.40703 4.99012C9.62786 4.9165 9.70147 4.9165 9.77508 4.9165Z" fill="url(#paint0_linear_1039_2706)"/>
<path d="M23.3931 22.804C23.3195 22.6568 23.2459 22.5832 23.1723 22.4359C22.9515 22.2151 22.7306 21.9943 22.4362 21.7734C22.0681 21.5526 21.7001 21.4054 21.2584 21.4054C20.964 21.4054 20.6695 21.4054 20.3751 21.5526C20.0806 21.6262 19.8598 21.7734 19.5654 21.9207C19.2709 22.0679 18.9765 22.2151 18.682 22.3623C18.314 22.5096 17.9459 22.6568 17.5042 22.7304C16.989 22.804 16.4737 22.8776 15.9584 22.8776C15.0751 22.8776 14.1181 22.7304 13.2348 22.4359C12.4987 22.2151 11.7626 21.9207 11.0265 21.479C10.4376 21.1109 9.84869 20.7429 9.33341 20.3012C8.89175 19.9332 8.52369 19.4915 8.15564 19.1234C7.9348 18.829 7.64036 18.5346 7.41953 18.1665C7.34591 18.0193 7.2723 17.8721 7.19869 17.7984L4.91675 15.2957V9.77484C4.91675 7.05123 7.12508 4.9165 9.77508 4.9165H14.1181L17.2834 8.15539C24.4973 13.0873 22.1417 18.4609 22.1417 18.4609C22.1417 18.4609 24.2029 20.7429 23.3931 22.804Z" fill="url(#paint1_linear_1039_2706)"/>
<path d="M17.2835 8.15625C24.4973 13.0882 22.1418 18.4618 22.1418 18.4618C22.1418 18.4618 24.2029 20.7437 23.3932 22.8049C23.3932 22.8049 22.5835 21.4062 21.1112 21.4062C19.7126 21.4062 18.9765 22.8049 16.1793 22.8049C10.0696 22.8049 7.19873 17.7257 7.19873 17.7257C12.7196 21.3326 16.4737 18.7562 16.4737 18.7562C13.971 17.284 8.67095 10.4382 8.67095 10.4382C13.3085 14.3396 15.296 15.3701 15.296 15.3701C14.1182 14.4132 10.8057 9.55486 10.8057 9.55486C13.4557 12.2785 18.7557 16.0326 18.7557 16.0326C20.2279 11.9104 17.2835 8.15625 17.2835 8.15625Z" fill="white"/>
</g>
</g>
<defs>
<linearGradient id="paint0_linear_1039_2706" x1="17.9118" y1="4.1588" x2="13.782" y2="27.5756" gradientUnits="userSpaceOnUse">
<stop stop-color="#FAAE42"/>
<stop offset="1" stop-color="#EF3E31"/>
</linearGradient>
<linearGradient id="paint1_linear_1039_2706" x1="16.0865" y1="5.27156" x2="13.063" y2="22.4199" gradientUnits="userSpaceOnUse">
<stop stop-color="#E39F3A"/>
<stop offset="1" stop-color="#D33929"/>
</linearGradient>
<clipPath id="clip0_1039_2706">
<rect width="22.0833" height="22.0833" fill="white" transform="translate(4.91675 4.9165)"/>
</clipPath>
</defs>
</svg>
