<svg width="31" height="31" viewBox="0 0 31 31" fill="none" xmlns="http://www.w3.org/2000/svg">
<mask id="mask0_1039_2670" style="mask-type:alpha" maskUnits="userSpaceOnUse" x="0" y="0" width="31" height="31">
<rect width="31" height="31" fill="#D9D9D9"/>
</mask>
<g mask="url(#mask0_1039_2670)">
<g clip-path="url(#clip0_1039_2670)">
<path d="M2.09575 13.7017C2.04862 13.7017 2.00148 13.6545 2.04862 13.6074L2.37856 13.2303C2.4257 13.1831 2.47284 13.136 2.51997 13.136H7.752C7.79911 13.136 7.84627 13.1831 7.79916 13.2303L7.56346 13.6074C7.5163 13.6545 7.46919 13.7017 7.42208 13.7017H2.09575ZM-0.119613 15.0686C-0.166748 15.0686 -0.166748 15.0215 -0.166748 14.9743L0.1632 14.5972C0.1632 14.5501 0.257471 14.5029 0.304606 14.5029H6.99783C7.045 14.5029 7.09211 14.5501 7.09211 14.5972L6.99783 14.9272C6.99783 14.9743 6.90356 15.0215 6.85645 15.0215L-0.119613 15.0686ZM3.46268 16.3884C3.41554 16.3884 3.36841 16.3412 3.41554 16.2941L3.60409 15.9642C3.65122 15.917 3.69836 15.8699 3.74549 15.8699H6.66791C6.71502 15.8699 6.76213 15.917 6.76213 15.9642L6.71502 16.2941C6.71502 16.3412 6.66791 16.3884 6.62075 16.3884H3.46268ZM18.6874 13.4188L16.2364 14.0787C16.0007 14.1259 16.0007 14.173 15.8122 13.9373C15.5765 13.7017 15.4351 13.5131 15.1051 13.3717C14.1624 12.9003 13.2669 13.0418 12.4655 13.6074C11.4757 14.2673 10.9572 15.21 10.9572 16.3884C10.9572 17.5668 11.7585 18.5095 12.9369 18.698C13.9267 18.8394 14.7752 18.4623 15.435 17.7081C15.5765 17.5668 15.6708 17.3782 15.8122 17.1425H12.984C12.6541 17.1425 12.6069 16.954 12.7012 16.7183C12.8898 16.247 13.2669 15.4928 13.4554 15.1157C13.5025 15.0215 13.5968 14.88 13.8325 14.88H19.1588C19.1117 15.2571 19.1117 15.6813 19.0645 16.0584C18.9231 17.0954 18.4989 18.0852 17.839 18.9337C16.802 20.3477 15.3879 21.1962 13.644 21.4319C12.1827 21.6204 10.8629 21.3376 9.68458 20.442C8.60044 19.6407 7.9877 18.5095 7.79916 17.1897C7.61062 15.5871 8.08192 14.173 9.02463 12.9003C10.0617 11.5334 11.4286 10.685 13.1254 10.355C14.4923 10.1194 15.8121 10.2608 17.0377 11.0621C17.839 11.5805 18.3575 12.2876 18.7346 13.136C18.9231 13.3246 18.876 13.3717 18.6874 13.4188Z" fill="#00ACD7"/>
<path d="M23.5422 21.5734C22.2224 21.5263 20.9969 21.1492 19.9599 20.3007C19.1115 19.5466 18.5458 18.6039 18.3573 17.4726C18.0745 15.8229 18.5458 14.3617 19.5357 13.0419C20.6198 11.6278 21.8925 10.9208 23.6365 10.5908C25.1448 10.308 26.5589 10.4966 27.8315 11.345C29.0099 12.1463 29.717 13.2304 29.9055 14.5973C30.1411 16.577 29.5755 18.1796 28.2086 19.5937C27.2188 20.5836 26.0404 21.1963 24.6735 21.4791C24.3435 21.4791 23.9193 21.5263 23.5422 21.5734ZM27.0303 15.6343C27.0303 15.4458 27.0302 15.3044 26.9831 15.163C26.7003 13.7018 25.3805 12.9005 23.9664 13.2304C22.5995 13.5604 21.7039 14.4088 21.374 15.7757C21.0912 16.907 21.6568 18.0854 22.7409 18.5567C23.5422 18.8867 24.3435 18.8867 25.1448 18.4624C26.3232 17.8025 26.9831 16.8598 27.0303 15.6343Z" fill="#00ACD7"/>
</g>
</g>
<defs>
<clipPath id="clip0_1039_2670">
<rect width="30.1667" height="30.1667" fill="white" transform="translate(-0.166748 0.833496)"/>
</clipPath>
</defs>
</svg>
