<svg width="31" height="31" viewBox="0 0 31 31" fill="none" xmlns="http://www.w3.org/2000/svg">
<mask id="mask0_1039_2678" style="mask-type:alpha" maskUnits="userSpaceOnUse" x="0" y="0" width="31" height="31">
<rect width="31" height="31" fill="#D9D9D9"/>
</mask>
<g mask="url(#mask0_1039_2678)">
<g clip-path="url(#clip0_1039_2678)">
<mask id="mask1_1039_2678" style="mask-type:luminance" maskUnits="userSpaceOnUse" x="4" y="4" width="24" height="24">
<path d="M27.0516 4H4V27.8333H27.0516V4Z" fill="white"/>
</mask>
<g mask="url(#mask1_1039_2678)">
<path d="M26.9976 9.43752C27.0062 9.4691 27.0105 9.50167 27.0106 9.5344V14.619C27.0106 14.6843 26.9934 14.7484 26.9607 14.8049C26.9279 14.8613 26.8809 14.9081 26.8243 14.9406L22.5567 17.3977V22.2678C22.5567 22.4003 22.4862 22.5226 22.3713 22.5894L13.463 27.7176C13.4426 27.7291 13.4204 27.7366 13.3981 27.7444C13.3898 27.7472 13.3819 27.7523 13.3731 27.7546C13.3108 27.771 13.2454 27.771 13.1831 27.7546C13.1729 27.7518 13.1636 27.7463 13.1539 27.7426C13.1335 27.7352 13.1122 27.7287 13.0927 27.7176L4.18629 22.5894C4.12971 22.5569 4.0827 22.51 4.05 22.4535C4.01729 22.3971 4.00004 22.333 4 22.2678V7.01385C4 6.98048 4.00463 6.94804 4.01298 6.91653C4.01576 6.90587 4.02224 6.89614 4.02595 6.88548C4.0329 6.86602 4.03939 6.84609 4.04959 6.82802C4.05654 6.81597 4.06673 6.80624 4.07507 6.79512C4.08573 6.78029 4.09546 6.76499 4.10798 6.75202C4.11864 6.74136 4.13254 6.73348 4.14459 6.72421C4.15803 6.71309 4.17007 6.70104 4.18537 6.69224H4.18583L8.63928 4.12814C8.69568 4.09569 8.7596 4.07861 8.82466 4.07861C8.88973 4.07861 8.95364 4.09569 9.01001 4.12814L13.4635 6.69224H13.4644C13.4792 6.70151 13.4917 6.71309 13.5052 6.72375C13.5172 6.73302 13.5307 6.74136 13.5413 6.75155C13.5543 6.76499 13.5636 6.78029 13.5747 6.79512C13.5826 6.80624 13.5932 6.81597 13.5997 6.82802C13.6104 6.84656 13.6164 6.86602 13.6238 6.88548C13.6275 6.89614 13.634 6.90587 13.6368 6.917C13.6453 6.94857 13.6497 6.98113 13.6498 7.01385V16.5413L17.3608 14.4045V9.53393C17.3608 9.50147 17.3655 9.46858 17.3738 9.43752C17.3771 9.4264 17.3831 9.41667 17.3868 9.40602C17.3942 9.38656 17.4007 9.36662 17.4109 9.34854C17.4178 9.33651 17.428 9.32678 17.4359 9.31565C17.447 9.30084 17.4563 9.28554 17.4693 9.27256C17.4799 9.26191 17.4934 9.254 17.5054 9.24475C17.5193 9.23363 17.5314 9.22159 17.5462 9.21277H17.5467L22.0006 6.64868C22.057 6.61618 22.1209 6.59908 22.1859 6.59908C22.251 6.59908 22.315 6.61618 22.3713 6.64868L26.8248 9.21277C26.8405 9.22203 26.8526 9.23363 26.8665 9.24427C26.8781 9.25357 26.8915 9.26191 26.9022 9.27208C26.9152 9.28554 26.9244 9.30084 26.9355 9.31565C26.9439 9.32678 26.9541 9.33651 26.9606 9.34854C26.9712 9.36662 26.9772 9.38656 26.9847 9.40602C26.9888 9.41667 26.9948 9.4264 26.9976 9.43752ZM26.2682 14.4045V10.1762L24.7097 11.0734L22.5567 12.3131V16.5413L26.2687 14.4045H26.2682ZM21.8147 22.0532V17.8222L19.6969 19.0317L13.6493 22.4833V26.7541L21.8147 22.0532ZM4.7424 7.65569V22.0532L12.9069 26.7536V22.4837L8.64162 20.0698L8.64023 20.0688L8.63836 20.0679C8.62398 20.0596 8.61195 20.0475 8.59852 20.0373C8.58692 20.0281 8.5735 20.0206 8.56329 20.0104L8.56238 20.009C8.5503 19.9975 8.54196 19.9831 8.53179 19.9701C8.52249 19.9576 8.51137 19.9469 8.50398 19.934L8.50351 19.9326C8.49517 19.9187 8.49008 19.902 8.48404 19.8863C8.47801 19.8723 8.47014 19.8594 8.46645 19.8445V19.8441C8.4618 19.8265 8.46089 19.8079 8.45902 19.7898C8.45715 19.7759 8.45346 19.762 8.45346 19.7481V9.79252L6.30087 8.55239L4.7424 7.65615V7.65569ZM8.82514 4.87795L5.11452 7.01385L8.82418 9.14973L12.5343 7.01339L8.82418 4.87795H8.82514ZM10.7548 18.2078L12.9074 16.9685V7.65569L11.3489 8.55287L9.19587 9.79252V19.1054L10.7548 18.2078ZM22.1859 7.39849L18.4758 9.5344L22.1859 11.6703L25.8956 9.53393L22.1859 7.39849ZM21.8147 12.3131L19.6617 11.0734L18.1032 10.1762V14.4045L20.2558 15.6436L21.8147 16.5413V12.3131ZM13.2776 21.8414L18.7196 18.7346L21.4398 17.1822L17.7325 15.0477L13.4639 17.5052L9.57354 19.7449L13.2776 21.8414Z" fill="#FF2D20"/>
</g>
</g>
</g>
<defs>
<clipPath id="clip0_1039_2678">
<rect width="23.4361" height="23.8333" fill="white" transform="translate(4 4)"/>
</clipPath>
</defs>
</svg>
