<svg width="50" height="50" viewBox="0 0 50 50" fill="none" xmlns="http://www.w3.org/2000/svg">
<circle cx="25" cy="24.6577" r="24" stroke="white" stroke-opacity="0.18"/>
<path d="M26.0017 20.6577C28.211 20.6577 30.0017 22.4485 30.0017 24.6577C30.0017 26.867 28.211 28.6577 26.0017 28.6577C23.7925 28.6577 22.0017 26.867 22.0017 24.6577C22.0017 22.4485 23.7925 20.6577 26.0017 20.6577Z" fill="white"/>
<path d="M25.9305 31.3614C27.6751 31.3614 29.2642 30.7593 30.4694 29.6677L31.3052 28.9139L35.0909 32.6634L34.1919 33.5103C32.0293 35.5368 29.0844 36.6577 25.9305 36.6577C19.1367 36.6577 14 31.4544 14 24.5818C14 17.6799 19.02 12.6577 25.9305 12.6577C29.0261 12.6577 31.9419 13.7738 34.1336 15.7709L35.0666 16.6177L31.3393 20.3722L30.4985 19.6477C29.2642 18.5561 27.6459 17.9834 25.9305 17.9834C21.999 17.9834 19.263 20.705 19.263 24.6112C19.263 28.5174 22.0865 31.3614 25.9305 31.3614Z" fill="white"/>
</svg>
