<svg width="62" height="62" viewBox="0 0 62 62" fill="none" xmlns="http://www.w3.org/2000/svg">
<g clip-path="url(#clip0_1457_32611)">
<path fill-rule="evenodd" clip-rule="evenodd" d="M38.3974 12.4012C37.3749 12.4012 36.5471 11.5955 36.5471 10.6004C36.5471 9.60518 37.3749 8.80319 38.3974 8.80319C39.4199 8.80319 40.2477 9.60518 40.2477 10.6004C40.2477 11.5955 39.4199 12.4012 38.3974 12.4012ZM23.6026 12.4012C22.5801 12.4012 21.7523 11.5955 21.7523 10.6004C21.7523 9.60518 22.5801 8.80319 23.6026 8.80319C24.6251 8.80319 25.4529 9.60518 25.4529 10.6004C25.4529 11.5955 24.6251 12.4012 23.6026 12.4012ZM39.4911 5.19064L40.1803 4.17727L40.8694 3.1784L42.4051 0.932888C42.5961 0.65584 42.5174 0.283977 42.2328 0.101709C41.9519 -0.0842049 41.5661 -0.00765332 41.3826 0.269395L39.0379 3.68509L38.3337 4.71313C36.1051 3.87105 33.6219 3.4008 31 3.4008C28.3819 3.4008 25.8949 3.87105 23.6663 4.71313L22.9659 3.68509L22.273 2.67534L20.6249 0.269395C20.4339 -0.00765332 20.0519 -0.0805599 19.7672 0.101709C19.4863 0.283977 19.4076 0.65584 19.5949 0.932888L21.1306 3.1784L21.8197 4.17727L22.5127 5.19064C17.2802 7.56377 13.7407 12.0585 13.7407 17.2021H48.2593C48.2593 12.0585 44.7198 7.56377 39.4911 5.19064ZM14.0066 19.6008H13.7407V46.0005C13.7407 48.0966 15.4898 49.8027 17.6472 49.8027H20.4639C20.3665 50.1198 20.3141 50.4515 20.3141 50.8014V58.402C20.3141 60.3888 21.9733 62 24.0146 62C26.0559 62 27.7152 60.3888 27.7152 58.402V50.8014C27.7152 50.4515 27.659 50.1198 27.5654 49.8027H34.4346C34.341 50.1198 34.2886 50.4515 34.2886 50.8014V58.402C34.2886 60.3888 35.9441 62 37.9854 62C40.0305 62 41.6897 60.3888 41.6897 58.402V50.8014C41.6897 50.4515 41.6335 50.1198 41.5361 49.8027H44.3565C46.5139 49.8027 48.2593 48.0966 48.2593 46.0005V19.6008H14.0066ZM7.57557 19.6008C5.53052 19.6008 3.875 21.212 3.875 23.1988V38.6004C3.875 40.5871 5.53052 42.1984 7.57557 42.1984C9.61688 42.1984 11.2724 40.5871 11.2724 38.6004V23.1988C11.2724 21.212 9.61688 19.6008 7.57557 19.6008ZM54.4282 19.6008C52.3831 19.6008 50.7276 21.212 50.7276 23.1988V38.6004C50.7276 40.5871 52.3831 42.1984 54.4282 42.1984C56.4695 42.1984 58.125 40.5871 58.125 38.6004V23.1988C58.125 21.212 56.4695 19.6008 54.4282 19.6008Z" fill="#95CF00"/>
</g>
<defs>
<clipPath id="clip0_1457_32611">
<rect width="62" height="62" fill="white"/>
</clipPath>
</defs>
</svg>
