<svg width="62" height="62" viewBox="0 0 62 62" fill="none" xmlns="http://www.w3.org/2000/svg">
<path d="M17.4842 29.7875C17.4842 30.5509 17.5617 31.1709 17.709 31.6281C17.8717 32.0815 18.081 32.5775 18.3677 33.1161C18.4592 33.2584 18.5089 33.4236 18.5111 33.5928C18.5111 33.7981 18.3871 34.0074 18.1236 34.2128L16.8216 35.0808C16.6653 35.1936 16.4794 35.2583 16.2869 35.2668C16.0776 35.2668 15.8722 35.166 15.6669 34.98C15.3884 34.6803 15.1392 34.3546 14.9229 34.0074C14.6923 33.6099 14.479 33.2026 14.2835 32.7868C12.6754 34.6894 10.6565 35.6426 8.22299 35.6426C6.49087 35.6426 5.10749 35.1428 4.09999 34.1508C3.08862 33.1588 2.57324 31.8335 2.57324 30.1789C2.57324 28.4196 3.19324 26.9936 4.44874 25.9164C5.70812 24.8391 7.37824 24.3044 9.50174 24.3044C10.1992 24.3044 10.9239 24.3664 11.6872 24.4671C12.4506 24.5718 13.2372 24.7384 14.0587 24.9244V23.4131C14.0587 21.8399 13.7294 20.7433 13.09 20.1039C12.4312 19.4606 11.3152 19.1506 9.72649 19.1506C9.00574 19.1506 8.26562 19.2359 7.50224 19.4219C6.7438 19.6024 5.9992 19.8368 5.27412 20.1233C5.04002 20.2293 4.79926 20.3199 4.55337 20.3945C4.44682 20.4297 4.33605 20.4506 4.22399 20.4565C3.93337 20.4565 3.78999 20.2473 3.78999 19.8133V18.798C3.78999 18.4686 3.82874 18.2168 3.93337 18.0773C4.08952 17.8871 4.28879 17.737 4.51462 17.6394C5.23149 17.2674 6.09949 16.9574 7.11087 16.7094C8.11837 16.4381 9.19174 16.318 10.3271 16.318C12.78 16.318 14.5741 16.876 15.7289 17.992C16.8642 19.108 17.4416 20.8053 17.4416 23.0838V29.7875H17.4804H17.4842ZM9.11037 32.9301C9.78849 32.9301 10.4899 32.8061 11.2339 32.5581C11.974 32.3101 12.6366 31.8529 13.1907 31.2329C13.523 30.8522 13.763 30.4 13.8921 29.9115C14.0161 29.4116 14.1014 28.8149 14.1014 28.1096V27.2416C13.4755 27.0899 12.8416 26.9734 12.2026 26.8929C11.5601 26.8098 10.913 26.7671 10.2651 26.765C8.88174 26.765 7.87037 27.0363 7.19224 27.5943C6.51024 28.1523 6.18474 28.9389 6.18474 29.9735C6.18474 30.9423 6.42887 31.6669 6.94424 32.1668C7.44024 32.6821 8.16099 32.9301 9.11037 32.9301ZM25.6682 35.166C25.2962 35.166 25.0482 35.104 24.8855 34.9568C24.7189 34.8328 24.5755 34.546 24.4515 34.1508L19.6077 18.1586C19.5122 17.8906 19.4485 17.6123 19.4179 17.3294C19.4179 17 19.5845 16.814 19.9139 16.814H21.9366C22.3241 16.814 22.5954 16.876 22.7387 17.0194C22.9054 17.1434 23.0294 17.434 23.1534 17.8254L26.6176 31.5235L29.8339 17.8254C29.9346 17.4146 30.0586 17.1434 30.2214 17.0194C30.47 16.8671 30.7596 16.7954 31.0506 16.814H32.6975C33.0927 16.814 33.3562 16.876 33.5229 17.0194C33.6895 17.1434 33.8329 17.434 33.9142 17.8254L37.1731 31.6901L40.7381 17.8254C40.8042 17.5254 40.9471 17.2476 41.1527 17.0194C41.3929 16.8672 41.6751 16.7953 41.9587 16.814H43.8769C44.2062 16.814 44.3923 16.9806 44.3923 17.3294C44.3923 17.434 44.369 17.5386 44.3535 17.6626C44.3202 17.8386 44.2709 18.0111 44.2062 18.178L39.2346 34.1701C39.1106 34.5848 38.9672 34.856 38.8045 34.98C38.5705 35.1297 38.2952 35.2016 38.0179 35.1854H36.247C35.8556 35.1854 35.5882 35.1234 35.4216 34.98C35.255 34.8328 35.1116 34.5654 35.0302 34.1508L31.8334 20.8091L28.6559 34.1353C28.5551 34.5499 28.4311 34.8173 28.2684 34.9606C28.1017 35.1079 27.8111 35.1699 27.443 35.1699H25.6682V35.166ZM52.1655 35.724C51.0954 35.7254 50.0288 35.6006 48.988 35.352C47.9573 35.104 47.1551 34.8328 46.6165 34.5228C46.2871 34.3368 46.0624 34.1314 45.9771 33.9415C45.8984 33.7592 45.8575 33.5628 45.857 33.3641V32.3101C45.857 31.8761 46.0198 31.6669 46.3298 31.6669C46.4563 31.6672 46.582 31.6881 46.7017 31.7289C46.8257 31.7715 47.0117 31.8529 47.2171 31.9381C47.9146 32.2481 48.6819 32.4961 49.484 32.6628C50.3094 32.8255 51.1115 32.9108 51.9369 32.9108C53.2389 32.9108 54.2464 32.6821 54.9478 32.2288C55.2847 32.0248 55.5615 31.7352 55.7501 31.3894C55.9386 31.0436 56.0322 30.654 56.0211 30.2603C56.0281 29.9944 55.9824 29.7299 55.8866 29.4818C55.7908 29.2337 55.6469 29.0071 55.4631 28.8149C55.095 28.4196 54.3936 28.067 53.3823 27.7376L50.3907 26.8076C48.8872 26.331 47.7712 25.6258 47.0931 24.6958C46.4293 23.8365 46.067 22.7824 46.0624 21.6965C46.0624 20.8285 46.2484 20.0613 46.6165 19.3986C46.9885 18.7399 47.4845 18.1586 48.1045 17.7014C48.7245 17.2286 49.422 16.876 50.2474 16.628C51.0727 16.38 51.9369 16.2754 52.8436 16.2754C53.3009 16.2754 53.7736 16.2948 54.227 16.3568C54.6997 16.4188 55.1338 16.504 55.5678 16.5893C55.9785 16.69 56.3737 16.7908 56.7419 16.9186C57.1139 17.0426 57.4006 17.1666 57.6099 17.2906C57.8532 17.4128 58.0653 17.5891 58.2299 17.806C58.3625 18.0078 58.4264 18.247 58.412 18.488V19.4606C58.412 19.8946 58.2492 20.1233 57.9392 20.1233C57.6648 20.0919 57.399 20.0077 57.1565 19.8753C55.9104 19.3228 54.5591 19.0478 53.1962 19.0693C52.0221 19.0693 51.0921 19.2553 50.4527 19.6505C49.8134 20.038 49.484 20.6425 49.484 21.4911C49.484 22.0685 49.6894 22.5645 50.104 22.9598C50.5148 23.3511 51.2781 23.7425 52.3709 24.0951L55.3004 25.0251C56.7845 25.5018 57.8579 26.1644 58.4972 27.013C59.1366 27.8616 59.4428 28.8343 59.4428 29.9115C59.4428 30.8028 59.2606 31.6049 58.908 32.3101C58.5429 33.0178 58.0302 33.6389 57.4045 34.1314C56.7651 34.6468 56.0017 35.0226 55.1144 35.29C54.1844 35.5806 53.2156 35.724 52.1655 35.724Z" fill="#252F3E"/>
<path fill-rule="evenodd" clip-rule="evenodd" d="M56.0516 45.7762C49.2704 50.8021 39.4124 53.472 30.9377 53.472C19.0609 53.472 8.3581 49.0661 0.274855 41.7424C-0.36452 41.1611 0.212855 40.3745 0.972355 40.8317C9.71823 45.9196 20.5024 49.0041 31.6624 49.0041C39.1837 49.0041 47.453 47.4309 55.0635 44.203C56.1989 43.6876 57.1676 44.947 56.0516 45.7762Z" fill="#FF9900"/>
<path fill-rule="evenodd" clip-rule="evenodd" d="M58.8706 42.5485C58.0065 41.4364 53.1395 42.0138 50.9346 42.2812C50.2758 42.3664 50.1712 41.7852 50.768 41.3512C54.643 38.6193 61.0173 39.4059 61.7575 40.3165C62.5015 41.2465 61.5521 47.6403 57.9212 50.7015C57.3671 51.1782 56.8323 50.934 57.0765 50.314C57.9018 48.2603 59.7386 43.649 58.8706 42.5524V42.5485Z" fill="#FF9900"/>
</svg>
