<svg width="62" height="62" viewBox="0 0 62 62" fill="none" xmlns="http://www.w3.org/2000/svg">
<path d="M39.0014 61.893H39.754L52.0384 55.75L52.2428 55.461V6.42826L52.0384 6.13779L39.754 0H38.9922L39.0014 61.893Z" fill="#5294CF"/>
<path d="M23.0091 61.893H22.246L9.97211 55.75L9.72304 55.3216L9.59668 6.67798L9.97211 6.13779L22.246 0H23.0185L23.0091 61.893Z" fill="#1F5B98"/>
<path d="M22.2656 0H39.7342V61.893H22.2656V0Z" fill="#2D72B8"/>
<path d="M58.4624 29.5559L58.0473 29.4639L52.1202 28.9112L52.0322 28.955L39.7369 28.4633H22.2675L9.97197 28.955V19.579L9.9591 19.5859L9.97197 19.5584L22.2675 16.7094H39.7369L52.0322 19.5584L56.5522 21.961V20.4164L58.4624 20.2074L58.2646 19.8217L52.2165 15.4969L52.0322 15.5568L39.7369 11.7469H22.2675L9.97197 15.5568V6.1377L3.54199 13.6706V20.2495L3.59176 20.2134L5.45219 20.4164V21.9927L3.54199 23.015V29.561L3.59176 29.5559L5.45219 29.5833V32.3309L3.84706 32.3549L3.54199 32.3257V38.8743L5.45219 39.9015V41.4961L3.62201 41.6982L3.54199 41.6382V48.216L9.97197 55.7499V46.3317L22.2675 50.1416H39.7369L52.0685 46.3206L52.2324 46.3924L58.2009 42.1314L58.4624 41.7068L56.5522 41.4961V39.9335L56.3018 39.8335L52.2165 42.0357L52.0685 42.3446L39.7369 45.1771V45.1805H22.2675V45.1771L9.97197 42.3326V32.9223L22.2675 33.4123V33.4243H39.7369L52.0322 32.9223L52.3122 33.0511L58.0572 32.5563L58.4624 32.3583L56.5522 32.3309V29.5833L58.4624 29.5559Z" fill="#1A476F"/>
<path d="M52.04 46.3313V55.7495L58.4702 48.2155V41.6807L52.0772 46.3202L52.04 46.3313Z" fill="#2D72B8"/>
<path d="M52.04 42.3534L52.0772 42.3448L58.4702 38.9063V32.3311L52.04 32.9225V42.3534Z" fill="#2D72B8"/>
<path d="M52.0772 19.5672L52.04 19.5586V28.9551L58.4702 29.556V22.984L52.0772 19.5672Z" fill="#2D72B8"/>
<path d="M52.0772 15.5937L58.4702 20.2074V13.6723L52.04 6.1377V15.5568L52.0772 15.5696V15.5937Z" fill="#2D72B8"/>
</svg>
