<svg width="62" height="62" viewBox="0 0 62 62" fill="none" xmlns="http://www.w3.org/2000/svg">
<path d="M28.9402 48.0965L41.9137 45.8025L42.0338 45.7754L35.3611 37.8355C33.1233 35.1875 30.8977 32.5292 28.6844 29.8607C28.6844 29.822 35.5781 10.8384 35.6168 10.7725C39.4308 17.302 43.2206 23.8456 46.9861 30.4033L58.4173 50.2239L58.5065 50.375L16.0829 50.3711L28.9402 48.0965ZM3.48145 45.6785C3.48145 45.6669 6.62407 40.207 10.4681 33.5459L17.4586 21.4288L25.6038 14.5933C30.0833 10.8384 33.7607 7.75 33.7723 7.75C33.7434 7.86464 33.7005 7.97528 33.6444 8.07938L24.7939 27.0514L16.1139 45.6824L9.7977 45.6901C6.32182 45.694 3.48145 45.6901 3.48145 45.6785Z" fill="#0089D6"/>
</svg>
