<svg width="62" height="62" viewBox="0 0 62 62" fill="none" xmlns="http://www.w3.org/2000/svg">
<path d="M37.2556 16.0695C31.6936 16.0695 26.2116 18.4573 22.0263 23.1519V0.000976562H13.7441V38.977C13.7441 38.9779 13.7441 38.9789 13.7441 38.98C13.7441 51.6329 24.0014 61.8901 36.6545 61.8901C49.3074 61.8901 59.5648 51.6329 59.5648 38.98C59.5648 26.327 49.9085 16.0695 37.2556 16.0695ZM36.6545 53.066C28.8748 53.066 22.5682 46.7593 22.5682 38.9798C22.5682 31.2002 28.8748 24.8935 36.6545 24.8935C44.434 24.8935 50.7406 31.2002 50.7406 38.9798C50.7406 46.7594 44.434 53.066 36.6545 53.066Z" fill="#262626"/>
<path d="M7.72394 50.5591C4.59497 50.5591 2.05859 53.0956 2.05859 56.2244C2.05859 59.3532 4.59497 61.8898 7.72394 61.8898C10.8529 61.8898 13.3893 59.3532 13.3893 56.2244C13.3893 53.0956 10.8529 50.5591 7.72394 50.5591Z" fill="#0000FF"/>
</svg>
