<svg width="62" height="62" viewBox="0 0 62 62" fill="none" xmlns="http://www.w3.org/2000/svg">
<path d="M55.3687 18.6722C55.3712 21.0307 54.846 23.359 53.8308 25.4867C52.8156 27.6145 51.3364 29.4881 49.5023 30.9689L7.32028 7.01561C7.15919 6.92332 7.00984 6.81257 6.87476 6.6842C6.66332 6.47696 6.49552 6.22945 6.38057 5.95677C6.26563 5.68324 6.20605 5.38958 6.20605 5.09341C6.20605 4.5019 6.44098 3.93472 6.85882 3.51688C7.27665 3.09821 7.84383 2.86328 8.43534 2.86328H39.5674C43.7583 2.86328 47.7772 4.52875 50.7407 7.49386C53.7041 10.4581 55.3687 14.4796 55.3687 18.6722Z" fill="#18B4F4"/>
<path d="M55.375 43.2647C55.3758 45.3413 54.9672 47.3978 54.1735 49.3158C53.3798 51.2346 52.2161 52.9781 50.7486 54.4464C49.2812 55.9147 47.5385 57.0793 45.6213 57.8738C43.7042 58.6692 41.6486 59.0778 39.5737 59.0778H8.44164C8.00031 59.0728 7.57073 58.9377 7.2066 58.6885C6.8433 58.4393 6.56055 58.0878 6.39694 57.6783C6.23249 57.2689 6.19305 56.82 6.28451 56.3879C6.37512 55.9566 6.59159 55.5615 6.90706 55.2527C7.03292 55.1269 7.17387 55.0169 7.32658 54.9255L23.9275 45.499L49.5052 30.9722C51.3385 32.453 52.8177 34.3258 53.8337 36.4527C54.8498 38.5796 55.3758 40.9079 55.375 43.2647Z" fill="#FD6B3C"/>
<path d="M49.5067 30.9693L23.9256 45.4995L7.32553 54.926C7.16611 55.0149 7.01845 55.1232 6.88672 55.2498C13.2163 48.755 16.7553 40.04 16.7478 30.9693C16.7595 21.8969 13.2214 13.1803 6.89007 6.68457C7.02516 6.81294 7.1745 6.92369 7.33644 7.01599L49.5067 30.9693Z" fill="#A97FF2"/>
</svg>
