<svg width="62" height="62" viewBox="0 0 62 62" fill="none" xmlns="http://www.w3.org/2000/svg">
<path d="M57.4385 46.2727C57.8645 45.5348 58.1292 44.7035 58.1292 43.9569V18.0417C58.1292 17.2952 57.8649 16.464 57.4387 15.7261L30.9844 30.9994L57.4385 46.2727Z" fill="#00599C"/>
<path d="M33.346 60.9867L55.7893 48.0292C56.4358 47.6559 57.0234 47.0114 57.4493 46.2733L30.9952 31L4.54102 46.2735C4.96699 47.0114 5.55478 47.6561 6.20111 48.0292L28.6444 60.9867C29.9372 61.7333 32.0531 61.7333 33.346 60.9867Z" fill="#004482"/>
<path d="M57.4439 15.7265C57.0178 14.9884 56.43 14.3438 55.7837 13.9706L33.3404 1.01305C32.0475 0.266482 29.9316 0.266482 28.6388 1.01305L6.19551 13.9706C4.90249 14.7169 3.84473 16.5493 3.84473 18.0423V43.9575C3.84473 44.704 4.10926 45.5354 4.53541 46.2733L30.9896 31L57.4439 15.7265Z" fill="#659AD2"/>
<path d="M30.9931 49.0965C21.0146 49.0965 12.8965 40.9784 12.8965 30.9999C12.8965 21.0214 21.0146 12.9033 30.9931 12.9033C37.4319 12.9033 43.4369 16.3683 46.6645 21.9459L38.8328 26.4779C37.2174 23.686 34.2132 21.9516 30.9931 21.9516C26.0037 21.9516 21.9448 26.0106 21.9448 30.9999C21.9448 35.989 26.0037 40.0482 30.9931 40.0482C34.2135 40.0482 37.2177 38.3137 38.8333 35.5214L46.665 40.0531C43.4375 45.6313 37.4322 49.0965 30.9931 49.0965Z" fill="white"/>
<path d="M49.081 29.9936H47.0702V27.9829H45.0597V29.9936H43.0488V32.0043H45.0597V34.0151H47.0702V32.0043H49.081V29.9936Z" fill="white"/>
<path d="M56.6191 29.9946H54.6083V27.9839H52.5978V29.9946H50.5869V32.0052H52.5978V34.0161H54.6083V32.0052H56.6191V29.9946Z" fill="white"/>
</svg>
