<svg width="62" height="62" viewBox="0 0 62 62" fill="none" xmlns="http://www.w3.org/2000/svg">
<path d="M58.0697 18.4924C58.0693 17.4601 57.8485 16.548 57.4021 15.7654C56.9635 14.9954 56.3068 14.3502 55.4259 13.84C48.1543 9.64718 40.8756 5.46716 33.6064 1.27004C31.6466 0.138642 29.7465 0.180102 27.8013 1.32774C24.9069 3.03446 10.4161 11.3366 6.09801 13.8377C4.3197 14.8674 3.45438 16.4428 3.45395 18.4904C3.45117 26.9225 3.45395 35.3546 3.45117 43.7866C3.45117 44.7962 3.66296 45.6908 4.08975 46.4617C4.5285 47.2548 5.19443 47.9177 6.09566 48.4394C10.414 50.9405 24.9067 59.242 27.8004 60.9493C29.7465 62.0976 31.6466 62.1386 33.607 61.007C40.8765 56.8097 48.1556 52.6297 55.4282 48.4368C56.3295 47.9154 56.9954 47.252 57.4341 46.4596C57.8603 45.6885 58.0725 44.7941 58.0725 43.7843C58.0725 43.7843 58.0725 26.9246 58.0697 18.4924Z" fill="#A179DC"/>
<path d="M30.8426 31.0605L4.08691 46.4659C4.52567 47.259 5.1916 47.9219 6.09283 48.4436C10.4111 50.9447 24.9039 59.2462 27.7976 60.9535C29.7436 62.1018 31.6438 62.1428 33.6042 61.0112C40.8736 56.8139 48.1527 52.6339 55.4254 48.441C56.3266 47.9196 56.9925 47.2562 57.4313 46.4637L30.8426 31.0605Z" fill="#280068"/>
<path d="M58.073 18.496C58.0725 17.4638 57.8518 16.5517 57.4053 15.769L30.8486 31.0602L57.4374 46.4632C57.8635 45.6921 58.0753 44.7977 58.0757 43.788C58.0757 43.788 58.0757 26.9283 58.073 18.496Z" fill="#390091"/>
<path d="M46.5965 25.3018V28.1813H49.4761V25.3018H50.9159V28.1813H53.7954V29.6211H50.9159V32.5005H53.7954V33.9403H50.9159V36.8198H49.4761V33.9403H46.5965V36.8198H45.1567V33.9403H42.2773V32.5005H45.1567V29.6211H42.2773V28.1813H45.1567V25.3018H46.5965ZM49.4761 29.6209H46.5965V32.5005H49.4761V29.6209Z" fill="white"/>
<path d="M30.8987 10.8381C38.4095 10.8381 44.9668 14.917 48.4792 20.9801L48.445 20.9217L39.608 26.0098C37.867 23.0621 34.6754 21.0726 31.0139 21.0316L30.8985 21.031C25.3152 21.031 20.7888 25.5574 20.7888 31.1407C20.7869 32.9005 21.2467 34.63 22.1221 36.1565C23.8647 39.1987 27.1408 41.2506 30.8987 41.2506C34.6799 41.2506 37.9745 39.1727 39.7082 36.098L39.6661 36.1717L48.4897 41.2833C45.0158 47.2951 38.5482 51.3614 31.1248 51.4424L30.8987 51.4437C23.3642 51.4437 16.7883 47.3395 13.2846 41.2444C11.5743 38.2689 10.5957 34.8193 10.5957 31.1407C10.5957 19.928 19.6854 10.8379 30.8985 10.8379L30.8987 10.8381Z" fill="white"/>
</svg>
