<svg width="62" height="62" viewBox="0 0 62 62" fill="none" xmlns="http://www.w3.org/2000/svg">
<path d="M22.8418 39.2291C25.0395 41.4131 28.007 42.6467 31.1052 42.6643V37.7818C30.2108 37.7901 29.3239 37.6182 28.4974 37.2764C27.6709 36.9345 26.9216 36.4297 26.2944 35.792L22.8418 39.2291Z" fill="#3F5364"/>
<path d="M35.3507 20.1504L33.543 24.6706C34.9715 25.247 36.1812 26.2601 36.9995 27.5652H42.2617C41.7352 25.8924 40.8413 24.3584 39.6455 23.0755C38.4498 21.7925 36.9824 20.7932 35.3507 20.1504Z" fill="#3F5364"/>
<path d="M19.3906 31.0002C19.3971 32.6191 19.7354 34.2194 20.3846 35.7025L24.8408 33.7127C24.4706 32.8569 24.2857 31.9325 24.2983 31.0002C24.3155 29.204 25.0379 27.4865 26.3097 26.218C27.5815 24.9495 29.3008 24.2316 31.097 24.2189V19.3364C28.0001 19.3379 25.0299 20.5659 22.8361 22.7518C20.6422 24.9376 19.4034 27.9033 19.3906 31.0002Z" fill="#F18B21"/>
<path d="M33.5273 37.3299L35.335 41.8501C36.99 41.2092 38.4778 40.2007 39.6861 38.9008C40.8943 37.6009 41.7916 36.0435 42.31 34.3462H37.0536C36.2528 35.7137 35.0086 36.7665 33.5273 37.3299Z" fill="#F18B21"/>
<path d="M31.0847 43.2066C28.8169 43.1972 26.5965 42.5561 24.6727 41.3553C22.7488 40.1545 21.1975 38.4415 20.1928 36.4083C19.1881 34.3752 18.7696 32.1024 18.9843 29.8447C19.1991 27.5871 20.0385 25.4339 21.4085 23.6266C22.7785 21.8194 24.625 20.4295 26.7407 19.613C28.8564 18.7964 31.1578 18.5854 33.3868 19.0036C35.6157 19.4218 37.6841 20.4527 39.3599 21.9807C41.0357 23.5087 42.2527 25.4734 42.8744 27.6543H47.5941C46.7545 23.5867 44.4356 19.9752 41.0862 17.519C37.7368 15.0629 33.5953 13.9368 29.4633 14.3588C25.3314 14.7808 21.503 16.7208 18.7193 19.8033C15.9356 22.8858 14.3945 26.8915 14.3945 31.045C14.3945 35.1984 15.9356 39.2041 18.7193 42.2866C21.503 45.3691 25.3314 47.3091 29.4633 47.7311C33.5953 48.1531 37.7368 47.027 41.0862 44.5709C44.4356 42.1147 46.7545 38.5033 47.5941 34.4356H42.8744C42.1283 36.9796 40.5743 39.2115 38.4472 40.7939C36.3202 42.3764 33.7358 43.2233 31.0847 43.2066Z" fill="#3F5364"/>
<path d="M31.0866 13.6401V9.02886C26.6528 9.01942 22.3202 10.3534 18.6596 12.855C14.999 15.3567 12.1821 18.9086 10.5801 23.0428L14.8426 24.6703C16.1401 21.4205 18.3805 18.6334 21.2754 16.6676C24.1704 14.7019 27.5873 13.6475 31.0866 13.6401Z" fill="#3F5364"/>
<path d="M31.0908 48.3599V52.9711C36.3312 52.9749 41.4013 51.1111 45.3914 47.714C49.3815 44.3168 52.0304 39.6089 52.8625 34.4351H48.1428C47.3567 38.3736 45.2258 41.9164 42.115 44.4567C39.0042 46.9971 35.107 48.3769 31.0908 48.3599Z" fill="#3F5364"/>
<path d="M48.2293 27.6542H52.858C52.2485 23.8498 50.6545 20.2711 48.2342 17.2734C45.8139 14.2756 42.6515 11.9631 39.0611 10.5654L37.4336 14.8144C40.1568 15.8913 42.5693 17.6287 44.4539 19.8701C46.3385 22.1115 47.6359 24.7865 48.2293 27.6542Z" fill="#F18B21"/>
<path d="M13.6824 31H9.05176C9.05639 35.4047 10.3824 39.7067 12.8583 43.3497C15.3341 46.9927 18.846 49.8092 22.9398 51.4348L24.6583 47.1859C21.4249 45.8877 18.6529 43.6537 16.6974 40.7699C14.7418 37.8862 13.692 34.4842 13.6824 31Z" fill="#F18B21"/>
<path d="M53.4069 27.654H58.0356C57.5122 23.7741 56.1816 20.047 54.1296 16.7129L50.2236 19.1541C51.9136 21.7103 53.002 24.6165 53.4069 27.654Z" fill="#3F5364"/>
<path d="M3.87606 31.018C3.84134 35.0499 4.6608 39.0435 6.2805 42.736L10.7658 40.8915C9.33334 37.7923 8.57521 34.4243 8.54156 31.0103" fill="#3F5364"/>
<path d="M31.0919 53.5134C28.1271 53.5174 25.1906 52.9364 22.4508 51.8037C19.7109 50.671 17.2214 49.0088 15.125 46.9123L11.8525 50.1673C14.3673 52.7089 17.3648 54.722 20.6688 56.0885C23.9728 57.455 27.5166 58.1473 31.0919 58.1246C37.7169 58.1188 44.1134 55.7028 49.0879 51.3273C54.0623 46.9518 57.2748 40.9158 58.1259 34.3457H53.4972C52.655 39.6845 49.9361 44.5477 45.8292 48.0612C41.7222 51.5747 36.4967 53.5079 31.0919 53.5134Z" fill="#F18B21"/>
<path d="M31.0998 8.48637C35.9786 8.45705 40.7294 10.0468 44.608 13.0066L47.429 9.30012C42.7216 5.76247 36.9883 3.85771 31.0998 3.87512C25.6214 3.87405 20.2692 5.52015 15.7382 8.59965C11.2072 11.6792 7.70677 16.0498 5.69141 21.1441L10.0488 22.8626C11.7086 18.6298 14.6043 14.9946 18.3589 12.4305C22.1135 9.86637 26.5531 8.49202 31.0998 8.48637Z" fill="#F18B21"/>
</svg>
