<svg width="62" height="62" viewBox="0 0 62 62" fill="none" xmlns="http://www.w3.org/2000/svg">
<path d="M50.3748 37.7811C50.3748 40.3506 49.0213 41.6096 46.4999 41.6543V41.656H15.5001V41.6543C12.9787 41.6096 11.6252 40.3506 11.6252 37.7811C11.6252 35.2121 12.9787 33.9525 15.5001 33.9084V33.9062H46.4999V33.9084C49.0213 33.9525 50.3748 35.2121 50.3748 37.7811ZM46.4999 43.596V43.5937H15.5001V43.596C12.9787 43.64 11.6252 44.8996 11.6252 47.4692C11.6252 50.0387 12.9787 51.2972 15.5001 51.3418V51.3435H46.4999V51.3412C49.0213 51.2972 50.3748 50.0381 50.3748 47.4686C50.3748 44.8991 49.0213 43.64 46.4999 43.596ZM56.1874 22.2855V22.2832C53.6659 22.3278 52.3125 23.5869 52.3125 26.1564V47.4686C52.3125 50.0381 53.6659 51.2966 56.1874 51.3412V51.3373C59.9696 51.2045 62 47.4268 62 39.7188V30.0313C62 24.8928 59.9696 22.3747 56.1874 22.2855ZM5.81262 22.2832V22.2855C2.03041 22.3747 0 24.8928 0 30.0313V39.7188C0 47.4268 2.03041 51.2039 5.81262 51.3373V51.3412C8.3341 51.2972 9.68752 50.0381 9.68752 47.4686V26.1564C9.68752 23.5869 8.3341 22.3278 5.81262 22.2832ZM56.1874 20.3438C56.1874 13.9203 52.8036 10.7727 46.4999 10.6613V10.6562H15.5001V10.6613C9.19701 10.7727 5.81262 13.9203 5.81262 20.3438V20.3472C9.59484 20.4138 11.6252 22.3024 11.6252 26.1564C11.6252 30.0104 13.6557 31.8989 17.4379 31.9656V31.9685H44.5627V31.9656C48.3443 31.8989 50.3748 30.0104 50.3748 26.1564C50.3748 22.3024 52.4052 20.4138 56.1874 20.3472V20.3438Z" fill="#E42528"/>
</svg>
