<svg width="62" height="62" viewBox="0 0 62 62" fill="none" xmlns="http://www.w3.org/2000/svg">
<g clip-path="url(#clip0_4142_3650)">
<path d="M61.3489 11.5779C60.6927 11.2575 60.4085 11.8698 60.0262 12.1824C59.8945 12.2831 59.7834 12.4149 59.6723 12.5337C58.7113 13.5593 57.5901 14.231 56.1254 14.1509C53.9838 14.032 52.1548 14.7037 50.5376 16.3415C50.194 14.3214 49.0522 13.1175 47.3162 12.3425C46.4069 11.9395 45.4872 11.5391 44.8491 10.6634C44.4048 10.0408 44.2834 9.34587 44.0612 8.66387C43.9191 8.25054 43.777 7.82945 43.3043 7.7597C42.7876 7.67962 42.5861 8.11104 42.3846 8.4727C41.576 9.95037 41.2635 11.5779 41.2945 13.226C41.3642 16.9357 42.9297 19.891 46.0426 21.9913C46.3965 22.2315 46.487 22.4744 46.3759 22.8257C46.164 23.549 45.9109 24.2517 45.6887 24.9776C45.5466 25.44 45.3348 25.5382 44.8388 25.3393C43.1629 24.619 41.6405 23.5843 40.3541 22.291C38.1402 20.152 36.1407 17.7908 33.6452 15.9411C33.067 15.5139 32.4733 15.108 31.8653 14.7244C29.3207 12.2521 32.2011 10.2216 32.8676 9.98137C33.5651 9.7282 33.1079 8.86537 30.8552 8.8757C28.6025 8.88604 26.541 9.63779 23.9138 10.6427C23.5234 10.7923 23.1217 10.9107 22.7125 10.9966C20.2574 10.534 17.7465 10.4452 15.2648 10.7331C10.3952 11.2756 6.50729 13.58 3.64754 17.5092C0.211703 22.2315 -0.59688 27.5997 0.392537 33.1952C1.43362 39.0955 4.44579 43.9806 9.07254 47.7988C13.8724 51.759 19.3981 53.6991 25.704 53.3271C29.5325 53.1075 33.7976 52.5935 38.6052 48.5221C39.8194 49.1266 41.0904 49.3669 43.2035 49.5477C44.831 49.7001 46.3965 49.4702 47.6081 49.217C49.5069 48.814 49.3751 47.0548 48.6905 46.7345C43.1235 44.1408 44.3454 45.1974 43.232 44.3423C46.0633 40.9943 50.3258 37.5171 51.9946 26.2512C52.1238 25.3548 52.0127 24.7916 51.9946 24.0683C51.9843 23.6291 52.085 23.456 52.5888 23.407C53.9865 23.262 55.3423 22.8451 56.58 22.1799C60.1864 20.2088 61.6434 16.9745 61.987 13.0943C62.0386 12.5001 61.9766 11.8905 61.3489 11.5779ZM29.9175 46.4994C24.5209 42.2575 21.904 40.86 20.8241 40.9194C19.8115 40.9814 19.9949 42.1361 20.217 42.8905C20.4495 43.6345 20.7518 44.1459 21.1755 44.7995C21.47 45.2309 21.6715 45.8742 20.8835 46.3573C19.145 47.432 16.125 45.9956 15.983 45.9259C12.467 43.854 9.52462 41.1209 7.45537 37.3828C5.45587 33.7842 4.29337 29.9247 4.1022 25.8043C4.05054 24.8071 4.34245 24.4558 5.33445 24.275C6.63674 24.0257 7.97107 23.9917 9.28437 24.1742C14.792 24.9802 19.4782 27.4421 23.41 31.3404C25.6524 33.562 27.3496 36.2151 29.0985 38.8088C30.9585 41.5626 32.958 44.1873 35.5052 46.3366C36.4042 47.091 37.1198 47.6645 37.807 48.0855C35.7351 48.318 32.2786 48.3697 29.9175 46.4994ZM32.5008 29.8627C32.5003 29.7344 32.5311 29.6079 32.5905 29.4941C32.6499 29.3803 32.7361 29.2828 32.8416 29.2098C32.9472 29.1368 33.0689 29.0906 33.1963 29.0752C33.3237 29.0597 33.453 29.0756 33.5729 29.1213C33.7257 29.1761 33.8576 29.2773 33.9502 29.4106C34.0429 29.544 34.0915 29.7029 34.0895 29.8653C34.0899 29.9702 34.0694 30.0741 34.0291 30.171C33.9889 30.2679 33.9298 30.3558 33.8553 30.4296C33.7807 30.5034 33.6923 30.5617 33.595 30.6009C33.4977 30.6402 33.3936 30.6597 33.2887 30.6584C33.1846 30.6587 33.0815 30.6383 32.9853 30.5983C32.8892 30.5583 32.8021 30.4996 32.7289 30.4255C32.6558 30.3514 32.5982 30.2635 32.5594 30.1668C32.5207 30.0702 32.4991 29.9668 32.5008 29.8627ZM40.535 33.9857C40.0183 34.195 39.5042 34.3758 39.0108 34.399C38.2685 34.4249 37.5401 34.1931 36.9493 33.7429C36.2415 33.1487 35.7351 32.818 35.5233 31.7847C35.4503 31.2797 35.4642 30.766 35.5646 30.2657C35.7455 29.421 35.544 28.8785 34.9472 28.3876C34.4641 27.9846 33.8467 27.8735 33.1699 27.8735C32.9381 27.8601 32.7131 27.791 32.5137 27.672C32.2295 27.5325 31.997 27.1812 32.2192 26.7472C32.2915 26.6077 32.6325 26.2667 32.7152 26.2047C33.6349 25.6829 34.6966 25.8534 35.6757 26.246C36.585 26.618 37.2722 27.3 38.2616 28.2662C39.2717 29.4313 39.4551 29.7542 40.0312 30.6274C40.4859 31.312 40.8992 32.0146 41.1808 32.818C41.3539 33.3218 41.1317 33.7325 40.535 33.9857Z" fill="#4D6BFE"/>
</g>
<defs>
<clipPath id="clip0_4142_3650">
<rect width="62" height="62" fill="white"/>
</clipPath>
</defs>
</svg>
