<svg width="62" height="62" viewBox="0 0 62 62" fill="none" xmlns="http://www.w3.org/2000/svg">
<path d="M31.0024 47.3064V57.5829C48.4205 57.5829 61.9559 40.7654 56.2597 22.5025C55.0148 18.5613 52.839 14.9779 49.9165 12.0553C46.9939 9.13274 43.4105 6.957 39.4693 5.71211C21.2374 0.0158636 4.41992 13.5784 4.41992 30.9694H14.6964C14.6964 20.0612 25.5154 11.6215 37.0009 15.7794C39.1103 16.5489 41.026 17.7703 42.6138 19.358C44.2015 20.9458 45.4229 22.8614 46.1924 24.9709C50.3774 36.4447 41.9299 47.2521 31.0334 47.2754V37.057H20.784V47.3064H31.0024Z" fill="#0080FF"/>
<path d="M20.7933 55.199H12.896V47.3056H20.7933V55.199ZM6.29688 47.3056H12.896V40.7026H6.29688V47.3056Z" fill="#0080FF"/>
</svg>
