<svg width="62" height="62" viewBox="0 0 62 62" fill="none" xmlns="http://www.w3.org/2000/svg">
<path d="M59.1261 25.3942C58.9697 25.2654 57.5616 24.2099 54.5369 24.2099C53.7546 24.2099 52.9462 24.2872 52.164 24.4159C51.5903 20.4769 48.2787 18.5718 48.1483 18.4689L47.3399 18.0054L46.8184 18.752C46.1666 19.7561 45.6711 20.8889 45.3843 22.0474C44.8367 24.2872 45.1757 26.3983 46.323 28.2003C44.941 28.9727 42.6985 29.1529 42.2292 29.1786H5.20162C4.23685 29.1786 3.45457 29.951 3.45457 30.9036C3.40248 34.0959 3.95002 37.2882 5.07132 40.3003C6.34896 43.5957 8.25255 46.0415 10.7037 47.5347C13.4677 49.208 17.9787 50.1606 23.0635 50.1606C25.3581 50.1606 27.6527 49.9547 29.9214 49.5427C33.0765 48.9763 36.1013 47.895 38.8914 46.3246C41.1779 45.0159 43.2383 43.3468 44.9931 41.3817C47.9397 38.1121 49.6867 34.4563 50.9644 31.2125H51.4858C54.6932 31.2125 56.6749 29.951 57.7701 28.8697C58.5002 28.2003 59.0477 27.3766 59.4389 26.4498L59.6737 25.7804L59.1261 25.3942Z" fill="#0091E2"/>
<path d="M8.64738 28.123H13.6017C13.8365 28.123 14.0451 27.9429 14.0451 27.6855V23.3089C14.0451 23.0771 13.8625 22.8712 13.6017 22.8712H8.64738C8.41272 22.8712 8.2041 23.0514 8.2041 23.3089V27.6855C8.23014 27.9429 8.41272 28.1231 8.64738 28.1231V28.123ZM15.4792 28.123H20.4336C20.6682 28.123 20.8769 27.9429 20.8769 27.6855V23.3089C20.8769 23.0771 20.6943 22.8712 20.4336 22.8712H15.4791C15.2444 22.8712 15.0358 23.0514 15.0358 23.3089V27.6855C15.0619 27.9429 15.2445 28.1231 15.4791 28.1231M22.4412 28.1231H27.3957C27.6303 28.1231 27.8389 27.9429 27.8389 27.6855V23.3089C27.8389 23.0771 27.6564 22.8712 27.3957 22.8712H22.4412C22.2066 22.8712 21.998 23.0514 21.998 23.3089V27.6855C21.998 27.9429 22.1805 28.1231 22.4412 28.1231ZM29.2992 28.1231H34.2536C34.4882 28.1231 34.6969 27.9429 34.6969 27.6855V23.3089C34.6969 23.0771 34.5143 22.8712 34.2536 22.8712H29.2992C29.0645 22.8712 28.8559 23.0514 28.8559 23.3089V27.6855C28.8559 27.9429 29.0645 28.1231 29.2992 28.1231ZM15.4792 21.8672H20.4335C20.6681 21.8672 20.8768 21.6613 20.8768 21.4295V17.0529C20.8768 16.8212 20.6942 16.6152 20.4335 16.6152H15.4791C15.2444 16.6152 15.0358 16.7954 15.0358 17.0529V21.4295C15.0619 21.6612 15.2446 21.8672 15.4792 21.8672ZM22.4412 21.8672H27.3957C27.6303 21.8672 27.8389 21.6613 27.8389 21.4295V17.0529C27.8389 16.8212 27.6564 16.6152 27.3957 16.6152H22.4412C22.2066 16.6152 21.998 16.7954 21.998 17.0529V21.4295C21.998 21.6612 22.1805 21.8672 22.4412 21.8672ZM29.2992 21.8672H34.2536C34.4882 21.8672 34.6969 21.6613 34.6969 21.4295V17.0529C34.6969 16.8212 34.4881 16.6152 34.2536 16.6152H29.2992C29.0645 16.6152 28.8559 16.7954 28.8559 17.0529V21.4295C28.8559 21.6612 29.0645 21.8672 29.2992 21.8672ZM29.2992 15.5855H34.2536C34.4882 15.5855 34.6969 15.4052 34.6969 15.1478V10.7712C34.6969 10.5395 34.4881 10.3335 34.2536 10.3335H29.2992C29.0645 10.3335 28.8559 10.5137 28.8559 10.7712V15.1478C28.8559 15.3795 29.0645 15.5855 29.2992 15.5855ZM36.2092 28.1231H41.1636C41.3982 28.1231 41.6069 27.9429 41.6069 27.6855V23.3089C41.6069 23.0771 41.4244 22.8712 41.1636 22.8712H36.2093C35.9745 22.8712 35.7659 23.0514 35.7659 23.3089V27.6855C35.792 27.9429 35.9746 28.1231 36.2093 28.1231" fill="#0091E2"/>
</svg>
