<svg width="62" height="62" viewBox="0 0 62 62" fill="none" xmlns="http://www.w3.org/2000/svg">
<path d="M3.15668 31.2565C2.99856 31.0885 2.80585 30.9551 2.59337 30.8612C2.3809 30.7673 2.1536 30.7228 1.92135 30.7228C1.68911 30.7179 1.46181 30.7673 1.24934 30.8562C1.03686 30.9501 0.844148 31.0835 0.686026 31.2515C0.522963 31.4146 0.394488 31.6073 0.310486 31.8198C0.226484 32.0372 0.182012 32.2645 0.182012 32.4918C0.177071 32.724 0.221542 32.9513 0.310486 33.1638C0.39943 33.3763 0.527904 33.569 0.690967 33.7321C0.849136 33.9001 1.04081 34.0332 1.25359 34.1225C1.46638 34.2119 1.69555 34.2556 1.9263 34.2509C2.15655 34.2522 2.38468 34.2069 2.59697 34.1177C2.80926 34.0285 3.00133 33.8974 3.16162 33.7321C3.32963 33.5739 3.4581 33.3812 3.54705 33.1688C3.63599 32.9563 3.68046 32.729 3.68046 32.4967C3.68046 32.2645 3.63599 32.0372 3.54705 31.8247C3.45316 31.6073 3.32469 31.4146 3.15668 31.2565ZM23.8361 27.2441C23.8114 28.351 23.8657 29.4628 23.9942 30.5647H23.9349C23.7966 30.2929 23.4902 29.7889 23.0208 29.0526L11.7546 11.3677H8.33518V33.9445H10.964V17.6234C10.9936 16.5906 10.9491 15.5579 10.8404 14.5252H10.9393C11.127 15.0193 11.3691 15.4937 11.6557 15.9384L23.2283 33.9445H26.4649V11.3677H23.8361V27.2441ZM44.2882 31.464H34.9985V23.6419H43.127V21.2602H34.9985V13.7593H43.7199V11.3677H32.3055V33.9445H44.2734L44.2882 31.464ZM46.2993 11.3677V13.7593H52.7724V33.9445H55.4012V13.7593H61.9485V11.3677H46.2993ZM20.5353 39.5579C19.8787 39.8199 19.2857 40.2191 18.7959 40.729C18.2919 41.2676 17.8966 41.9001 17.6397 42.5968C17.3827 43.2935 17.2691 44.0298 17.2987 44.766C17.2493 46.1298 17.7237 47.464 18.6329 48.4819C19.0875 48.9612 19.6409 49.3318 20.2536 49.5789C20.8664 49.8259 21.5236 49.9346 22.1807 49.905C23.169 49.9396 24.1523 49.7321 25.0467 49.2972L25.0566 48.1459C24.2363 48.6252 23.3024 48.8624 22.3537 48.8377C21.8447 48.8574 21.3358 48.7685 20.8664 48.5758C20.3969 48.3831 19.972 48.0866 19.6261 47.7111C18.9028 46.8709 18.5311 45.7842 18.5884 44.6771C18.5291 43.506 18.9294 42.3596 19.7002 41.4801C20.0659 41.0749 20.5155 40.7586 21.0146 40.5412C21.5156 40.3281 22.0565 40.2253 22.6008 40.2398C23.4655 40.225 24.3154 40.4374 25.0714 40.8574V39.6172C24.2873 39.301 23.4457 39.1529 22.6008 39.1823C21.8942 39.1725 21.1875 39.296 20.5353 39.5579ZM32.854 43.0959C32.5237 42.7485 32.1222 42.4768 31.6769 42.2994C31.2317 42.122 30.7533 42.0431 30.2746 42.0681C29.7657 42.0434 29.2617 42.1274 28.7873 42.3102C28.3129 42.493 27.883 42.7697 27.5174 43.1206C27.1616 43.5159 26.8898 43.9754 26.7119 44.4794C26.534 44.9834 26.4599 45.5122 26.4945 46.0458C26.4451 47.0588 26.7959 48.052 27.468 48.808C27.804 49.1687 28.2092 49.4553 28.6638 49.6481C29.1184 49.8358 29.6075 49.9297 30.0967 49.9099C30.5958 49.9248 31.0949 49.8309 31.5594 49.6382C32.0238 49.4455 32.4389 49.1539 32.7799 48.7833C33.4729 48.0021 33.8313 46.98 33.778 45.9371C33.8373 44.8994 33.5062 43.8865 32.854 43.0959ZM31.9497 48.1706C31.7323 48.4216 31.4602 48.6193 31.1544 48.7487C30.8486 48.878 30.5172 48.9355 30.1857 48.9167C29.8447 48.9316 29.5087 48.8673 29.1974 48.7388C28.8861 48.6054 28.6094 48.4078 28.3821 48.1508C27.9085 47.5646 27.6707 46.8228 27.715 46.0705C27.6705 45.2948 27.9077 44.5288 28.3821 43.9161C28.6045 43.6592 28.8812 43.4566 29.1925 43.3182C29.5038 43.1848 29.8447 43.1206 30.1807 43.1354C30.5167 43.1156 30.8478 43.1799 31.1542 43.3133C31.4605 43.4467 31.7323 43.6493 31.9497 43.9062C32.3988 44.5275 32.6172 45.2858 32.5674 46.0508C32.6168 46.8019 32.3994 47.5579 31.9497 48.1706ZM37.6767 42.6116C37.3061 42.9427 37.0343 43.3726 36.9009 43.8519V42.3003H35.6656V49.7321H36.9009V45.9421C36.8614 45.2552 37.0393 44.5684 37.4049 43.9853C37.5384 43.7728 37.7162 43.5949 37.9337 43.4714C38.1511 43.3479 38.3932 43.2738 38.6403 43.2688C38.9565 43.2441 39.2728 43.3281 39.5396 43.506V42.2805C39.3123 42.2064 39.0751 42.1718 38.8379 42.1817C38.413 42.1768 38.0028 42.33 37.6767 42.6116ZM46.7687 45.6802C46.828 44.7364 46.5464 43.8074 45.9781 43.0563C45.6965 42.7401 45.3506 42.4881 44.9602 42.325C44.5698 42.162 44.1498 42.0878 43.7298 42.1125C43.2653 42.0977 42.8009 42.1916 42.371 42.3794C41.946 42.5671 41.5655 42.8488 41.2592 43.2046C40.5882 43.9874 40.2402 44.9961 40.2857 46.0261C40.2215 47.0539 40.5427 48.0718 41.185 48.8723C41.4963 49.2132 41.8818 49.48 42.3067 49.6579C42.7317 49.8358 43.1962 49.9099 43.6557 49.8902C44.5698 49.9346 45.4741 49.6876 46.2351 49.1836V48.0668C45.5849 48.5951 44.775 48.8877 43.9374 48.897C43.6162 48.9167 43.29 48.8673 42.9886 48.7487C42.6872 48.6301 42.4105 48.4572 42.1832 48.2249C41.7417 47.6906 41.5177 47.0097 41.5556 46.3176H46.7786L46.7687 45.6802ZM41.5458 45.3343C41.61 44.7463 41.8669 44.1928 42.2721 43.7629C42.4537 43.5678 42.6742 43.4129 42.9193 43.3082C43.1644 43.2036 43.4287 43.1514 43.6952 43.1552C43.9522 43.1403 44.2042 43.1848 44.4414 43.2836C44.6786 43.3825 44.8861 43.5307 45.0541 43.7234C45.4 44.183 45.5729 44.7463 45.5482 45.3195L41.5458 45.3343Z" fill="#621EE5"/>
</svg>
