<svg width="62" height="62" viewBox="0 0 62 62" fill="none" xmlns="http://www.w3.org/2000/svg">
<path fill-rule="evenodd" clip-rule="evenodd" d="M32.0411 3.82129C28.0747 5.227 24.2457 9.33068 20.5548 16.1306C15.019 26.3323 7.86764 40.8278 17.7144 52.3055C22.2693 57.6144 29.7909 60.7482 39.6616 55.7856C47.5917 51.7979 49.7975 40.3552 46.9503 34.9789C41.0775 23.8876 35.1195 21.1521 33.5244 14.2737C32.4607 9.68808 31.9668 6.20451 32.0411 3.82129Z" fill="url(#paint0_linear_1457_32330)"/>
<path fill-rule="evenodd" clip-rule="evenodd" d="M32.0492 3.68652C28.0624 5.10673 24.2342 9.21041 20.563 15.9959C15.057 26.1753 7.87582 40.693 17.7226 52.1707C22.2775 57.4796 29.7027 59.195 33.8226 56.0466C36.5086 53.9935 38.3348 52.0368 39.3874 47.9135C40.5594 43.3227 39.6604 37.1412 39.0437 34.3025C38.264 30.7089 38.009 26.7656 38.2785 22.4717C38.2074 22.3853 38.1363 22.2989 38.0653 22.2124C35.9209 19.5869 34.2661 17.3009 33.5326 14.1389C32.4689 9.55331 31.975 6.06975 32.0492 3.68652Z" fill="url(#paint1_linear_1457_32330)"/>
<path fill-rule="evenodd" clip-rule="evenodd" d="M28.7501 5.47656C25.0371 8.41081 22.276 13.3325 20.4677 20.2416C17.7552 30.6062 17.4618 40.1638 18.4188 45.7235C20.2732 56.5 29.888 60.5909 39.7493 55.5754C45.8182 52.4876 48.3464 45.8617 48.2125 38.6694C48.0735 31.2212 33.682 22.7809 31.1333 16.5661C29.4342 12.4224 28.6401 8.72556 28.7501 5.47656Z" fill="url(#paint2_linear_1457_32330)"/>
<path fill-rule="evenodd" clip-rule="evenodd" d="M38.1581 24.8994C42.6106 30.61 43.5813 34.5858 41.0693 36.8257C37.3025 40.1856 28.0895 42.3777 22.3583 38.3133C18.537 35.6034 17.0912 29.7912 18.0209 20.875C16.4641 24.1182 15.1275 27.4626 14.0205 30.8856C12.9304 34.2651 12.6113 37.8015 13.0651 41.4949C14.4316 44.2586 17.7522 46.1036 23.0279 47.0316C30.9436 48.4237 38.4327 47.7353 43.4593 45.202C46.8107 43.5131 48.3955 41.831 48.2147 40.1574C48.3349 37.6855 47.5732 35.333 45.9278 33.0982C44.2816 30.8634 41.6919 28.1313 38.1572 24.8985L38.1581 24.8994Z" fill="url(#paint3_linear_1457_32330)"/>
<path fill-rule="evenodd" clip-rule="evenodd" d="M20.7574 19.2065C20.7199 23.3307 21.7801 27.251 23.9381 30.9691C27.1752 36.5442 30.9539 42.0527 36.6083 46.6196C40.3785 49.6647 43.3903 50.6473 45.6447 49.5709C43.7938 52.8847 41.8234 54.5088 39.7379 54.4422C36.6083 54.3433 32.7929 52.9751 26.6788 45.6284C22.6032 40.7306 19.8148 36.0972 18.3145 31.7291C18.5524 29.9959 18.8049 28.2703 19.071 26.5515C19.338 24.8319 19.901 22.3839 20.7574 19.2065Z" fill="url(#paint4_linear_1457_32330)"/>
<path fill-rule="evenodd" clip-rule="evenodd" d="M30.3125 24.8605C30.6588 28.2212 31.9655 33.595 30.3125 37.1732C28.6594 40.7515 21.0235 47.2154 23.1304 52.9107C25.2389 58.6043 30.3756 57.3266 33.5981 54.7019C36.8207 52.0773 38.5454 47.8099 38.9275 44.8091C39.3097 41.8083 38.0132 36.0345 37.5909 31.0113C37.3094 27.6634 37.5005 24.7931 38.1633 22.3988L37.1764 21.1569L31.3642 19.4355C30.4327 20.8131 30.0822 22.6214 30.3125 24.8605Z" fill="url(#paint5_linear_1457_32330)"/>
<path fill-rule="evenodd" clip-rule="evenodd" d="M32.3898 8.2207C30.509 9.01568 28.7271 10.5903 27.0433 12.9454C24.5185 16.4775 23.2322 18.5955 24.1841 25.5976C24.8187 30.2659 25.2734 34.5607 25.5472 38.4818L33.6872 14.8313C33.4159 13.7482 33.167 12.6595 32.9408 11.5661C32.7194 10.4575 32.5356 9.34174 32.3898 8.2207Z" fill="url(#paint6_linear_1457_32330)"/>
<path fill-rule="evenodd" clip-rule="evenodd" d="M33.6687 14.7875C31.6019 15.9936 30.0009 18.4638 28.8647 22.1999C27.7294 25.9359 26.6896 31.1587 25.7471 37.8691C27.0044 33.6008 27.8386 30.5104 28.2489 28.5955C28.8647 25.7244 29.0754 21.6633 30.7114 18.9065C31.8015 17.0683 32.7876 15.6959 33.6687 14.7866V14.7875Z" fill="#330A4C" fill-opacity="0.316"/>
<path fill-rule="evenodd" clip-rule="evenodd" d="M24.0977 54.8154C27.4976 55.3016 29.2761 55.7332 29.4322 56.112C29.6659 56.6783 29.0014 57.1969 27.1138 56.8481C25.8556 56.6161 24.85 55.9379 24.0977 54.8154Z" fill="white"/>
<path fill-rule="evenodd" clip-rule="evenodd" d="M25.8087 8.2207C23.9381 10.4555 22.3175 12.8242 20.9467 15.3269C19.576 17.8295 18.5951 19.6984 18.0074 20.9301C17.8248 21.8487 17.7361 23.2041 17.7404 24.9962C17.7446 26.7892 17.8999 28.7826 18.2053 30.9756C18.466 26.7156 19.2927 22.5093 20.6635 18.4675C22.0351 14.4244 23.7496 11.0082 25.8087 8.2207Z" fill="#EDEDED" fill-opacity="0.603"/>
<defs>
<linearGradient id="paint0_linear_1457_32330" x1="31.2759" y1="7.84489" x2="29.3819" y2="58.2337" gradientUnits="userSpaceOnUse">
<stop stop-color="#D9D8DC"/>
<stop offset="1" stop-color="white" stop-opacity="0.385"/>
</linearGradient>
<linearGradient id="paint1_linear_1457_32330" x1="32.1396" y1="7.83483" x2="12.3465" y2="51.2113" gradientUnits="userSpaceOnUse">
<stop stop-color="#8D67AF" stop-opacity="0.672"/>
<stop offset="1" stop-color="#9F8DAF"/>
</linearGradient>
<linearGradient id="paint2_linear_1457_32330" x1="34.3529" y1="21.8931" x2="34.3529" y2="56.7757" gradientUnits="userSpaceOnUse">
<stop stop-color="#26053D" stop-opacity="0.762"/>
<stop offset="1" stop-color="#B7B4B4" stop-opacity="0.278"/>
</linearGradient>
<linearGradient id="paint3_linear_1457_32330" x1="16.4491" y1="24.2441" x2="25.3297" y2="47.7678" gradientUnits="userSpaceOnUse">
<stop stop-color="#91739F" stop-opacity="0.46"/>
<stop offset="1" stop-color="#32054F" stop-opacity="0.54"/>
</linearGradient>
<linearGradient id="paint4_linear_1457_32330" x1="40.1854" y1="53.178" x2="15.766" y2="32.9435" gradientUnits="userSpaceOnUse">
<stop stop-color="#463D49" stop-opacity="0.331"/>
<stop offset="1" stop-color="#340A50" stop-opacity="0.821"/>
</linearGradient>
<linearGradient id="paint5_linear_1457_32330" x1="35.1585" y1="22.2175" x2="17.9352" y2="48.4187" gradientUnits="userSpaceOnUse">
<stop stop-color="#715383" stop-opacity="0.145"/>
<stop offset="1" stop-color="#F4F4F4" stop-opacity="0.234"/>
</linearGradient>
<linearGradient id="paint6_linear_1457_32330" x1="36.8081" y1="30.2098" x2="24.6112" y2="29.4653" gradientUnits="userSpaceOnUse">
<stop stop-color="#A5A1A8" stop-opacity="0.356"/>
<stop offset="1" stop-color="#370C50" stop-opacity="0.582"/>
</linearGradient>
</defs>
</svg>
