<svg width="62" height="62" viewBox="0 0 62 62" fill="none" xmlns="http://www.w3.org/2000/svg">
<path d="M8.38574 49.9882L8.76066 49.4632L26.496 15.8112L26.5334 15.455L18.7153 0.76981C18.0603 -0.460337 16.2163 -0.149313 16.0014 1.22774L8.38574 49.9882Z" fill="#FFC24A"/>
<path d="M8.61328 49.588L8.89689 49.035L26.4464 15.7356L18.6478 0.990731C17.9997 -0.226527 16.3538 0.0837773 16.1411 1.4464L8.61328 49.588Z" fill="#FFA712"/>
<path d="M32.2302 26.5632L38.0513 20.6015L32.2285 9.4856C31.6757 8.4334 30.1324 8.43037 29.5855 9.4856L26.4746 15.4187V15.924L32.2302 26.5632Z" fill="#F4BD62"/>
<path d="M32.1306 26.315L37.7899 20.519L32.1306 9.74287C31.5933 8.71994 30.2877 8.61276 29.756 9.63864L26.6287 15.6636L26.5352 15.9716L32.1306 26.315Z" fill="#FFA50E"/>
<path d="M8.38574 49.9884L8.55569 49.8175L9.17314 49.5665L31.8672 26.9569L32.1547 26.1742L26.4935 15.3862L8.38574 49.9884Z" fill="#F6820C"/>
<path d="M32.9598 61.3909L53.4984 49.9363L47.6332 13.8148C47.4498 12.6847 46.0633 12.2379 45.2544 13.0482L8.38574 49.9883L28.8066 61.3899C30.0971 62.1105 31.6689 62.1108 32.9598 61.3909Z" fill="#FDE068"/>
<path d="M53.3132 49.8405L47.4926 13.9932C47.3105 12.8716 46.1575 12.4075 45.3548 13.2117L8.6123 49.9183L28.8088 61.207C30.0896 61.9222 31.6494 61.9225 32.9305 61.2081L53.3132 49.8405Z" fill="#FCCA3F"/>
<path d="M32.9598 61.0535C31.6689 61.7734 30.0971 61.7731 28.8066 61.0525L8.55022 49.8147L8.38574 49.9884L28.8066 61.39C30.0971 62.1105 31.6689 62.1109 32.9598 61.391L53.4984 49.9364L53.4481 49.627L32.9598 61.0535Z" fill="#EEAB37"/>
</svg>
