<svg width="62" height="62" viewBox="0 0 62 62" fill="none" xmlns="http://www.w3.org/2000/svg">
<path d="M39.9727 20.8318L47.2848 15.0193L45.9983 13.4151C43.0792 10.8701 39.5647 9.10347 35.7807 8.27907C31.9967 7.45467 28.0658 7.59918 24.3526 8.69921C20.6537 9.81655 17.299 11.8547 14.6029 14.6226C11.9068 17.3906 9.95755 20.7977 8.93785 24.5247C8.8216 24.9626 10.1468 24.145 10.732 24.3077L20.838 22.6492C20.838 22.6492 21.3301 22.1687 21.6168 21.8548C26.1118 16.9491 33.7301 16.3058 38.9187 20.4831L39.9727 20.8318Z" fill="#EA4335"/>
<path d="M52.8451 24.4133C51.6809 20.1568 49.2967 16.3339 45.9863 13.416L38.8951 20.4685C40.3696 21.6648 41.5522 23.1812 42.3532 24.9027C43.1542 26.6242 43.5525 28.5056 43.5179 30.404V31.6556C47.0054 31.6556 49.8342 34.465 49.8342 37.9331C49.8342 41.3935 47.0054 44.2068 43.5179 44.2068L30.8971 44.1951L29.6377 44.3308V54.0454L30.8971 54.2508H43.5179C47.0355 54.2853 50.471 53.1883 53.3176 51.1217C56.1643 49.0551 58.2713 46.1283 59.3279 42.773C60.3711 39.4225 60.3031 35.8244 59.1341 32.5157C57.9651 29.207 55.7577 26.3648 52.8412 24.4133H52.8451Z" fill="#4285F4"/>
<path d="M18.2521 54.2469H30.8807V44.1952H18.2482C17.3492 44.1952 16.4618 43.9394 15.6442 43.5713L13.8695 44.1138L8.78159 49.1397L8.33984 50.8718C11.1887 53.042 14.6669 54.2255 18.2482 54.243L18.2521 54.2469Z" fill="#34A853"/>
<path d="M18.2543 21.592C14.8414 21.6062 11.5179 22.6843 8.74658 24.6764C5.97528 26.6684 3.89417 29.475 2.79309 32.7055C1.70363 35.9339 1.65338 39.4226 2.64941 42.6811C3.64544 45.9396 5.63766 48.8039 8.34597 50.8715L15.6697 43.571C14.4253 43.0161 13.3957 42.0707 12.7369 40.8781C12.078 39.6855 11.8259 38.3106 12.0186 36.9618C12.2114 35.613 12.8385 34.3638 13.805 33.4035C14.7715 32.4431 16.0247 31.824 17.3747 31.6399C18.725 31.4462 20.1017 31.6948 21.2989 32.3486C22.4961 33.0024 23.4495 34.0262 24.0165 35.2669L31.3402 27.9896C29.7973 25.9884 27.8135 24.3701 25.5433 23.2605C23.273 22.1509 20.7812 21.58 18.2543 21.592Z" fill="#FBBC05"/>
</svg>
