<svg width="62" height="62" viewBox="0 0 62 62" fill="none" xmlns="http://www.w3.org/2000/svg">
<g clip-path="url(#clip0_1457_32360)">
<path d="M4.61625 25.8461C4.52008 25.8461 4.42391 25.75 4.52008 25.6538L5.19328 24.8844C5.28946 24.7882 5.38563 24.6921 5.4818 24.6921H16.1569C16.2531 24.6921 16.3492 24.7882 16.2531 24.8844L15.7722 25.6538C15.676 25.75 15.5799 25.8461 15.4837 25.8461H4.61625ZM0.0961719 28.6351C0 28.6351 0 28.539 0 28.4428L0.673203 27.6734C0.673203 27.5772 0.865547 27.4811 0.961719 27.4811H14.6181C14.7143 27.4811 14.8105 27.5772 14.8105 27.6734L14.6181 28.3466C14.6181 28.4428 14.4258 28.539 14.3296 28.539L0.0961719 28.6351ZM7.40524 31.3279C7.30907 31.3279 7.21289 31.2318 7.30907 31.1356L7.69375 30.4624C7.78993 30.3662 7.8861 30.27 7.98227 30.27H13.9449C14.0411 30.27 14.1373 30.3662 14.1373 30.4624L14.0411 31.1356C14.0411 31.2318 13.9449 31.3279 13.8488 31.3279H7.40524ZM38.4688 25.2691L33.4678 26.6155C32.987 26.7117 32.987 26.8079 32.6023 26.327C32.1214 25.8461 31.8329 25.4615 31.1597 25.1729C29.2363 24.2112 27.409 24.4997 25.7741 25.6538C23.7545 27.0002 22.6966 28.9236 22.6966 31.3279C22.6966 33.7322 24.3315 35.6557 26.7358 36.0404C28.7554 36.3289 30.4865 35.5595 31.8329 34.0208C32.1214 33.7322 32.3138 33.3475 32.6023 32.8667H26.832C26.1588 32.8667 26.0626 32.482 26.2549 32.0011C26.6396 31.0394 27.409 29.5007 27.7937 28.7313C27.8899 28.539 28.0822 28.2504 28.5631 28.2504H39.4305C39.3343 29.0198 39.3343 29.8854 39.2381 30.6547C38.9496 32.7705 38.0841 34.7901 36.7377 36.5212C34.6219 39.4064 31.7367 41.1375 28.1784 41.6183C25.197 42.003 22.5042 41.426 20.0999 39.5987C17.888 37.9638 16.6377 35.6557 16.2531 32.9629C15.8684 29.693 16.8301 26.8079 18.7535 24.2112C20.8693 21.4222 23.6583 19.6911 27.1205 19.0179C29.9095 18.5371 32.6023 18.8256 35.1028 20.4605C36.7377 21.5184 37.7956 22.961 38.5649 24.6921C38.9496 25.0768 38.8535 25.1729 38.4688 25.2691Z" fill="#00ACD7"/>
<path d="M48.3744 41.9067C45.6816 41.8105 43.1811 41.0412 41.0653 39.3101C39.3342 37.7713 38.1802 35.8479 37.7955 33.5397C37.2185 30.1737 38.1802 27.1924 40.1998 24.4996C42.4117 21.6144 45.0084 20.1719 48.5667 19.4986C51.6442 18.9216 54.5294 19.3063 57.126 21.0374C59.5303 22.6723 60.9729 24.8843 61.3576 27.6733C61.8385 31.7125 60.6844 34.9823 57.8954 37.8675C55.8758 39.8871 53.4715 41.1373 50.6825 41.7144C50.0093 41.7144 49.1438 41.8105 48.3744 41.9067ZM55.4911 29.789C55.4911 29.4044 55.4911 29.1158 55.3949 28.8273C54.8179 25.846 52.1251 24.2111 49.24 24.8843C46.451 25.5575 44.6237 27.2886 43.9505 30.0776C43.3735 32.3857 44.5275 34.79 46.7395 35.7517C48.3744 36.4249 50.0093 36.4249 51.6442 35.5594C54.0485 34.213 55.395 32.2895 55.4911 29.789Z" fill="#00ACD7"/>
</g>
<defs>
<clipPath id="clip0_1457_32360">
<rect width="61.55" height="62" fill="white"/>
</clipPath>
</defs>
</svg>
