<svg width="62" height="62" viewBox="0 0 62 62" fill="none" xmlns="http://www.w3.org/2000/svg">
<g clip-path="url(#clip0_1457_32512)">
<path d="M47.6254 26.4473C45.6998 22.8391 42.6534 19.9547 38.9453 18.229C35.2373 16.5033 31.0688 16.03 27.0683 16.8804C23.0677 17.7307 19.4521 19.8587 16.7666 22.9433C14.0811 26.028 12.4712 29.9022 12.1798 33.9817C8.85294 34.3395 5.78976 35.9588 3.62056 38.5064C1.45136 41.054 0.341146 44.3362 0.518373 47.6775C0.6956 51.0189 2.14678 54.1652 4.57332 56.4691C6.99985 58.7729 10.2171 60.0591 13.5632 60.063H44.5632C48.7933 60.0656 52.8714 58.486 55.9961 55.6347C59.1209 52.7835 61.0663 48.8666 61.45 44.654C61.8338 40.4413 60.6281 36.2374 58.07 32.8685C55.5119 29.4995 51.7863 27.2091 47.6254 26.4473ZM44.5632 57.1567H13.5632C10.9854 57.1626 8.50206 56.1873 6.61731 54.4288C4.73256 52.6702 3.58772 50.2603 3.41527 47.6883C3.24282 45.1164 4.05567 42.5752 5.68878 40.5807C7.32188 38.5863 9.65282 37.2882 12.2083 36.9499C12.4132 39.514 13.1409 42.0089 14.3465 44.281C14.4338 44.4543 14.5549 44.6083 14.7026 44.7339C14.8504 44.8596 15.0218 44.9544 15.2067 45.0128C15.3917 45.0712 15.5865 45.092 15.7796 45.0739C15.9728 45.0558 16.1603 44.9992 16.3312 44.9075C16.5021 44.8158 16.653 44.6908 16.7748 44.5399C16.8967 44.389 16.9871 44.2152 17.0407 44.0288C17.0943 43.8424 17.11 43.6471 17.087 43.4545C17.064 43.2619 17.0026 43.0759 16.9065 42.9074C14.9859 39.3168 14.508 35.1285 15.5704 31.1975C16.6328 27.2665 19.1554 23.8892 22.6233 21.755C26.0913 19.6208 30.243 18.8905 34.231 19.7133C38.219 20.5361 41.7427 22.8499 44.0827 26.1825C41.7605 26.2465 39.4763 26.7869 37.3716 27.77C35.2669 28.7532 33.3867 30.1583 31.8474 31.8981C31.7163 32.0404 31.6149 32.2074 31.5492 32.3894C31.4836 32.5713 31.4549 32.7646 31.4649 32.9578C31.4749 33.151 31.5233 33.3402 31.6074 33.5144C31.6915 33.6887 31.8096 33.8443 31.9546 33.9723C32.0997 34.1003 32.2689 34.198 32.4522 34.2598C32.6355 34.3216 32.8293 34.3461 33.0223 34.3319C33.2152 34.3178 33.4034 34.2653 33.5758 34.1774C33.7481 34.0896 33.9012 33.9683 34.0261 33.8205C35.5784 32.0597 37.5472 30.716 39.7527 29.9122C41.9581 29.1084 44.3298 28.8701 46.6511 29.219C48.9723 29.568 51.1691 30.4931 53.0408 31.9099C54.9124 33.3266 56.3991 35.1898 57.3651 37.3292C58.3311 39.4685 58.7456 41.8159 58.5706 44.1567C58.3957 46.4975 57.6369 48.7572 56.3636 50.7292C55.0904 52.7012 53.3432 54.3227 51.2818 55.4455C49.2204 56.5683 46.9105 57.1566 44.5632 57.1567Z" fill="black"/>
<path d="M61.7996 19.869C61.7031 19.7017 61.5747 19.5551 61.4215 19.4376C61.2684 19.32 61.0936 19.2338 60.9071 19.1838C60.7206 19.1339 60.5261 19.1212 60.3347 19.1464C60.1432 19.1717 59.9587 19.2345 59.7916 19.3311L53.9403 22.7097C53.7685 22.8037 53.6172 22.9311 53.4953 23.0844C53.3734 23.2377 53.2833 23.4138 53.2304 23.6024C53.1775 23.7909 53.1628 23.9882 53.1872 24.1825C53.2116 24.3768 53.2746 24.5643 53.3725 24.734C53.4704 24.9036 53.6012 25.052 53.7572 25.1704C53.9132 25.2888 54.0913 25.3748 54.281 25.4234C54.4708 25.472 54.6683 25.4822 54.862 25.4534C55.0557 25.4246 55.2418 25.3573 55.4091 25.2556L61.2604 21.877C61.5981 21.6822 61.8447 21.3612 61.9458 20.9846C62.0469 20.6081 61.9943 20.2068 61.7996 19.869Z" fill="black"/>
<path d="M43.935 15.2482C44.1021 15.3448 44.2866 15.4076 44.4781 15.4328C44.6695 15.4581 44.864 15.4454 45.0504 15.3955C45.2369 15.3455 45.4118 15.2593 45.5649 15.1417C45.718 15.0242 45.8465 14.8776 45.943 14.7104L49.3216 8.85911C49.5131 8.5217 49.5634 8.12228 49.4616 7.74791C49.3599 7.37355 49.1142 7.05459 48.7783 6.86059C48.4423 6.66658 48.0433 6.61325 47.6682 6.71222C47.293 6.81119 46.9722 7.05443 46.7757 7.38893L43.3971 13.2402C43.2022 13.5778 43.1494 13.979 43.2503 14.3556C43.3511 14.7321 43.5974 15.0532 43.935 15.2482Z" fill="black"/>
<path d="M31.0013 11.7823C31.3912 11.7822 31.7651 11.6273 32.0408 11.3516C32.3165 11.0759 32.4714 10.702 32.4715 10.3121V3.55492C32.4737 3.36045 32.4374 3.16747 32.3645 2.98715C32.2916 2.80683 32.1837 2.64277 32.0469 2.50446C31.9102 2.36615 31.7474 2.25634 31.5679 2.1814C31.3885 2.10646 31.1959 2.06787 31.0014 2.06787C30.8069 2.06787 30.6144 2.10646 30.4349 2.1814C30.2555 2.25634 30.0926 2.36615 29.9559 2.50446C29.8192 2.64277 29.7112 2.80683 29.6384 2.98715C29.5655 3.16747 29.5291 3.36045 29.5313 3.55492V10.3121C29.5314 10.702 29.6863 11.0759 29.9619 11.3516C30.2376 11.6273 30.6115 11.7822 31.0013 11.7823Z" fill="black"/>
<path d="M16.0538 14.7104C16.2503 15.0449 16.5711 15.2881 16.9462 15.3871C17.3214 15.4861 17.7204 15.4327 18.0564 15.2387C18.3923 15.0447 18.638 14.7258 18.7397 14.3514C18.8415 13.977 18.7912 13.5776 18.5997 13.2402L15.2211 7.38897C15.1253 7.22027 14.9972 7.07219 14.8439 6.95326C14.6907 6.83433 14.5155 6.74691 14.3283 6.69602C14.1411 6.64513 13.9457 6.63179 13.7534 6.65677C13.561 6.68174 13.3755 6.74454 13.2075 6.84154C13.0396 6.93854 12.8924 7.06782 12.7747 7.22194C12.6569 7.37606 12.5708 7.55196 12.5213 7.73951C12.4718 7.92706 12.4599 8.12255 12.4864 8.31471C12.5128 8.50687 12.577 8.6919 12.6752 8.85914L16.0538 14.7104Z" fill="black"/>
<path d="M8.06586 22.7091L2.21461 19.3305C2.04737 19.2322 1.86234 19.168 1.67018 19.1416C1.47802 19.1152 1.28253 19.1271 1.09498 19.1766C0.907427 19.2261 0.731525 19.3122 0.577408 19.4299C0.423291 19.5477 0.294007 19.6948 0.197008 19.8628C0.100009 20.0308 0.0372118 20.2163 0.0122365 20.4086C-0.0127388 20.601 0.000601506 20.7964 0.0514885 20.9836C0.102375 21.1707 0.189803 21.346 0.308732 21.4992C0.427661 21.6524 0.57574 21.7806 0.744434 21.8764L6.59627 25.255C6.76351 25.3532 6.94854 25.4174 7.1407 25.4438C7.33286 25.4702 7.52835 25.4584 7.7159 25.4089C7.90345 25.3594 8.07935 25.2733 8.23347 25.1555C8.38758 25.0377 8.51687 24.8906 8.61387 24.7226C8.71087 24.5547 8.77366 24.3692 8.79864 24.1768C8.82361 23.9845 8.81027 23.7891 8.75939 23.6019C8.7085 23.4147 8.62107 23.2395 8.50214 23.0862C8.38321 22.933 8.23455 22.8048 8.06586 22.7091Z" fill="black"/>
</g>
<defs>
<clipPath id="clip0_1457_32512">
<rect width="62" height="62" fill="white"/>
</clipPath>
</defs>
</svg>
