<svg width="62" height="62" viewBox="0 0 62 62" fill="none" xmlns="http://www.w3.org/2000/svg">
<path d="M60.7083 37.9233L57.8757 40.0713L55.0508 38.1041C55.0508 37.8974 55.0508 37.6778 55.0379 37.4583C55.0379 37.2516 55.0379 37.032 55.025 36.8124C54.8441 31.7233 53.5525 26.2724 50.9691 22.2812C48.98 19.2199 46.4354 17.7603 43.5937 17.7603C40.61 17.7603 38.1816 19.5428 35.495 23.4178C35.4175 23.5341 35.327 23.6503 35.2495 23.7795C35.1979 23.8441 35.1591 23.9087 35.1075 23.9862C34.9783 24.1799 34.8491 24.3737 34.72 24.5803C33.5575 26.3887 32.3433 28.4941 31.0258 30.8191C30.9095 31.0387 30.7804 31.2583 30.6641 31.4778C30.6254 31.5295 30.5866 31.5941 30.5608 31.6458L30.2895 32.1237L28.6879 34.9524C24.9291 41.6045 23.9733 43.1287 22.1004 45.6216C18.8066 50.0003 15.9908 51.6666 12.2837 51.6666C7.89204 51.6666 5.10204 49.7678 3.38413 46.9003C1.97621 44.5753 1.29163 41.5141 1.29163 38.0266L7.71121 38.2462C7.71121 40.5195 8.20204 42.2503 8.86079 43.3095C9.71329 44.6787 10.9662 45.2083 12.2708 45.2083C13.937 45.2083 15.487 44.8595 18.432 40.7778C20.7958 37.5099 23.5858 32.9374 25.4587 30.057L27.2283 27.3574L27.6029 26.7633L27.9904 26.182L28.6362 25.1874C29.6179 23.6891 30.677 22.1003 31.8137 20.5762C31.9429 20.3953 32.072 20.2145 32.2141 20.0337C32.3433 19.8528 32.4854 19.672 32.6145 19.5041C33.777 18.0187 35.0041 16.6366 36.3216 15.4999C38.7112 13.4203 41.2816 12.2708 43.8779 12.2708C48.2308 12.2708 52.377 14.7895 55.5545 19.517C58.7966 24.3478 60.4887 30.367 60.6825 36.6316C60.6954 36.8383 60.6954 37.0578 60.6954 37.2774C60.7083 37.497 60.7083 37.7037 60.7083 37.9233Z" fill="#0081FB"/>
<path d="M6.35242 19.9639C9.29354 15.4366 13.5405 12.2708 18.4101 12.2708C21.2311 12.2708 24.034 13.1039 26.9623 15.4909C30.1643 18.1 33.5782 22.3961 37.8368 29.477L39.3635 32.0178C43.05 38.148 45.1463 41.301 46.3747 42.789C47.9531 44.6993 48.9387 45.2083 50.375 45.2083C54.0175 45.2083 55.047 41.9274 55.047 38.1028L60.7083 37.9258C60.7083 41.9235 59.9191 44.8608 58.5758 47.1806C57.279 49.4243 54.7499 51.6666 50.4951 51.6666C47.8498 51.6666 45.5067 51.0931 42.9156 48.6531C40.9239 46.7802 38.595 43.4529 36.8035 40.4627L31.474 31.5773C28.8003 27.1185 26.3474 23.7924 24.9279 22.2876C23.4011 20.6679 21.5153 18.7304 18.383 18.7304C15.8475 18.7304 13.618 20.4896 11.8162 23.206L6.35242 19.9639Z" fill="url(#paint0_linear_4142_3672)"/>
<path d="M18.4062 18.7291C15.8758 18.7291 13.649 20.4883 11.851 23.2047C9.30771 27.0435 7.74996 32.7605 7.74996 38.2513C7.74996 40.5156 7.74608 42.2193 8.39579 43.2708L3.43579 46.9042C2.03304 44.5715 1.29163 41.5916 1.29163 38.1041C1.29163 31.762 3.04183 25.0699 6.35238 19.9639C9.28963 15.4366 13.5715 12.2708 18.432 12.2708L18.4062 18.7291Z" fill="url(#paint1_linear_4142_3672)"/>
<path opacity="0.05" d="M27.9904 26.1821L27.6029 26.7633L27.2283 27.3575C28.1454 28.6879 29.1916 30.2896 30.2895 32.1237L30.5608 31.6458C30.5866 31.5941 30.6254 31.5296 30.6641 31.4779C30.7804 31.2583 30.9095 31.0387 31.0258 30.8192C29.9537 29.0625 28.9204 27.4996 27.9904 26.1821ZM32.2141 20.0337C32.072 20.2146 31.9429 20.3954 31.8137 20.5762C32.7566 21.7517 33.7124 23.0821 34.7199 24.5804C34.8491 24.3737 34.9783 24.18 35.1074 23.9862C35.1591 23.9087 35.1979 23.8441 35.2495 23.7796C35.327 23.6504 35.4174 23.5341 35.4949 23.4179C34.5133 21.9712 33.5574 20.6667 32.6145 19.5042C32.4854 19.6721 32.3433 19.8529 32.2141 20.0337Z" fill="black"/>
<path opacity="0.07" d="M27.9904 26.182L27.6029 26.7633C28.52 28.0808 29.5533 29.6566 30.6642 31.4779C30.7804 31.2583 30.9096 31.0387 31.0258 30.8191C29.9537 29.0624 28.9204 27.4995 27.9904 26.182ZM31.8137 20.5762C32.7567 21.7516 33.7125 23.082 34.72 24.5804C34.8492 24.3737 34.9783 24.1799 35.1075 23.9862C34.1129 22.5137 33.1442 21.1962 32.2142 20.0337C32.0721 20.2145 31.9429 20.3954 31.8137 20.5762Z" fill="black"/>
<defs>
<linearGradient id="paint0_linear_4142_3672" x1="54.6427" y1="31.9687" x2="17.4801" y2="31.9687" gradientUnits="userSpaceOnUse">
<stop stop-color="#0081FB"/>
<stop offset="0.995" stop-color="#0064E1"/>
</linearGradient>
<linearGradient id="paint1_linear_4142_3672" x1="9.86183" y1="42.457" x2="9.86183" y2="16.8071" gradientUnits="userSpaceOnUse">
<stop stop-color="#0081FB"/>
<stop offset="0.995" stop-color="#0064E1"/>
</linearGradient>
</defs>
</svg>
