<svg width="62" height="62" viewBox="0 0 62 62" fill="none" xmlns="http://www.w3.org/2000/svg">
<g clip-path="url(#clip0_1457_32637)">
<path d="M31.0367 0.000287137C36.0687 0.000287137 40.8069 1.17593 45.2512 3.45318L45.8389 3.74702L45.3246 4.15105C44.0758 5.14276 43.0841 6.4283 42.4597 7.8975L42.2761 8.30152L41.9088 8.11787C38.4929 6.50176 34.8566 5.65697 31.0735 5.65697C17.0794 5.65697 5.72986 17.0432 5.72986 31.0006C5.72986 44.9579 17.0427 56.3442 31.0367 56.3442C45.0308 56.3442 56.3803 44.9579 56.3803 31.0006C56.3803 27.6582 55.7559 24.3892 54.4337 21.3039L54.25 20.8999L54.654 20.7162C56.16 20.1653 57.4822 19.247 58.5474 18.0717L58.9514 17.5574L59.2085 18.1451C61.0818 22.2221 62 26.5563 62 30.9271C62 48.0065 48.0794 61.9271 31 61.9271C13.9206 61.9271 0 48.0065 0 30.9271C0 13.8477 13.9206 -0.0728832 31.0367 0.000287137ZM31.0367 16.8963C38.7867 16.8963 45.141 23.2138 45.1777 31.0373C45.1777 38.8608 38.8602 45.1783 31.0367 45.1783C23.2133 45.1783 16.8957 38.8608 16.8957 31.0373C16.8957 23.2138 23.25 16.8963 31.0367 16.8963ZM51.2749 5.21622C54.8451 5.21622 57.7393 8.11045 57.7393 11.6807C57.7393 15.2509 54.8451 18.1451 51.2749 18.1451C47.7047 18.1451 44.8104 15.2509 44.8104 11.6807C44.8104 8.11045 47.7047 5.21622 51.2749 5.21622Z" fill="#3880FF"/>
</g>
<defs>
<clipPath id="clip0_1457_32637">
<rect width="62" height="62" fill="white"/>
</clipPath>
</defs>
</svg>
