<svg width="62" height="62" viewBox="0 0 62 62" fill="none" xmlns="http://www.w3.org/2000/svg">
<path d="M58.125 31C58.125 45.973 45.9866 58.125 31 58.125C16.0134 58.125 3.875 45.973 3.875 31C3.875 16.0134 16.0134 3.875 31 3.875C45.9866 3.875 58.125 16.0134 58.125 31Z" fill="#070707"/>
<path d="M13.7291 40.3763H16.6917V26.6296H13.7291V40.3763ZM15.2044 24.8269C16.1206 24.8269 16.8582 24.0488 16.8582 23.0762C16.8582 22.0776 16.1206 21.3125 15.2044 21.3125C14.3002 21.3125 13.5625 22.0776 13.5625 23.0762C13.5625 24.0488 14.3002 24.8269 15.2044 24.8269Z" fill="white"/>
<path d="M27.0409 21.3521C22.0316 21.3521 18.8906 25.074 18.8906 31.0266C18.8906 36.9792 22.0316 40.6881 27.0409 40.6881C32.0379 40.6881 35.1789 36.9792 35.1789 31.0266C35.1789 25.074 32.0379 21.3521 27.0409 21.3521ZM27.0409 24.205C30.0986 24.205 32.0499 26.8507 32.0499 31.0266C32.0499 35.1895 30.0986 37.8349 27.0409 37.8349C23.9711 37.8349 22.0316 35.1895 22.0316 31.0266C22.0316 26.8507 23.9711 24.205 27.0409 24.205Z" fill="white"/>
<path d="M36.9336 35.1116C37.0644 38.5613 39.6581 40.6881 43.6083 40.6881C47.7607 40.6881 50.3783 38.4575 50.3783 34.9041C50.3783 32.1158 48.9029 30.5467 45.4167 29.6779L43.4417 29.185C41.3358 28.6403 40.4672 27.9142 40.4672 26.6691C40.4672 25.1129 41.776 24.0754 43.7154 24.0754C45.6785 24.0754 47.0231 25.1259 47.1659 26.8766H50.0927C50.0214 23.5827 47.5228 21.3521 43.7393 21.3521C40.0032 21.3521 37.35 23.5955 37.35 26.9156C37.35 29.587 38.8492 31.2471 42.0139 32.0381L44.2389 32.6087C46.4043 33.1663 47.2849 33.9444 47.2849 35.2931C47.2849 36.8493 45.8451 37.9648 43.7749 37.9648C41.6809 37.9648 40.0983 36.8364 39.908 35.1116H36.9336Z" fill="white"/>
</svg>
