<svg width="62" height="62" viewBox="0 0 62 62" fill="none" xmlns="http://www.w3.org/2000/svg">
<g clip-path="url(#clip0_1457_32353)">
<path d="M22.5132 47.9332C22.5132 47.9332 20.1301 49.3824 24.1698 49.797C29.0329 50.417 31.6233 50.3144 37.0057 49.2797C38.0874 49.9422 39.2315 50.497 40.4215 50.9363C28.3121 56.1133 12.9865 50.6263 22.5113 47.9332H22.5132ZM20.9632 41.2042C20.9632 41.2042 18.3747 43.1708 22.4124 43.5874C27.6921 44.1047 31.8326 44.2074 38.9781 42.7601C39.673 43.4648 40.5238 43.9964 41.462 44.312C26.8648 48.6597 10.5084 44.7266 20.9632 41.2062V41.2042ZM49.5355 53.0036C49.5355 53.0036 51.2948 54.4529 47.569 55.5921C40.6327 57.6652 18.4793 58.2852 12.2677 55.5921C10.0938 54.6621 14.2343 53.3155 15.5614 53.1082C16.908 52.7982 17.6346 52.7982 17.6346 52.7982C15.2514 51.1417 1.79551 56.214 10.8029 57.6614C35.5448 61.6991 55.939 55.9021 49.52 53.0036H49.5355ZM23.6331 34.1634C23.6331 34.1634 12.3491 36.8565 19.5953 37.7865C22.7011 38.2011 28.8081 38.0965 34.5024 37.6838C39.1602 37.2692 43.8218 36.4438 43.8218 36.4438C43.8218 36.4438 42.1653 37.1684 41.026 37.8931C29.5366 40.8962 7.48401 39.5496 13.8003 36.4438C19.1826 33.8553 23.635 34.1672 23.635 34.1672L23.6331 34.1634ZM43.8218 45.4474C55.4158 39.4411 50.0335 33.648 46.3057 34.3707C45.3757 34.578 44.9591 34.7853 44.9591 34.7853C44.9591 34.7853 45.2691 34.1653 45.9938 33.958C53.3446 31.3695 59.1416 41.7216 43.6106 45.7574C43.6106 45.7574 43.7133 45.6547 43.818 45.4474H43.8218ZM24.7762 61.8037C35.9556 62.5284 53.0385 61.3891 53.4512 56.1075C53.4512 56.1075 52.6239 58.1806 44.2384 59.7306C34.7136 61.4899 22.9123 61.2806 15.9761 60.1452C15.9761 60.1452 17.4253 61.3852 24.7762 61.8018V61.8037Z" fill="#4E7896"/>
<path d="M36.7956 0.00292969C36.7956 0.00292969 43.2145 6.52455 30.6886 16.3593C20.6465 24.3302 28.412 28.8852 30.6886 34.0622C24.7869 28.7826 20.5438 24.1229 23.4423 19.7771C27.6854 13.3562 39.3841 10.2697 36.7956 0.00292969ZM33.5018 29.7145C36.5049 33.1303 32.6745 36.2361 32.6745 36.2361C32.6745 36.2361 40.3354 32.303 36.8149 27.436C33.6064 22.7782 31.1187 20.4997 44.5785 12.7362C44.5785 12.7362 23.3571 18.0159 33.5018 29.7145V29.7145Z" fill="#F58219"/>
</g>
<defs>
<clipPath id="clip0_1457_32353">
<rect width="62" height="62" fill="white"/>
</clipPath>
</defs>
</svg>
