<svg width="62" height="62" viewBox="0 0 62 62" fill="none" xmlns="http://www.w3.org/2000/svg">
<g clip-path="url(#clip0_1457_32286)">
<path d="M0 0H62V62H0V0Z" fill="#F0DB4F"/>
<path d="M56.9171 47.2139C56.4633 44.385 54.6187 42.0099 49.1554 39.794C47.2576 38.9217 45.1419 38.2971 44.5113 36.859C44.2873 36.0221 44.2578 35.5506 44.3993 35.0438C44.8059 33.3995 46.7685 32.8867 48.3244 33.3582C49.3263 33.6942 50.2751 34.4663 50.8468 35.698C53.5225 33.9653 53.5166 33.9771 55.3848 32.7866C54.7012 31.7258 54.3358 31.2366 53.8879 30.7828C52.2789 28.9853 50.0865 28.06 46.5799 28.1307C45.9728 28.2073 45.36 28.2898 44.7529 28.3665C43.0026 28.8085 41.3346 29.7279 40.3563 30.9596C37.4213 34.2895 38.2582 40.1181 41.8297 42.5168C45.3481 45.1571 50.5168 45.7583 51.1768 48.2277C51.8192 51.2511 48.955 52.2293 46.1084 51.8817C44.0103 51.4456 42.8434 50.3788 41.5822 48.4398C39.2602 49.7836 39.2602 49.7836 36.8733 51.1568C37.4391 52.3944 38.0343 52.9543 38.9832 54.0269C43.474 58.5826 54.713 58.3587 56.7286 51.4632C56.8111 51.2274 57.3533 49.648 56.9171 47.2139V47.2139ZM33.6966 28.4961H27.8974C27.8974 33.5056 27.8739 38.4797 27.8739 43.4892C27.8739 46.6776 28.0389 49.6008 27.5202 50.4966C26.6716 52.2587 24.4733 52.0407 23.4714 51.6989C22.4518 51.1979 21.9332 50.4848 21.332 49.4771C21.167 49.1883 21.0433 48.9643 21.0019 48.9466C19.4284 49.9073 17.8607 50.8738 16.2871 51.8345C17.071 53.4434 18.2261 54.8402 19.7054 55.7477C21.9154 57.0738 24.8858 57.4804 27.9917 56.7673C30.0132 56.1779 31.7576 54.958 32.6711 53.1016C33.9913 50.6675 33.7084 47.7208 33.6966 44.4617C33.7261 39.1457 33.6966 33.8297 33.6966 28.4961Z" fill="#323330"/>
</g>
<defs>
<clipPath id="clip0_1457_32286">
<rect width="62" height="62" fill="white"/>
</clipPath>
</defs>
</svg>
