<svg width="62" height="62" viewBox="0 0 62 62" fill="none" xmlns="http://www.w3.org/2000/svg">
<path d="M14.4102 27.5397C14.5068 27.4536 14.6135 27.3794 14.7279 27.3188C14.61 27.3736 14.5025 27.4483 14.4102 27.5397Z" fill="#F0D6B7"/>
<path d="M20.1686 35.3658C20.2849 36.1815 20.6336 43.4336 25.5277 47.4752C26.5222 47.6302 27.5239 47.7349 28.5289 47.7891C29.0714 46.6266 31.0709 46.7157 32.3749 47.0141C30.7401 46.1793 29.3027 45.0048 28.1589 43.5692C26.6363 42.2396 25.6273 40.419 25.3069 38.4232C27.9186 42.0463 30.077 45.2044 34.8258 46.8048C38.4199 48.0099 42.6165 46.2526 45.3774 44.3132C46.4414 43.39 47.3363 42.2886 48.0221 41.0582C51.1529 36.076 52.6091 30.2234 52.178 24.355C52.2663 22.0889 51.9379 19.8259 51.2093 17.6784C50.3316 15.9191 47.3653 14.3459 45.6293 15.9346C45.6006 15.7775 45.5902 15.6175 45.5983 15.458C45.3212 15.7176 45.1527 15.9075 45.1527 15.9075C45.0087 15.613 44.9282 15.2915 44.9163 14.9639C44.941 14.201 45.2551 13.476 45.7949 12.9363C46.3347 12.3965 47.0596 12.0824 47.8225 12.0577C46.9968 10.9332 46.0342 9.91596 44.957 9.02938C41.1787 7.73827 37.1037 7.58867 33.2409 8.59925C30.5633 9.17487 28.0841 10.4446 26.0522 12.281C24.0203 14.1173 22.5071 16.4558 21.6644 19.0618C21.2949 20.5004 21.0435 21.9668 20.9126 23.4463C20.8525 25.1591 21.7186 26.6529 21.7845 28.5168C21.3214 29.2801 19.907 29.3751 18.9286 29.3228C18.8569 28.9604 18.7697 28.5884 18.6651 28.2261C17.8945 27.7964 17.0703 27.4707 16.2142 27.2574C16.965 27.5645 17.5779 28.1352 17.9379 28.8622C18.2978 29.5893 18.3801 30.4227 18.1691 31.206C17.4464 30.7933 17.274 28.9779 16.4254 28.9256C15.2125 28.8519 15.4334 31.2816 15.4392 32.7037C15.0192 32.0789 14.7651 31.3575 14.7007 30.6074C14.6363 29.8574 14.7638 29.1033 15.071 28.416C14.5208 28.1467 14.2108 28.5342 13.9085 28.8364C13.4784 30.8437 12.8487 32.4654 14.0287 34.4939C14.3653 34.8851 14.7876 35.1935 15.2627 35.3951C15.7379 35.5967 16.253 35.6861 16.7683 35.6564C17.8669 35.5479 18.1362 34.4474 19.3335 34.4591C19.5545 34.4942 19.7571 34.6028 19.9086 34.7674C20.0602 34.9319 20.1518 35.1428 20.1686 35.3658ZM32.6635 39.1381L32.0823 39.0199C32.0823 39.0199 31.4739 36.8887 31.7665 36.4896C31.9215 36.2823 32.774 35.9703 33.9675 36.5438C33.9597 36.5458 32.5454 36.7821 32.6635 39.1381ZM43.7189 41.7363C41.565 42.4668 39.2289 42.4573 37.081 41.7092C36.0706 40.9689 35.2243 40.0276 34.5952 38.9444C34.2949 38.5569 32.7992 37.5726 34.572 37.5707C35.9612 41.0582 40.7332 40.6552 44.7574 40.5603C44.572 41.0697 44.2011 41.4884 43.7189 41.7363ZM44.3002 38.6363C44.2089 37.9528 44.2089 37.2602 44.3002 36.5768C46.339 36.1783 48.2846 35.3994 50.0352 34.2808C49.5991 35.4813 48.8259 36.5305 47.8083 37.3024C46.7906 38.0743 45.5719 38.5361 44.2982 38.6324L44.3002 38.6363ZM49.6399 22.9949C49.2854 23.1131 46.9855 24.4713 47.1638 22.7585C47.2539 22.254 47.4904 21.7872 47.8439 21.4161C48.1973 21.0451 48.6522 20.7862 49.1517 20.6718C49.1346 20.4138 49.1346 20.1549 49.1517 19.8968H49.3047C49.9495 21.4305 50.7085 22.9137 51.5755 24.3337C50.9613 25.7636 46.9255 27.0268 46.9914 24.4616C47.8632 24.0741 49.3687 24.3841 50.1417 23.8978C49.9596 23.3998 49.7542 22.929 49.5605 22.433L49.6399 22.9949ZM39.5901 32.198C39.6247 32.2602 39.6545 32.325 39.6792 32.3918C39.8555 31.4094 40.181 30.2605 40.741 30.4291C41.0131 30.5049 41.2539 30.6658 41.4282 30.8882C41.6025 31.1105 41.7011 31.3828 41.7097 31.6652C41.0571 32.0876 40.4425 32.566 39.873 33.0951C39.9989 33.6763 40.152 34.2576 40.8863 34.3893C43.0292 34.7555 45.5227 33.0776 47.065 32.4925C48.0202 30.8805 46.9817 30.2876 46.1214 29.2511C44.3583 27.1198 41.9945 24.4926 42.0798 21.3073C42.7928 20.79 42.8548 22.0959 42.9555 22.3342C44.2639 24.8112 45.9234 27.0861 47.8826 29.0883C48.2972 29.5417 48.9812 29.9776 49.0567 30.2779C49.2757 31.1518 48.4871 32.198 48.5782 32.7773C46.1232 34.7102 43.0444 35.6754 39.9253 35.4898C39.4871 35.0695 39.2125 34.5072 39.1504 33.9033C39.0883 33.2993 39.2427 32.6929 39.5862 32.1922L39.5901 32.198ZM43.3837 36.6949C43.5068 37.3729 43.5561 38.0621 43.531 38.7506C40.0222 38.925 35.874 38.057 34.9537 35.5944C37.6516 36.5612 40.5264 36.9345 43.3818 36.6891L43.3837 36.6949ZM35.1377 19.9394C35.5881 21.2086 36.2261 22.4031 37.0307 23.4831C37.4724 23.9133 38.3288 24.4364 37.9045 25.6318C37.6042 26.0947 37.1704 26.4555 36.6606 26.6664C35.13 27.1179 31.563 26.7594 32.7701 24.851C34.0353 24.9091 35.7384 25.6725 36.6839 24.7541C36.4998 24.4596 36.2789 24.0934 36.06 23.6866C35.0912 24.2988 32.4291 24.3259 32.4291 22.7585C32.4291 21.1078 35.0234 20.7551 35.0234 20.7551L35.0428 20.8016C35.0141 20.509 35.0458 20.2136 35.1358 19.9336L35.1377 19.9394ZM28.8912 14.2664C31.2065 12.6874 32.3787 13.5883 32.96 14.6307C33.1099 14.6899 33.245 14.7813 33.3557 14.8984C33.4665 15.0155 33.5501 15.1556 33.6007 15.3086C33.6514 15.4616 33.6678 15.6239 33.6488 15.784C33.6298 15.9441 33.5759 16.098 33.4909 16.2349C30.2785 15.4871 28.682 17.5796 27.7074 19.7496C27.4575 20.2029 27.4439 19.8813 27.3005 19.4861C27.2447 19.4066 27.2045 19.3171 27.1824 19.2226C27.1341 19.1366 27.0741 19.0577 27.0041 18.9881C26.5391 18.5096 26.2969 16.0354 28.8912 14.2664Z" fill="#F0D6B7"/>
<path d="M12.1788 56.7309H29.1377C29.0602 56.4693 28.9846 56.2116 28.9091 55.9675C28.4983 54.737 28.1898 53.4746 27.9868 52.1933C25.9076 51.2922 23.907 50.2196 22.0058 48.9867C21.8386 48.8326 21.6831 48.6661 21.5408 48.4888L11.3379 53.0477C11.3379 53.0477 11.7041 54.5086 12.1788 56.7309Z" fill="#335061"/>
<path d="M18.2852 13.5623C18.5794 13.4719 18.8829 13.4147 19.19 13.3918C19.6694 13.4579 20.1542 13.4767 20.6373 13.448C21.5944 13.2097 22.4043 11.063 23.127 10.2628C23.7073 9.72925 24.3159 9.22735 24.9502 8.75928C22.3047 9.67037 19.9864 11.341 18.2852 13.5623Z" fill="#6D6B6D"/>
<path d="M13.8969 24.3853C14.5089 24.0618 15.192 23.8962 15.8841 23.9034C16.5763 23.9106 17.2558 24.0904 17.8609 24.4265C18.466 24.7627 18.9777 25.2445 19.3495 25.8284C19.7214 26.4122 19.9417 27.0796 19.9904 27.7701C21.335 27.7353 20.4922 26.0923 20.25 25.0324C19.5351 21.9169 21.1936 18.5612 20.622 15.6143C13.1316 16.7341 13.554 22.4866 13.8969 24.3853Z" fill="#6D6B6D"/>
<path d="M25.6754 7.46158C22.1491 8.46133 17.6309 11.0227 16.1816 14.1905C16.8967 14.0353 17.5989 13.8254 18.2819 13.5628C19.9832 11.3414 22.3014 9.6708 24.9469 8.7597C25.0569 8.6598 25.1599 8.55233 25.255 8.43808C25.627 8.25789 26.1772 8.27146 26.1985 7.71152C26.0377 7.53908 25.8672 7.40733 25.6754 7.46158Z" fill="#DCD9D8"/>
<path d="M14.525 17.4085C12.975 19.1232 13.2928 22.3336 13.4827 24.6179C13.6192 24.5329 13.7602 24.4553 13.905 24.3854C13.5563 22.4886 13.1417 16.7342 20.6301 15.6144C20.5677 15.2882 20.4756 14.9685 20.355 14.6592C18.1272 14.7792 16.0348 15.7659 14.525 17.4085Z" fill="#DCD9D8"/>
<path d="M20.1706 35.3652C20.1548 35.1452 20.0663 34.9367 19.9189 34.7726C19.7716 34.6084 19.5739 34.4979 19.3568 34.4585C20.0059 35.7527 18.3571 36.1596 18.1943 37.0838C18.2157 37.6284 18.2969 38.169 18.4365 38.6958C19.0107 41.0062 19.9563 43.2081 21.2362 45.2155C21.7627 45.8638 22.4154 46.3984 23.1548 46.7868C23.8942 47.1751 24.7049 47.4091 25.5375 47.4746C20.6356 43.4349 20.2868 36.1809 20.1706 35.3652Z" fill="#F7E4CD"/>
<path d="M41.7043 31.6549C41.6957 31.3725 41.5971 31.1002 41.4228 30.8778C41.2485 30.6555 41.0077 30.4946 40.7356 30.4187C40.1756 30.2599 39.8501 31.3991 39.6738 32.3814C39.7569 32.6104 39.8217 32.8456 39.8676 33.0847C40.4371 32.5557 41.0517 32.0772 41.7043 31.6549Z" fill="#F7E4CD"/>
<path d="M47.1602 22.7551C46.9819 24.4679 49.2914 23.1097 49.6363 22.9915L49.553 22.4374C49.3329 21.8705 49.1965 21.2746 49.1481 20.6685C48.6485 20.7829 48.1937 21.0417 47.8402 21.4128C47.4868 21.7838 47.2503 22.2507 47.1602 22.7551Z" fill="#F7E4CD"/>
<path d="M32.4229 22.7548C32.4229 24.3223 35.0792 24.2952 36.0537 23.6829C35.5288 22.7972 35.1832 21.817 35.0365 20.798L35.0172 20.7515C35.0172 20.7515 32.4229 21.1041 32.4229 22.7548Z" fill="#F7E4CD"/>
<path d="M13.9255 28.8395C13.8523 28.9181 13.7712 28.9889 13.6834 29.0507C13.7298 28.4758 13.9848 27.9376 14.4002 27.5375C14.4922 27.447 14.599 27.3729 14.716 27.3186C14.9507 27.2046 15.2064 27.1402 15.4671 27.1296C15.7278 27.1189 15.9879 27.1621 16.2312 27.2566C17.0873 27.4699 17.9115 27.7956 18.6821 28.2253C18.3082 26.9388 17.6669 25.7782 16.3416 25.6329C15.8091 25.5891 15.2732 25.6539 14.7665 25.8236C14.2599 25.9933 13.793 26.2643 13.3943 26.62C12.9956 26.9757 12.6734 27.4088 12.4473 27.893C12.2212 28.3771 12.0959 28.9022 12.0791 29.4362C12.0796 31.3067 12.7813 33.109 14.0457 34.4873C12.8638 32.4684 13.4954 30.8467 13.9255 28.8395Z" fill="#F7E4CD"/>
<path d="M33.2582 8.60804C37.121 7.59747 41.1959 7.74707 44.9742 9.03817C44.6734 8.80331 44.3561 8.59028 44.0248 8.40073C40.3649 6.33536 34.1707 4.78342 30.2686 6.72286C27.1279 8.28836 22.8809 10.8807 21.4336 14.1648C22.0281 15.7341 22.1115 17.451 21.6719 19.0705C22.5154 16.4634 24.0301 14.1241 26.0639 12.2876C28.0976 10.4511 30.5788 9.18213 33.2582 8.60804Z" fill="#F7E4CD"/>
<path d="M44.9258 14.9731C44.9377 15.3007 45.0182 15.6222 45.1622 15.9167C45.1622 15.9167 45.3307 15.723 45.6078 15.4672C45.6678 14.0451 47.2837 13.2352 49.1573 13.7893C48.7272 13.2352 48.2912 12.6481 47.8378 12.0669C47.0739 12.0901 46.3475 12.4036 45.8065 12.9435C45.2655 13.4835 44.9506 14.2092 44.9258 14.9731Z" fill="#F7E4CD"/>
<path d="M27.3066 19.4878C27.45 19.8753 27.4655 20.2047 27.7135 19.7513C27.5499 19.7169 27.4049 19.623 27.3066 19.4878Z" fill="#F7E4CD"/>
<path d="M27.1871 19.2242C27.1311 18.7238 27.2072 18.2174 27.408 17.7556C27.7986 16.7916 28.4566 15.9594 29.3045 15.3569C30.1524 14.7545 31.1548 14.4069 32.1936 14.3553C32.4669 14.3987 32.7298 14.4926 32.9686 14.6323C32.3874 13.59 31.2249 12.6948 28.8999 14.2681C26.3075 16.037 26.542 18.5112 27.0147 18.984C27.0831 19.0557 27.1411 19.1365 27.1871 19.2242Z" fill="#F7E4CD"/>
<path d="M11.3313 53.0472L21.5342 48.4883C20.7863 47.6203 19.4437 45.9695 19.2092 46.0528C15.2932 47.7937 11.6356 50.0658 8.33984 52.805C8.93318 54.0843 9.45707 55.3947 9.90922 56.7304H12.1722C11.6975 54.5081 11.3313 53.0472 11.3313 53.0472Z" fill="#49728B"/>
<path d="M52.3175 56.7824C52.7391 55.4722 53.0935 54.1414 53.3792 52.795C53.449 52.4443 53.5846 51.8747 53.6815 51.3303L48.0898 47.1763C49.1673 49.5632 49.2579 52.2792 48.3417 54.7325C48.5355 55.4533 49.2213 55.7303 49.5042 56.3794C49.4383 56.4956 49.3725 56.61 49.3105 56.7262H52.1702C52.2236 56.7309 52.2745 56.7504 52.3175 56.7824Z" fill="#335061"/>
<path d="M45.7578 46.3955C46.0638 46.2347 46.409 46.1635 46.7537 46.1901L46.2926 45.8472C46.0902 46.0048 45.9103 46.1893 45.7578 46.3955Z" fill="#335061"/>
<path d="M53.7746 50.1408C53.6312 49.1003 52.2246 48.3292 51.5038 47.6879C50.1786 46.5002 49.3493 45.4539 47.9718 44.3438C47.4798 44.9175 46.9136 45.4231 46.2881 45.8473L46.7492 46.1902C47.0335 46.2369 47.3025 46.351 47.5337 46.5229C47.765 46.6948 47.9517 46.9195 48.0783 47.1783L53.6661 51.3304C53.7546 50.9404 53.7911 50.5403 53.7746 50.1408Z" fill="#49728B"/>
<path d="M39.8555 56.5748C39.857 56.6243 39.8628 56.6735 39.8729 56.722H40.801C40.801 56.5509 40.8689 56.3868 40.9899 56.2658C41.1109 56.1448 41.275 56.0768 41.4462 56.0768C41.6173 56.0768 41.7814 56.1448 41.9024 56.2658C42.0234 56.3868 42.0913 56.5509 42.0913 56.722H43.591V56.6639C43.0601 56.3849 41.8995 55.7823 41.266 55.5149C40.4445 55.1701 39.8555 56.5748 39.8555 56.5748Z" fill="white"/>
<path d="M39.8641 56.5752C39.8641 56.5752 40.4453 55.1608 41.2784 55.5134C41.9023 55.7808 43.0629 56.3834 43.6034 56.6624C43.6228 56.2361 43.6422 55.8099 43.6693 55.3836C42.4719 55.4592 41.8074 54.3005 40.9684 54.2114C40.2361 54.132 39.6122 55.0542 38.6628 54.6551C38.4439 54.8954 38.2463 55.1569 38.0234 55.3933C38.3684 55.8141 38.6849 56.2575 38.9709 56.7205H39.8931C39.8792 56.673 39.8695 56.6244 39.8641 56.5752Z" fill="#DCD9D8"/>
<path d="M28.1159 48.7652C26.6169 48.7612 25.1298 48.499 23.7197 47.9902C23.6642 48.0438 23.6207 48.1085 23.592 48.18C23.5633 48.2516 23.5501 48.3284 23.5532 48.4055C23.5563 48.4825 23.5757 48.558 23.6101 48.6271C23.6444 48.6961 23.693 48.757 23.7527 48.8059C25.0731 49.3784 26.4698 49.7556 27.8989 49.9258C28.0386 49.5546 28.1121 49.1618 28.1159 48.7652Z" fill="white"/>
<path d="M27.8168 50.5087C27.8193 50.3125 27.846 50.1172 27.8962 49.9275C26.4672 49.7573 25.0704 49.38 23.75 48.8076C24.9252 49.7348 26.3315 50.3231 27.8168 50.5087Z" fill="#DCD9D8"/>
<path d="M47.6825 53.6556C47.8126 53.1038 47.8603 52.5357 47.8239 51.9699C47.7831 51.0694 47.6533 50.1751 47.4364 49.3001C46.7841 49.221 46.1231 49.2531 45.4815 49.395C44.9002 49.5132 44.3015 49.6314 44.1853 50.3386C44.069 51.0458 44.4217 51.4003 44.0671 51.9893C43.7125 52.5783 43.1235 52.2257 42.5345 52.5706C42.1335 52.8108 42.3873 53.4328 42.5907 53.8067C44.1549 54.1624 45.7513 54.3572 47.355 54.3879C47.5104 54.1672 47.6215 53.9185 47.6825 53.6556Z" fill="#D33833"/>
<path d="M30.1523 56.6123C30.1833 56.6956 30.2163 56.7828 30.2434 56.8603C30.2705 56.9378 30.2996 57.0405 30.3248 57.1296L30.3073 56.9029L30.1523 56.6123Z" fill="#D33833"/>
<path d="M37.905 54.1052C37.9179 53.7642 37.9315 53.4238 37.9457 53.0841C37.33 53.2744 36.665 53.2231 36.0857 52.9408C34.2703 51.9507 35.9888 52.2433 35.3456 50.9296C34.6099 50.5387 33.8037 50.2983 32.9741 50.2224C30.5948 50.2224 29.6803 49.7439 29.9361 52.4874C30.0698 53.9599 30.1899 55.4304 30.3061 56.9049C30.4999 57.2691 30.6743 57.5966 30.8138 57.8736C32.058 57.7532 33.2655 57.385 34.3652 56.7906C35.5932 55.9606 36.7748 55.0641 37.905 54.1052Z" fill="#D33833"/>
<path d="M38.8105 52.7002C38.8512 52.8726 38.8939 53.0664 38.9345 53.3008C39.1093 53.3946 39.3025 53.449 39.5005 53.46C39.6985 53.4711 39.8965 53.4386 40.0806 53.3648C40.2647 53.291 40.4303 53.1778 40.5659 53.0331C40.7015 52.8883 40.8037 52.7156 40.8653 52.5271C40.9269 52.3386 40.9464 52.1389 40.9224 51.942C40.8984 51.7451 40.8316 51.5559 40.7265 51.3877C40.6215 51.2195 40.4809 51.0763 40.3145 50.9683C40.1482 50.8603 39.9602 50.7901 39.7638 50.7627C39.8283 51.1448 39.771 51.5376 39.5999 51.8853C39.4288 52.233 39.1527 52.5181 38.8105 52.7002Z" fill="#D33833"/>
<path d="M42.5365 52.5779C43.1177 52.2233 43.7164 52.5779 44.069 51.9966C44.4217 51.4154 44.069 51.0531 44.1872 50.3459C44.3054 49.6387 44.8944 49.5205 45.4834 49.4023C46.125 49.2604 46.786 49.2283 47.4384 49.3074C47.3623 48.8224 47.1247 48.3773 46.7641 48.0441C45.3168 47.1994 42.7806 49.6426 41.6007 50.1618L41.4902 50.2064C41.6651 50.5444 41.7798 50.9102 41.8293 51.2875C42.0902 51.223 42.359 51.1956 42.6275 51.2061C42.8072 51.2133 42.986 51.2347 43.1623 51.2701C43.2495 51.2875 43.3347 51.3088 43.42 51.3321C43.5819 51.3774 43.7395 51.4371 43.8908 51.5103C43.397 51.5303 42.9061 51.5952 42.4241 51.7041C42.286 51.7445 42.1552 51.8066 42.0366 51.8881C41.9836 52.4678 41.961 53.0498 41.9688 53.6319C42.1729 53.69 42.3808 53.7443 42.5927 53.7946C42.3892 53.4401 42.1354 52.8181 42.5365 52.5779Z" fill="#EF3D3A"/>
<path d="M30.3211 57.1276C30.42 57.4822 30.5052 57.8018 30.8113 57.8735C30.6718 57.5945 30.4955 57.2671 30.3037 56.9048L30.3211 57.1276Z" fill="#EF3D3A"/>
<path d="M29.9394 52.4851C29.6894 49.7416 30.5981 50.2202 32.9774 50.2202C33.807 50.296 34.6132 50.5364 35.3489 50.9274C35.9921 52.241 34.2736 51.9485 36.089 52.9385C36.6683 53.2209 37.3333 53.2721 37.949 53.0819V52.9598C37.3909 52.6796 36.7919 52.49 36.1742 52.398C35.936 52.362 35.6961 52.3387 35.4554 52.3282C35.6361 52.2412 35.8249 52.1724 36.0192 52.1228C36.6276 52.0272 37.2189 51.8438 37.7746 51.5784C37.7746 51.4253 37.7862 51.2723 37.7921 51.1211C37.662 51.1106 37.5327 51.0932 37.4046 51.0688C37.2887 51.0471 37.1742 51.0186 37.0616 50.9836C36.8639 50.921 36.6731 50.8386 36.492 50.7375C36.1471 50.5438 35.8507 50.319 35.4748 50.1136C34.0082 49.3268 32.4374 48.7521 30.8093 48.4067C29.0249 48.0657 29.0094 50.5476 29.0849 52.3766C29.0849 52.5704 29.1004 52.7486 29.1101 52.9191C29.2743 54.1923 29.6296 55.4333 30.1641 56.6004L30.3172 56.891C30.1951 55.4301 30.0731 53.9576 29.9394 52.4851Z" fill="#EF3D3A"/>
<path d="M39.7589 50.7627C39.3518 50.7713 38.9576 50.9068 38.6313 51.1502C38.6034 51.4158 38.6079 51.6839 38.6448 51.9484C38.6661 52.1015 38.6991 52.2488 38.7378 52.4096L38.7979 52.6634V52.6963C39.1407 52.5156 39.418 52.2317 39.5905 51.8846C39.763 51.5376 39.8219 51.1451 39.7589 50.7627Z" fill="#EF3D3A"/>
<path d="M27.4087 17.7558C27.2079 18.2176 27.1318 18.724 27.1878 19.2244C27.21 19.319 27.2501 19.4084 27.306 19.4879C27.4043 19.6231 27.5493 19.717 27.7129 19.7514C28.6816 17.5814 30.284 15.4889 33.4963 16.2368C33.5814 16.0998 33.6353 15.9459 33.6543 15.7858C33.6733 15.6258 33.6569 15.4635 33.6062 15.3105C33.5556 15.1574 33.4719 15.0174 33.3612 14.9002C33.2505 14.7831 33.1154 14.6917 32.9655 14.6325C32.7266 14.4928 32.4638 14.3989 32.1905 14.3555C31.1523 14.4079 30.1507 14.7557 29.3036 15.3581C28.4565 15.9605 27.799 16.7924 27.4087 17.7558Z" fill="#231F20"/>
<path d="M46.9851 24.4651C46.9231 27.0304 50.955 25.7671 51.5692 24.3373C50.7023 22.9173 49.9432 21.4341 49.2985 19.9004H49.1454C49.1284 20.1584 49.1284 20.4173 49.1454 20.6754C49.1938 21.2816 49.3303 21.8774 49.5503 22.4443C49.7344 22.9403 49.9475 23.4131 50.1316 23.9091C49.3624 24.3876 47.8531 24.0835 46.9851 24.4651Z" fill="#231F20"/>
<path d="M36.688 24.7478C35.7425 25.6662 34.0394 24.9028 32.7742 24.8447C31.5672 26.7531 35.1341 27.1115 36.6647 26.6601C37.1746 26.4492 37.6083 26.0884 37.9086 25.6255C38.3329 24.43 37.4766 23.9069 37.0348 23.4768C36.2303 22.3968 35.5922 21.2023 35.1419 19.9331C35.052 20.2111 35.0197 20.5044 35.0469 20.7953C35.1936 21.8143 35.5392 22.7946 36.0641 23.6802C36.285 24.0871 36.5039 24.4533 36.688 24.7478Z" fill="#231F20"/>
<path d="M39.9272 35.4858C43.0463 35.6714 46.1251 34.7062 48.5801 32.7733C48.489 32.1921 49.2776 31.1458 49.0586 30.2739C48.9831 29.9736 48.2991 29.5377 47.8845 29.0843C45.9254 27.0821 44.2658 24.8072 42.9574 22.3302C42.8548 22.0919 42.7928 20.7802 42.0817 21.3033C41.9964 24.4847 44.3602 27.1158 46.1233 29.2471C46.9836 30.2836 48.0221 30.8765 47.0669 32.4885C45.5169 33.0697 43.0311 34.7534 40.8882 34.3853C40.1539 34.2594 40.0008 33.6781 39.8749 33.0911C39.829 32.8519 39.7642 32.6167 39.6811 32.3877C39.6564 32.321 39.6266 32.2562 39.592 32.194C39.2496 32.6937 39.0954 33.2986 39.1567 33.9013C39.2181 34.504 39.4911 35.0654 39.9272 35.4858Z" fill="#231F20"/>
<path d="M14.7242 27.3196C14.6134 27.379 14.51 27.4512 14.4161 27.5346C14.0007 27.9348 13.7457 28.4729 13.6992 29.0478C13.787 28.986 13.8682 28.9152 13.9414 28.8366C14.2378 28.5344 14.5478 28.145 15.1039 28.4162C14.7966 29.1035 14.6692 29.8576 14.7336 30.6076C14.798 31.3577 15.0521 32.0791 15.472 32.7039C15.472 31.2837 15.2453 28.8541 16.4582 28.9258C17.3068 28.9781 17.4793 30.7935 18.202 31.2062C18.4109 30.4215 18.3259 29.5875 17.963 28.861C17.6002 28.1346 16.9844 27.5657 16.2315 27.2614C15.9897 27.1675 15.7311 27.1242 15.4718 27.1342C15.2125 27.1442 14.9581 27.2073 14.7242 27.3196Z" fill="#231F20"/>
<path d="M44.2979 36.5703C44.2067 37.2538 44.2067 37.9464 44.2979 38.6299C45.5726 38.5335 46.7923 38.071 47.8103 37.298C48.8284 36.525 49.6015 35.4744 50.0368 34.2725C48.2852 35.3922 46.3383 36.1718 44.2979 36.5703Z" fill="#231F20"/>
<path d="M43.5431 38.75C43.5684 38.0581 43.5183 37.3656 43.3939 36.6846C40.539 36.9319 37.6642 36.5605 34.9658 35.5957C35.8861 38.0602 40.0343 38.9282 43.5431 38.75Z" fill="#231F20"/>
<path d="M34.5767 37.5679C32.8039 37.5679 34.2996 38.556 34.6 38.9416C35.2294 40.0256 36.0764 40.9676 37.0877 41.7083C39.2356 42.4564 41.5717 42.4659 43.7256 41.7354C44.2081 41.4871 44.579 41.0657 44.7641 40.5555C40.738 40.6524 35.9659 41.0534 34.5767 37.5679Z" fill="#231F20"/>
<path d="M48.3595 56.73C47.9021 55.9995 47.1778 55.4761 46.3406 55.2711C45.7384 55.1497 45.1128 55.2314 44.562 55.5036C44.5465 55.8911 44.5271 56.3076 44.502 56.7281L48.3595 56.73Z" fill="#81B0C4"/>
<path d="M42.5634 47.9512C41.2342 48.0694 39.6707 48.6739 38.2001 48.763C38.0664 48.763 37.9327 48.7746 37.801 48.7746C37.6692 48.7746 37.5375 48.7746 37.4135 48.7552C37.1559 48.7325 36.9014 48.6832 36.654 48.608C36.53 48.5701 36.4083 48.5248 36.2897 48.4724C36.2897 48.5731 36.1522 48.5363 36.1309 48.6196C36.2955 48.7475 36.4544 48.8637 36.6094 48.9664C36.7644 49.0691 36.9175 49.1602 37.0705 49.2435C37.3621 49.4013 37.6709 49.5248 37.9909 49.6116C38.5076 49.7407 39.0394 49.7993 39.5719 49.786C39.7656 49.786 39.9826 49.786 40.2054 49.7685C41.0095 49.1815 41.7225 48.4975 42.5634 47.9512Z" fill="#F0D6B7"/>
<path d="M36.9779 56.2812L36.2979 56.7327H37.3189C37.2078 56.579 37.0942 56.4285 36.9779 56.2812Z" fill="#81B0C4"/>
<path d="M9.0654 57.6776V57.0286C9.0654 56.9499 9.09663 56.8745 9.15222 56.8189C9.20781 56.7633 9.28322 56.7321 9.36184 56.7321H9.91015C9.458 55.3964 8.93411 54.086 8.34077 52.8067C11.6366 50.0675 15.2941 47.7954 19.2101 46.0546C19.4388 45.9635 20.7815 47.622 21.5351 48.49C21.6775 48.6673 21.8329 48.8338 22.0001 48.9879C23.9014 50.2209 25.902 51.2934 27.9812 52.1945C28.1842 53.4758 28.4927 54.7382 28.9035 55.9687C28.979 56.2129 29.0546 56.4725 29.1321 56.7321H29.446C29.5246 56.7321 29.6 56.7633 29.6556 56.8189C29.7112 56.8745 29.7424 56.9499 29.7424 57.0286V57.3347H30.0117C30.0903 57.3347 30.1657 57.3659 30.2213 57.4215C30.2769 57.4771 30.3082 57.5525 30.3082 57.6311V58.1252H33.5845V57.6311C33.5845 57.5525 33.6157 57.4771 33.6713 57.4215C33.7269 57.3659 33.8023 57.3347 33.8809 57.3347H35.3921V57.0286C35.3921 56.9499 35.4234 56.8745 35.479 56.8189C35.5346 56.7633 35.61 56.7321 35.6886 56.7321H36.3028L36.9828 56.2807C37.0991 56.4279 37.2128 56.5784 37.3238 56.7321H38.9571C38.6712 56.2691 38.3547 55.8258 38.0097 55.4049C38.2325 55.1686 38.4302 54.9089 38.6491 54.6667C39.6023 55.0659 40.2223 54.1436 40.9547 54.2231C41.7936 54.3122 42.4582 55.4708 43.6556 55.3952C43.6285 55.8215 43.6091 56.2477 43.5897 56.674V56.7321H44.5081C44.5313 56.3117 44.5526 55.9009 44.5681 55.5076C45.119 55.2355 45.7445 55.1537 46.3468 55.2751C47.184 55.4801 47.9082 56.0035 48.3657 56.7341H49.2976C49.3635 56.6178 49.4313 56.5035 49.4913 56.3872C49.2143 55.7382 48.5323 55.4631 48.3288 54.7404C49.245 52.287 49.1545 49.571 48.077 47.1841C47.9503 46.9253 47.7636 46.7006 47.5324 46.5287C47.3011 46.3568 47.0321 46.2427 46.7478 46.196C46.4032 46.1694 46.058 46.2406 45.752 46.4014C45.9039 46.1953 46.0831 46.0108 46.2848 45.8531C46.9103 45.4289 47.4765 44.9233 47.9685 44.3496C49.348 45.4597 50.1791 46.5041 51.5025 47.6917C52.2193 48.335 53.6337 49.1061 53.7732 50.1446C53.791 50.544 53.7558 50.9441 53.6686 51.3342C53.5698 51.8787 53.4361 52.4483 53.3663 52.799C53.0818 54.144 52.7287 55.4735 52.3085 56.7825C52.3507 56.8082 52.3858 56.8443 52.4102 56.8874C52.4346 56.9305 52.4476 56.9791 52.448 57.0286V58.1252H53.161C53.6608 56.5597 54.151 54.9574 54.6451 53.3027C55.2081 51.9581 55.5219 50.5223 55.5712 49.0654C55.4201 47.87 53.5562 46.6145 52.5739 45.6671C52.0295 45.142 49.4875 43.2122 49.3402 42.4896C49.193 41.7669 50.3768 40.2072 50.7565 39.4167C51.2507 38.2964 51.6531 37.1379 51.9597 35.9524C53.9592 28.9251 54.1627 19.2686 51.3029 13.4929C49.7296 10.926 47.693 8.67383 45.2967 6.85118C40.8404 3.47605 32.5808 3.10211 27.2023 5.08224C25.7304 5.56118 24.304 6.17001 22.9398 6.90155C19.4175 8.96693 15.6781 10.3503 14.6338 14.5121C12.0608 15.6746 11.2838 18.9683 11.4136 22.7813C11.5886 23.5622 11.6853 24.3586 11.7023 25.1586C11.6306 25.5151 11.1482 25.9704 11.0513 26.201C10.5617 27.6766 10.4135 29.244 10.6179 30.7852C10.8223 32.3264 11.3739 33.8011 12.2313 35.098C12.7066 35.8063 13.3219 36.4098 14.0393 36.8713C14.7567 37.3329 15.5611 37.6426 16.4027 37.7814C16.4823 38.9066 16.7763 40.0062 17.2688 41.0209C17.5981 41.7436 18.8285 43.0417 18.3751 43.964C17.4933 44.7088 16.5199 45.3378 15.4785 45.8356C13.2349 47.1822 11.6035 48.0056 9.53815 49.4975C8.1974 50.4662 6.10296 50.5864 6.43815 52.8106C6.83923 54.47 7.36249 56.0974 8.00365 57.6796C8.05209 57.8307 8.10634 57.9799 8.15865 58.1291H9.06927L9.0654 57.6776ZM25.2455 8.43799C25.1504 8.55224 25.0475 8.65971 24.9374 8.75961C24.3031 9.22769 23.6945 9.72958 23.1142 10.2631C22.3915 11.0633 21.5836 13.2101 20.6245 13.4484C20.1414 13.477 19.6566 13.4582 19.1772 13.3922C18.8702 13.415 18.5667 13.4722 18.2724 13.5627C17.5894 13.826 16.8873 14.0365 16.1721 14.1924C17.6214 11.0246 22.1396 8.46318 25.6659 7.46343C25.8596 7.40918 26.0301 7.54093 26.191 7.71336C26.1696 8.26943 25.6175 8.2578 25.2455 8.43799ZM20.6245 15.6067C21.2058 18.5537 19.5376 21.9114 20.2525 25.0249C20.4947 26.0828 21.3375 27.7258 19.9929 27.7626C19.9442 27.0721 19.7239 26.4047 19.352 25.8208C18.9802 25.237 18.4685 24.7552 17.8634 24.419C17.2583 24.0829 16.5788 23.9031 15.8867 23.8959C15.1945 23.8887 14.5114 24.0543 13.8995 24.3778C13.7546 24.4477 13.6136 24.5253 13.4771 24.6103C13.2833 22.326 12.9617 19.1156 14.5195 17.4009C16.0292 15.7583 18.1216 14.7715 20.3494 14.6516C20.4705 14.9634 20.5626 15.2857 20.6245 15.6145V15.6067ZM14.0506 34.4877C12.7844 33.1148 12.078 31.3177 12.0705 29.4502C12.0873 28.9161 12.2126 28.3911 12.4387 27.9069C12.6648 27.4228 12.987 26.9897 13.3856 26.6339C13.7843 26.2782 14.2512 26.0072 14.7579 25.8376C15.2646 25.6679 15.8004 25.603 16.333 25.6469C17.6582 25.7922 18.2976 26.9527 18.6735 28.2392C18.7781 28.6016 18.8672 28.9736 18.937 29.3359C19.9154 29.3882 21.3298 29.2932 21.7928 28.5299C21.727 26.666 20.8609 25.1722 20.921 23.4594C21.0518 21.9799 21.3032 20.5135 21.6727 19.0749C22.1123 17.4554 22.0289 15.7384 21.4344 14.1691C22.8817 10.8851 27.1287 8.29461 30.2694 6.72718C34.1618 4.78968 40.358 6.33968 44.0257 8.40505C44.3569 8.5946 44.6742 8.80762 44.975 9.04249C46.0522 9.92907 47.0148 10.9463 47.8406 12.0708C48.294 12.6521 48.7299 13.2333 49.16 13.7932C47.2865 13.2372 45.6725 14.049 45.6105 15.4711C45.6025 15.6307 45.6129 15.7906 45.6415 15.9477C47.3853 14.3571 50.3438 15.9303 51.2215 17.6915C51.9501 19.839 52.2785 22.1021 52.1903 24.3681C52.6213 30.2365 51.1651 36.0891 48.0343 41.0713C47.3485 42.3017 46.4536 43.4032 45.3897 44.3263C42.6287 46.2638 38.4321 48.0231 34.838 46.8179C30.0892 45.2234 27.9308 42.0594 25.3191 38.4363C25.6395 40.4321 26.6485 42.2527 28.1711 43.5823C29.3149 45.0179 30.7524 46.1924 32.3871 47.0272C31.0832 46.7211 29.0933 46.6242 28.5411 47.8022C27.5361 47.748 26.5345 47.6433 25.54 47.4883C24.7074 47.4228 23.8967 47.1888 23.1573 46.8005C22.4179 46.4121 21.7652 45.8775 21.2387 45.2292C19.9588 43.2218 19.0132 41.0199 18.439 38.7095C18.2995 38.1827 18.2182 37.6421 18.1968 37.0975C18.3673 36.1714 20.0161 35.7664 19.3593 34.4722C18.162 34.4606 17.8926 35.5611 16.7941 35.6696C16.2766 35.6975 15.7597 35.6053 15.2838 35.4003C14.8078 35.1953 14.3858 34.8829 14.0506 34.4877ZM38.7925 52.6614L38.7324 52.4076C38.6936 52.2468 38.6626 52.0996 38.6394 51.9465C38.6025 51.6819 38.598 51.4139 38.6258 51.1482C38.9522 50.9048 39.3464 50.7693 39.7535 50.7607C39.9499 50.7882 40.1379 50.8584 40.3042 50.9664C40.4706 51.0743 40.6112 51.2175 40.7162 51.3857C40.8212 51.554 40.8881 51.7432 40.9121 51.94C40.936 52.1369 40.9165 52.3366 40.8549 52.5251C40.7933 52.7136 40.6912 52.8864 40.5556 53.0311C40.42 53.1758 40.2543 53.2891 40.0703 53.3629C39.8862 53.4366 39.6881 53.4691 39.4901 53.4581C39.2921 53.447 39.0989 53.3927 38.9242 53.2989C38.8835 53.0644 38.8409 52.8707 38.8002 52.6982L38.7925 52.6614ZM23.7148 47.9746C25.1249 48.4834 26.612 48.7456 28.111 48.7496C28.1074 49.1468 28.034 49.5403 27.894 49.9121C27.8438 50.1019 27.8171 50.2971 27.8146 50.4934C26.3278 50.3058 24.9207 49.7148 23.7458 48.7845C23.6888 48.7355 23.6425 48.6753 23.6098 48.6076C23.5771 48.54 23.5588 48.4663 23.5559 48.3912C23.5529 48.3161 23.5656 48.2412 23.5929 48.1712C23.6203 48.1011 23.6618 48.0375 23.7148 47.9843V47.9746ZM37.9884 49.6002C37.6685 49.5134 37.3596 49.3898 37.0681 49.2321C36.917 49.1507 36.7639 49.0577 36.607 48.955C36.45 48.8523 36.2931 48.7361 36.1284 48.6082C36.1497 48.5249 36.2815 48.5617 36.2873 48.4609C36.4059 48.5134 36.5275 48.5587 36.6515 48.5966C36.8989 48.6718 37.1534 48.7211 37.411 48.7438C37.5408 48.7554 37.6706 48.7612 37.7985 48.7632C37.9264 48.7651 38.064 48.7632 38.1976 48.7516C39.6682 48.6624 41.2318 48.0579 42.5609 47.9397C41.722 48.4881 41.0109 49.172 40.201 49.7571C39.9782 49.7687 39.767 49.7746 39.5675 49.7746C39.0361 49.7909 38.505 49.7355 37.9884 49.6099V49.6002ZM34.3614 56.7806C33.2617 57.375 32.0542 57.7432 30.81 57.8636C30.5038 57.7919 30.4225 57.4761 30.3198 57.1177C30.2946 57.0286 30.2694 56.9394 30.2384 56.8484C30.2074 56.7573 30.1803 56.6837 30.1473 56.6004C29.6128 55.4333 29.2575 54.1922 29.0933 52.9191C29.0933 52.7486 29.0759 52.5665 29.0681 52.3766C28.9926 50.5476 29.0081 48.0657 30.7925 48.4067C32.4206 48.752 33.9915 49.3267 35.458 50.1136C35.8339 50.319 36.1303 50.5496 36.4752 50.7375C36.6563 50.8385 36.8471 50.921 37.0448 50.9836C37.1574 51.0186 37.2719 51.0471 37.3878 51.0688C37.5159 51.0932 37.6453 51.1106 37.7753 51.1211C37.7753 51.2722 37.7636 51.4253 37.7578 51.5784C37.2021 51.8438 36.6108 52.0272 36.0025 52.1228C35.8082 52.1723 35.6193 52.2411 35.4386 52.3282C35.6793 52.3386 35.9193 52.3619 36.1575 52.3979C36.7751 52.4899 37.3742 52.6796 37.9322 52.9598V53.0819C37.9193 53.4229 37.9057 53.7632 37.8915 54.1029C36.7645 55.0622 35.5861 55.9593 34.3614 56.7902V56.7806ZM42.5861 53.8046C42.3743 53.7542 42.1663 53.6999 41.9622 53.6418C41.9544 53.0598 41.977 52.4777 42.03 51.8981C42.1486 51.8165 42.2794 51.7544 42.4175 51.714C42.8995 51.6051 43.3905 51.5403 43.8842 51.5202C43.7329 51.447 43.5753 51.3873 43.4134 51.342C43.3301 51.3187 43.2429 51.2974 43.1557 51.28C42.9797 51.2414 42.8009 51.2167 42.621 51.2064C42.356 51.1942 42.0906 51.219 41.8324 51.28C41.7829 50.9027 41.6682 50.5369 41.4933 50.1989L41.6038 50.1543C42.7837 49.6351 45.3199 47.1919 46.7672 48.0366C47.1278 48.3698 47.3654 48.8149 47.4415 49.2999C47.6583 50.1749 47.7881 51.0692 47.829 51.9697C47.8653 52.5355 47.8176 53.1036 47.6875 53.6554C47.6255 53.9208 47.5123 54.1715 47.3543 54.3936C45.7492 54.3631 44.1515 54.1683 42.5861 53.8123V53.8046Z" fill="#231F20"/>
<path d="M33.9629 36.5455C32.7694 35.9643 31.9169 36.284 31.7619 36.4913C31.4674 36.8788 32.0778 39.0217 32.0778 39.0217L32.659 39.1398C32.5486 36.7819 33.9629 36.5455 33.9629 36.5455Z" fill="#F7E4CD"/>
<path d="M41.4538 56.1118C41.2874 56.1121 41.1276 56.1765 41.0074 56.2916C40.8873 56.4067 40.8161 56.5637 40.8086 56.7299H42.099C42.0915 56.5637 42.0203 56.4067 41.9002 56.2916C41.78 56.1765 41.6202 56.1121 41.4538 56.1118Z" fill="#1D1919"/>
<path d="M30.3033 57.6314C30.3033 57.5528 30.2721 57.4774 30.2165 57.4218C30.1609 57.3662 30.0855 57.335 30.0069 57.335H29.7376V57.6779C29.7376 57.7565 29.7064 57.8319 29.6508 57.8875C29.5952 57.9431 29.5198 57.9743 29.4412 57.9743H9.36284C9.28422 57.9743 9.20882 57.9431 9.15323 57.8875C9.09764 57.8319 9.06641 57.7565 9.06641 57.6779V58.1255H30.3033V57.6314Z" fill="#231F20"/>
<path d="M52.1461 57.9743H35.6774C35.5987 57.9743 35.5233 57.9431 35.4678 57.8875C35.4122 57.8319 35.3809 57.7565 35.3809 57.6779V57.335H33.8697C33.7911 57.335 33.7157 57.3662 33.6601 57.4218C33.6045 57.4774 33.5732 57.5528 33.5732 57.6314V58.1255H52.4387V57.6779C52.4387 57.7559 52.408 57.8307 52.3532 57.8862C52.2985 57.9416 52.2241 57.9733 52.1461 57.9743Z" fill="#231F20"/>
<path d="M9.36284 57.9744H29.447C29.5256 57.9744 29.601 57.9431 29.6566 57.8875C29.7122 57.8319 29.7434 57.7565 29.7434 57.6779V57.0289C29.7434 56.9502 29.7122 56.8748 29.6566 56.8192C29.601 56.7637 29.5256 56.7324 29.447 56.7324H9.36284C9.28422 56.7324 9.20882 56.7637 9.15323 56.8192C9.09764 56.8748 9.06641 56.9502 9.06641 57.0289V57.6779C9.06641 57.7565 9.09764 57.8319 9.15323 57.8875C9.20882 57.9431 9.28422 57.9744 9.36284 57.9744Z" fill="#231F20"/>
<path d="M35.3896 57.6779C35.3896 57.7565 35.4209 57.8319 35.4765 57.8875C35.5321 57.9431 35.6075 57.9744 35.6861 57.9744H52.1548C52.2335 57.9744 52.3089 57.9431 52.3644 57.8875C52.42 57.8319 52.4513 57.7565 52.4513 57.6779V57.0289C52.4509 56.9794 52.4379 56.9308 52.4135 56.8877C52.3891 56.8446 52.3541 56.8085 52.3118 56.7828C52.2655 56.7511 52.2109 56.7336 52.1548 56.7324H35.6861C35.6075 56.7324 35.5321 56.7637 35.4765 56.8192C35.4209 56.8748 35.3896 56.9502 35.3896 57.0289V57.6779Z" fill="#231F20"/>
</svg>
