<svg width="50" height="50" viewBox="0 0 50 50" fill="none" xmlns="http://www.w3.org/2000/svg">
<mask id="mask0_681_2306" style="mask-type:alpha" maskUnits="userSpaceOnUse" x="0" y="0" width="50" height="50">
<rect width="50" height="50" fill="#D9D9D9"/>
</mask>
<g mask="url(#mask0_681_2306)">
<path d="M3 15.1128C3.03319 15.0688 3.07715 15.0293 3.09779 14.98C3.57507 13.837 4.55833 13.2351 5.61785 13.4396C6.78054 13.6639 7.47403 14.57 7.47403 15.8718C7.47403 21.3542 7.47403 26.8375 7.47493 32.3199C7.47493 33.4619 8.09485 34.3322 9.10503 34.6166C9.40826 34.7018 9.72316 34.709 10.0363 34.709C15.0468 34.709 20.0573 34.7117 25.0678 34.7081C26.5095 34.7072 27.4964 33.9015 27.6031 32.6581C27.7135 31.3653 26.7374 30.2735 25.415 30.2322C24.5215 30.2044 23.6252 30.2305 22.7326 30.1874C19.3862 30.0268 16.6168 27.2681 16.4373 23.937C16.2507 20.4804 18.612 17.4633 21.9449 16.8846C22.3441 16.8155 22.7451 16.7824 23.1461 16.7815C25.7407 16.7743 28.3352 16.7734 30.9306 16.7797C31.8645 16.7815 32.5733 17.1995 32.9743 18.0473C33.3636 18.8718 33.2703 19.6774 32.7132 20.405C32.3535 20.8751 31.8672 21.1505 31.276 21.2223C30.6372 21.3003 29.9949 21.2582 29.3543 21.26C27.2819 21.2654 25.2087 21.2528 23.1363 21.2662C22.0471 21.2734 21.2191 21.9499 20.9643 22.9834C20.7257 23.9523 21.1751 24.9616 22.0579 25.4586C22.4912 25.7017 22.9622 25.7349 23.4422 25.7448C24.499 25.7672 25.5585 25.6748 26.6109 25.8578C29.5921 26.3746 31.9417 29.0552 32.0745 32.1001C32.2135 35.2948 30.1474 38.1549 27.1402 38.9524C26.7329 39.061 26.3005 39.0511 25.9102 39.2314H25.4626C25.3387 39.0628 25.1593 39.1462 25.0095 39.1462C19.9864 39.1408 14.9642 39.1408 9.94116 39.1462C9.80569 39.1462 9.63972 39.0664 9.53386 39.2314H8.99647C8.89599 39.0592 8.70939 39.104 8.56226 39.0753C6.1041 38.5927 4.40492 37.1824 3.45754 34.8696C3.26376 34.3977 3.15072 33.8926 3 33.4036C3 27.3067 3 21.2106 3 15.1137V15.1128Z" fill="#D4302F"/>
<path d="M41.4819 10.0027C41.8569 10.1821 42.2758 10.1624 42.6697 10.2656C45.7361 11.0721 47.8399 13.8882 47.7394 17.0748C47.6407 20.2139 45.3503 22.908 42.257 23.5082C41.8784 23.5818 41.489 23.6123 41.1024 23.6257C39.6454 23.6778 38.7976 24.548 38.7967 26.0184C38.7949 28.8875 38.8012 31.7556 38.794 34.6247C38.7913 35.7595 38.0216 36.645 36.9047 36.8379C35.8631 37.0182 34.8287 36.4055 34.4582 35.3926C34.3433 35.0786 34.32 34.7547 34.32 34.4237C34.3236 31.63 34.32 28.8354 34.3227 26.0417C34.3263 22.1221 37.0661 19.2863 40.9786 19.149C42.1798 19.1069 43.1272 18.2555 43.2609 17.0973C43.3874 15.9974 42.6894 14.9504 41.6155 14.6265C41.3401 14.5431 41.0575 14.5386 40.774 14.5386C32.6908 14.5386 24.6076 14.5368 16.5244 14.5386C15.0235 14.5386 14.112 15.4618 14.1111 16.9779C14.1084 21.3703 14.1156 25.7636 14.1075 30.156C14.1048 31.7987 12.5814 32.8779 11.0913 32.3163C10.239 31.996 9.64511 31.1931 9.64242 30.2439C9.63166 25.717 9.5877 21.1891 9.65767 16.663C9.70971 13.2916 11.9786 10.7644 15.3096 10.1337C15.4424 10.1086 15.6165 10.1642 15.7089 10.0009H16.0668C16.1888 10.1758 16.3692 10.0852 16.5181 10.0852C24.6444 10.0906 32.7715 10.0906 40.8978 10.0852C41.0333 10.0852 41.1993 10.1696 41.3033 10H41.4828L41.4819 10.0027Z" fill="#D4312F"/>
<path d="M41.3034 10.0027C41.1984 10.1722 41.0325 10.0879 40.8979 10.0879C32.7716 10.0924 24.6444 10.0924 16.5182 10.0879C16.3692 10.0879 16.1889 10.1785 16.0669 10.0036H41.3034V10.0027Z" fill="#E69B85"/>
<path d="M9.5332 39.2316C9.63996 39.0665 9.80504 39.1464 9.9405 39.1464C14.9636 39.1419 19.9867 39.1419 25.0088 39.1464C25.1596 39.1464 25.3381 39.0629 25.4619 39.2316H9.5332Z" fill="#E58F78"/>
</g>
</svg>
