<svg width="62" height="62" viewBox="0 0 62 62" fill="none" xmlns="http://www.w3.org/2000/svg">
<path d="M8.85565 8.78345H17.7139V17.6391H8.85565V8.78345ZM44.2835 8.78345H53.1443V17.6391H44.2835V8.78345Z" fill="#FFD700"/>
<path d="M8.85565 17.6389H26.5696V26.4972H8.85824L8.85565 17.6389ZM35.4278 17.6389H53.1417V26.4972H35.4278V17.6389Z" fill="#FFAF00"/>
<path d="M8.85565 26.4998H53.1443V35.3554H8.85565V26.4998Z" fill="#FF8205"/>
<path d="M8.85565 35.3555H17.7139V44.2111H8.85565V35.3555ZM26.5722 35.3555H35.4304V44.2111H26.5722V35.3555ZM44.2835 35.3555H53.1443V44.2111H44.2835V35.3555Z" fill="#FA500F"/>
<path d="M0 44.2112H26.5722V53.0694H0V44.2112ZM35.4278 44.2112H62V53.0694H35.4278V44.2112Z" fill="#E10500"/>
</svg>
