<svg width="62" height="62" viewBox="0 0 62 62" fill="none" xmlns="http://www.w3.org/2000/svg">
<path d="M57.0651 47.0357C53.6943 46.9517 51.0819 47.2888 48.8908 48.2156C48.2587 48.4682 47.2473 48.4685 47.163 49.2692C47.5001 49.6063 47.5423 50.1541 47.8373 50.6174C48.3434 51.46 49.2277 52.5978 50.0283 53.188C50.9131 53.862 51.7982 54.536 52.7249 55.126C54.3683 56.1373 56.2225 56.7271 57.8236 57.7385C58.751 58.3279 59.6773 59.0869 60.6044 59.7188C61.068 60.0555 61.3627 60.6038 61.9529 60.8142V60.6881C61.6577 60.3085 61.5734 59.761 61.2787 59.3396C60.8578 58.9181 60.4359 58.5389 60.0145 58.1175C58.7926 56.4745 57.2758 55.0417 55.6326 53.862C54.2843 52.9349 51.3345 51.6709 50.7869 50.1117C50.7869 50.1117 50.7445 50.0698 50.7026 50.0277C51.6294 49.9434 52.7249 49.6063 53.6101 49.3534C55.0426 48.9739 56.3487 49.0585 57.8236 48.6792C58.4976 48.5106 59.1719 48.2999 59.8459 48.0892V47.7102C59.0878 46.9517 58.54 45.9405 57.7393 45.2241C55.5904 43.3697 53.2305 41.5581 50.7869 40.0413C49.4805 39.1985 47.7949 38.6507 46.4045 37.9345C45.8993 37.6814 45.0562 37.5553 44.7615 37.1339C44.0027 36.207 43.5813 34.9852 43.0337 33.8895C41.8121 31.5718 40.632 29.0017 39.5784 26.558C38.8204 24.9145 38.3568 23.2711 37.4297 21.7545C33.0897 14.5913 28.3705 10.2513 21.1233 5.99533C19.5641 5.11062 17.7101 4.73136 15.7297 4.26805C14.6767 4.22567 13.623 4.14163 12.5697 4.09925C11.8954 3.80426 11.2212 3.00383 10.6312 2.62457C8.22993 1.1075 2.0355 -2.17874 0.265833 2.16126C-0.871964 4.89992 1.95146 7.59643 2.92021 8.98732C3.63708 9.95631 4.56369 11.0517 5.06938 12.1474C5.36436 12.8633 5.4484 13.6223 5.74339 14.3806C6.41788 16.2341 7.04951 18.2992 7.9347 20.027C8.39825 20.9117 8.90369 21.8385 9.49366 22.6392C9.83079 23.1025 10.4205 23.3134 10.5472 24.0717C9.95745 24.9145 9.91507 26.1788 9.5777 27.232C8.06088 31.9934 8.65109 37.8924 10.7998 41.3896C11.4738 42.4426 13.0751 44.7608 15.2241 43.8756C17.1204 43.1173 16.699 40.7156 17.2463 38.6088C17.3732 38.1026 17.289 37.766 17.5416 37.4288V37.5134C18.1315 38.6928 18.7212 39.8309 19.2691 41.0106C20.5754 43.075 22.8505 45.2241 24.7466 46.6569C25.7582 47.415 26.5587 48.7213 27.8229 49.1849V49.0582H27.7384C27.4855 48.6789 27.1063 48.5106 26.7694 48.2154C26.0111 47.4573 25.168 46.5303 24.5783 45.6874C22.8089 43.3276 21.2494 40.7153 19.859 38.0186C19.185 36.7127 18.5948 35.2799 18.0472 33.9738C17.7942 33.4676 17.7942 32.7096 17.373 32.457C16.7409 33.3838 15.814 34.1845 15.3505 35.3221C14.5503 37.1339 14.4658 39.3671 14.1708 41.6843C14.0022 41.7269 14.0863 41.6843 14.002 41.7691C12.654 41.4315 12.1904 40.0413 11.6845 38.8614C10.4203 35.8699 10.2096 31.0663 11.3055 27.6113C11.6005 26.7263 12.8647 23.9455 12.359 23.1027C12.1061 22.3021 11.2631 21.8385 10.7998 21.2066C10.2522 20.406 9.66198 19.3951 9.28296 18.5099C8.27158 16.1503 7.7659 13.5378 6.67048 11.1781C6.16479 10.0825 5.28033 8.94518 4.56369 7.9338C3.76326 6.79625 2.87831 5.99533 2.2462 4.64707C2.03574 4.18377 1.74051 3.42524 2.07764 2.91955C2.16192 2.58243 2.33024 2.45625 2.66761 2.37197C3.21543 1.90818 4.77464 2.49814 5.32198 2.75099C6.88118 3.38261 8.1873 3.97307 9.49366 4.85778C10.0834 5.27918 10.7155 6.07986 11.4738 6.29056H12.3587C13.7072 6.5853 15.2238 6.37484 16.488 6.75386C18.7215 7.47001 20.7438 8.52353 22.5558 9.66132C28.0757 13.1585 32.626 18.1306 35.7022 24.0717C36.2079 25.0405 36.4184 25.9259 36.8819 26.9368C37.7671 29.0017 38.8625 31.1085 39.747 33.131C40.632 35.1111 41.4745 37.1339 42.7387 38.7774C43.3708 39.6618 45.8988 40.1256 47.0366 40.5892C47.8794 40.9682 49.1858 41.3055 49.9441 41.7688C51.3766 42.6533 52.8091 43.6652 54.1576 44.6339C54.8319 45.1396 56.9384 46.1931 57.0651 47.0357Z" fill="#00546B"/>
<path d="M14.0945 10.4199C13.3783 10.4199 12.8729 10.5047 12.3672 10.6309V10.7151H12.4515C12.7888 11.3894 13.3783 11.8529 13.7995 12.4427C14.1369 13.1167 14.4316 13.7912 14.769 14.4654C14.8109 14.423 14.853 14.3811 14.853 14.3811C15.4432 13.9595 15.738 13.2855 15.738 12.2741C15.4851 11.9794 15.443 11.6844 15.2323 11.3894C14.9797 10.9678 14.4316 10.7573 14.0945 10.4199Z" fill="#00546B"/>
</svg>
