<svg width="62" height="62" viewBox="0 0 62 62" fill="none" xmlns="http://www.w3.org/2000/svg">
<path d="M30.9787 58.8513C30.2381 58.8513 29.4865 58.6525 28.8344 58.2766L22.0145 54.2423C20.9977 53.6674 21.495 53.4686 21.8267 53.3579C23.1861 52.8826 23.4624 52.7833 24.9103 51.9542C25.0652 51.8659 25.2642 51.8988 25.4188 51.9985L30.658 55.1043C30.846 55.2148 31.111 55.2148 31.288 55.1043L51.7034 43.3214C51.8915 43.2109 52.0128 42.9899 52.0128 42.7689V19.2033C52.0128 18.9712 51.8915 18.7612 51.6925 18.6397L31.2881 6.86783C31.1003 6.75727 30.8461 6.75727 30.6582 6.86783L10.2649 18.6506C10.0658 18.7612 9.94434 18.9822 9.94434 19.2143V42.7689C9.94434 42.9899 10.0658 43.2109 10.2649 43.3105L15.858 46.538C18.8976 48.0522 20.7545 46.2727 20.7545 44.4712V21.2149C20.7545 20.8833 21.0197 20.6292 21.3515 20.6292H23.9379C24.2585 20.6292 24.5347 20.8833 24.5347 21.2149V44.4822C24.5347 48.5276 22.324 50.8488 18.4887 50.8488C17.3059 50.8488 16.3774 50.8488 13.791 49.5667L8.4412 46.4828C7.11474 45.72 6.29688 44.2942 6.29688 42.758V19.2033C6.29688 17.678 7.11474 16.2411 8.4412 15.4784L28.8344 3.69554C30.1275 2.96607 31.8409 2.96607 33.123 3.69554L53.5387 15.4893C54.865 16.252 55.6829 17.6779 55.6829 19.2143V42.7689C55.6829 44.2942 54.865 45.72 53.5387 46.4938L33.123 58.2766C32.4708 58.6525 31.7301 58.8513 30.9787 58.8513ZM47.4593 35.6286C47.4593 31.2182 44.4748 30.0466 38.2077 29.2177C31.8629 28.3776 31.222 27.9465 31.222 26.4654C31.222 25.2386 31.7636 23.6026 36.4612 23.6026C40.6506 23.6026 42.198 24.509 42.839 27.3387C42.8943 27.6039 43.1377 27.8029 43.4137 27.8029H46.0668C46.2324 27.8029 46.3871 27.7366 46.4978 27.6149C46.6085 27.4935 46.6636 27.3276 46.6522 27.1617C46.2435 22.2874 43.0048 20.0214 36.4612 20.0214C30.6362 20.0214 27.1656 22.4752 27.1656 26.5981C27.1656 31.0636 30.6251 32.3018 36.2069 32.8541C42.8943 33.5064 43.4137 34.4902 43.4137 35.8055C43.4137 38.0827 41.5791 39.055 37.2793 39.055C31.8743 39.055 30.6915 37.6955 30.2935 35.0098C30.2493 34.7224 30.0061 34.5124 29.7078 34.5124H27.0659C26.7344 34.5124 26.4803 34.7778 26.4803 35.0981C26.4803 38.5359 28.3483 42.6366 37.2905 42.6366C43.7454 42.6255 47.4593 40.0717 47.4593 35.6286Z" fill="#539E43"/>
</svg>
