<svg width="62" height="62" viewBox="0 0 62 62" fill="none" xmlns="http://www.w3.org/2000/svg">
<path d="M45.3909 42.1538L45.4044 55.848L33.2523 61.9121V48.2238L45.3909 42.1538ZM59.9752 34.8347V48.5768L49.6106 53.7494L49.6032 40.0701L59.9752 34.8347ZM45.373 23.824L45.3864 37.3746L33.2523 43.4043V29.8491L45.373 23.824ZM59.9752 16.5647V30.0301L49.6002 35.3044L49.5912 21.7268L59.9752 16.5647ZM31.405 14.9717L42.2512 20.4464L30.9981 26.0976L20.3569 20.753L31.405 14.9717ZM16.3181 7.35645L26.6632 12.5784L15.5897 18.3582L4.96484 13.0226L16.3181 7.35645ZM45.8905 7.43573L57.0329 13.0226L47.0677 18.0276L36.1991 12.5455L45.8905 7.43573ZM31.0639 0L41.0949 5.02895L31.4768 10.1641L21.1407 4.95117L31.0639 0Z" fill="#4DABCF"/>
<path d="M28.9573 29.8493L20.7722 25.7343V43.5211C20.7722 43.5211 10.7621 22.2221 9.8347 20.3089C9.71504 20.0621 9.22291 19.7914 9.09726 19.7256C7.30228 18.7832 2.04297 16.1191 2.04297 16.1191V47.5434L9.31865 51.4325V35.0069C9.31865 35.0069 19.2225 54.0382 19.3227 54.2461C19.4229 54.4541 20.4176 56.46 21.4797 57.1645C22.8947 58.1009 28.9588 61.7477 28.9588 61.7477L28.9573 29.8493Z" fill="#4D77CF"/>
</svg>
