<svg width="62" height="62" viewBox="0 0 62 62" fill="none" xmlns="http://www.w3.org/2000/svg">
<path d="M31.0536 57.0909C17.1025 57.0909 5.27149 45.3075 5.16277 31.268C5.1385 27.8812 5.78674 24.5233 7.06989 21.3889C8.35304 18.2546 10.2456 15.406 12.6378 13.0085C15.0458 10.5423 17.9198 8.57904 21.0928 7.23282C24.2659 5.8866 27.6748 5.18424 31.1216 5.16651C34.5061 5.1635 37.8577 5.83024 40.9833 7.12832C44.109 8.4264 46.9469 10.3302 49.3335 12.7299C51.76 15.0952 53.6943 17.9174 55.0251 21.0338C56.3558 24.1501 57.0567 27.499 57.0872 30.8875C57.1181 37.7807 54.4194 44.406 49.5809 49.3159C44.7424 54.2257 38.1573 57.021 31.2643 57.0909H31.0536ZM31.1352 6.52561C27.8689 6.54475 24.639 7.21237 21.6328 8.48973C18.6267 9.76709 15.9041 11.6287 13.6232 13.9667C11.3543 16.2349 9.55836 18.931 8.33936 21.8986C7.12036 24.8662 6.50259 28.0463 6.52187 31.2544C6.6238 44.56 17.8364 55.7182 31.0468 55.7182H31.2235C37.7596 55.659 44.0063 53.0145 48.5982 48.3628C53.1901 43.7111 55.7535 37.4306 55.7281 30.8943C55.6976 27.6841 55.0322 24.5118 53.7703 21.5599C52.5084 18.608 50.6748 15.935 48.3753 13.6949C46.119 11.4186 43.4333 9.61274 40.4739 8.38208C37.5145 7.15142 34.3403 6.52041 31.1352 6.52561Z" fill="#F1592A"/>
<path d="M10.9902 38.7203V23.5527H14.6802V24.9118H12.7231V37.3884H14.6802V38.7475L10.9902 38.7203Z" fill="#F1592A"/>
<path d="M23.5203 30.9883C23.5203 33.7541 21.8418 35.3306 19.5653 35.3306C17.2888 35.3306 15.7734 33.557 15.7734 31.131C15.7734 28.5963 17.3636 26.8091 19.6876 26.8091C22.0117 26.8091 23.5203 28.671 23.5203 30.9883ZM17.3636 31.1106C17.3636 32.7891 18.2062 34.121 19.6537 34.121C21.1011 34.121 21.9302 32.7619 21.9302 31.0495C21.9302 29.4933 21.1623 28.0255 19.6537 28.0255C18.1451 28.0255 17.35 29.4457 17.35 31.1446L17.3636 31.1106Z" fill="#F1592A"/>
<path d="M24.7949 27.098C25.5176 26.9732 26.2497 26.9118 26.9831 26.9145C27.8069 26.834 28.6349 27.0173 29.3479 27.4378C29.6152 27.5952 29.8355 27.8212 29.9861 28.0925C30.1366 28.3637 30.2119 28.6702 30.2041 28.9803C30.1944 29.3833 30.0578 29.773 29.8137 30.0938C29.5697 30.4147 29.2308 30.6505 28.845 30.7676C29.3151 30.8632 29.7377 31.1184 30.0411 31.4899C30.3445 31.8615 30.5102 32.3265 30.5099 32.8062C30.5151 33.1312 30.4461 33.453 30.3084 33.7474C30.1706 34.0417 29.9677 34.3008 29.7149 34.5051C29.1305 35.0215 28.1587 35.273 26.6569 35.273C26.0391 35.276 25.4217 35.2397 24.8085 35.1642L24.7949 27.098ZM26.2899 30.353H27.0578C28.0975 30.353 28.6819 29.8638 28.6819 29.1638C28.6819 28.4639 28.0975 28.0358 27.1394 28.0358C26.8526 28.026 26.5656 28.0465 26.2831 28.0969L26.2899 30.353ZM26.2899 34.1449C26.554 34.1722 26.8195 34.1835 27.085 34.1789C28.05 34.1789 28.9062 33.8119 28.9062 32.8198C28.9062 31.8277 28.0771 31.4607 27.0374 31.4607H26.2899V34.1449Z" fill="#F1592A"/>
<path d="M33.4725 26.9834H34.9743V32.345C34.9743 34.6215 33.8734 35.3826 32.2561 35.3826C31.8236 35.3791 31.3945 35.3056 30.9854 35.1652L31.1688 33.9556C31.4704 34.0498 31.7839 34.1001 32.0998 34.1051C32.956 34.1051 33.4589 33.7109 33.4589 32.2839L33.4725 26.9834Z" fill="#F1592A"/>
<path d="M39.2431 31.4507V32.4904H36.1172V31.4507H39.2431Z" fill="#F1592A"/>
<path d="M46.5423 34.9859C45.8667 35.2553 45.1422 35.3803 44.4153 35.3528C41.7991 35.3528 40.2089 33.7151 40.2089 31.2076C40.178 30.6233 40.2711 30.0392 40.4821 29.4935C40.6931 28.9478 41.0173 28.453 41.4332 28.0415C41.8491 27.6301 42.3475 27.3113 42.8954 27.1062C43.4434 26.9012 44.0285 26.8144 44.6124 26.8517C45.3107 26.8228 46.0067 26.948 46.6511 27.2186L46.3181 28.4146C45.807 28.1971 45.2562 28.0883 44.7007 28.0953C43.0223 28.0953 41.8127 29.1486 41.8127 31.1328C41.8127 32.9404 42.8795 34.1093 44.6871 34.1093C45.248 34.1174 45.8048 34.0134 46.3249 33.8035L46.5423 34.9859Z" fill="#F1592A"/>
<path d="M51.2651 23.5122V38.7205H47.5752V37.3614H49.5323V24.8713H47.5752V23.5122H51.2651Z" fill="#F1592A"/>
</svg>
