<svg width="62" height="62" viewBox="0 0 62 62" fill="none" xmlns="http://www.w3.org/2000/svg">
<g clip-path="url(#clip0_1457_32671)">
<path d="M57.5642 25.3721C58.2574 23.2844 58.4972 21.0729 58.2675 18.8852C58.0377 16.6975 57.3438 14.584 56.232 12.6859C54.5837 9.81687 52.067 7.54542 49.0446 6.199C46.0222 4.85257 42.6503 4.50072 39.415 5.19419C37.577 3.14964 35.2333 1.62472 32.6194 0.772586C30.0056 -0.0795503 27.2135 -0.228901 24.5236 0.339533C21.8337 0.907967 19.3408 2.17417 17.2951 4.01098C15.2495 5.84779 13.7231 8.19052 12.8694 10.8039C10.7141 11.2459 8.67788 12.1428 6.89692 13.4347C5.11596 14.7267 3.63126 16.3839 2.54205 18.2956C0.875892 21.1598 0.163786 24.4796 0.508686 27.7752C0.853587 31.0708 2.23762 34.1713 4.46069 36.6284C3.76491 38.7151 3.52275 40.9263 3.7504 43.114C3.97806 45.3018 4.67029 47.4157 5.78078 49.3144C7.43111 52.1845 9.95007 54.4564 12.9746 55.8028C15.9992 57.1493 19.3731 57.5007 22.6102 56.8063C24.0704 58.4508 25.8647 59.7647 27.8732 60.6605C29.8817 61.5563 32.0582 62.0133 34.2574 62.0009C37.5734 62.004 40.8047 60.9532 43.4847 59.0003C46.1647 57.0475 48.1549 54.2935 49.1679 51.1359C51.323 50.6932 53.3589 49.7959 55.1397 48.504C56.9206 47.2121 58.4055 45.5552 59.4953 43.644C61.1417 40.784 61.8416 37.4766 61.4947 34.1948C61.1479 30.913 59.7721 27.8247 57.5642 25.3721ZM34.2574 57.943C31.5416 57.9473 28.9109 56.9954 26.8267 55.2543L27.1933 55.0466L39.5372 47.9212C39.8444 47.741 40.0995 47.484 40.2774 47.1755C40.4552 46.8669 40.5497 46.5174 40.5517 46.1612V28.7575L45.77 31.7764C45.7958 31.7895 45.8181 31.8085 45.8352 31.8318C45.8523 31.8552 45.8636 31.8822 45.8682 31.9108V46.3325C45.8616 49.4098 44.6362 52.3592 42.4602 54.5352C40.2842 56.7112 37.3347 57.9365 34.2574 57.943ZM9.30057 47.2857C7.93856 44.9339 7.44954 42.1771 7.91952 39.5003L8.28635 39.7204L20.6424 46.8458C20.9482 47.0252 21.2962 47.1198 21.6507 47.1198C22.0052 47.1198 22.3533 47.0252 22.659 46.8458L37.7529 38.1438V44.1692C37.7515 44.2004 37.743 44.2309 37.7282 44.2584C37.7133 44.2859 37.6925 44.3097 37.6671 44.3281L25.1643 51.5389C22.496 53.076 19.3269 53.4915 16.3526 52.6941C13.3783 51.8966 10.842 49.9515 9.30057 47.2857ZM6.0497 20.3979C7.42115 18.0309 9.58585 16.2256 12.1606 15.3015V29.9676C12.1559 30.3219 12.2465 30.671 12.4227 30.9784C12.599 31.2858 12.8545 31.5402 13.1627 31.7152L28.1832 40.3805L22.9646 43.3991C22.9364 43.4141 22.9049 43.4219 22.8729 43.4219C22.8409 43.4219 22.8094 43.4141 22.7812 43.3991L10.3029 36.2006C7.63965 34.6569 5.69669 32.1206 4.89951 29.1473C4.10234 26.174 4.51593 23.0059 6.0497 20.3369V20.3979ZM48.9235 30.3587L33.8541 21.6079L39.0606 18.6009C39.0888 18.5859 39.1203 18.5781 39.1523 18.5781C39.1843 18.5781 39.2157 18.5859 39.244 18.6009L51.7223 25.8118C53.6302 26.9127 55.1856 28.5336 56.2068 30.4853C57.2281 32.437 57.6731 34.639 57.4898 36.8341C57.3066 39.0292 56.5027 41.1269 55.172 42.8823C53.8413 44.6377 52.0387 45.9783 49.9746 46.7476V32.0815C49.9638 31.7278 49.8612 31.383 49.6769 31.0809C49.4925 30.7788 49.2331 30.5301 48.9235 30.3587ZM54.1178 22.549L53.751 22.3289L41.4194 15.1426C41.1118 14.9621 40.7616 14.8669 40.4049 14.8669C40.0483 14.8669 39.6981 14.9621 39.3905 15.1426L24.3092 23.8443V17.8192C24.306 17.7886 24.3111 17.7576 24.324 17.7297C24.337 17.7017 24.3572 17.6777 24.3826 17.6603L36.8609 10.4616C38.7733 9.35986 40.96 8.82542 43.165 8.92079C45.3701 9.01617 47.5024 9.73742 49.3126 11.0002C51.1228 12.263 52.5361 14.015 53.387 16.0515C54.238 18.088 54.4916 20.3247 54.118 22.4999L54.1178 22.549ZM21.4611 33.2303L16.2428 30.2238C16.2167 30.2081 16.1943 30.1869 16.1774 30.1615C16.1604 30.1362 16.1492 30.1075 16.1446 30.0774V15.6926C16.1475 13.4858 16.7785 11.3255 17.9639 9.46418C19.1493 7.60284 20.8401 6.11744 22.8386 5.18163C24.8371 4.24582 27.0608 3.89829 29.2495 4.17966C31.4382 4.46103 33.5017 5.35968 35.1985 6.77054L34.8317 6.9785L22.488 14.1033C22.1807 14.2835 21.9257 14.5405 21.7478 14.8491C21.57 15.1577 21.4754 15.5072 21.4735 15.8634L21.4611 33.2303ZM24.2966 27.1197L31.0184 23.2452L37.7529 27.1197V34.8682L31.0429 38.7424L24.309 34.8682L24.2966 27.1197Z" fill="black"/>
</g>
<defs>
<clipPath id="clip0_1457_32671">
<rect width="62" height="62" fill="white"/>
</clipPath>
</defs>
</svg>
