<svg width="62" height="62" viewBox="0 0 62 62" fill="none" xmlns="http://www.w3.org/2000/svg">
<path d="M24.4094 29.9096C19.4439 27.0427 17.023 21.1982 18.507 15.6599C19.991 10.1216 25.0098 6.27051 30.7435 6.27051C36.4772 6.27051 41.496 10.1216 42.98 15.6599C44.464 21.1982 42.0431 27.0427 37.0776 29.9096L33.2634 23.3032C35.2388 22.1627 36.2019 19.8376 35.6115 17.6343C35.0212 15.431 33.0245 13.8989 30.7435 13.8989C28.4625 13.8989 26.4658 15.431 25.8755 17.6343C25.2851 19.8376 26.2482 22.1627 28.2236 23.3032L24.4094 29.9096Z" fill="#FF0101"/>
<path d="M51.533 32.9762C56.4985 35.843 58.9193 41.6876 57.4354 47.2259C55.9514 52.7642 50.9326 56.6152 45.1989 56.6152C39.4652 56.6152 34.4464 52.7642 32.9624 47.2259C31.4784 41.6876 33.8993 35.843 38.8648 32.9762L42.679 39.5825C40.7036 40.7231 39.7405 43.0482 40.3309 45.2515C40.9212 47.4548 42.9179 48.9869 45.1989 48.9869C47.4799 48.9869 49.4765 47.4548 50.0669 45.2515C50.6573 43.0482 49.6942 40.7231 47.7188 39.5825L51.533 32.9762Z" fill="#0101FF"/>
<path d="M29.2272 43.9472C29.2272 49.6809 25.3761 54.6997 19.8378 56.1837C14.2995 57.6677 8.45496 55.2468 5.58813 50.2813C2.72129 45.3158 3.54702 39.0438 7.60133 34.9895C11.6556 30.9352 17.9276 30.1095 22.8931 32.9763L19.0789 39.5827C17.1035 38.4422 14.6083 38.7707 12.9954 40.3836C11.3825 41.9965 11.054 44.4917 12.1945 46.4671C13.335 48.4425 15.6601 49.4056 17.8634 48.8153C20.0667 48.2249 21.5988 46.2283 21.5988 43.9472H29.2272Z" fill="#01FF01"/>
</svg>
