<svg width="62" height="62" viewBox="0 0 62 62" fill="none" xmlns="http://www.w3.org/2000/svg">
<path d="M45.6221 38.4768L47.4131 33.9475H52.5847L50.1304 27.0768L53.1999 19.3145L61.9917 42.6576H55.5081L54.0057 38.4768H45.6221Z" fill="#3D3D3D"/>
<path d="M40.0997 42.6576L49.5115 19.3145L43.2718 19.3145L36.8336 34.3994L32.2554 19.3145H27.4592L22.5434 34.3994L19.0767 27.5255L15.9395 37.1908L19.1247 42.6576H25.2653L29.7075 29.1297L33.9429 42.6576H40.0997Z" fill="#5A0FC8"/>
<path d="M5.92291 34.6443H9.76624C10.9305 34.6443 11.9671 34.5144 12.8763 34.2545L13.8702 31.1923L16.6481 22.6341C16.4365 22.2986 16.1948 21.9814 15.9232 21.6825C14.4969 20.1038 12.4101 19.3145 9.66279 19.3145H0V42.6576H5.92291V34.6443ZM11.0101 24.6848C11.5673 25.2455 11.8458 25.9958 11.8458 26.9358C11.8458 27.883 11.6008 28.6343 11.1109 29.1895C10.5738 29.8065 9.58478 30.115 8.14398 30.115H5.92291V23.8437H8.16031C9.50312 23.8437 10.4531 24.124 11.0101 24.6848Z" fill="#3D3D3D"/>
</svg>
