<svg width="62" height="62" viewBox="0 0 62 62" fill="none" xmlns="http://www.w3.org/2000/svg">
<path d="M49.0605 18.0213C59.1189 28.0797 59.1189 44.215 49.0605 54.3432C39.2117 64.4016 23.0065 64.4016 12.9481 54.3432C2.8897 44.2849 2.8897 28.0797 12.9481 18.0213L30.9694 0V9.01064L29.293 10.687L17.3486 22.6314C9.80484 30.0355 9.80484 42.1894 17.3486 49.7331C24.7527 57.2769 36.9066 57.2769 44.4504 49.7331C51.9942 42.3291 51.9942 30.1752 44.4504 22.6314L49.0605 18.0213ZM40.0499 16.9037C38.1982 16.9037 36.6971 15.4026 36.6971 13.5509C36.6971 11.6992 38.1982 10.1981 40.0499 10.1981C41.9016 10.1981 43.4027 11.6992 43.4027 13.5509C43.4027 15.4026 41.9016 16.9037 40.0499 16.9037Z" fill="#EE4C2C"/>
</svg>
