<svg width="62" height="62" viewBox="0 0 62 62" fill="none" xmlns="http://www.w3.org/2000/svg">
<path d="M48.767 22.3441C48.1951 22.1472 47.6024 21.961 46.9922 21.7848C47.0925 21.3755 47.1845 20.9714 47.2664 20.5743C48.6099 14.0527 47.7315 8.79885 44.7319 7.06907C41.8556 5.41043 37.1518 7.13983 32.4011 11.2742C31.9442 11.6718 31.4861 12.0927 31.0282 12.5338C30.7231 12.2419 30.4185 11.9599 30.1147 11.6901C25.1358 7.26937 20.1453 5.40641 17.1486 7.1412C14.2751 8.80464 13.4242 13.7438 14.6335 19.9243C14.7503 20.5213 14.8868 21.1309 15.0412 21.7508C14.3349 21.9513 13.653 22.165 13.0006 22.3924C7.16343 24.4275 3.43555 27.617 3.43555 30.9253C3.43555 34.3422 7.43743 37.7694 13.5173 39.8475C13.9971 40.0115 14.495 40.1665 15.008 40.3137C14.8415 40.9841 14.6966 41.641 14.575 42.2818C13.4219 48.3551 14.3224 53.1775 17.1883 54.8304C20.1484 56.5375 25.1164 54.7829 29.9539 50.5543C30.3362 50.22 30.72 49.8655 31.1044 49.494C31.6026 49.9738 32.1001 50.4279 32.5949 50.8538C37.2806 54.886 41.9085 56.5142 44.7717 54.8566C47.7289 53.1447 48.69 47.9643 47.4423 41.6615C47.347 41.1801 47.2361 40.6883 47.1115 40.1878C47.4604 40.0847 47.8029 39.9782 48.1369 39.8675C54.4575 37.7733 58.5699 34.3878 58.5699 30.9253C58.5699 27.605 54.7218 24.394 48.767 22.3441ZM47.3961 37.6318C47.0946 37.7316 46.7853 37.8281 46.4701 37.9216C45.7723 35.7126 44.8306 33.3637 43.6782 30.9368C44.7779 28.5677 45.6832 26.2488 46.3615 24.0542C46.9255 24.2174 47.4729 24.3895 48.0004 24.5712C53.1024 26.3275 56.2145 28.9244 56.2145 30.9253C56.2145 33.0567 52.8535 35.8235 47.3961 37.6318ZM45.1317 42.1189C45.6834 44.9059 45.7622 47.4257 45.3968 49.3955C45.0684 51.1656 44.408 52.3457 43.5915 52.8183C41.854 53.824 38.1382 52.5167 34.131 49.0684C33.6716 48.6731 33.2089 48.251 32.7447 47.8042C34.2982 46.1052 35.8508 44.1299 37.3662 41.9362C40.0315 41.6997 42.5497 41.3131 44.8332 40.7852C44.9457 41.2389 45.0456 41.6838 45.1317 42.1189ZM22.2321 52.6445C20.5345 53.244 19.1824 53.2612 18.3651 52.79C16.626 51.7869 15.903 47.9149 16.8892 42.7211C17.0022 42.1262 17.1366 41.5152 17.2916 40.8907C19.5502 41.3901 22.0498 41.7495 24.7216 41.9661C26.2471 44.1127 27.8446 46.0857 29.4545 47.8134C29.1027 48.1529 28.7524 48.4762 28.404 48.7808C26.2649 50.6506 24.1212 51.9773 22.2321 52.6445ZM14.279 37.6187C11.5906 36.6999 9.37046 35.5056 7.84863 34.2025C6.48117 33.0314 5.79077 31.8687 5.79077 30.9253C5.79077 28.9177 8.78389 26.357 13.7759 24.6165C14.3816 24.4053 15.0157 24.2063 15.6737 24.0193C16.3636 26.2636 17.2686 28.6099 18.3608 30.9826C17.2545 33.3906 16.3366 35.7743 15.6399 38.0449C15.1708 37.91 14.7164 37.7681 14.279 37.6187ZM16.945 19.472C15.9088 14.1766 16.597 10.182 18.3286 9.17963C20.1731 8.11179 24.2519 9.63431 28.5507 13.4514C28.8255 13.6954 29.1014 13.9507 29.378 14.2149C27.7761 15.935 26.1932 17.8932 24.6812 20.0272C22.0882 20.2675 19.6061 20.6536 17.324 21.1706C17.1805 20.5934 17.0534 20.0264 16.945 19.472ZM40.7274 25.3445C40.1819 24.4022 39.6218 23.4821 39.0508 22.5872C40.81 22.8096 42.4954 23.1048 44.0782 23.466C43.603 24.9889 43.0107 26.5812 42.3135 28.2136C41.8134 27.2641 41.2845 26.3067 40.7274 25.3445ZM31.029 15.8982C32.1154 17.0752 33.2034 18.3892 34.2735 19.815C33.1951 19.764 32.1034 19.7375 31.0027 19.7375C29.9124 19.7375 28.8287 19.7635 27.7571 19.8135C28.8283 18.401 29.9256 17.0887 31.029 15.8982ZM21.2685 25.3608C20.7235 26.3058 20.2043 27.2579 19.7121 28.2118C19.0262 26.5852 18.4394 24.9856 17.9601 23.4411C19.5332 23.0891 21.2107 22.8012 22.9586 22.5831C22.3796 23.4862 21.8149 24.4133 21.2685 25.3608ZM23.0089 39.4356C21.203 39.2341 19.5003 38.9611 17.9276 38.6188C18.4146 37.0467 19.0143 35.413 19.7147 33.7513C20.2083 34.7045 20.7295 35.6571 21.2778 36.6041C21.8363 37.5689 22.415 38.514 23.0089 39.4356ZM31.0942 46.1185C29.9778 44.9141 28.8644 43.5817 27.7769 42.1486C28.8326 42.19 29.9089 42.2112 31.0027 42.2112C32.1265 42.2112 33.2374 42.1859 34.3309 42.1372C33.2572 43.5962 32.1732 44.9305 31.0942 46.1185ZM42.336 33.6666C43.0729 35.3463 43.6942 36.9714 44.1874 38.5167C42.5888 38.8814 40.8629 39.1751 39.0444 39.3934C39.6167 38.4864 40.1817 37.5505 40.7369 36.5879C41.2985 35.614 41.8318 34.6386 42.336 33.6666ZM38.6967 35.4112C37.8348 36.9056 36.95 38.3321 36.0517 39.6787C34.4157 39.7957 32.7254 39.8559 31.0027 39.8559C29.287 39.8559 27.618 39.8026 26.0109 39.6983C25.0764 38.3341 24.1724 36.9033 23.316 35.4241C22.4619 33.9489 21.676 32.4612 20.9637 30.9818C21.6758 29.4991 22.4599 28.0097 23.3091 26.5372L23.3089 26.5375C24.1603 25.061 25.0564 23.6372 25.9822 22.2815C27.6219 22.1575 29.3033 22.0929 31.0026 22.0929C32.7095 22.0929 34.3932 22.158 36.0324 22.2831C36.9441 23.6288 37.8341 25.048 38.6889 26.5247C39.5534 28.018 40.3475 29.4974 41.0657 30.9484C40.3497 32.4243 39.5573 33.9186 38.6967 35.4112ZM43.5554 9.10956C45.4017 10.1743 46.1196 14.4682 44.9596 20.0989C44.8857 20.4582 44.8023 20.8241 44.7118 21.195C42.4244 20.6672 39.9406 20.2745 37.34 20.0305C35.825 17.8731 34.2551 15.9118 32.6793 14.2138C33.103 13.8063 33.526 13.4176 33.9473 13.0509C38.0177 9.50859 41.8221 8.11002 43.5554 9.10956ZM31.0027 26.002C33.7217 26.002 35.926 28.2062 35.926 30.9253C35.926 33.6443 33.7217 35.8486 31.0027 35.8486C28.2837 35.8486 26.0794 33.6443 26.0794 30.9253C26.0794 28.2062 28.2837 26.002 31.0027 26.002Z" fill="#00D8FF"/>
</svg>
