<svg width="62" height="62" viewBox="0 0 62 62" fill="none" xmlns="http://www.w3.org/2000/svg">
<g clip-path="url(#clip0_1457_32290)">
<path d="M53.3523 34.7134C51.1847 34.7257 49.3078 35.2463 47.7335 36.0214C47.1523 34.871 46.571 33.8658 46.4743 33.1151C46.3653 32.2432 46.2321 31.7103 46.3653 30.669C46.4984 29.6275 47.1038 28.1502 47.1038 28.0291C47.0916 27.9201 46.9705 27.3873 45.7234 27.3752C44.4762 27.3631 43.3984 27.6173 43.2773 27.9443C43.1562 28.2713 42.914 29.022 42.7566 29.797C42.5386 30.9353 40.2621 34.9677 38.9663 37.0869C38.5425 36.2634 38.1792 35.5369 38.1065 34.9555C37.9976 34.0838 37.8643 33.5508 37.9976 32.5095C38.1308 31.468 38.7363 29.9908 38.7363 29.8697C38.7242 29.7607 38.6031 29.2279 37.3559 29.2158C36.1085 29.2037 35.0309 29.458 34.9098 29.7849C34.7887 30.1119 34.6555 30.8869 34.3891 31.6377C34.1347 32.3884 31.1074 39.1213 30.3203 40.8771C29.9206 41.7732 29.5696 42.4877 29.3152 42.972C29.0609 43.4564 29.3031 43.0084 29.2789 43.0568C29.0609 43.4685 28.9398 43.6986 28.9398 43.6986V43.7108C28.7703 44.0136 28.5886 44.3041 28.5037 44.3041C28.4432 44.3041 28.3221 43.4927 28.5279 42.3788C28.976 40.0416 30.0658 36.3968 30.0538 36.2636C30.0538 36.203 30.2596 35.5611 29.3514 35.2343C28.4674 34.9073 28.1527 35.4522 28.0799 35.4522C28.0072 35.4522 27.9467 35.646 27.9467 35.646C27.9467 35.646 28.9276 31.541 26.0697 31.541C24.2776 31.541 21.8072 33.4906 20.5842 35.2707C19.8092 35.6945 18.1623 36.5905 16.4186 37.5473C15.7526 37.9106 15.0623 38.2981 14.4084 38.6492L14.2753 38.5037C10.8121 34.8103 4.40619 32.1947 4.6726 27.2298C4.76947 25.4256 5.39916 20.6666 16.9758 14.9025C26.4575 10.1798 34.0501 11.4756 35.3699 14.3576C37.2468 18.4748 31.3132 26.1279 21.4563 27.2298C17.7024 27.6537 15.7285 26.2006 15.2321 25.6556C14.7114 25.0865 14.6387 25.0623 14.445 25.1713C14.1301 25.3408 14.3239 25.8494 14.445 26.1521C14.7356 26.915 15.9465 28.2713 18.0051 28.9494C19.8093 29.5427 24.2173 29.8697 29.5454 27.8111C35.5153 25.4982 40.1774 19.0802 38.809 13.7158C37.4165 8.25446 28.3587 6.46227 19.7973 9.50172C14.6992 11.3181 9.17729 14.1517 5.20541 17.8693C0.482756 22.2771 -0.268025 26.1279 0.0468188 27.7263C1.14889 33.4298 9.00776 37.1474 12.1562 39.8963C11.9988 39.9809 11.8535 40.0657 11.7203 40.1384C10.146 40.9133 4.1519 44.0498 2.65033 47.3676C0.955022 51.1215 2.91674 53.822 4.22455 54.1853C8.26908 55.3115 12.4105 53.2892 14.6507 49.9591C16.8787 46.6291 16.6124 42.306 15.5831 40.3322L15.5467 40.2595L16.7819 39.533C17.5812 39.0607 18.3683 38.6248 19.0584 38.2493C18.671 39.3028 18.3924 40.55 18.2472 42.3664C18.0777 44.4978 18.9496 47.2586 20.0999 48.3485C20.6085 48.8206 21.214 48.8329 21.5894 48.8329C22.9214 48.8329 23.5269 47.7308 24.1929 46.411C25.0164 44.8004 25.7429 42.9356 25.7429 42.9356C25.7429 42.9356 24.8347 47.9852 27.3171 47.9852C28.2253 47.9852 29.1335 46.8106 29.5453 46.2051V46.2172C29.5453 46.2172 29.5695 46.1809 29.6179 46.0961C29.6687 46.021 29.7172 45.9443 29.7632 45.8662V45.842C30.1265 45.2123 30.9378 43.7713 32.1488 41.3857C33.7108 38.3099 35.2124 34.4591 35.2124 34.4591C35.2124 34.4591 35.3578 35.4037 35.8058 36.9537C36.0721 37.8741 36.6533 38.8791 37.1014 39.8599C36.7381 40.3685 36.5201 40.6593 36.5201 40.6593L36.5322 40.6714C36.2417 41.0589 35.9147 41.4707 35.5757 41.8823C34.3406 43.3597 32.8632 45.043 32.6695 45.5274C32.4394 46.0964 32.4878 46.5202 32.9359 46.8594C33.2628 47.1016 33.8441 47.1499 34.4617 47.1016C35.5757 47.0288 36.3507 46.7504 36.7382 46.5808C37.3437 46.3628 38.0339 46.0358 38.6999 45.5515C39.9109 44.6555 40.6496 43.384 40.5769 41.6887C40.5406 40.7563 40.2378 39.8359 39.8624 38.9641C39.9714 38.8067 40.0805 38.6491 40.1894 38.4797C42.1027 35.6823 43.58 32.6067 43.58 32.6067C43.58 32.6067 43.7253 33.5512 44.1734 35.1012C44.4033 35.8883 44.8636 36.7482 45.2753 37.5958C43.4831 39.0611 42.357 40.7564 41.9695 41.8704C41.255 43.929 41.8121 44.8615 42.8656 45.0794C43.3377 45.1763 44.016 44.9583 44.5244 44.7404C45.1541 44.5345 45.917 44.1832 46.6195 43.6626C47.8304 42.7665 48.9929 41.5193 48.9324 39.8361C48.896 39.0611 48.6902 38.2982 48.4117 37.5716C49.9374 36.9419 51.9111 36.5786 54.4179 36.8814C59.8066 37.5111 60.8722 40.8775 60.6665 42.2822C60.4606 43.687 59.3344 44.4619 58.9589 44.704C58.5835 44.9341 58.4624 45.019 58.4988 45.1884C58.5472 45.4428 58.7167 45.4306 59.0437 45.3823C59.4917 45.3095 61.8773 44.2319 61.9742 41.6406C62.1195 38.31 58.9589 34.6772 53.3523 34.7134ZM11.7929 48.724C10.0128 50.6736 7.50619 51.4123 6.44057 50.7826C5.29018 50.1166 5.7381 47.2466 7.93002 45.1759C9.26205 43.9166 10.9937 42.7541 12.132 42.0396C12.3863 41.8822 12.7738 41.6522 13.2339 41.3736C13.3066 41.3253 13.355 41.3009 13.355 41.3009C13.4398 41.2525 13.5367 41.192 13.6335 41.1314C14.4449 44.0861 13.6699 46.6775 11.7929 48.724ZM24.8105 39.872C24.1929 41.3857 22.8851 45.2728 22.098 45.0548C21.4197 44.8732 21.0081 41.9306 21.9647 39.0244C22.449 37.559 23.4783 35.8154 24.0838 35.1371C25.0648 34.0473 26.1303 33.684 26.3968 34.1321C26.7117 34.7134 25.198 38.9275 24.8105 39.872ZM35.5515 45.0064C35.2851 45.1397 35.0429 45.2365 34.9339 45.164C34.8492 45.1155 35.0428 44.9339 35.0428 44.9339C35.0428 44.9339 36.3869 43.4929 36.9197 42.8268C37.2225 42.4395 37.5858 41.9914 37.9733 41.4827V41.628C37.9734 43.3716 36.3023 44.5341 35.5515 45.0064ZM43.8342 43.1173C43.6404 42.972 43.6648 42.524 44.3186 41.1193C44.573 40.5623 45.1541 39.6298 46.1592 38.7459C46.2803 39.1091 46.3531 39.4602 46.3408 39.7873C46.3289 41.967 44.7788 42.7783 43.8342 43.1173Z" fill="#CF649A"/>
</g>
<defs>
<clipPath id="clip0_1457_32290">
<rect width="62" height="62" fill="white"/>
</clipPath>
</defs>
</svg>
