<svg width="62" height="62" viewBox="0 0 62 62" fill="none" xmlns="http://www.w3.org/2000/svg">
<path d="M7.681 29.1134C6.27499 28.9453 6.17084 27.0427 4.36906 27.2109C3.49421 27.2109 2.68184 27.5788 2.68184 28.3882C2.68184 29.6075 4.54611 29.7231 5.67093 30.0279C7.58727 30.6165 9.44112 31.016 9.44112 33.1182C9.44112 35.7881 7.36856 36.713 4.62943 36.713C2.33815 36.713 0.015625 35.8932 0.015625 33.7699C0.015625 33.1813 0.57803 32.7188 1.11961 32.7188C1.80699 32.7188 2.04653 33.0131 2.28608 33.4966C2.81724 34.4426 3.41089 34.9472 4.88981 34.9472C5.82715 34.9472 6.78532 34.5898 6.78532 33.7699C6.78532 32.6032 5.60844 32.3509 4.38989 32.0671C2.234 31.4574 0.380147 31.1421 0.161434 28.7245C-0.0676943 24.6041 8.44129 24.4465 8.93079 28.0623C8.92038 28.714 8.31631 29.1134 7.681 29.1134ZM17.8043 25.4976C20.7934 25.4976 22.491 28.0203 22.491 31.1316C22.491 34.2534 20.8455 36.7656 17.8043 36.7656C16.1171 36.7656 15.0652 36.0403 14.3049 34.9261V39.0465C14.3049 40.2869 13.9091 40.886 13.0134 40.886C11.9199 40.886 11.722 40.1817 11.722 39.0465V27.0638C11.722 26.0862 12.1282 25.4871 13.0134 25.4871C13.8466 25.4871 14.3049 26.1493 14.3049 27.0638V27.4001C15.1485 26.328 16.1171 25.4976 17.8043 25.4976ZM17.0961 34.6213C18.8458 34.6213 19.6269 32.9921 19.6269 31.0895C19.6269 29.2291 18.8354 27.5578 17.0961 27.5578C15.2735 27.5578 14.4299 29.0714 14.4299 31.0895C14.4299 33.0551 15.2839 34.6213 17.0961 34.6213ZM24.5219 28.4407C24.5219 26.2754 26.9903 25.4976 29.3857 25.4976C32.7497 25.4976 34.1349 26.4856 34.1349 29.7651V32.9185C34.1349 33.6648 34.5931 35.1574 34.5931 35.6094C34.5931 36.2926 33.9683 36.7236 33.3017 36.7236C32.5622 36.7236 32.0102 35.8406 31.6145 35.2099C30.5209 36.0929 29.3649 36.7236 27.5943 36.7236C25.6363 36.7236 24.0949 35.5568 24.0949 33.6333C24.0949 31.9304 25.303 30.9529 26.7611 30.6165C26.7611 30.6271 31.4478 29.5024 31.4478 29.4918C31.4478 28.0413 30.9375 27.4001 29.4274 27.4001C28.0942 27.4001 27.4173 27.768 26.8965 28.5774C26.4799 29.187 26.532 29.5549 25.7301 29.5549C25.0843 29.5444 24.5219 29.1029 24.5219 28.4407ZM28.5213 34.9472C30.573 34.9472 31.4374 33.854 31.4374 31.6782V31.2157C30.8854 31.4049 28.6566 31.962 28.0526 32.0566C27.4069 32.1827 26.7611 32.6662 26.7611 33.4335C26.782 34.2744 27.636 34.9472 28.5213 34.9472ZM43.5916 21.3877C46.487 21.3877 49.6219 23.1326 49.6219 25.9075C49.6219 26.6223 49.0907 27.2109 48.3929 27.2109C47.4452 27.2109 47.3098 26.6959 46.8932 25.9706C46.1954 24.6777 45.3726 23.8158 43.5812 23.8158C40.8109 23.7948 39.5715 26.1913 39.5715 29.1765C39.5715 32.1827 40.6026 34.348 43.4667 34.348C45.3726 34.348 46.4245 33.2338 46.9661 31.7938C47.1848 31.1316 47.5806 30.4904 48.4033 30.4904C49.0491 30.4904 49.6948 31.1526 49.6948 31.8674C49.6948 34.8105 46.7161 36.8497 43.6541 36.8497C40.3005 36.8497 38.405 35.4202 37.3635 33.0446C36.8532 31.9094 36.5303 30.7322 36.5303 29.1134C36.5095 24.5516 39.1445 21.3877 43.5916 21.3877ZM60.1514 25.4976C60.8908 25.4976 61.3178 25.9811 61.3178 26.7379C61.3178 27.0427 61.0783 27.6524 60.9846 27.9782L57.4226 37.4278C56.6311 39.4775 56.0375 40.8965 53.34 40.8965C52.059 40.8965 50.9446 40.7809 50.9446 39.6562C50.9446 39.0045 51.4341 38.6786 52.111 38.6786C52.236 38.6786 52.4443 38.7417 52.5693 38.7417C52.7672 38.7417 52.9026 38.8048 53.0276 38.8048C54.3815 38.8048 54.569 37.4068 55.048 36.4398L51.6111 27.8521C51.4132 27.3896 51.2778 27.0743 51.2778 26.801C51.2778 26.0442 51.8611 25.4976 52.6422 25.4976C53.5171 25.4976 53.8607 26.1913 54.0795 26.9481L56.3499 33.7594L58.6204 27.4632C58.9641 26.4856 58.9953 25.4976 60.1514 25.4976Z" fill="#09A3D5"/>
</svg>
