<svg width="62" height="62" viewBox="0 0 62 62" fill="none" xmlns="http://www.w3.org/2000/svg">
<path d="M44.9391 6.28174H10.8992C9.79994 6.28481 8.74661 6.72283 7.96934 7.5001C7.19207 8.27737 6.75404 9.3307 6.75098 10.4299V47.9709C6.75404 49.0702 7.19207 50.1235 7.96934 50.9007C8.74661 51.678 9.79994 52.116 10.8992 52.1191H33.3199C33.0642 40.963 36.8752 19.3134 44.9391 6.28174Z" fill="#0F80CC"/>
<path d="M43.703 7.49268H10.8992C10.1205 7.4937 9.37397 7.80349 8.82335 8.35411C8.27273 8.90473 7.96294 9.65123 7.96191 10.4299V45.2313C16.3777 42.0572 25.2614 40.3 34.2519 40.031C36.6297 28.9753 39.788 18.102 43.703 7.49268Z" fill="url(#paint0_linear_1457_32463)"/>
<path d="M52.8678 5.05344C50.5428 2.9745 47.7141 3.80956 44.9241 6.28181C44.5114 6.64994 44.0987 7.05681 43.6879 7.49275C38.4394 13.7001 34.8103 21.1108 33.1247 29.0629C33.645 30.1981 34.0563 31.3801 34.353 32.5931C34.4228 32.8643 34.4867 33.1201 34.5468 33.3371C34.6669 33.8505 34.7405 34.1838 34.7405 34.1838C34.7405 34.1838 34.6979 34.0229 34.5216 33.5134L34.4073 33.184C34.3879 33.1317 34.3627 33.0697 34.3337 33.0019C34.0237 32.2792 33.1712 30.7544 32.7837 30.0956C32.4601 31.0508 32.1734 31.944 31.935 32.7519C32.7395 34.4822 33.3303 36.3039 33.6943 38.1769C33.6943 38.1769 33.6362 37.9541 33.363 37.1791C32.8381 36.0473 32.2561 34.9428 31.6192 33.8699C31.2074 34.9327 31.0328 36.0727 31.1077 37.2101C31.5345 38.0609 31.8553 38.9608 32.0629 39.8897C32.71 42.3755 33.1595 45.4038 33.1595 45.4038C33.1595 45.4038 33.175 45.5976 33.1983 45.9134C33.1132 47.9839 33.1553 50.0577 33.3242 52.1231C33.4203 54.168 33.8011 56.1896 34.4557 58.1293L34.8045 57.9356C33.9927 55.0202 33.6796 51.9886 33.8784 48.9688C34.2431 42.5668 35.5071 36.248 37.6332 30.1983C41.5276 19.9141 46.9332 11.6603 51.8739 7.72331C47.3672 11.7921 41.268 24.9671 39.4409 29.8457C37.517 34.8688 36.0552 40.057 35.0738 45.3457C36.2419 42.3941 38.5288 40.0236 41.4365 38.7504C41.4365 38.7504 43.8255 35.8035 46.6174 31.5953C44.8137 31.9714 43.0318 32.4455 41.2796 33.0154C39.9234 33.5851 39.5572 33.7788 39.5572 33.7788C42.1462 32.2197 44.8814 30.9173 47.7237 29.8903C52.9085 21.7237 58.5582 10.1278 52.8697 5.04375" fill="#003B57"/>
<defs>
<linearGradient id="paint0_linear_1457_32463" x1="25.7909" y1="8.34411" x2="25.7909" y2="43.2163" gradientUnits="userSpaceOnUse">
<stop stop-color="#97D9F6"/>
<stop offset="0.92" stop-color="#0F80CC"/>
<stop offset="1" stop-color="#0F80CC"/>
</linearGradient>
</defs>
</svg>
