<svg width="62" height="62" viewBox="0 0 62 62" fill="none" xmlns="http://www.w3.org/2000/svg">
<path d="M17.5442 6.88916C17.8271 6.88916 43.8131 6.88916 44.2846 6.88916C45.5857 6.88916 46.8492 7.09637 48.075 7.52961C49.8476 8.17006 51.4505 9.30027 52.6574 10.7695C53.8832 12.2388 54.6941 14.0471 54.9769 15.9308C55.0901 16.6278 55.1089 17.3247 55.1089 18.0217C55.1089 18.6622 55.1089 41.2287 55.1089 42.2458C55.1089 42.8486 55.1089 43.4702 55.1089 44.073C55.1089 44.9018 55.0712 45.7495 54.9015 46.5595C54.5243 48.4243 53.638 50.1761 52.3557 51.5889C51.0922 53.0017 49.4327 54.0565 47.6412 54.6216C46.5475 54.9607 45.416 55.1114 44.2657 55.1114C43.7565 55.1114 17.4688 55.1114 17.0728 55.0925C15.1493 54.9984 13.2446 54.3767 11.6417 53.303C10.0765 52.2482 8.79419 50.7789 7.96444 49.0836C7.24785 47.6332 6.88955 46.0132 6.88955 44.3932C6.88955 44.0165 6.88955 17.984 6.88955 17.6073C6.85183 16.0062 7.19127 14.4239 7.88901 12.9923C8.6999 11.297 9.96337 9.80886 11.5286 8.754C13.1315 7.66147 15.0173 7.02102 16.9408 6.92683C17.1293 6.88916 17.3368 6.88916 17.5442 6.88916Z" fill="url(#paint0_linear_1457_32619)"/>
<path d="M47.7908 46.4786C47.6204 46.2139 47.431 45.9492 47.2227 45.7034C46.7493 45.1362 46.2001 44.6447 45.5941 44.2287C44.8366 43.7183 43.9466 43.3969 43.0376 43.3591C42.3937 43.3212 41.7499 43.4347 41.1439 43.6616C40.5379 43.8695 39.9509 44.172 39.3828 44.4745C38.72 44.8148 38.0572 45.1551 37.3565 45.4387C36.5232 45.779 35.6521 46.0437 34.7621 46.2328C33.6448 46.4408 32.5086 46.5164 31.3913 46.4975C29.365 46.4597 27.3388 46.1572 25.4072 45.59C23.7028 45.0795 22.0743 44.38 20.5404 43.4914C19.1958 42.7162 17.946 41.8277 16.7719 40.8256C15.8061 39.9938 14.916 39.1052 14.0828 38.1599C13.5147 37.4982 12.9655 36.7986 12.4542 36.0802C12.2459 35.7966 12.0565 35.4941 11.8861 35.1916L6.88672 29.8034V17.6089C6.88672 11.6913 11.6778 6.88916 17.6051 6.88916H27.1683L34.2508 14.0735C50.2337 24.9256 45.0639 36.8932 45.0639 36.8932C45.0639 36.8932 49.6088 41.9978 47.7908 46.4786Z" fill="url(#paint1_linear_1457_32619)"/>
<path d="M34.3317 13.7783C50.2292 24.7302 45.087 36.8079 45.087 36.8079C45.087 36.8079 49.6077 41.9786 47.7806 46.5005C47.7806 46.5005 45.9158 43.3333 42.7891 43.3333C39.7753 43.3333 38.0047 46.5005 31.9396 46.5005C18.4342 46.5005 12.0488 35.0716 12.0488 35.0716C24.2168 43.1806 32.5235 37.4375 32.5235 37.4375C27.0422 34.213 15.3828 18.7964 15.3828 18.7964C25.5354 27.5541 29.9241 29.8628 29.9241 29.8628C27.3059 27.6686 19.9599 16.9456 19.9599 16.9456C25.8367 22.9749 37.515 31.3892 37.515 31.3892C40.8301 22.0781 34.3317 13.7783 34.3317 13.7783Z" fill="white"/>
<defs>
<linearGradient id="paint0_linear_1457_32619" x1="35.5327" y1="5.16846" x2="26.4314" y2="56.8415" gradientUnits="userSpaceOnUse">
<stop stop-color="#FAAE42"/>
<stop offset="1" stop-color="#EF3E31"/>
</linearGradient>
<linearGradient id="paint1_linear_1457_32619" x1="31.6208" y1="7.67117" x2="24.9385" y2="45.6302" gradientUnits="userSpaceOnUse">
<stop stop-color="#E39F3A"/>
<stop offset="1" stop-color="#D33929"/>
</linearGradient>
</defs>
</svg>
