<svg width="62" height="62" viewBox="0 0 62 62" fill="none" xmlns="http://www.w3.org/2000/svg">
<g clip-path="url(#clip0_1457_32432)">
<path d="M31 62C48.1208 62 62 48.1208 62 31C62 13.8792 48.1208 0 31 0C13.8792 0 0 13.8792 0 31C0 48.1208 13.8792 62 31 62Z" fill="black"/>
<path d="M33.2342 25.1997C33.7064 24.9514 34.5541 24.9756 34.5541 24.9756C34.5541 25.7991 34.4754 26.2895 33.9547 26.6709C33.7912 26.792 33.5006 26.9797 33.1676 27.1008C32.7074 27.2704 32.3926 27.567 32.3926 27.567C32.3926 26.0655 32.6227 25.5206 33.2342 25.1997ZM29.5953 25.5508C29.0928 25.9928 28.9475 26.6952 28.9475 26.6952L27.2885 33.1192L25.908 27.8577C25.7748 27.3006 25.5326 26.6043 25.1512 26.1381C24.6607 25.5448 23.6678 25.5024 23.5648 25.5024C23.4619 25.5024 22.4689 25.5387 21.9785 26.1381C21.5971 26.6043 21.3549 27.2946 21.2217 27.8577L19.8352 33.1192L18.1762 26.6952C18.1762 26.6952 18.0309 25.9928 17.5283 25.5508C16.717 24.8364 15.5 24.9877 15.5 24.9877L18.6727 36.9942C18.6727 36.9942 19.7201 37.0668 20.2469 36.8004C20.9371 36.4493 21.2641 36.1768 21.6818 34.542C22.0512 33.0829 23.0926 28.8083 23.1895 28.4995C23.2379 28.3481 23.2984 27.9909 23.5648 27.9909C23.8373 27.9909 23.8918 28.3481 23.9402 28.4995C24.0371 28.8022 25.0785 33.0829 25.4479 34.542C25.8656 36.1768 26.1926 36.4493 26.8828 36.8004C27.4096 37.0668 28.457 36.9942 28.457 36.9942L31.6357 24.9817C31.6236 24.9877 30.4066 24.8303 29.5953 25.5508ZM34.5541 26.9495C34.5541 26.9495 34.3543 27.2583 33.9002 27.5126C33.6096 27.676 33.3311 27.785 33.0283 27.9303C32.5258 28.1725 32.3926 28.4389 32.3926 28.8506V36.9942C32.3926 36.9942 33.1918 37.0971 33.7186 36.8307C34.3906 36.4856 34.548 36.1526 34.5541 34.6631V26.9495ZM42.4736 31.0182L46.5061 25.0241C46.5061 25.0241 44.8047 24.7335 43.9631 25.5024C43.4242 25.9928 42.8188 26.8768 42.8188 26.8768L41.3354 29.0141C41.2627 29.1231 41.1719 29.2442 41.0205 29.2442C40.8691 29.2442 40.7783 29.1231 40.7057 29.0141L39.2223 26.8768C39.2223 26.8768 38.6168 25.9928 38.0779 25.5024C37.2363 24.7335 35.535 25.0241 35.535 25.0241L39.5674 31.0182L35.541 36.9942C35.541 36.9942 37.315 37.2182 38.1566 36.4493C38.6955 35.9588 39.2162 35.1596 39.2162 35.1596L40.6996 33.0223C40.7723 32.9133 40.8631 32.7922 41.0145 32.7922C41.1658 32.7922 41.2566 32.9133 41.3293 33.0223L42.8127 35.1596C42.8127 35.1596 43.3637 35.9588 43.9025 36.4493C44.7441 37.2182 46.4879 36.9942 46.4879 36.9942L42.4736 31.0182Z" fill="white"/>
</g>
<defs>
<clipPath id="clip0_1457_32432">
<rect width="62" height="62" fill="white"/>
</clipPath>
</defs>
</svg>
