<svg width="60" height="60" viewBox="0 0 60 60" fill="none" xmlns="http://www.w3.org/2000/svg">
<g clip-path="url(#clip0_2194_17093)">
<path d="M16.489 5.82542C17.2073 5.18695 18.1171 4.85175 18.979 4.48463C21.3254 3.46309 23.7835 2.77673 26.3374 2.44154C28.572 2.15423 30.8226 2.1223 33.0732 2.39365C36.5848 2.80866 39.8888 3.79828 43.0014 5.4583C43.1929 5.55407 43.4323 5.58599 43.5122 5.84138C43.3206 5.90522 43.1291 5.95311 42.9375 6.01696C35.0525 8.39525 32.3709 18.2117 37.9734 24.2133C38.0692 24.341 38.165 24.4687 38.2767 24.5804C41.1179 27.2939 44.5018 28.3154 48.3485 27.5972C50.679 27.1502 52.6901 26.0329 54.2863 24.2292C55.1482 23.3833 55.6909 22.3458 56.2815 21.3242C56.8402 22.266 56.9838 23.3354 57.2073 24.3729C57.6383 26.4 57.8936 28.4751 57.8138 30.5501C57.7181 33.1678 57.3829 35.7376 56.5369 38.2436C56.4731 38.4352 56.4411 38.6267 56.2655 38.7703C56.1538 38.5788 56.0421 38.4032 55.9304 38.2117C53.6638 33.8861 48.7636 31.4759 43.991 32.4814C39.7771 33.3753 36.8721 35.8972 35.5473 39.9834C34.2384 44.0537 35.1323 47.7408 37.9734 50.9491C39.4579 52.6251 41.3573 53.6307 43.4962 54.2213C42.73 54.8438 41.8202 55.179 40.9423 55.578C38.9152 56.5038 36.7763 57.0784 34.5896 57.4455C33.6957 57.6051 32.8019 57.7328 31.8761 57.7488C31.062 57.7648 30.2639 57.8925 29.4499 57.8605C24.9487 57.669 20.6869 56.6155 16.7284 54.4447C16.6167 54.3809 16.505 54.333 16.489 54.2053C18.6279 53.6307 20.5114 52.6091 21.9958 50.9332C24.5816 48.076 25.5393 44.7241 24.7093 40.989C23.7675 36.7911 21.1498 33.934 17.0157 32.7209C12.8976 31.5078 9.19451 32.4814 6.05006 35.4503C5.06043 36.3921 4.35812 37.5413 3.70369 38.7384C3.2408 38.2117 3.20888 37.5094 3.04926 36.8709C2.44272 34.4128 2.0756 31.9068 2.17137 29.3689C2.26714 26.7991 2.60233 24.2612 3.43234 21.819C3.49619 21.6275 3.52811 21.4359 3.68773 21.2923C4.27831 22.3138 4.83697 23.3673 5.68294 24.1973C5.74679 24.2771 5.79467 24.3569 5.85852 24.4368C8.73162 27.262 12.1634 28.3314 16.1059 27.5652C18.4204 27.1183 20.4156 26.001 21.9958 24.2133C25.0604 20.9411 25.8426 16.0569 23.9272 12.0186C22.4427 8.77833 19.9048 6.76716 16.489 5.82542ZM35.0046 33.8382C34.9886 33.503 34.7971 33.1997 34.5098 32.9124C33.6638 32.0664 32.8338 31.2045 31.9719 30.3905C31.6526 30.0872 31.6367 29.8956 31.9719 29.5924C32.8338 28.7783 33.6638 27.9164 34.5098 27.0704C34.829 26.7512 35.0844 26.3841 34.9886 25.9052C34.9088 25.4902 34.6694 25.2029 34.2544 25.0433C33.7436 24.8677 33.3446 25.0593 33.0094 25.3945C32.1474 26.2404 31.2695 27.0864 30.4395 27.9643C30.0884 28.3474 29.8809 28.2995 29.5457 27.9483C28.7476 27.1024 27.9016 26.2883 27.0716 25.4583C26.7524 25.1391 26.3853 24.8996 25.9064 24.9954C25.4914 25.0912 25.2041 25.3146 25.0604 25.7456C24.8849 26.2564 25.0924 26.6395 25.4276 26.9906C26.2895 27.8685 27.1514 28.7464 28.0453 29.6083C28.3485 29.8956 28.3645 30.0712 28.0453 30.3585C27.1674 31.1885 26.3214 32.0664 25.4595 32.9284C25.1402 33.2476 24.9008 33.6147 25.0126 34.0936C25.2201 35.0353 26.2576 35.2747 27.0078 34.5565C27.8857 33.7105 28.7476 32.8645 29.5776 31.9866C29.9128 31.6355 30.1043 31.6674 30.4236 32.0026C31.2217 32.8326 32.0517 33.6466 32.8657 34.4607C33.0413 34.6363 33.2169 34.7959 33.4244 34.8917C34.1586 35.2269 34.9886 34.7161 35.0046 33.8382Z" fill="#E6EEFE"/>
<path d="M37.9705 24.1986C32.3839 18.213 35.0655 8.3806 42.9346 6.0023C43.1261 5.93846 43.3177 5.89057 43.5092 5.82673C47.372 5.02864 50.8197 5.87461 53.7407 8.57214C57.0767 11.6527 58.1301 16.4253 56.502 20.6711C56.4222 20.8786 56.3584 21.0861 56.2786 21.2936C55.688 22.3152 55.1293 23.3686 54.2834 24.1986C53.9641 23.0813 53.2139 22.379 52.1445 22.0119C50.9793 21.5969 49.7981 21.2138 48.617 20.8148C49.2874 20.1124 49.846 19.3463 49.9418 18.3247C50.3408 18.3247 50.7399 18.3247 51.1389 18.3247C51.6018 18.3247 51.921 18.0693 52.1285 17.6703C52.4318 17.0159 52.2083 15.6591 51.6976 15.1164C51.6656 14.7972 51.6337 14.4939 51.6337 14.1747C51.6337 11.4931 49.2874 8.98714 46.3664 8.90733C42.9027 8.77964 40.3807 11.4772 40.5403 15.0845C40.0455 15.6272 39.8061 16.9839 40.1094 17.6384C40.3009 18.0534 40.6202 18.2928 41.099 18.2928C41.498 18.2928 41.8971 18.2928 42.2961 18.2928C42.3759 19.3144 42.9665 20.0646 43.621 20.7828C42.4398 21.1819 41.2746 21.565 40.0934 21.98C39.0399 22.379 38.2738 23.0654 37.9705 24.1986Z" fill="#4F6AFE"/>
<path d="M5.73052 24.1827C4.86859 23.3367 4.30993 22.2992 3.73531 21.2777C3.09684 19.6336 2.72972 17.9417 2.77761 16.1699C2.9053 10.8866 7.32669 6.13002 12.5941 5.61925C13.9189 5.49155 15.2118 5.58732 16.5047 5.82675C19.9205 6.76849 22.4584 8.77966 23.9747 11.988C25.8901 16.0422 25.108 20.9105 22.0434 24.1827C21.7401 23.0654 20.9739 22.3631 19.9045 21.9959C18.7393 21.5809 17.5581 21.1979 16.377 20.7988C17.0474 20.0805 17.622 19.3303 17.7018 18.3088C18.1008 18.3088 18.4999 18.2928 18.883 18.3088C19.3139 18.3248 19.6012 18.1013 19.8087 17.7821C20.3355 16.984 19.9205 15.4197 19.0745 14.9728C19.6651 13.3766 19.4576 11.7166 19.4576 10.0726C19.4576 9.32236 18.883 8.87543 18.1168 8.85947C16.3291 8.85947 14.5414 8.85947 12.7377 8.85947C12.0194 8.85947 11.365 9.06697 10.8702 9.64159C10.6627 9.88102 10.4233 10.0406 10.0561 10.0726C9.22613 10.1524 8.45997 10.9505 8.3642 11.7645C8.22055 12.8659 8.23651 13.9832 8.28439 15.1005C7.78958 15.6432 7.55016 16.9999 7.85343 17.6544C8.04497 18.0694 8.3642 18.3088 8.84305 18.3088C9.24209 18.3088 9.64114 18.3088 10.0402 18.3088C10.12 19.3303 10.7106 20.0805 11.365 20.7988C10.1838 21.1979 9.01863 21.5809 7.83747 21.9959C6.78399 22.379 6.03379 23.0654 5.73052 24.1827Z" fill="#4F6AFE"/>
<path d="M3.71875 38.7218C4.37318 37.5406 5.05953 36.3754 6.06512 35.4336C9.20957 32.4648 12.9127 31.4911 17.0308 32.7042C21.1649 33.9173 23.7826 36.7744 24.7243 40.9724C25.5703 44.7074 24.5966 48.0593 22.0108 50.9165C21.8353 49.9588 21.2287 49.3522 20.4147 48.9053C19.7443 48.5542 18.9941 48.4105 18.3077 48.1232C17.7012 47.8838 17.0308 47.8199 16.5041 47.4209C16.8552 46.8782 17.3979 46.4312 17.5256 45.7768C17.6373 45.1383 17.9725 44.9787 18.5791 45.0266C19.1377 45.0745 19.7603 44.9309 19.872 44.3243C20.0476 43.4783 20.2551 42.5526 19.4729 41.8183C19.4091 40.9723 19.3931 40.1264 19.1218 39.2964C18.4514 37.2852 16.3125 35.4815 13.7267 35.5773C11.3963 35.6731 9.36919 37.1256 8.60303 39.3443C8.33168 40.1583 8.44341 40.9883 8.26783 41.8024C7.6134 42.3131 7.77302 43.0474 7.77302 43.7337C7.77302 44.5318 8.14014 44.9308 8.93822 45.0107C9.16169 45.0266 9.36919 45.0266 9.59265 45.0107C9.864 44.9947 10.0236 45.0585 10.1034 45.3618C10.295 46.2397 10.8217 46.9261 11.4761 47.5166C10.6302 47.6124 9.87996 47.9795 9.08188 48.2509C6.67166 45.5853 4.96376 42.5206 3.75067 39.1687C3.71875 39.041 3.73471 38.8654 3.71875 38.7218Z" fill="#4F6AFE"/>
<path d="M37.9851 50.9018C35.1439 47.6935 34.2501 44.0063 35.5589 39.9361C36.8837 35.8339 39.7888 33.312 44.0027 32.4341C48.7752 31.4285 53.6754 33.8387 55.942 38.1643C56.0378 38.3559 56.1655 38.5315 56.2772 38.723C56.2453 39.5211 55.8622 40.2074 55.5589 40.9097C54.5693 43.1923 53.3562 45.3471 51.7441 47.2625C51.7281 46.4804 51.7122 45.6983 51.6962 44.9161C52.4464 44.1021 52.4624 42.6655 51.7281 41.8355C51.5685 41.1651 51.6802 40.4628 51.5047 39.7765C50.5948 36.1053 46.2692 34.3974 43.1088 36.4724C41.1774 37.7493 40.4911 39.6169 40.523 41.8355C39.7888 42.6655 39.8047 44.1181 40.539 44.9161C40.539 46.1133 40.523 47.3104 40.523 48.5075C40.2836 48.6033 40.0442 48.6991 39.8047 48.8108C38.8949 49.2258 38.1926 49.8483 37.9851 50.9018Z" fill="#4F6AFE"/>
<path d="M16.4922 47.4219C17.0189 47.8369 17.6893 47.8848 18.2958 48.1242C18.9981 48.3955 19.7324 48.5552 20.4028 48.9063C21.2328 49.3373 21.8234 49.9598 21.9989 50.9175C20.5145 52.5935 18.631 53.599 16.4922 54.1896C16.3804 54.1737 16.2527 54.1737 16.157 54.1258C13.4914 52.5615 11.0652 50.694 9.08594 48.2838C9.88402 48.0284 10.6342 47.6613 11.4802 47.5496C11.7515 47.7251 12.0069 47.8848 12.2783 48.0603C12.4219 48.9063 13.0604 49.465 13.8585 49.465C14.6725 49.465 15.295 48.9063 15.4547 48.0603C15.8058 47.8528 16.157 47.6294 16.4922 47.4219Z" fill="#3340D4"/>
<path d="M37.9922 50.9037C38.1997 49.8503 38.886 49.2278 39.8118 48.7968C40.0512 48.6851 40.2907 48.6053 40.5301 48.4935C41.5676 48.1583 42.6051 47.8231 43.6426 47.5039C43.9459 47.6954 44.2492 47.871 44.5365 48.0626C44.6801 48.9085 45.3186 49.4672 46.1327 49.4672C46.9467 49.4672 47.5692 48.9085 47.7129 48.0626C48.0161 47.871 48.3194 47.6795 48.6227 47.5039C49.3888 47.7593 50.155 48.0147 50.9212 48.286C48.9259 50.6962 46.4998 52.5957 43.8022 54.144C43.7224 54.1919 43.6107 54.1759 43.5149 54.1919C41.3761 53.5853 39.4926 52.5797 37.9922 50.9037Z" fill="#3340D4"/>
<path d="M53.9344 60C53.0086 60.0159 52.2584 59.2817 52.2424 58.3719C52.2265 57.478 52.9767 56.6959 53.8865 56.6799C54.7963 56.664 55.5625 57.4142 55.5625 58.324C55.5784 59.2498 54.8602 59.984 53.9344 60Z" fill="#FEA204"/>
<path d="M4.40187 0.000255404C5.32765 -0.0157063 6.07784 0.718532 6.09381 1.62835C6.10977 2.5222 5.35957 3.30433 4.44975 3.32029C3.5559 3.35221 2.77377 2.58605 2.75781 1.67623C2.75781 0.734493 3.46013 0.0162171 4.40187 0.000255404Z" fill="#FE506B"/>
<path d="M1.64405 52.8008C2.56983 52.8008 3.32003 53.535 3.32003 54.4448C3.32003 55.3387 2.56983 56.1208 1.66002 56.1368C0.766161 56.1368 0 55.3866 0 54.4768C0 53.535 0.702314 52.8008 1.64405 52.8008Z" fill="#05C9A0"/>
<path d="M58.3716 1.66016C59.3134 1.67612 60.0157 2.39439 59.9997 3.3521C59.9838 4.24595 59.2495 4.98019 58.3557 4.98019C57.4618 4.98019 56.6797 4.19807 56.6797 3.30421C56.6797 2.39439 57.4458 1.66016 58.3716 1.66016Z" fill="#05C9A0"/>
<path d="M50.9157 48.2703C50.1495 48.0149 49.3833 47.7595 48.6172 47.4881C48.8885 47.1529 49.1758 46.8337 49.4153 46.4666C50.0857 45.477 50.4847 45.1897 51.6978 44.9023C51.7138 45.6845 51.7297 46.4666 51.7457 47.2487C51.5382 47.6478 51.2668 47.9989 50.9157 48.2703Z" fill="#7E95D1"/>
<path d="M16.373 20.7969C17.5542 21.1959 18.7353 21.579 19.9005 21.994C20.97 22.3771 21.7202 23.0634 22.0394 24.1808C20.4592 25.9685 18.48 27.0858 16.1495 27.5327C12.207 28.3148 8.77525 27.2294 5.90214 24.4202C5.83829 24.3563 5.77445 24.2606 5.72656 24.1808C6.02983 23.0634 6.796 22.3611 7.86543 21.994C9.03063 21.579 10.2118 21.1959 11.393 20.7969C11.6962 21.0044 12.0155 21.2119 12.3187 21.4034C12.4305 22.2334 12.9891 22.7123 13.867 22.7282C14.7768 22.7282 15.3515 22.2653 15.4632 21.4194C15.7505 21.2119 16.0697 21.0044 16.373 20.7969Z" fill="#3340D4"/>
<path d="M37.9766 24.1967C38.2798 23.0794 39.046 22.3771 40.1154 22.01C41.2806 21.595 42.4618 21.2119 43.643 20.8128C43.9462 21.0203 44.2655 21.2278 44.5687 21.4194C44.6964 22.2813 45.2551 22.7442 46.1649 22.7282C47.0428 22.7282 47.5855 22.2494 47.6972 21.4034C48.0005 21.1959 48.3197 20.9884 48.623 20.7969C49.8042 21.1959 50.9694 21.595 52.1505 21.994C53.22 22.3771 53.9702 23.0794 54.2894 24.1808C52.6932 25.9844 50.6821 27.1177 48.3517 27.5487C44.5049 28.2829 41.137 27.2454 38.2798 24.5319C38.1681 24.4361 38.0723 24.3084 37.9766 24.1967Z" fill="#3340D4"/>
<path d="M35.0043 33.8386C34.9723 34.7164 34.1583 35.2272 33.4241 34.8761C33.2006 34.7803 33.025 34.6207 32.8654 34.4451C32.0514 33.6311 31.2213 32.833 30.4233 31.987C30.104 31.6518 29.9125 31.6199 29.5773 31.971C28.7473 32.8489 27.8854 33.7109 27.0075 34.5409C26.2573 35.2751 25.2197 35.0197 25.0122 34.078C24.9005 33.5991 25.1399 33.232 25.4592 32.9128C26.3211 32.0508 27.1671 31.1889 28.045 30.3429C28.3482 30.0556 28.3323 29.8641 28.045 29.5927C27.1511 28.7308 26.2892 27.8689 25.4273 26.975C25.0921 26.6398 24.8846 26.2408 25.0601 25.73C25.2038 25.299 25.4911 25.0756 25.9061 24.9798C26.385 24.8681 26.7521 25.1235 27.0713 25.4427C27.9013 26.2727 28.7473 27.0868 29.5454 27.9327C29.8806 28.2839 30.0721 28.3318 30.4392 27.9487C31.2692 27.0708 32.1312 26.2248 33.0091 25.3789C33.3443 25.0437 33.7433 24.8521 34.2541 25.0277C34.685 25.1714 34.9085 25.4746 34.9883 25.8896C35.0841 26.3685 34.8287 26.7356 34.5095 27.0548C33.6635 27.9008 32.8335 28.7627 31.9715 29.5768C31.6363 29.896 31.6523 30.0716 31.9715 30.3749C32.8335 31.1889 33.6635 32.0508 34.5095 32.8968C34.7968 33.2001 34.9883 33.5034 35.0043 33.8386Z" fill="#8198D1"/>
<path d="M44.5475 21.404C44.2442 21.1965 43.925 20.989 43.6217 20.7974C42.9673 20.0792 42.3767 19.329 42.2969 18.3074C42.2969 17.1901 42.2969 16.0568 42.2969 14.9395C42.3288 13.9658 43.2227 13.3752 44.1165 13.7743C45.4573 14.3808 46.7821 14.3808 48.1229 13.7743C49.0327 13.3752 49.8787 13.9339 49.9425 14.9395C49.9425 16.0568 49.9425 17.1741 49.9425 18.3074C49.8468 19.329 49.2881 20.0951 48.6177 20.7974C48.3144 21.0049 47.9952 21.2124 47.6919 21.404C46.6385 21.7232 45.6009 21.7072 44.5475 21.404ZM46.1436 19.9674C46.3671 20.0153 46.5906 19.9515 46.7981 19.8078C47.1013 19.6003 47.3408 19.3449 47.1492 18.9618C46.9577 18.5947 46.6385 18.5468 46.3033 18.7863C46.1277 18.898 46 18.8341 45.8723 18.7543C45.5531 18.5788 45.2817 18.6107 45.1061 18.9459C44.9465 19.2651 45.0902 19.5205 45.3456 19.728C45.569 19.9036 45.8244 19.9993 46.1436 19.9674Z" fill="#A4BBEC"/>
<path d="M49.9477 14.939C49.8679 13.9334 49.0219 13.3748 48.128 13.7738C46.7873 14.3804 45.4624 14.3644 44.1217 13.7738C43.2278 13.3748 42.3339 13.9653 42.302 14.939C41.7114 14.9869 41.1209 14.8752 40.5462 15.0827C40.3866 11.4753 42.9086 8.7778 46.3723 8.87357C49.2932 8.95337 51.6396 11.4594 51.6396 14.1409C51.6396 14.4602 51.6875 14.7634 51.7035 15.0827C51.1288 14.8752 50.5383 14.9869 49.9477 14.939Z" fill="#7E95D1"/>
<path d="M49.9453 14.9414C50.5359 14.9893 51.1265 14.8776 51.7011 15.0851C52.2119 15.6278 52.4353 16.9845 52.1321 17.6389C51.9405 18.0539 51.6213 18.2934 51.1424 18.2934C50.7434 18.2934 50.3444 18.2934 49.9453 18.2934C49.9453 17.192 49.9453 16.0587 49.9453 14.9414Z" fill="#A3BAEC"/>
<path d="M40.5417 15.0851C41.1163 14.8776 41.7069 14.9893 42.2975 14.9414C42.2975 16.0587 42.2975 17.192 42.2975 18.3093C41.8985 18.3093 41.4994 18.3093 41.1004 18.3093C40.6375 18.3093 40.3183 18.0539 40.1108 17.6549C39.8075 16.9845 40.0469 15.6278 40.5417 15.0851Z" fill="#A3BAEC"/>
<path d="M12.3066 21.4056C12.0033 21.1981 11.6841 20.9906 11.3808 20.7991C10.7264 20.0808 10.1358 19.3306 10.056 18.3091C10.056 17.6546 10.0879 17.0002 10.056 16.3458C10.04 15.8829 10.1837 15.404 9.96022 14.9571C9.96022 14.7975 9.94426 14.6379 9.96022 14.4783C10.1039 13.1534 10.8381 12.5469 12.0193 12.8502C13.376 13.2013 14.7487 13.3131 16.1374 13.2971C17.3984 13.2811 17.8134 13.6961 17.8134 14.9731C17.6378 15.1327 17.7016 15.3402 17.7016 15.5317C17.7016 16.4575 17.7016 17.3992 17.7016 18.325C17.6218 19.3466 17.0472 20.0968 16.3768 20.8151C16.0735 21.0226 15.7543 21.2301 15.451 21.4216C14.3976 21.7249 13.3601 21.7089 12.3066 21.4056ZM13.8708 20.2085C14.1103 20.2404 14.3497 20.1925 14.5412 20.0489C14.8445 19.8414 15.0839 19.586 14.8924 19.2029C14.7008 18.8198 14.3816 18.7879 14.0464 19.0273C13.8708 19.155 13.7591 19.0593 13.6154 18.9795C13.3441 18.8358 13.0568 18.8677 12.8812 19.1391C12.6897 19.4264 12.7854 19.6977 13.0408 19.9372C13.2803 20.1287 13.5516 20.2404 13.8708 20.2085Z" fill="#A4BBEC"/>
<path d="M17.8125 14.9574C17.7965 13.6964 17.3975 13.2655 16.1365 13.2814C14.7478 13.3134 13.3751 13.1857 12.0184 12.8345C10.8372 12.5312 10.103 13.1378 9.9593 14.4626C9.94334 14.6222 9.9593 14.7818 9.9593 14.9415C9.40064 14.9415 8.85795 14.8936 8.31525 15.0691C8.26736 13.9518 8.2514 12.8505 8.39506 11.7332C8.50679 10.9351 9.25699 10.121 10.087 10.0412C10.4382 10.0093 10.6776 9.86564 10.901 9.61025C11.3959 9.05159 12.0343 8.82812 12.7686 8.82812C14.5563 8.82812 16.344 8.82812 18.1477 8.82812C18.9298 8.82812 19.4884 9.27505 19.4884 10.0412C19.4884 11.6853 19.6959 13.3453 19.1054 14.9415C18.6584 14.9574 18.2275 14.9574 17.8125 14.9574Z" fill="#7E95D1"/>
<path d="M17.8155 14.957C18.2465 14.957 18.6615 14.957 19.0925 14.973C19.9225 15.4199 20.3375 16.9842 19.8267 17.7823C19.6192 18.1015 19.3319 18.3409 18.9009 18.309C18.5019 18.293 18.1188 18.309 17.7198 18.309C17.7198 17.3832 17.7198 16.4415 17.7198 15.5157C17.7038 15.3242 17.64 15.1166 17.8155 14.957Z" fill="#A3BAEC"/>
<path d="M8.29954 15.0829C8.84223 14.9073 9.38493 14.9552 9.94359 14.9552C10.183 15.4021 10.0234 15.881 10.0553 16.3439C10.0872 16.9983 10.0553 17.6527 10.0553 18.3071C9.65628 18.3071 9.25724 18.3071 8.85819 18.3071C8.39531 18.3071 8.07607 18.0518 7.86857 17.6527C7.5653 16.9823 7.80472 15.6256 8.29954 15.0829Z" fill="#A3BAEC"/>
<path d="M16.4897 47.4242C16.1545 47.6317 15.8034 47.8552 15.4682 48.0627C14.4147 48.3819 13.3453 48.3979 12.2918 48.0627C12.0204 47.8871 11.7651 47.7275 11.4937 47.5519C10.8233 46.9613 10.3125 46.275 10.121 45.3971C10.0572 45.0938 9.88158 45.03 9.61023 45.0459C9.38677 45.0619 9.17926 45.0619 8.9558 45.0459C8.15771 44.9661 7.7906 44.5671 7.7906 43.769C7.7906 43.0826 7.63098 42.3644 8.28541 41.8376C8.68445 41.6301 9.09945 41.7259 9.51446 41.7259C9.83369 41.7259 10.0093 41.6461 10.0891 41.2949C10.2327 40.7203 10.6318 40.417 11.2543 40.4011C11.7172 40.3851 12.0843 40.6086 12.4993 40.7203C13.6007 41.0236 14.6701 40.9917 15.7395 40.5288C16.5536 40.1776 17.5432 40.433 17.7028 41.4067C17.7507 41.694 17.9582 41.7099 18.1817 41.7259C18.6126 41.7578 19.0596 41.6301 19.4746 41.8376C20.2407 42.5719 20.0332 43.4976 19.8736 44.3436C19.7459 44.9502 19.1234 45.0779 18.5807 45.0459C17.9742 44.9981 17.639 45.1577 17.5272 45.7961C17.3836 46.4346 16.8568 46.8815 16.4897 47.4242ZM14.9574 45.8919C14.9574 45.445 14.6062 45.1896 14.2072 45.3971C13.9678 45.5248 13.7922 45.5248 13.5528 45.3971C13.1537 45.1896 12.8026 45.445 12.8026 45.8919C12.8026 46.3069 13.2495 46.6581 13.8241 46.706C14.3668 46.7538 14.9574 46.3229 14.9574 45.8919Z" fill="#A4BBEC"/>
<path d="M19.4704 41.8186C19.0554 41.5951 18.6085 41.7228 18.1775 41.7068C17.9381 41.6909 17.7465 41.6749 17.6986 41.3876C17.539 40.4139 16.5654 40.1745 15.7354 40.5097C14.6659 40.9566 13.5805 41.0045 12.4951 40.7012C12.0801 40.5895 11.6971 40.366 11.2501 40.382C10.6276 40.398 10.2126 40.7012 10.0849 41.2759C10.0051 41.627 9.82953 41.7068 9.5103 41.7068C9.0953 41.7228 8.68029 41.6111 8.28125 41.8186C8.44087 41.0045 8.3451 40.1585 8.61645 39.3605C9.38261 37.1258 11.4097 35.6733 13.7401 35.5935C16.3259 35.4977 18.4648 37.3014 19.1352 39.3126C19.3906 40.1266 19.4065 40.9726 19.4704 41.8186Z" fill="#7E95D1"/>
<path d="M51.6981 44.9159C50.485 45.2032 50.086 45.4905 49.4156 46.4802C49.1762 46.8313 48.8729 47.1665 48.6175 47.5017C48.3142 47.6932 48.011 47.8848 47.7077 48.0604C46.6542 48.3956 45.5848 48.3796 44.5313 48.0604C44.228 47.8688 43.9248 47.6932 43.6375 47.5017C43.2863 47.0867 42.8074 46.7036 42.6798 46.1928C42.4403 45.315 42.0572 44.8201 41.0676 45.0276C40.908 45.0596 40.7324 44.9478 40.5568 44.9159C39.8066 44.1019 39.8066 42.6653 40.5409 41.8353C40.9399 41.6278 41.3549 41.7395 41.7699 41.7236C41.9934 41.7076 42.2009 41.7236 42.3286 41.4682C42.4882 41.149 42.7596 41.1011 43.0788 41.117C44.7867 41.1968 46.4627 40.9734 48.1067 40.4466C48.9527 40.1753 49.7189 40.5265 49.9423 41.2766C50.0541 41.6757 50.2616 41.7076 50.5808 41.7076C50.9639 41.7236 51.3789 41.6118 51.746 41.8193C52.4643 42.6653 52.4483 44.1019 51.6981 44.9159ZM46.1115 46.959C46.4308 46.8792 46.7659 46.8154 47.0373 46.5759C47.2767 46.3525 47.2927 46.0492 47.1331 45.8098C46.9894 45.5703 46.7181 45.4107 46.4148 45.6502C46.2073 45.8098 46.0157 45.7938 45.8082 45.6502C45.5369 45.4427 45.2815 45.5863 45.1379 45.7938C44.9463 46.0492 44.9782 46.3684 45.2177 46.6079C45.473 46.8154 45.7923 46.8632 46.1115 46.959Z" fill="#A4BBEC"/>
<path d="M51.714 41.8208C51.3469 41.6133 50.9319 41.709 50.5488 41.709C50.2295 41.709 50.022 41.6771 49.9103 41.2781C49.6868 40.5119 48.9366 40.1767 48.0747 40.4481C46.4307 40.9748 44.7706 41.1983 43.0468 41.1185C42.7275 41.1025 42.4402 41.1504 42.2966 41.4696C42.1848 41.709 41.9614 41.709 41.7379 41.725C41.3229 41.741 40.9079 41.6292 40.5089 41.8367C40.4769 39.6181 41.1633 37.7505 43.0947 36.4736C46.2551 34.3986 50.5807 36.1065 51.4905 39.7777C51.6661 40.4481 51.5544 41.1504 51.714 41.8208Z" fill="#7E95D1"/>
<path d="M40.5397 44.918C40.7153 44.9659 40.8909 45.0616 41.0505 45.0297C42.0401 44.8222 42.4232 45.317 42.6626 46.1949C42.8063 46.7057 43.2692 47.0888 43.6203 47.5038C42.5828 47.839 41.5453 48.1742 40.5078 48.4934C40.5238 47.3122 40.5397 46.1151 40.5397 44.918Z" fill="#7D94D2"/>
<path d="M12.2891 48.0625C13.3425 48.3977 14.412 48.3817 15.4654 48.0625C15.3058 48.9085 14.6833 49.4671 13.8693 49.4671C13.0712 49.4671 12.4327 48.9085 12.2891 48.0625Z" fill="#7E95D1"/>
<path d="M44.5312 48.0625C45.5847 48.3817 46.6542 48.3817 47.7076 48.0625C47.564 48.9085 46.9255 49.4671 46.1274 49.4671C45.3134 49.4671 44.6749 48.9085 44.5312 48.0625Z" fill="#7E95D1"/>
<path d="M12.3047 21.4062C13.3582 21.6936 14.3957 21.7255 15.4491 21.4062C15.3374 22.2682 14.7628 22.7311 13.853 22.7151C12.991 22.7151 12.4164 22.2363 12.3047 21.4062Z" fill="#7D94D2"/>
<path d="M44.5469 21.4062C45.6003 21.7095 46.6379 21.7095 47.6913 21.4062C47.5796 22.2363 47.0209 22.7151 46.159 22.7311C45.2332 22.7311 44.6746 22.2682 44.5469 21.4062Z" fill="#7D94D2"/>
<path d="M46.1436 19.9692C45.8244 20.0011 45.569 19.9054 45.3455 19.7298C45.0901 19.5223 44.9465 19.2669 45.1061 18.9476C45.2817 18.6284 45.553 18.5965 45.8722 18.7561C46.0159 18.8359 46.1436 18.8998 46.3032 18.788C46.6384 18.5486 46.9736 18.5965 47.1492 18.9636C47.3407 19.3467 47.0853 19.6021 46.798 19.8096C46.5905 19.9373 46.3671 20.0011 46.1436 19.9692Z" fill="#7E95D1"/>
<path d="M13.8717 20.2078C13.5524 20.2397 13.2811 20.128 13.0576 19.9205C12.8022 19.697 12.7065 19.4257 12.898 19.1224C13.0736 18.8511 13.3609 18.8192 13.6322 18.9628C13.7759 19.0426 13.8876 19.1384 14.0632 19.0107C14.3984 18.7713 14.7336 18.8191 14.9092 19.1863C15.1007 19.5693 14.8453 19.8247 14.558 20.0322C14.3345 20.1759 14.1111 20.2238 13.8717 20.2078Z" fill="#8198D1"/>
<path d="M14.9595 45.8883C14.9595 46.3193 14.3689 46.7502 13.8262 46.7023C13.2516 46.6545 12.8047 46.3033 12.8047 45.8883C12.8047 45.4414 13.1558 45.186 13.5549 45.3935C13.7943 45.5212 13.9699 45.5212 14.2093 45.3935C14.6084 45.186 14.9595 45.4414 14.9595 45.8883Z" fill="#8198D1"/>
<path d="M46.1108 46.9598C45.7915 46.864 45.4723 46.8161 45.2329 46.5927C44.9775 46.3532 44.9615 46.05 45.1531 45.7786C45.2967 45.5711 45.5521 45.4275 45.8235 45.635C46.031 45.7946 46.2225 45.7946 46.43 45.635C46.7333 45.4115 46.9887 45.5711 47.1483 45.7946C47.2919 46.034 47.2919 46.3373 47.0525 46.5608C46.7652 46.8161 46.43 46.88 46.1108 46.9598Z" fill="#8198D1"/>
</g>
<defs>
<clipPath id="clip0_2194_17093">
<rect width="60" height="60" fill="white"/>
</clipPath>
</defs>
</svg>
