<svg width="60" height="60" viewBox="0 0 60 60" fill="none" xmlns="http://www.w3.org/2000/svg">
<g clip-path="url(#clip0_2194_17072)">
<path d="M55.5526 32.3903C55.5526 32.3106 55.5526 32.2309 55.5526 32.1512C55.5526 32.0077 55.5526 31.8642 55.5526 31.7208C55.5526 31.7048 55.5526 31.7048 55.5526 31.6889C55.5367 30.2064 55.3932 28.7558 55.1381 27.3371C55.1381 27.3053 55.1222 27.2734 55.1222 27.2415C55.0903 27.0502 55.0584 26.8589 55.0106 26.6676C54.8353 25.8228 54.6281 24.9939 54.3889 24.165C54.3252 23.878 54.2614 23.6071 54.2136 23.3201C54.1817 23.3201 54.1498 23.3201 54.118 23.3201C51.9022 16.6889 47.2476 11.1894 41.238 7.84191C41.238 7.82597 41.254 7.79409 41.254 7.77815C41.2062 7.77815 41.1583 7.77815 41.1105 7.77815C37.1573 5.61025 32.6142 4.38283 27.7843 4.38283C12.4336 4.36689 0 16.8164 0 32.1512C0 47.4859 12.4336 59.9195 27.7683 59.9195C37.1732 59.9195 45.4782 55.2489 50.5154 48.0916C52.0457 46.0513 53.1456 43.7718 53.9904 41.3648C54.644 39.5316 55.0744 37.6506 55.3135 35.7378C55.3135 35.6899 55.3294 35.6581 55.3294 35.6102C55.3454 35.419 55.3773 35.2277 55.3932 35.0364C55.3932 34.9726 55.4091 34.9089 55.4091 34.8451C55.4251 34.6857 55.441 34.5422 55.457 34.3828C55.4888 33.9206 55.5207 33.4583 55.5367 33.0119C55.5367 32.9322 55.5367 32.8685 55.5367 32.7888C55.5367 32.6613 55.5526 32.5178 55.5526 32.3903Z" fill="#E6EEFE"/>
<path d="M47.4333 51.7899C43.6554 55.5518 39.1602 58.0385 33.9636 59.2341C30.7595 59.9673 27.5396 60.1108 24.2718 59.6964C19.4896 59.0906 15.1697 57.3372 11.2803 54.4838C10.1804 53.6708 9.1283 52.7941 8.17188 51.8058C8.34722 51.5986 8.58633 51.6783 8.79355 51.6783C21.4662 51.6783 34.1389 51.6783 46.8116 51.6783C47.0348 51.6783 47.2579 51.5826 47.4333 51.7899Z" fill="#7F96D0"/>
<path d="M34.8088 5.38859C35.9884 6.61601 36.8811 8.01877 37.1202 9.7244C37.3593 11.4619 37.3593 13.1994 37.2158 14.9529C36.7376 14.9369 36.1638 15.0804 35.8131 14.8732C35.3667 14.6022 35.7174 13.9646 35.6218 13.5023C35.6218 13.4704 35.6059 13.4226 35.6059 13.3907C35.4624 12.6415 35.0639 12.2271 34.4263 12.2111C32.0671 12.1155 29.7398 12.2908 27.4921 13.1516C26.1531 13.6617 24.7504 13.8849 23.3157 13.8849C22.4868 13.8849 21.6579 13.9008 20.8131 13.8849C20.4464 13.8849 20.0798 14.0283 20.0798 14.3312C20.0798 15.1123 19.5697 14.9529 19.1234 14.9688C18.8843 14.9688 18.6452 14.9848 18.4061 15.0007C18.3264 13.2313 18.2307 11.4779 18.4858 9.75628C18.7408 8.03471 19.6175 6.61601 20.829 5.38859C22.5825 3.84236 24.6388 3.20474 26.9502 3.33226C28.1776 3.39603 29.405 3.25256 30.6324 3.39603C32.2265 3.60325 33.5814 4.35246 34.8088 5.38859Z" fill="#7F96D0"/>
<path d="M47.4435 51.7897C47.2682 51.5984 47.0291 51.6782 46.8219 51.6782C34.1492 51.6782 21.4765 51.6782 8.80378 51.6782C8.59656 51.6782 8.35745 51.5985 8.1821 51.8057C7.08221 50.7536 6.10984 49.6218 5.29688 48.3466C7.05033 48.3466 8.78784 48.3466 10.5413 48.3307C10.7485 48.3307 10.9876 48.4104 11.163 48.235C12.3745 48.2191 13.57 48.2031 14.7815 48.2031C15.1322 48.2191 15.4988 48.2509 15.8495 48.2509C23.8197 48.2509 31.8059 48.2509 39.7762 48.2509C40.1268 48.2509 40.4935 48.2191 40.8442 48.2031C42.0556 48.2191 43.2512 48.235 44.4627 48.2509C44.6539 48.4263 44.8771 48.3466 45.0843 48.3466C46.8378 48.3625 48.5753 48.3466 50.3288 48.3625C49.5317 49.6059 48.5434 50.7377 47.4435 51.7897Z" fill="#A4BAEC"/>
<path d="M58.3218 4.43312C57.4132 4.41718 56.664 3.6361 56.6799 2.74343C56.6959 1.83483 57.461 1.10156 58.3696 1.10156C59.2942 1.1175 60.0115 1.85077 59.9956 2.79125C59.9796 3.69986 59.2304 4.44907 58.3218 4.43312Z" fill="#FEA205"/>
<path d="M53.8765 59.9213C52.9679 59.9213 52.2187 59.1562 52.2346 58.2476C52.2506 57.3549 53.0316 56.5898 53.9243 56.6057C54.8329 56.6217 55.5662 57.3709 55.5662 58.2954C55.5502 59.22 54.817 59.9373 53.8765 59.9213Z" fill="#04C9A0"/>
<path d="M13.3547 1.67375C13.3387 2.5983 12.5736 3.3475 11.665 3.31562C10.7723 3.28374 10.0391 2.53454 10.0391 1.64187C10.0391 0.733263 10.8042 0 11.7288 0C12.6692 0 13.3706 0.733263 13.3547 1.67375Z" fill="#04C9A0"/>
<path d="M1.72026 56.589C0.763832 56.589 0.0624508 55.8876 0.0783913 54.9312C0.0783913 54.0226 0.811654 53.2893 1.70432 53.2893C2.59699 53.2734 3.39401 54.0385 3.40995 54.9471C3.39401 55.8398 2.64481 56.589 1.72026 56.589Z" fill="#FE4F6B"/>
<path d="M34.3361 23.8633C35.6432 23.8633 36.9663 23.8633 38.2734 23.8792C39.6603 23.8952 40.537 24.7719 40.5689 26.1587C40.5848 26.8282 40.521 27.5137 40.6645 28.1832C40.4573 28.3744 40.5529 28.6295 40.537 28.8527C40.537 32.9653 40.4892 37.0779 40.5529 41.1906C40.5689 42.4818 40.1225 43.3107 38.9748 43.8208C38.4488 43.9642 37.9227 43.9324 37.3808 43.9324C30.9727 43.9324 24.5646 43.9324 18.1565 43.9324C17.6305 43.9324 17.0885 43.9642 16.5625 43.8208C15.7655 43.3904 15.1278 42.8325 15.0322 41.8442C15.0163 41.605 15.0003 41.3659 15.0003 41.1268C14.9844 36.807 14.9844 32.4711 14.9844 28.1513C15.0003 27.5455 15.0163 26.9239 15.0163 26.3181C15.0322 24.7878 15.9249 23.8792 17.4552 23.8792C18.7463 23.8792 20.0216 23.8792 21.3127 23.8633C25.6486 23.8633 30.0003 23.8633 34.3361 23.8633ZM28.9323 30.5423C28.9004 30.2554 28.7729 30.0004 28.4063 29.9685C27.9759 29.9366 27.8324 30.2395 27.7686 30.6061C27.418 32.6784 27.0832 34.7506 26.7325 36.8229C26.6688 37.2214 26.6528 37.6359 27.147 37.7156C27.673 37.8112 27.8005 37.3968 27.8643 36.9823C28.0078 36.0896 28.1672 35.181 28.3106 34.2884C28.5338 33.045 28.7251 31.8016 28.9323 30.5423ZM24.9791 31.6263C24.8675 31.6104 24.74 31.6901 24.6443 31.7857C24.0864 32.3436 23.5125 32.8856 22.9706 33.4754C22.6996 33.7623 22.7793 34.0652 23.0503 34.3202C23.5604 34.8303 24.0545 35.3404 24.5646 35.8346C24.8356 36.1056 25.1544 36.1853 25.4573 35.8824C25.7283 35.5955 25.6326 35.3086 25.3776 35.0535C25.0588 34.7347 24.74 34.3999 24.4052 34.0971C24.2139 33.9217 24.2139 33.8101 24.4052 33.6189C24.7718 33.2841 25.1225 32.9334 25.4573 32.5668C25.6167 32.3914 25.6645 32.2002 25.5529 31.961C25.4254 31.7379 25.266 31.6263 24.9791 31.6263ZM30.622 31.6263C30.351 31.6422 30.1916 31.7538 30.096 31.9451C29.9844 32.1683 30.0163 32.3755 30.1757 32.5508C30.5104 32.9015 30.8292 33.2363 31.1799 33.5551C31.4031 33.7623 31.419 33.9058 31.1959 34.129C30.877 34.4159 30.5742 34.7506 30.2713 35.0535C30.0163 35.3086 29.9206 35.5955 30.1916 35.8824C30.4626 36.1693 30.7655 36.1215 31.0205 35.8505C31.5465 35.3404 32.0566 34.8144 32.5827 34.2884C32.8696 34.0014 32.8696 33.6826 32.5827 33.3957C32.0566 32.8537 31.5147 32.3277 30.9886 31.8016C30.877 31.6901 30.7336 31.6104 30.622 31.6263Z" fill="#4E6AFE"/>
<path d="M34.3374 23.8627C30.0016 23.8627 25.6498 23.8627 21.314 23.8627C21.33 23.6714 21.2184 23.528 21.1227 23.3686C20.4851 22.3165 20.1504 21.1528 20.0388 19.9414C19.991 19.4791 19.7997 19.4313 19.4331 19.4472C18.636 19.4791 17.8868 19.3197 17.313 18.7139C16.3247 17.6619 16.5159 16.1316 17.7274 15.3346C17.9346 15.1911 18.1738 15.0795 18.3969 14.9679C18.636 14.952 18.8751 14.936 19.1142 14.936C19.5606 14.9201 20.0707 15.0795 20.0707 14.2984C20.0707 13.9956 20.4373 13.8361 20.8039 13.8521C21.6328 13.868 22.4617 13.8521 23.3066 13.8521C24.7412 13.8521 26.144 13.6289 27.483 13.1188C29.7306 12.258 32.0579 12.0986 34.4171 12.1783C35.0547 12.2102 35.4692 12.6087 35.5967 13.3579C35.5967 13.3898 35.6126 13.4376 35.6126 13.4695C35.7083 13.9318 35.3576 14.5694 35.8039 14.8404C36.1546 15.0476 36.7285 14.9042 37.2067 14.9201C37.2864 14.9839 37.3661 15.0476 37.4458 15.0954C38.5616 15.6055 39.0399 16.4823 38.8326 17.6778C38.6732 18.6024 37.7168 19.3516 36.6169 19.4313C36.4256 19.4472 36.2184 19.4472 36.0271 19.4313C35.6764 19.4153 35.517 19.5588 35.517 19.9095C35.517 21.2007 35.0866 22.3484 34.4331 23.4483C34.3693 23.5917 34.3215 23.7192 34.3374 23.8627Z" fill="#A4BBEC"/>
<path d="M14.9842 28.1328C14.9842 32.4527 15.0001 36.7885 15.0001 41.1084C15.0001 41.3475 15.016 41.5866 15.032 41.8257C15.1276 42.7981 15.7652 43.356 16.5463 43.8023C15.9087 43.8023 15.2711 43.8023 14.6335 43.8183C13.9161 43.8342 13.3901 44.2168 13.3423 44.8863C13.2466 46.2731 13.2626 47.373 14.761 48.1859C13.5495 48.2019 12.354 48.2178 11.1425 48.2178C9.93102 47.7715 9.46875 47.1179 9.46875 45.8427C9.46875 41.73 9.46875 37.6174 9.46875 33.5207C9.46875 31.576 10.3614 30.1891 12.1149 29.3602C13.0872 28.9139 14.0437 28.5473 14.9842 28.1328Z" fill="#7F96D0"/>
<path d="M38.9766 43.8056C40.1243 43.2955 40.5866 42.4666 40.5547 41.1754C40.4909 37.0628 40.5387 32.9501 40.5387 28.8375C40.5387 28.6143 40.4431 28.3593 40.6663 28.168C41.9256 28.6462 43.2167 29.0925 44.3326 29.8577C45.5122 30.6706 46.1179 31.8821 46.1338 33.3167C46.1657 37.541 46.1498 41.7811 46.1498 46.0054C46.1498 47.0893 45.5919 47.7907 44.492 48.2211C43.2805 48.2052 42.085 48.1892 40.8735 48.1733C41.4473 47.8067 41.9893 47.3922 42.1647 46.6908C42.3081 46.117 42.2284 45.5112 42.2284 44.9214C42.2284 44.3476 41.9256 44.0128 41.3676 43.9012C40.5547 43.7259 39.7576 43.8534 38.9766 43.8056Z" fill="#7E95D1"/>
<path d="M38.9697 43.805C39.7508 43.8688 40.5478 43.7412 41.3289 43.9006C41.9028 44.0282 42.1897 44.347 42.1897 44.9208C42.1897 45.5106 42.2854 46.1164 42.1259 46.6902C41.9506 47.3916 41.4086 47.8061 40.8348 48.1727C40.4841 48.1886 40.1175 48.2205 39.7668 48.2205C31.7965 48.2205 23.8103 48.2205 15.8401 48.2205C15.4894 48.2205 15.1228 48.1886 14.7721 48.1727C13.2737 47.3597 13.2577 46.2598 13.3534 44.873C13.4012 44.2035 13.9272 43.8209 14.6445 43.805C15.2822 43.7891 15.9198 43.805 16.5574 43.7891C17.0834 43.9325 17.6095 43.9006 18.1515 43.9006C24.5595 43.9006 30.9676 43.9006 37.3757 43.9006C37.9177 43.9166 38.4437 43.9325 38.9697 43.805Z" fill="#323FD3"/>
<path d="M28.9348 30.5413C28.7275 31.8166 28.5203 33.044 28.329 34.2714C28.1856 35.1641 28.0262 36.0727 27.8827 36.9653C27.8189 37.3957 27.6914 37.7942 27.1654 37.6986C26.6712 37.6189 26.6872 37.2044 26.7509 36.8059C27.1016 34.7337 27.4523 32.6614 27.787 30.5891C27.8508 30.2225 27.9943 29.9196 28.4247 29.9515C28.7754 29.9993 28.9188 30.2385 28.9348 30.5413Z" fill="#F7F8FE"/>
<path d="M24.9773 31.625C25.2643 31.625 25.4237 31.7366 25.5353 31.9598C25.6468 32.1829 25.599 32.3901 25.4396 32.5655C25.1049 32.9321 24.7542 33.2828 24.3876 33.6176C24.1963 33.7929 24.1963 33.9204 24.3876 34.0958C24.7223 34.3986 25.0411 34.7334 25.3599 35.0522C25.615 35.3073 25.7106 35.6101 25.4396 35.8811C25.1527 36.184 24.8339 36.1043 24.547 35.8333C24.0369 35.3232 23.5427 34.829 23.0326 34.3189C22.7776 34.0639 22.6979 33.761 22.9529 33.4741C23.4949 32.9002 24.0687 32.3423 24.6267 31.7844C24.7382 31.6888 24.8658 31.625 24.9773 31.625Z" fill="#F7F8FE"/>
<path d="M30.6137 31.627C30.7253 31.6111 30.8688 31.6908 30.9804 31.8024C31.5224 32.3284 32.0484 32.8704 32.5744 33.3964C32.8614 33.6834 32.8454 34.0022 32.5744 34.2891C32.0643 34.8151 31.5383 35.3252 31.0123 35.8513C30.7413 36.1222 30.4543 36.1541 30.1833 35.8831C29.9124 35.5962 29.9921 35.3093 30.2631 35.0542C30.5819 34.7514 30.8688 34.4326 31.1876 34.1297C31.4267 33.9225 31.3948 33.7631 31.1717 33.5558C30.821 33.237 30.4862 32.8863 30.1674 32.5516C29.9921 32.3762 29.9761 32.169 30.0877 31.9458C30.1834 31.7546 30.3428 31.643 30.6137 31.627Z" fill="#FDFDFE"/>
</g>
<defs>
<clipPath id="clip0_2194_17072">
<rect width="60" height="59.9203" fill="white"/>
</clipPath>
</defs>
</svg>
