<svg width="60" height="61" viewBox="0 0 60 61" fill="none" xmlns="http://www.w3.org/2000/svg">
<g clip-path="url(#clip0_2314_33003)">
<path d="M8.26807 10.6784C8.3798 10.0878 8.87461 9.75258 9.22577 9.35354C10.6144 7.7893 12.1468 6.38467 13.8547 5.18754C13.9664 5.10773 14.0941 5.05985 14.2218 5.01196C14.4452 5.02792 14.6527 5.05985 14.8762 5.05985C24.964 5.05985 35.0518 5.05985 45.1236 5.05985C45.3471 5.05985 45.5546 5.02792 45.778 5.01196C46.8156 5.5387 47.6615 6.32082 48.5075 7.08698C49.561 8.02872 50.5346 9.03431 51.4444 10.1197C51.5881 10.2953 51.7158 10.4709 51.7318 10.6943C51.7318 12.0191 51.7158 13.3599 51.7158 14.6847C51.6998 16.3607 50.806 17.2546 49.13 17.2546C43.304 17.2546 37.4939 17.2546 31.6679 17.2546C30.5506 17.2546 29.4333 17.2546 28.3 17.2546C22.5059 17.2546 16.6958 17.2546 10.9017 17.2546C9.14596 17.2546 8.26807 16.3767 8.26807 14.6209C8.26807 13.2961 8.26807 11.9872 8.26807 10.6784ZM34.7804 7.80526C30.391 7.80526 25.9855 7.80526 21.5961 7.80526C20.5426 7.80526 19.9999 8.17238 19.9839 8.89065C19.968 9.60893 20.5107 9.99201 21.5642 9.99201C30.3431 9.99201 39.1061 9.99201 47.885 9.99201C48.0765 9.99201 48.284 10.008 48.4756 9.97605C48.9065 9.92816 49.2098 9.7047 49.3694 9.2897C49.6727 8.49161 49.13 7.80526 48.1563 7.80526C43.6871 7.80526 39.2337 7.80526 34.7804 7.80526ZM30.0398 12.2266C27.1188 12.2266 24.1978 12.2266 21.2768 12.2266C20.5107 12.2266 19.9839 12.6895 19.9839 13.344C19.9839 13.9186 20.5266 14.4294 21.229 14.4772C21.3247 14.4772 21.4205 14.4772 21.5322 14.4772C27.1827 14.4772 32.8331 14.4772 38.4836 14.4772C38.7709 14.4772 39.0422 14.4772 39.2976 14.3655C39.7286 14.174 40.0159 13.8388 40.0159 13.3599C40.0159 12.897 39.7924 12.5299 39.3295 12.3224C39.0741 12.2107 38.8347 12.2107 38.5634 12.2107C35.7222 12.2266 32.881 12.2266 30.0398 12.2266ZM10.6304 10.6624C10.6144 10.9657 10.7421 11.2211 10.9656 11.4445C11.4764 11.9553 11.9712 12.4661 12.482 12.9609C13.0247 13.4876 13.6312 13.4876 14.1579 12.9609C15.2593 11.8755 16.3606 10.7741 17.446 9.67278C17.9249 9.17796 17.9409 8.50757 17.4939 8.07661C16.9991 7.59776 16.3926 7.61372 15.8658 8.14045C15.3391 8.65123 14.8283 9.17796 14.3016 9.68874C13.9983 9.97605 13.7429 10.407 13.3918 10.5187C12.9608 10.6464 12.7693 10.0559 12.45 9.81643C12.0669 9.54508 11.6679 9.40143 11.2369 9.62489C10.8379 9.83239 10.6304 10.1676 10.6304 10.6624Z" fill="#8FA2FE"/>
<path d="M11.6041 48.4117C11.2689 48.3958 10.9337 48.3798 10.5985 48.3798C9.27365 48.3319 8.3798 47.47 8.31595 46.1292C8.28403 45.6982 8.28403 45.2673 8.26807 44.8203C8.28403 42.7294 8.28403 40.6384 8.29999 38.5634C8.31595 37.031 9.22577 36.1212 10.7741 36.1212C13.5354 36.1212 16.3128 36.1212 19.0741 36.1212C22.1547 36.1212 25.2353 36.1053 28.3319 36.1053C29.4492 36.1053 30.5665 36.1053 31.6839 36.1053C31.9233 36.1053 32.1627 36.1212 32.4021 36.1212C37.861 36.1212 43.304 36.1691 48.7629 36.1053C50.7741 36.0733 51.8116 37.047 51.7318 39.1061C51.6519 41.0055 51.7318 42.9209 51.7477 44.8363C51.7318 45.1875 51.7158 45.5546 51.7158 45.9057C51.6998 47.47 50.806 48.3638 49.2417 48.3958C48.9704 48.3958 48.6831 48.4117 48.4117 48.4277C48.1883 48.4117 47.9808 48.3958 47.7573 48.3958C45.3471 48.3958 42.9528 48.3958 40.5426 48.3958C40.4309 47.8531 40.3511 47.2944 40.2074 46.7677C39.6168 44.5011 38.3239 42.6815 36.5681 41.1811C40.4149 41.1811 44.2776 41.1651 48.1244 41.1651C48.9544 41.1651 49.4652 40.7341 49.4652 40.0638C49.4652 39.3934 48.9544 38.9464 48.1244 38.9464C42.2665 38.9464 36.4085 38.9464 30.5346 38.9464C30.2792 38.9464 30.0239 38.9464 29.7685 38.9464C28.9863 38.9464 28.2202 38.9464 27.4381 38.9464C25.395 38.9464 23.3359 38.9464 21.2928 38.9464C20.4788 38.9464 19.952 39.4253 19.9839 40.0957C19.9999 40.7501 20.5107 41.1651 21.2928 41.1811C22.0111 41.1811 22.7294 41.197 23.4317 41.197C21.1811 43.0965 19.8243 45.4907 19.4572 48.4277C19.138 48.4277 18.8187 48.4277 18.4995 48.4277C16.217 48.3958 13.9025 48.4117 11.6041 48.4117ZM17.8291 39.968C17.8132 39.5211 17.6057 39.1699 17.1907 38.9784C16.7278 38.7549 16.2968 38.8507 15.9297 39.2018C15.3231 39.7764 14.7485 40.383 14.142 40.9736C13.3439 41.7557 13.3439 41.7557 12.5298 41.0215C12.0191 40.5586 11.3806 40.5426 10.9337 40.9895C10.5027 41.4365 10.5027 42.0909 10.9816 42.5857C11.4604 43.0965 11.9552 43.5753 12.466 44.0701C13.0406 44.6288 13.6152 44.6288 14.1899 44.0701C15.2912 43.0007 16.3606 41.8993 17.446 40.8299C17.6695 40.5905 17.8291 40.3191 17.8291 39.968Z" fill="#3441D3"/>
<path d="M28.3159 36.1052C25.2353 36.1052 22.1546 36.1212 19.0581 36.1212C16.2967 36.1212 13.5194 36.1212 10.758 36.1212C9.20972 36.1212 8.2999 37.031 8.28394 38.5633C8.26798 40.6543 8.25202 42.7453 8.25202 44.8203C7.58163 44.6447 7.40605 44.0062 7.08681 43.5433C4.97987 40.5266 3.55928 37.2066 2.79312 33.6311C2.48985 32.2265 2.34619 30.79 2.25042 29.3534C1.97907 25.4428 2.6335 21.7078 3.95832 18.0685C4.86814 15.5306 6.177 13.2002 7.82105 11.0613C7.93278 10.9176 7.99663 10.6782 8.25202 10.6782C8.25202 11.9871 8.26798 13.2959 8.26798 14.6048C8.26798 16.3606 9.16183 17.2385 10.9017 17.2385C16.6958 17.2385 22.5058 17.2385 28.2999 17.2385C28.2999 18.3398 28.2999 19.4412 28.2999 20.5585C26.0333 20.5585 23.7668 20.5745 21.5002 20.5745C17.7173 20.5745 13.9344 20.5745 10.1674 20.5745C9.01818 20.5745 8.39567 21.1651 8.2999 22.2983C8.28394 22.5697 8.28394 22.857 8.28394 23.1283C8.28394 25.6503 8.28394 28.1882 8.28394 30.7101C8.28394 32.1786 8.89048 32.7852 10.343 32.7852C10.6942 32.7852 11.0613 32.7852 11.4124 32.7852C17.0469 32.7852 22.6654 32.8011 28.2999 32.8011C28.3159 33.9025 28.3159 35.0038 28.3159 36.1052Z" fill="#E6EEFE"/>
<path d="M51.7318 44.8362C51.7159 42.9208 51.636 41.0214 51.7159 39.106C51.7957 37.0469 50.7582 36.0733 48.747 36.1052C43.304 36.169 37.8451 36.1212 32.3862 36.1212C32.1468 36.1212 31.9074 36.1052 31.668 36.1052C31.668 35.0038 31.668 33.9025 31.6839 32.8011C31.9234 32.8011 32.1628 32.7852 32.4022 32.7852C38.1644 32.7852 43.9425 32.7852 49.7047 32.7852C50.2793 32.7852 50.806 32.7054 51.221 32.2584C51.636 31.8115 51.6839 31.2688 51.6839 30.7101C51.6839 28.0286 51.6839 25.347 51.6839 22.6495C51.6839 22.3941 51.652 22.1387 51.6041 21.8833C51.4764 21.1651 50.8858 20.6543 50.1676 20.5904C49.9281 20.5745 49.6887 20.5745 49.4493 20.5745C43.5275 20.5745 37.5898 20.5585 31.668 20.5585C31.668 19.4572 31.668 18.3558 31.668 17.2385C37.494 17.2385 43.304 17.2385 49.1301 17.2385C50.7901 17.2385 51.6999 16.3446 51.7159 14.6686C51.7318 13.3438 51.7318 12.003 51.7318 10.6782C52.0351 10.7421 52.1468 11.0294 52.3064 11.2369C54.8284 14.6367 56.4884 18.4196 57.3024 22.5697C57.5259 23.7508 57.6376 24.948 57.7494 26.1451C57.8771 27.5497 57.8132 28.9224 57.6855 30.2951C57.4461 32.9767 56.8236 35.5944 55.818 38.1164C54.9082 40.351 53.727 42.426 52.3224 44.3893C52.1628 44.5968 52.0351 44.8203 51.7318 44.8362Z" fill="#E6EEFE"/>
<path d="M36.552 41.1491C38.3078 42.6495 39.6166 44.4692 40.1912 46.7357C40.3349 47.2784 40.4147 47.8211 40.5264 48.3638C40.6541 50.2313 40.3987 52.035 39.6805 53.7748C38.627 55.9137 37.1106 57.6376 34.9877 58.7868C29.8161 61.5641 23.3197 59.537 20.6063 54.3016C20.5105 54.126 20.4147 53.9504 20.3189 53.7748C19.6007 52.035 19.3453 50.2313 19.473 48.3638C19.8401 45.4269 21.1968 43.0326 23.4474 41.1332C25.3309 39.7605 27.4219 38.9464 29.7683 38.8826C30.0236 38.8826 30.279 38.8826 30.5344 38.8826C30.8856 38.9145 31.2367 38.9464 31.5879 39.0103C33.4235 39.3135 35.0516 40.0797 36.552 41.1491ZM23.3357 49.3694C23.3357 50.6463 23.3357 50.6463 22.9367 50.9975C22.4259 51.4444 22.362 51.7637 22.6972 52.3542C23.0803 53.0406 23.4953 53.7269 23.8944 54.4133C24.1817 54.9081 24.5967 55.0996 25.1553 54.8443C25.5544 54.6527 25.9215 54.7166 26.2727 54.956C26.528 55.1316 26.8153 55.2912 27.1027 55.4348C27.5017 55.6264 27.7411 55.9137 27.8209 56.3766C27.9327 57.031 28.204 57.2385 28.8904 57.2385C29.6406 57.2385 30.4067 57.2385 31.1569 57.2385C31.8592 57.2385 32.1466 57.015 32.2423 56.3287C32.3062 55.8977 32.5296 55.6583 32.8808 55.4668C33.1841 55.3071 33.4714 55.1475 33.7587 54.956C34.1098 54.7166 34.477 54.6368 34.876 54.8283C35.4187 55.0837 35.8337 54.8921 36.137 54.3973C36.552 53.695 36.951 52.9927 37.366 52.2904C37.6693 51.7796 37.5735 51.3327 37.0947 50.9815C36.7276 50.7102 36.6158 50.375 36.6637 49.944C36.6956 49.5929 36.6956 49.2257 36.6797 48.8746C36.6637 48.4915 36.7914 48.1882 37.0947 47.9488C37.6214 47.5019 37.6853 47.1826 37.366 46.608C36.9829 45.9217 36.5839 45.2194 36.1689 44.549C35.8337 43.9903 35.4985 43.8626 34.86 44.118C34.461 44.2776 34.1418 44.2297 33.7906 43.9903C33.5352 43.8147 33.2479 43.6392 32.9766 43.5115C32.5456 43.304 32.2902 43.0166 32.2423 42.5218C32.1785 41.9632 31.8273 41.6918 31.2527 41.6918C30.4546 41.6918 29.6565 41.6918 28.8744 41.6918C28.1721 41.6918 27.9167 41.8993 27.805 42.6176C27.7411 43.0166 27.5336 43.2561 27.1984 43.4476C26.9271 43.5913 26.6557 43.719 26.4163 43.8945C26.0013 44.1978 25.5863 44.3095 25.0915 44.0701C24.6286 43.8467 24.2296 44.0222 23.9582 44.4372C23.5113 45.1874 23.0803 45.9376 22.6493 46.7038C22.4418 47.0709 22.4259 47.5019 22.7611 47.7413C23.3517 48.2202 23.4634 48.7948 23.3357 49.3694Z" fill="#FEA102"/>
<path d="M45.7779 4.99596C45.5545 5.01192 45.347 5.04384 45.1235 5.04384C35.0357 5.04384 24.9479 5.04384 14.8761 5.04384C14.6526 5.04384 14.4451 5.01192 14.2217 4.99596C15.323 4.07018 16.584 3.41575 17.8609 2.79324C19.8562 1.81958 21.9631 1.13323 24.1339 0.622453C26.7676 0.0159088 29.4332 -0.0958231 32.0988 0.0797555C35.7859 0.335143 39.2975 1.32477 42.6016 3.03267C43.7189 3.59133 44.8362 4.13403 45.7779 4.99596Z" fill="#E5EDFE"/>
<path d="M39.6807 53.7909C40.3989 52.0511 40.6543 50.2474 40.5266 48.3799C42.9368 48.3799 45.3311 48.3799 47.7413 48.3799C47.9648 48.3799 48.1723 48.3958 48.3957 48.4118C48.2202 49.0343 47.6615 49.2737 47.2146 49.6089C45.0119 51.3328 42.6336 52.7215 40.0159 53.7111C39.9201 53.7749 39.7924 53.7749 39.6807 53.7909Z" fill="#E6EEFD"/>
<path d="M19.4731 48.3799C19.3454 50.2474 19.6008 52.0511 20.3191 53.7909C18.9943 53.4238 17.7971 52.7693 16.5841 52.1309C15.0517 51.3328 13.679 50.2953 12.3223 49.2418C12.035 49.0183 11.6998 48.8108 11.604 48.4118C13.9025 48.3958 16.2169 48.3958 18.5154 48.3799C18.8347 48.3799 19.1539 48.3799 19.4731 48.3799Z" fill="#E6EEFD"/>
<path d="M60 6.09735C60.0159 7.02313 59.2977 7.77333 58.3719 7.80525C57.478 7.82122 56.6959 7.07102 56.6799 6.1612C56.664 5.25138 57.3982 4.48522 58.324 4.46926C59.2498 4.4533 59.984 5.15561 60 6.09735Z" fill="#FEA102"/>
<path d="M-0.000232877 52.7853C0.0157288 51.8436 0.734005 51.1413 1.67574 51.1572C2.58556 51.1732 3.35172 51.9394 3.3198 52.8332C3.28788 53.743 2.52171 54.4932 1.62786 54.4773C0.718043 54.4773 -0.0161946 53.7111 -0.000232877 52.7853Z" fill="#FE506B"/>
<path d="M54.4453 60.0319C53.5195 60.0319 52.8013 59.2977 52.8013 58.3719C52.8013 57.4621 53.5674 56.7119 54.4772 56.7119C55.3871 56.7279 56.1532 57.494 56.1373 58.3879C56.1213 59.2977 55.3711 60.0319 54.4453 60.0319Z" fill="#05C9A0"/>
<path d="M1.65967 1.692C1.65967 0.750259 2.36198 0.0319824 3.30372 0.0319824C4.2295 0.0319824 4.9797 0.782182 4.9797 1.692C4.9797 2.56989 4.2295 3.32009 3.33565 3.35201C2.44179 3.36798 1.67563 2.61778 1.65967 1.692Z" fill="#05C9A0"/>
<path d="M34.7801 7.80518C39.2334 7.80518 43.6867 7.80518 48.14 7.80518C49.1137 7.80518 49.6723 8.47557 49.3531 9.28961C49.1935 9.70462 48.9062 9.92808 48.4593 9.97597C48.2677 9.99193 48.0602 9.99193 47.8687 9.99193C39.0897 9.99193 30.3268 9.99193 21.5478 9.99193C20.4944 9.99193 19.9517 9.60885 19.9676 8.89057C19.9836 8.17229 20.5103 7.80518 21.5798 7.80518C25.9852 7.80518 30.3906 7.80518 34.7801 7.80518Z" fill="#FEFEFE"/>
<path d="M30.0398 12.2266C32.8809 12.2266 35.7221 12.2266 38.5633 12.2266C38.8187 12.2266 39.0741 12.2266 39.3295 12.3383C39.7764 12.5458 40.0158 12.897 40.0158 13.3758C40.0158 13.8547 39.7285 14.1899 39.2975 14.3814C39.0421 14.4931 38.7548 14.4931 38.4835 14.4931C32.833 14.4931 27.1826 14.4931 21.5322 14.4931C21.4364 14.4931 21.3406 14.4931 21.2289 14.4931C20.5425 14.4452 19.9839 13.9504 19.9839 13.3598C19.9839 12.7054 20.4947 12.2425 21.2768 12.2425C24.1978 12.2266 27.1188 12.2266 30.0398 12.2266Z" fill="#FCFCFE"/>
<path d="M10.6302 10.6623C10.6143 10.1675 10.8377 9.83226 11.2368 9.62476C11.6837 9.4013 12.0828 9.52899 12.4499 9.8163C12.7691 10.0557 12.9607 10.6303 13.3916 10.5186C13.7428 10.4228 14.0141 9.99188 14.3014 9.68861C14.8282 9.17784 15.3389 8.6511 15.8657 8.14033C16.4084 7.61359 17.0149 7.59763 17.4938 8.07648C17.9247 8.50744 17.9247 9.17784 17.4459 9.67265C16.3605 10.774 15.2591 11.8754 14.1578 12.9608C13.6151 13.4875 13.0245 13.4875 12.4818 12.9608C11.971 12.4659 11.4762 11.9552 10.9654 11.4444C10.742 11.205 10.6143 10.9496 10.6302 10.6623Z" fill="#FEFEFE"/>
<path d="M31.6838 17.2546C31.6838 18.356 31.6838 19.4574 31.6838 20.5747C30.5665 20.5747 29.4332 20.5747 28.3159 20.5747C28.3159 19.4733 28.3159 18.372 28.3159 17.2546C29.4332 17.2546 30.5665 17.2546 31.6838 17.2546Z" fill="#A5BBEC"/>
<path d="M36.5522 41.1493C35.0518 40.0639 33.4237 39.2977 31.5881 39.0264C31.237 38.9785 30.8858 38.9466 30.5347 38.8987C36.3926 38.8987 42.2505 38.8987 48.1245 38.8987C48.9545 38.8987 49.4652 39.3456 49.4652 40.016C49.4652 40.6864 48.9545 41.1174 48.1245 41.1174C44.2617 41.1493 40.399 41.1493 36.5522 41.1493Z" fill="#F8F8FC"/>
<path d="M17.8291 39.9681C17.8291 40.3192 17.6855 40.5746 17.4461 40.8141C16.3607 41.8994 15.2912 42.9848 14.1899 44.0543C13.6153 44.6129 13.0406 44.6129 12.466 44.0543C11.9712 43.5754 11.4764 43.0806 10.9816 42.5698C10.5027 42.075 10.5027 41.4046 10.9337 40.9737C11.3806 40.5267 12.0191 40.5267 12.5299 41.0056C13.3599 41.7558 13.3599 41.7558 14.142 40.9577C14.7326 40.3671 15.3232 39.7765 15.9297 39.186C16.2968 38.8348 16.7278 38.739 17.1907 38.9625C17.6057 39.17 17.7972 39.5212 17.8291 39.9681Z" fill="#FAFBFE"/>
<path d="M29.7684 38.9146C27.4221 38.9784 25.3311 39.7925 23.4476 41.1652C22.7293 41.1652 22.011 41.1492 21.3087 41.1492C20.5266 41.1492 20.0158 40.7182 19.9999 40.0638C19.9839 39.3934 20.5106 38.9146 21.3087 38.9146C23.3518 38.8986 25.4109 38.9146 27.454 38.9146C28.2201 38.9146 29.0023 38.9146 29.7684 38.9146Z" fill="#F8F8FC"/>
<path d="M31.6837 32.8013C31.6837 33.9027 31.6837 35.004 31.6677 36.1054C30.5504 36.1054 29.4331 36.1054 28.3158 36.1054C28.3158 35.004 28.3158 33.9027 28.2998 32.8013C29.4331 32.7534 30.5664 32.7534 31.6837 32.8013Z" fill="#ACC0F1"/>
<path d="M31.6838 32.8012C30.5664 32.7533 29.4332 32.7533 28.3158 32.8012C22.6814 32.8012 17.0629 32.7852 11.4284 32.7852C11.0772 32.7852 10.7101 32.7852 10.3589 32.7852C8.90643 32.7852 8.31585 32.1787 8.29989 30.7102C8.29989 28.1883 8.29989 25.6504 8.29989 23.1284C8.29989 22.8571 8.28393 22.5698 8.31585 22.2984C8.41162 21.1651 9.03413 20.5746 10.1834 20.5746C13.9663 20.5746 17.7492 20.5746 21.5162 20.5746C23.7827 20.5746 26.0493 20.5586 28.3158 20.5586C29.4332 20.5586 30.5664 20.5586 31.6838 20.5586C37.6056 20.5586 43.5433 20.5746 49.4651 20.5746C49.7045 20.5746 49.9439 20.5586 50.1834 20.5905C50.9016 20.6544 51.4922 21.1811 51.6199 21.8834C51.6678 22.1388 51.6997 22.3942 51.6997 22.6496C51.6997 25.3311 51.6997 28.0127 51.6997 30.7102C51.6997 31.2689 51.6518 31.8275 51.2368 32.2585C50.8218 32.7054 50.2951 32.7852 49.7205 32.7852C43.9583 32.7852 38.1802 32.7852 32.418 32.7852C32.1626 32.7852 31.9232 32.8012 31.6838 32.8012ZM34.6526 25.5865C39.0421 25.5865 43.4475 25.5865 47.837 25.5865C48.0126 25.5865 48.2041 25.6025 48.3797 25.5865C49.0182 25.5227 49.4811 25.0279 49.4651 24.4532C49.4491 23.8786 49.0182 23.4317 48.3957 23.3679C48.236 23.3519 48.0764 23.3519 47.9168 23.3519C39.1219 23.3519 30.343 23.3519 21.5481 23.3519C21.3725 23.3519 21.181 23.3359 21.0054 23.3679C20.4148 23.4477 19.9679 23.9425 19.9838 24.5011C19.9998 25.0438 20.4148 25.5067 20.9894 25.5865C21.181 25.6185 21.3885 25.6025 21.58 25.6025C25.9376 25.5865 30.2951 25.5865 34.6526 25.5865ZM29.9599 30.0239C32.849 30.0239 35.7221 30.0239 38.6111 30.0239C39.4731 30.0239 40.0158 29.5929 39.9998 28.8906C39.9998 28.2202 39.4571 27.7733 38.6431 27.7733C32.8809 27.7733 27.1028 27.7733 21.3406 27.7733C20.5265 27.7733 19.9838 28.2202 19.9838 28.8746C19.9679 29.561 20.5106 30.0079 21.3725 30.0079C24.2456 30.0239 27.1028 30.0239 29.9599 30.0239ZM11.7795 25.1077C11.2688 25.1077 10.9016 25.2992 10.7261 25.7142C10.5345 26.1452 10.5664 26.5762 10.9016 26.9433C11.3965 27.47 11.9072 27.9648 12.418 28.4596C13.0565 29.0662 13.5992 29.0662 14.2376 28.4437C15.2911 27.3902 16.3605 26.3367 17.3981 25.2833C17.9408 24.7246 17.9727 24.0702 17.4779 23.6073C17.0309 23.1763 16.3605 23.2082 15.8338 23.735C15.1315 24.4373 14.3973 25.1236 13.7269 25.8579C13.3917 26.225 13.2001 26.1611 12.9128 25.8419C12.5936 25.4748 12.2903 25.0758 11.7795 25.1077Z" fill="#4E6AFE"/>
<path d="M23.3357 49.3694C23.4793 48.7948 23.3676 48.2042 22.7291 47.7572C22.3939 47.5178 22.4099 47.0869 22.6174 46.7197C23.0484 45.9536 23.4793 45.2034 23.9262 44.4532C24.1816 44.0222 24.5807 43.8626 25.0595 44.0861C25.5543 44.3255 25.9693 44.2138 26.3843 43.9105C26.6238 43.7349 26.8951 43.6072 27.1665 43.4635C27.5017 43.288 27.7092 43.0326 27.773 42.6335C27.8847 41.9153 28.1401 41.7237 28.8424 41.7078C29.6405 41.7078 30.4386 41.7078 31.2207 41.7078C31.7794 41.7078 32.1465 41.9791 32.2104 42.5378C32.2583 43.0326 32.5136 43.3199 32.9446 43.5274C33.2319 43.6551 33.5033 43.8307 33.7586 44.0063C34.0938 44.2297 34.429 44.2936 34.8281 44.1339C35.4506 43.8786 35.7858 43.9903 36.1369 44.5649C36.5519 45.2513 36.951 45.9376 37.3341 46.624C37.6533 47.1986 37.5895 47.5338 37.0627 47.9647C36.7594 48.2201 36.6318 48.5074 36.6477 48.8905C36.6637 49.2417 36.6637 49.6088 36.6318 49.96C36.5839 50.3909 36.6956 50.7421 37.0627 50.9975C37.5416 51.3486 37.6373 51.7796 37.3341 52.3063C36.9191 53.0086 36.52 53.711 36.105 54.4133C35.8177 54.9081 35.3867 55.0996 34.844 54.8442C34.445 54.6527 34.0779 54.7325 33.7267 54.9719C33.4554 55.1635 33.1521 55.3231 32.8488 55.4827C32.4977 55.6742 32.2742 55.9296 32.2104 56.3446C32.0986 57.031 31.8273 57.2385 31.125 57.2545C30.3748 57.2545 29.6086 57.2545 28.8584 57.2545C28.1721 57.2545 27.9007 57.047 27.789 56.3925C27.7092 55.9296 27.4697 55.6423 27.0707 55.4508C26.7834 55.3071 26.512 55.1475 26.2407 54.9719C25.8895 54.7325 25.5224 54.6687 25.1234 54.8602C24.5807 55.1156 24.1657 54.924 23.8624 54.4292C23.4634 53.7429 23.0643 53.0565 22.6653 52.3702C22.3301 51.7796 22.3939 51.4604 22.9047 51.0134C23.3357 50.6463 23.3357 50.6463 23.3357 49.3694ZM29.9757 52.2425C31.524 52.2584 32.7531 51.0454 32.769 49.513C32.785 47.9648 31.6038 46.7357 30.0555 46.7038C28.4753 46.6878 27.2463 47.8849 27.2303 49.4492C27.2303 51.0134 28.4274 52.2425 29.9757 52.2425Z" fill="#FEFDFC"/>
<path d="M34.6526 25.5866C30.2951 25.5866 25.9375 25.5866 21.58 25.5866C21.3884 25.5866 21.1809 25.6026 20.9894 25.5707C20.4148 25.4908 19.9998 25.028 19.9838 24.4853C19.9679 23.9266 20.4148 23.4318 21.0054 23.352C21.1809 23.336 21.3565 23.336 21.5481 23.336C30.343 23.336 39.1219 23.336 47.9168 23.336C48.0764 23.336 48.236 23.3201 48.3956 23.352C49.0181 23.4158 49.4491 23.8628 49.4651 24.4374C49.481 25.028 49.0181 25.5068 48.3797 25.5707C48.2041 25.5866 48.0285 25.5707 47.837 25.5707C43.4475 25.5866 39.0421 25.5866 34.6526 25.5866Z" fill="#FAFBFE"/>
<path d="M29.9599 30.0239C27.1028 30.0239 24.2297 30.0239 21.3726 30.0239C20.5106 30.0239 19.9839 29.593 19.9839 28.8907C19.9998 28.2362 20.5266 27.7893 21.3406 27.7893C27.1028 27.7893 32.8809 27.7893 38.6431 27.7893C39.4731 27.7893 39.9998 28.2362 39.9998 28.9066C39.9998 29.593 39.4731 30.0399 38.6112 30.0399C35.7381 30.0239 32.849 30.0239 29.9599 30.0239Z" fill="#FAFBFE"/>
<path d="M11.7797 25.1078C12.2745 25.0759 12.5937 25.4749 12.897 25.8261C13.1843 26.1613 13.3759 26.2092 13.7111 25.842C14.3814 25.1078 15.0997 24.4215 15.818 23.7191C16.3447 23.2084 17.0151 23.1605 17.462 23.5914C17.9409 24.0543 17.9249 24.7247 17.3822 25.2674C16.3288 26.3209 15.2753 27.3903 14.2218 28.4278C13.5993 29.0503 13.0407 29.0503 12.4022 28.4438C11.8914 27.949 11.3806 27.4382 10.8858 26.9274C10.5506 26.5763 10.5187 26.1453 10.7103 25.6984C10.9178 25.2993 11.2689 25.0918 11.7797 25.1078Z" fill="#FCFCFE"/>
<path d="M29.9759 52.2426C28.4436 52.2266 27.2305 51.0135 27.2305 49.4653C27.2305 47.901 28.4755 46.6879 30.0557 46.7199C31.588 46.7358 32.7851 47.9649 32.7692 49.5291C32.7532 51.0614 31.5242 52.2586 29.9759 52.2426Z" fill="#FEA102"/>
</g>
<defs>
<clipPath id="clip0_2314_33003">
<rect width="60" height="60.0479" fill="white"/>
</clipPath>
</defs>
</svg>
