<svg width="60" height="68" viewBox="0 0 60 68" fill="none" xmlns="http://www.w3.org/2000/svg">
<g clip-path="url(#clip0_1191_48139)">
<path d="M10.3125 39.5063H19.6875V66.9094H10.3125V39.5063Z" fill="#CCD3EB"/>
<path d="M10.3125 63.7476H19.6875V66.9094H10.3125V63.7476Z" fill="#96A1C3"/>
<path d="M15 34.2364C18.1066 34.2364 20.625 31.4052 20.625 27.9126C20.625 24.4201 18.1066 21.5889 15 21.5889C11.8934 21.5889 9.375 24.4201 9.375 27.9126C9.375 31.4052 11.8934 34.2364 15 34.2364Z" fill="#2276FF"/>
<path d="M17.3359 29.6836C17.617 29.2072 17.778 28.6541 17.8016 28.083C17.8253 27.5119 17.7108 26.9443 17.4704 26.4406C17.2299 25.9369 16.8725 25.5159 16.4361 25.2224C15.9997 24.9289 15.5007 24.7739 14.9922 24.7739C14.4837 24.7739 13.9847 24.9289 13.5483 25.2224C13.1119 25.5159 12.7545 25.9369 12.514 26.4406C12.2736 26.9443 12.1591 27.5119 12.1827 28.083C12.2064 28.6541 12.3673 29.2072 12.6484 29.6836C11.8245 30.2332 11.1701 31.0535 10.7734 32.0339C11.3015 32.721 11.955 33.2722 12.6894 33.6499C13.4238 34.0277 14.222 34.2232 15.0297 34.2232C15.8374 34.2232 16.6355 34.0277 17.37 33.6499C18.1044 33.2722 18.7579 32.721 19.2859 32.0339C18.8695 31.0413 18.1878 30.2197 17.3359 29.6836Z" fill="#F5F7FF"/>
<path d="M30 22.6432C33.1066 22.6432 35.625 19.8119 35.625 16.3194C35.625 12.8269 33.1066 9.99561 30 9.99561C26.8934 9.99561 24.375 12.8269 24.375 16.3194C24.375 19.8119 26.8934 22.6432 30 22.6432Z" fill="#2276FF"/>
<path d="M32.3359 18.0899C32.617 17.6135 32.778 17.0603 32.8016 16.4892C32.8253 15.9182 32.7108 15.3506 32.4704 14.8469C32.2299 14.3432 31.8725 13.9221 31.4361 13.6287C30.9997 13.3352 30.5007 13.1802 29.9922 13.1802C29.4837 13.1802 28.9847 13.3352 28.5483 13.6287C28.1119 13.9221 27.7545 14.3432 27.514 14.8469C27.2736 15.3506 27.1591 15.9182 27.1827 16.4892C27.2064 17.0603 27.3673 17.6135 27.6484 18.0899C26.8071 18.6311 26.1356 19.4522 25.7266 20.4402C26.2546 21.1272 26.9081 21.6784 27.6425 22.0562C28.377 22.4339 29.1751 22.6295 29.9828 22.6295C30.7905 22.6295 31.5887 22.4339 32.3231 22.0562C33.0575 21.6784 33.711 21.1272 34.2391 20.4402C33.835 19.4552 33.1704 18.6344 32.3359 18.0899Z" fill="#F5F7FF"/>
<path d="M45 40.5601C48.1066 40.5601 50.625 37.7289 50.625 34.2364C50.625 30.7438 48.1066 27.9126 45 27.9126C41.8934 27.9126 39.375 30.7438 39.375 34.2364C39.375 37.7289 41.8934 40.5601 45 40.5601Z" fill="#2276FF"/>
<path d="M47.3359 36.0073C47.617 35.5309 47.778 34.9778 47.8016 34.4067C47.8253 33.8357 47.7108 33.2681 47.4704 32.7644C47.2299 32.2606 46.8725 31.8396 46.4361 31.5461C45.9997 31.2526 45.5007 31.0977 44.9922 31.0977C44.4837 31.0977 43.9847 31.2526 43.5483 31.5461C43.1119 31.8396 42.7545 32.2606 42.514 32.7644C42.2736 33.2681 42.1591 33.8357 42.1827 34.4067C42.2064 34.9778 42.3673 35.5309 42.6484 36.0073C41.8245 36.557 41.1701 37.3772 40.7734 38.3577C41.3015 39.0447 41.955 39.5959 42.6894 39.9737C43.4238 40.3514 44.222 40.547 45.0297 40.547C45.8373 40.547 46.6355 40.3514 47.37 39.9737C48.1044 39.5959 48.7579 39.0447 49.2859 38.3577C48.8695 37.3651 48.1878 36.5434 47.3359 36.0073Z" fill="#F5F7FF"/>
<path d="M25.3125 27.9126H34.6875V66.9092H25.3125V27.9126Z" fill="#2276FF"/>
<path d="M40.3125 45.8301H49.6875V66.9093H40.3125V45.8301Z" fill="#CCD3EB"/>
<path d="M40.3125 63.7476H49.6875V66.9094H40.3125V63.7476Z" fill="#96A1C3"/>
<path d="M40.3125 12.1035H59.0625V20.5352C59.0625 21.0943 58.865 21.6304 58.5133 22.0257C58.1617 22.4211 57.6848 22.6431 57.1875 22.6431H42.1875C41.6902 22.6431 41.2133 22.4211 40.8617 22.0257C40.51 21.6304 40.3125 21.0943 40.3125 20.5352V12.1035Z" fill="#CCD3EB"/>
<path d="M57.1875 19.481H42.1875C41.6902 19.481 41.2133 19.2589 40.8617 18.8636C40.51 18.4683 40.3125 17.9321 40.3125 17.373V20.5349C40.3125 21.094 40.51 21.6301 40.8617 22.0255C41.2133 22.4208 41.6902 22.6429 42.1875 22.6429H57.1875C57.6848 22.6429 58.1617 22.4208 58.5133 22.0255C58.865 21.6301 59.0625 21.094 59.0625 20.5349V17.373C59.0625 17.9321 58.865 18.4683 58.5133 18.8636C58.1617 19.2589 57.6848 19.481 57.1875 19.481Z" fill="#96A1C3"/>
<path d="M59.0625 12.1036L49.6875 16.3194L40.3125 12.1036V7.88771C40.3125 7.32865 40.51 6.79249 40.8617 6.39718C41.2133 6.00187 41.6902 5.77979 42.1875 5.77979H57.1875C57.6848 5.77979 58.1617 6.00187 58.5133 6.39718C58.865 6.79249 59.0625 7.32865 59.0625 7.88771V12.1036Z" fill="#F5F7FF"/>
<path d="M10.3125 46.8843H19.6875V53.2081H10.3125V46.8843Z" fill="#F5F7FF"/>
<path d="M25.3125 36.3447H34.6875V42.6685H25.3125V36.3447Z" fill="#F5F7FF"/>
<path d="M40.3125 53.208H49.6875V59.5318H40.3125V53.208Z" fill="#F5F7FF"/>
<path d="M55.3125 65.8554H50.625V45.8301C50.625 45.5506 50.5262 45.2825 50.3504 45.0848C50.1746 44.8872 49.9361 44.7761 49.6875 44.7761H40.3125C40.0639 44.7761 39.8254 44.8872 39.6496 45.0848C39.4738 45.2825 39.375 45.5506 39.375 45.8301V65.8554H35.625V27.9127C35.625 27.6332 35.5262 27.3651 35.3504 27.1675C35.1746 26.9698 34.9361 26.8588 34.6875 26.8588H25.3125C25.0639 26.8588 24.8254 26.9698 24.6496 27.1675C24.4738 27.3651 24.375 27.6332 24.375 27.9127V53.2078C24.375 53.4874 24.4738 53.7554 24.6496 53.9531C24.8254 54.1507 25.0639 54.2618 25.3125 54.2618C25.5611 54.2618 25.7996 54.1507 25.9754 53.9531C26.1512 53.7554 26.25 53.4874 26.25 53.2078V43.7222H33.75V65.8554H26.25V63.7475C26.25 63.4679 26.1512 63.1998 25.9754 63.0022C25.7996 62.8045 25.5611 62.6935 25.3125 62.6935C25.0639 62.6935 24.8254 62.8045 24.6496 63.0022C24.4738 63.1998 24.375 63.4679 24.375 63.7475V65.8554H20.625V39.5063C20.625 39.2268 20.5262 38.9587 20.3504 38.7611C20.1746 38.5634 19.9361 38.4524 19.6875 38.4524H10.3125C10.0639 38.4524 9.8254 38.5634 9.64959 38.7611C9.47377 38.9587 9.375 39.2268 9.375 39.5063V65.8554H6.5625C6.31386 65.8554 6.0754 65.7443 5.89959 65.5467C5.72377 65.349 5.625 65.0809 5.625 64.8014V9.99537C5.625 9.71584 5.52623 9.44776 5.35041 9.2501C5.1746 9.05245 4.93614 8.94141 4.6875 8.94141C4.43886 8.94141 4.2004 9.05245 4.02459 9.2501C3.84877 9.44776 3.75 9.71584 3.75 9.99537V12.1033H0.9375C0.68886 12.1033 0.450403 12.2143 0.274587 12.412C0.0987721 12.6096 0 12.8777 0 13.1573C0 13.4368 0.0987721 13.7049 0.274587 13.9025C0.450403 14.1002 0.68886 14.2112 0.9375 14.2112H3.75V18.4271H0.9375C0.68886 18.4271 0.450403 18.5381 0.274587 18.7358C0.0987721 18.9334 0 19.2015 0 19.481C0 19.7606 0.0987721 20.0286 0.274587 20.2263C0.450403 20.424 0.68886 20.535 0.9375 20.535H3.75V24.7508H0.9375C0.68886 24.7508 0.450403 24.8619 0.274587 25.0595C0.0987721 25.2572 0 25.5253 0 25.8048C0 26.0843 0.0987721 26.3524 0.274587 26.5501C0.450403 26.7477 0.68886 26.8588 0.9375 26.8588H3.75V31.0746H0.9375C0.68886 31.0746 0.450403 31.1857 0.274587 31.3833C0.0987721 31.581 0 31.8491 0 32.1286C0 32.4081 0.0987721 32.6762 0.274587 32.8738C0.450403 33.0715 0.68886 33.1825 0.9375 33.1825H3.75V37.3984H0.9375C0.68886 37.3984 0.450403 37.5094 0.274587 37.7071C0.0987721 37.9047 0 38.1728 0 38.4524C0 38.7319 0.0987721 39 0.274587 39.1976C0.450403 39.3953 0.68886 39.5063 0.9375 39.5063H3.75V43.7222H0.9375C0.68886 43.7222 0.450403 43.8332 0.274587 44.0309C0.0987721 44.2285 0 44.4966 0 44.7761C0 45.0557 0.0987721 45.3237 0.274587 45.5214C0.450403 45.7191 0.68886 45.8301 0.9375 45.8301H3.75V50.0459H0.9375C0.68886 50.0459 0.450403 50.157 0.274587 50.3546C0.0987721 50.5523 0 50.8204 0 51.0999C0 51.3794 0.0987721 51.6475 0.274587 51.8452C0.450403 52.0428 0.68886 52.1539 0.9375 52.1539H3.75V56.3697H0.9375C0.68886 56.3697 0.450403 56.4808 0.274587 56.6784C0.0987721 56.8761 0 57.1441 0 57.4237C0 57.7032 0.0987721 57.9713 0.274587 58.1689C0.450403 58.3666 0.68886 58.4776 0.9375 58.4776H3.75V62.6935H0.9375C0.68886 62.6935 0.450403 62.8045 0.274587 63.0022C0.0987721 63.1998 0 63.4679 0 63.7475C0 64.027 0.0987721 64.2951 0.274587 64.4927C0.450403 64.6904 0.68886 64.8014 0.9375 64.8014H3.75C3.75 65.64 4.04632 66.4442 4.57376 67.0372C5.10121 67.6302 5.81658 67.9633 6.5625 67.9633H55.3125C55.5611 67.9633 55.7996 67.8523 55.9754 67.6546C56.1512 67.457 56.25 67.1889 56.25 66.9093C56.25 66.6298 56.1512 66.3617 55.9754 66.1641C55.7996 65.9664 55.5611 65.8554 55.3125 65.8554ZM33.75 28.9667V35.2905H26.25V28.9667H33.75ZM26.25 41.6142V37.3984H33.75V41.6142H26.25ZM11.25 47.938H18.75V52.1539H11.25V47.938ZM18.75 40.5603V45.8301H11.25V40.5603H18.75ZM11.25 65.8554V54.2618H18.75V65.8554H11.25ZM41.25 54.2618H48.75V58.4776H41.25V54.2618ZM48.75 46.8841V52.1539H41.25V46.8841H48.75ZM41.25 65.8554V60.5856H48.75V65.8554H41.25Z" fill="#033C59"/>
<path d="M15 35.2906C16.2979 35.2906 17.5667 34.8579 18.6459 34.0473C19.7251 33.2366 20.5663 32.0843 21.063 30.7362C21.5597 29.3881 21.6896 27.9047 21.4364 26.4736C21.1832 25.0424 20.5582 23.7278 19.6404 22.696C18.7226 21.6643 17.5533 20.9616 16.2803 20.6769C15.0073 20.3922 13.6878 20.5384 12.4886 21.0968C11.2895 21.6552 10.2646 22.6008 9.54348 23.814C8.82238 25.0273 8.4375 26.4537 8.4375 27.9129C8.4375 28.8818 8.60724 29.8411 8.93704 30.7362C9.26684 31.6313 9.75023 32.4447 10.3596 33.1297C11.5903 34.5133 13.2595 35.2906 15 35.2906ZM15 22.6431C15.9271 22.6431 16.8334 22.9522 17.6042 23.5312C18.3751 24.1103 18.9759 24.9333 19.3307 25.8962C19.6855 26.8592 19.7783 27.9187 19.5974 28.941C19.4166 29.9632 18.9701 30.9022 18.3146 31.6392C17.659 32.3762 16.8238 32.8781 15.9145 33.0815C15.0052 33.2848 14.0627 33.1804 13.2062 32.7816C12.3496 32.3827 11.6176 31.7073 11.1025 30.8406C10.5874 29.974 10.3125 28.9552 10.3125 27.9129C10.3125 26.5153 10.8064 25.1749 11.6854 24.1866C12.5645 23.1983 13.7568 22.6431 15 22.6431Z" fill="#033C59"/>
<path d="M30 23.6969C31.2979 23.6969 32.5667 23.2642 33.6459 22.4535C34.7251 21.6428 35.5663 20.4906 36.063 19.1425C36.5597 17.7944 36.6896 16.311 36.4364 14.8798C36.1832 13.4487 35.5582 12.1341 34.6404 11.1023C33.7226 10.0705 32.5533 9.36784 31.2803 9.08317C30.0073 8.7985 28.6878 8.9446 27.4886 9.50301C26.2895 10.0614 25.2646 11.007 24.5435 12.2203C23.8224 13.4336 23.4375 14.86 23.4375 16.3191C23.4375 18.2758 24.1289 20.1524 25.3596 21.536C26.5903 22.9196 28.2595 23.6969 30 23.6969ZM30 11.0493C30.9271 11.0493 31.8334 11.3584 32.6042 11.9375C33.3751 12.5165 33.9759 13.3395 34.3307 14.3025C34.6855 15.2654 34.7783 16.325 34.5974 17.3472C34.4166 18.3695 33.9701 19.3085 33.3146 20.0455C32.659 20.7825 31.8238 21.2844 30.9145 21.4877C30.0052 21.691 29.0627 21.5867 28.2062 21.1878C27.3496 20.789 26.6176 20.1135 26.1025 19.2469C25.5874 18.3803 25.3125 17.3614 25.3125 16.3191C25.3125 14.9215 25.8064 13.5811 26.6854 12.5928C27.5645 11.6045 28.7568 11.0493 30 11.0493Z" fill="#033C59"/>
<path d="M45 41.6144C46.2979 41.6144 47.5667 41.1817 48.6459 40.371C49.7251 39.5603 50.5663 38.4081 51.063 37.06C51.5597 35.7119 51.6896 34.2284 51.4364 32.7973C51.1832 31.3662 50.5582 30.0516 49.6404 29.0198C48.7226 27.988 47.5533 27.2853 46.2803 27.0007C45.0073 26.716 43.6878 26.8621 42.4886 27.4205C41.2895 27.9789 40.2646 28.9245 39.5435 30.1378C38.8224 31.351 38.4375 32.7774 38.4375 34.2366C38.4375 36.1933 39.1289 38.0699 40.3596 39.4535C41.5903 40.8371 43.2595 41.6144 45 41.6144ZM45 28.9668C45.9271 28.9668 46.8334 29.2759 47.6042 29.8549C48.3751 30.434 48.9759 31.257 49.3307 32.22C49.6855 33.1829 49.7783 34.2425 49.5974 35.2647C49.4166 36.287 48.9701 37.226 48.3146 37.9629C47.659 38.6999 46.8238 39.2018 45.9145 39.4052C45.0052 39.6085 44.0627 39.5042 43.2062 39.1053C42.3496 38.7064 41.6176 38.031 41.1025 37.1644C40.5874 36.2978 40.3125 35.2789 40.3125 34.2366C40.3125 32.839 40.8064 31.4986 41.6854 30.5103C42.5645 29.522 43.7568 28.9668 45 28.9668Z" fill="#033C59"/>
<path d="M25.3125 60.5855C25.5611 60.5855 25.7996 60.4744 25.9754 60.2768C26.1512 60.0791 26.25 59.811 26.25 59.5315V57.4236C26.25 57.1441 26.1512 56.876 25.9754 56.6783C25.7996 56.4807 25.5611 56.3696 25.3125 56.3696C25.0639 56.3696 24.8254 56.4807 24.6496 56.6783C24.4738 56.876 24.375 57.1441 24.375 57.4236V59.5315C24.375 59.811 24.4738 60.0791 24.6496 60.2768C24.8254 60.4744 25.0639 60.5855 25.3125 60.5855Z" fill="#033C59"/>
<path d="M49.3406 17.2994C49.5634 17.3991 49.8116 17.3991 50.0344 17.2994L59.4094 13.0835C59.5838 13.0054 59.7334 12.8702 59.8387 12.6955C59.944 12.5207 60.0002 12.3144 60 12.1034V7.8875C60 7.04892 59.7037 6.24468 59.1762 5.65171C58.6488 5.05874 57.9334 4.72562 57.1875 4.72562H55.3125V3.67165C55.3125 2.83307 55.0162 2.02883 54.4887 1.43586C53.9613 0.842892 53.2459 0.509766 52.5 0.509766L46.875 0.509766C46.1291 0.509766 45.4137 0.842892 44.8863 1.43586C44.3588 2.02883 44.0625 2.83307 44.0625 3.67165V4.72562H42.1875C41.4416 4.72562 40.7262 5.05874 40.1988 5.65171C39.6713 6.24468 39.375 7.04892 39.375 7.8875V20.5351C39.375 21.3736 39.6713 22.1779 40.1988 22.7708C40.7262 23.3638 41.4416 23.6969 42.1875 23.6969H57.1875C57.9334 23.6969 58.6488 23.3638 59.1762 22.7708C59.7037 22.1779 60 21.3736 60 20.5351V16.3192C60 16.0397 59.9012 15.7716 59.7254 15.5739C59.5496 15.3763 59.3111 15.2652 59.0625 15.2652C58.8139 15.2652 58.5754 15.3763 58.3996 15.5739C58.2238 15.7716 58.125 16.0397 58.125 16.3192V20.5351C58.125 20.8146 58.0262 21.0827 57.8504 21.2803C57.6746 21.478 57.4361 21.589 57.1875 21.589H42.1875C41.9389 21.589 41.7004 21.478 41.5246 21.2803C41.3488 21.0827 41.25 20.8146 41.25 20.5351V13.6632L49.3406 17.2994ZM45.9375 3.67165C45.9375 3.39212 46.0363 3.12405 46.2121 2.92639C46.3879 2.72873 46.6264 2.61769 46.875 2.61769H52.5C52.7486 2.61769 52.9871 2.72873 53.1629 2.92639C53.3387 3.12405 53.4375 3.39212 53.4375 3.67165V4.72562H45.9375V3.67165ZM41.25 7.8875C41.25 7.60797 41.3488 7.3399 41.5246 7.14224C41.7004 6.94458 41.9389 6.83354 42.1875 6.83354H57.1875C57.4361 6.83354 57.6746 6.94458 57.8504 7.14224C58.0262 7.3399 58.125 7.60797 58.125 7.8875V11.3867L49.6875 15.1809L41.25 11.3867V7.8875Z" fill="#033C59"/>
<path d="M15 11.0493H9.375C9.12636 11.0493 8.8879 10.9383 8.71209 10.7406C8.53627 10.543 8.4375 10.2749 8.4375 9.99537C8.4375 9.71584 8.53627 9.44776 8.71209 9.2501C8.8879 9.05245 9.12636 8.94141 9.375 8.94141H15C15.2486 8.94141 15.4871 9.05245 15.6629 9.2501C15.8387 9.44776 15.9375 9.71584 15.9375 9.99537C15.9375 10.2749 15.8387 10.543 15.6629 10.7406C15.4871 10.9383 15.2486 11.0493 15 11.0493Z" fill="#96A1C3"/>
<path d="M15 6.83351H9.375C9.12636 6.83351 8.8879 6.72247 8.71209 6.52481C8.53627 6.32716 8.4375 6.05908 8.4375 5.77955C8.4375 5.50002 8.53627 5.23194 8.71209 5.03428C8.8879 4.83663 9.12636 4.72559 9.375 4.72559H15C15.2486 4.72559 15.4871 4.83663 15.6629 5.03428C15.8387 5.23194 15.9375 5.50002 15.9375 5.77955C15.9375 6.05908 15.8387 6.32716 15.6629 6.52481C15.4871 6.72247 15.2486 6.83351 15 6.83351Z" fill="#96A1C3"/>
<path d="M49.6875 18.4273C51.2408 18.4273 52.5 17.0117 52.5 15.2654C52.5 13.5191 51.2408 12.1035 49.6875 12.1035C48.1342 12.1035 46.875 13.5191 46.875 15.2654C46.875 17.0117 48.1342 18.4273 49.6875 18.4273Z" fill="#2276FF"/>
</g>
<defs>
<clipPath id="clip0_1191_48139">
<rect width="60" height="67.4536" fill="white" transform="translate(0 0.509766)"/>
</clipPath>
</defs>
</svg>
