<svg width="60" height="60" viewBox="0 0 60 60" fill="none" xmlns="http://www.w3.org/2000/svg">
<g clip-path="url(#clip0_1191_48013)">
<path d="M30 54.375C43.4619 54.375 54.375 43.4619 54.375 30C54.375 16.5381 43.4619 5.625 30 5.625C16.5381 5.625 5.625 16.5381 5.625 30C5.625 43.4619 16.5381 54.375 30 54.375Z" fill="#CCD3EB"/>
<path d="M30 51.5625C23.7799 51.5609 17.7957 49.1814 13.2728 44.9113C8.75 40.6412 6.03073 34.8035 5.67188 28.5938C5.46557 31.9156 5.94173 35.2445 7.07102 38.3753C8.20031 41.5061 9.9588 44.3724 12.2381 46.7977C14.5174 49.2229 17.2693 51.1557 20.324 52.4769C23.3788 53.7981 26.6718 54.4797 30 54.4797C33.3282 54.4797 36.6212 53.7981 39.676 52.4769C42.7307 51.1557 45.4826 49.2229 47.7619 46.7977C50.0412 44.3724 51.7997 41.5061 52.929 38.3753C54.0583 35.2445 54.5344 31.9156 54.3281 28.5938C53.9693 34.8035 51.25 40.6412 46.7272 44.9113C42.2043 49.1814 36.2201 51.5609 30 51.5625Z" fill="#96A1C3"/>
<path d="M30 50.625C41.3909 50.625 50.625 41.3909 50.625 30C50.625 18.6091 41.3909 9.375 30 9.375C18.6091 9.375 9.375 18.6091 9.375 30C9.375 41.3909 18.6091 50.625 30 50.625Z" fill="#F5F7FF"/>
<path d="M30 13.125C29.7514 13.125 29.5129 13.0262 29.3371 12.8504C29.1613 12.6746 29.0625 12.4361 29.0625 12.1875V10.3125C29.0625 10.0639 29.1613 9.8254 29.3371 9.64959C29.5129 9.47377 29.7514 9.375 30 9.375C30.2486 9.375 30.4871 9.47377 30.6629 9.64959C30.8387 9.8254 30.9375 10.0639 30.9375 10.3125V12.1875C30.9375 12.4361 30.8387 12.6746 30.6629 12.8504C30.4871 13.0262 30.2486 13.125 30 13.125Z" fill="#2276FF"/>
<path d="M42.5884 18.3374C42.4049 18.3349 42.2262 18.2785 42.0744 18.1753C41.9227 18.0721 41.8045 17.9267 41.7347 17.757C41.6648 17.5873 41.6463 17.4008 41.6814 17.2207C41.7165 17.0406 41.8037 16.8747 41.9321 16.7437L43.254 15.4124C43.3414 15.325 43.4452 15.2557 43.5594 15.2084C43.6736 15.1611 43.796 15.1367 43.9196 15.1367C44.0433 15.1367 44.1657 15.1611 44.2799 15.2084C44.3941 15.2557 44.4979 15.325 44.5853 15.4124C44.6727 15.4998 44.742 15.6036 44.7893 15.7178C44.8366 15.832 44.861 15.9544 44.861 16.0781C44.861 16.2017 44.8366 16.3241 44.7893 16.4383C44.742 16.5525 44.6727 16.6563 44.5853 16.7437C43.1696 18.1499 43.1228 18.3374 42.5884 18.3374Z" fill="#2276FF"/>
<path d="M49.6875 30.9375H47.8125C47.5639 30.9375 47.3254 30.8387 47.1496 30.6629C46.9738 30.4871 46.875 30.2486 46.875 30C46.875 29.7514 46.9738 29.5129 47.1496 29.3371C47.3254 29.1613 47.5639 29.0625 47.8125 29.0625H49.6875C49.9361 29.0625 50.1746 29.1613 50.3504 29.3371C50.5262 29.5129 50.625 29.7514 50.625 30C50.625 30.2486 50.5262 30.4871 50.3504 30.6629C50.1746 30.8387 49.9361 30.9375 49.6875 30.9375Z" fill="#2276FF"/>
<path d="M30 50.625C29.7514 50.625 29.5129 50.5262 29.3371 50.3504C29.1613 50.1746 29.0625 49.9361 29.0625 49.6875V47.8125C29.0625 47.5639 29.1613 47.3254 29.3371 47.1496C29.5129 46.9738 29.7514 46.875 30 46.875C30.2486 46.875 30.4871 46.9738 30.6629 47.1496C30.8387 47.3254 30.9375 47.5639 30.9375 47.8125V49.6875C30.9375 49.9361 30.8387 50.1746 30.6629 50.3504C30.4871 50.5262 30.2486 50.625 30 50.625Z" fill="#2276FF"/>
<path d="M16.0758 44.8594C15.8896 44.8605 15.7072 44.8061 15.5521 44.7032C15.3969 44.6002 15.2759 44.4534 15.2045 44.2814C15.1331 44.1094 15.1145 43.9201 15.1511 43.7375C15.1878 43.555 15.2779 43.3874 15.4101 43.2563L16.7414 41.9344C16.9207 41.7808 17.1514 41.7006 17.3874 41.7097C17.6233 41.7188 17.8471 41.8166 18.0141 41.9836C18.1811 42.1505 18.2789 42.3744 18.288 42.6103C18.2971 42.8462 18.2169 43.0769 18.0633 43.2563C16.657 44.6719 16.5726 44.8594 16.0758 44.8594Z" fill="#2276FF"/>
<path d="M12.1875 30.9375H10.3125C10.0639 30.9375 9.8254 30.8387 9.64959 30.6629C9.47377 30.4871 9.375 30.2486 9.375 30C9.375 29.7514 9.47377 29.5129 9.64959 29.3371C9.8254 29.1613 10.0639 29.0625 10.3125 29.0625H12.1875C12.4361 29.0625 12.6746 29.1613 12.8504 29.3371C13.0262 29.5129 13.125 29.7514 13.125 30C13.125 30.2486 13.0262 30.4871 12.8504 30.6629C12.6746 30.8387 12.4361 30.9375 12.1875 30.9375Z" fill="#2276FF"/>
<path d="M30 34.6875C32.5888 34.6875 34.6875 32.5888 34.6875 30C34.6875 27.4112 32.5888 25.3125 30 25.3125C27.4112 25.3125 25.3125 27.4112 25.3125 30C25.3125 32.5888 27.4112 34.6875 30 34.6875Z" fill="#CCD3EB"/>
<path d="M20.6226 40.3125C20.4364 40.3136 20.2541 40.2592 20.0989 40.1562C19.9438 40.0533 19.8228 39.9065 19.7514 39.7345C19.6799 39.5625 19.6614 39.3732 19.698 39.1906C19.7346 39.008 19.8248 38.8405 19.957 38.7094L29.0601 29.6156V15.9375C29.0601 15.6889 29.1589 15.4504 29.3347 15.2746C29.5105 15.0988 29.749 15 29.9976 15C30.2463 15 30.4847 15.0988 30.6606 15.2746C30.8364 15.4504 30.9351 15.6889 30.9351 15.9375V30C30.9359 30.1234 30.9122 30.2457 30.8656 30.3599C30.8189 30.4741 30.7502 30.578 30.6633 30.6656L21.2883 40.0406C21.2007 40.1275 21.0968 40.1963 20.9826 40.2429C20.8683 40.2896 20.746 40.3132 20.6226 40.3125Z" fill="#2276FF"/>
<path d="M32.8125 44.0625H27.1875C26.9389 44.0625 26.7004 43.9637 26.5246 43.7879C26.3488 43.6121 26.25 43.3736 26.25 43.125C26.25 42.8764 26.3488 42.6379 26.5246 42.4621C26.7004 42.2863 26.9389 42.1875 27.1875 42.1875H32.8125C33.0611 42.1875 33.2996 42.2863 33.4754 42.4621C33.6512 42.6379 33.75 42.8764 33.75 43.125C33.75 43.3736 33.6512 43.6121 33.4754 43.7879C33.2996 43.9637 33.0611 44.0625 32.8125 44.0625Z" fill="#CCD3EB"/>
<path d="M11.3125 21.625C17.0079 21.625 21.625 17.0079 21.625 11.3125C21.625 5.61706 17.0079 1 11.3125 1C5.61706 1 1 5.61706 1 11.3125C1 17.0079 5.61706 21.625 11.3125 21.625Z" fill="#2276FF"/>
<path d="M13.2059 14.7406C11.4561 14.7406 10.4141 13.3447 10.4141 11.2214C10.4141 9.09805 11.4561 7.70215 13.2059 7.70215C14.9557 7.70215 15.9977 9.09805 15.9977 11.2214C15.9977 13.3447 14.9557 14.7406 13.2059 14.7406ZM13.2059 13.5807C14.1496 13.5807 14.6608 12.6959 14.6608 11.2214C14.6608 9.74685 14.1496 8.85229 13.2059 8.85229C12.2622 8.85229 11.7608 9.74685 11.7608 11.2214C11.7608 12.6959 12.2622 13.5807 13.2059 13.5807Z" fill="white"/>
<path d="M8.18424 14.6625V9.2558C7.71239 9.62935 7.21104 9.86527 6.60156 9.98324V8.79377C7.24053 8.64632 7.89916 8.27276 8.40051 7.78125H9.42286V14.6625H8.18424Z" fill="white"/>
<path d="M37.5 45.9375H58.125V55.3125C58.125 56.3071 57.7299 57.2609 57.0266 57.9641C56.3234 58.6674 55.3696 59.0625 54.375 59.0625H41.25C40.2554 59.0625 39.3016 58.6674 38.5984 57.9641C37.8951 57.2609 37.5 56.3071 37.5 55.3125V45.9375Z" fill="#F5F7FF"/>
<path d="M54.375 56.25H41.25C40.2554 56.25 39.3016 55.8549 38.5984 55.1516C37.8951 54.4484 37.5 53.4946 37.5 52.5V55.3125C37.5 56.3071 37.8951 57.2609 38.5984 57.9641C39.3016 58.6674 40.2554 59.0625 41.25 59.0625H54.375C55.3696 59.0625 56.3234 58.6674 57.0266 57.9641C57.7299 57.2609 58.125 56.3071 58.125 55.3125V52.5C58.125 53.4946 57.7299 54.4484 57.0266 55.1516C56.3234 55.8549 55.3696 56.25 54.375 56.25Z" fill="#CCD3EB"/>
<path d="M57.6469 49.1063C47.3344 51.6656 47.9906 51.6094 47.3344 51.45L37.9594 49.1063C37.5581 49.0004 37.2033 48.7645 36.9505 48.4353C36.6977 48.1062 36.5612 47.7025 36.5625 47.2875V43.125C36.5625 42.6277 36.7601 42.1508 37.1117 41.7992C37.4633 41.4475 37.9402 41.25 38.4375 41.25H57.1875C57.6848 41.25 58.1617 41.4475 58.5133 41.7992C58.865 42.1508 59.0625 42.6277 59.0625 43.125V47.2875C59.0627 47.705 58.9236 48.1106 58.6671 48.4401C58.4107 48.7695 58.0517 49.004 57.6469 49.1063Z" fill="#96A1C3"/>
<path d="M17.502 49.8276C17.052 49.5463 16.6113 49.2338 16.1801 48.8901C16.0804 48.8174 15.9673 48.7651 15.8474 48.7362C15.7275 48.7072 15.603 48.7022 15.4811 48.7214C15.3592 48.7405 15.2423 48.7835 15.1371 48.8478C15.0318 48.9121 14.9402 48.9966 14.8676 49.0963C14.795 49.196 14.7427 49.3091 14.7137 49.429C14.6848 49.5489 14.6797 49.6734 14.6989 49.7953C14.718 49.9171 14.761 50.0341 14.8253 50.1393C14.8897 50.2446 14.9741 50.3362 15.0738 50.4088C15.5332 50.7463 16.0113 51.0744 16.4988 51.3463C16.7102 51.4793 16.9657 51.5229 17.2092 51.4676C17.4527 51.4122 17.6643 51.2623 17.7973 51.051C17.9303 50.8396 17.9739 50.5841 17.9185 50.3406C17.8632 50.0971 17.7133 49.8856 17.502 49.7526V49.8276Z" fill="#033C59"/>
<path d="M22.0132 7.96847C25.8416 6.57919 29.9659 6.21146 33.9796 6.90153C37.9934 7.5916 41.758 9.31566 44.9026 11.9038C48.0471 14.4919 50.463 17.8547 51.9121 21.6609C53.3612 25.467 53.7934 29.585 53.1663 33.6091C53.1479 33.7322 53.1538 33.8578 53.1839 33.9786C53.2139 34.0994 53.2675 34.2131 53.3415 34.3132C53.4155 34.4133 53.5085 34.4979 53.6151 34.562C53.7218 34.6262 53.8401 34.6688 53.9632 34.6872C54.0863 34.7057 54.2119 34.6997 54.3327 34.6697C54.4535 34.6396 54.5672 34.5861 54.6673 34.5121C54.7674 34.4381 54.852 34.3451 54.9161 34.2384C54.9803 34.1317 55.0229 34.0135 55.0413 33.8904C57.9569 14.8778 39.3757 -0.394027 21.3007 6.2341C20.51 4.63068 19.3485 3.2388 17.9125 2.17382C16.4765 1.10884 14.8074 0.401429 13.0434 0.110214C11.2795 -0.181 9.4716 -0.0476317 7.7695 0.499267C6.0674 1.04617 4.52015 1.99084 3.25599 3.25501C1.99182 4.51918 1.04714 6.06643 0.500243 7.76852C-0.0466551 9.47062 -0.180024 11.2785 0.111191 13.0425C0.402405 14.8064 1.10982 16.4755 2.1748 17.9115C3.23978 19.3475 4.63165 20.509 6.23507 21.2997C4.59369 25.7503 4.23934 30.5732 5.21264 35.2159C6.18595 39.8586 8.44752 44.1331 11.7382 47.5497C11.825 47.6408 11.9289 47.7139 12.0439 47.7649C12.159 47.8159 12.283 47.8436 12.4087 47.8467C12.5345 47.8497 12.6597 47.828 12.7771 47.7827C12.8945 47.7373 13.0018 47.6693 13.0929 47.5825C13.184 47.4957 13.2571 47.3918 13.3081 47.2768C13.359 47.1617 13.3868 47.0378 13.3899 46.912C13.3929 46.7862 13.3711 46.661 13.3258 46.5436C13.2805 46.4263 13.2125 46.319 13.1257 46.2278C10.0915 43.0752 8.0004 39.1361 7.08913 34.8564C6.17786 30.5768 6.48281 26.1275 7.96945 22.0122C9.92102 22.6078 11.9978 22.6614 13.9775 22.1672C15.9572 21.6731 17.7652 20.6498 19.208 19.2071C20.6508 17.7643 21.6741 15.9562 22.1682 13.9765C22.6623 11.9969 22.6088 9.92005 22.0132 7.96847ZM11.2507 20.6247C9.3965 20.6247 7.58394 20.0749 6.04223 19.0448C4.50052 18.0146 3.2989 16.5504 2.58933 14.8374C1.87976 13.1243 1.6941 11.2393 2.05584 9.42075C2.41757 7.60218 3.31046 5.93171 4.62157 4.6206C5.93269 3.30948 7.60316 2.4166 9.42173 2.05486C11.2403 1.69312 13.1253 1.87878 14.8384 2.58835C16.5514 3.29792 18.0156 4.49954 19.0457 6.04125C20.0759 7.58296 20.6257 9.39552 20.6257 11.2497C20.6257 13.7361 19.638 16.1207 17.8798 17.8788C16.1217 19.637 13.7371 20.6247 11.2507 20.6247Z" fill="#033C59"/>
<path d="M57.1875 40.3125H52.5V37.5C52.5 36.7541 52.2037 36.0387 51.6762 35.5113C51.1488 34.9838 50.4334 34.6875 49.6875 34.6875H45.9375C45.1916 34.6875 44.4762 34.9838 43.9488 35.5113C43.4213 36.0387 43.125 36.7541 43.125 37.5V40.3125H38.4375C37.6916 40.3125 36.9762 40.6088 36.4488 41.1363C35.9213 41.6637 35.625 42.3791 35.625 43.125V47.2875C35.6258 47.6823 35.7097 48.0724 35.8712 48.4326C36.0327 48.7928 36.2683 49.115 36.5625 49.3781V52.5C31.4262 54.0182 25.9236 53.7202 20.9813 51.6562C20.7513 51.5618 20.4932 51.5625 20.2637 51.6583C20.0343 51.7542 19.8523 51.9372 19.7578 52.1672C19.6633 52.3972 19.6641 52.6553 19.7599 52.8847C19.8557 53.1142 20.0388 53.2961 20.2688 53.3906C25.4327 55.5417 31.1669 55.9079 36.5625 54.4313V55.3125C36.5625 56.5557 37.0564 57.748 37.9354 58.6271C38.8145 59.5061 40.0068 60 41.25 60H54.375C55.6182 60 56.8105 59.5061 57.6896 58.6271C58.5686 57.748 59.0625 56.5557 59.0625 55.3125V49.3781C59.3567 49.115 59.5923 48.7928 59.7538 48.4326C59.9153 48.0724 59.9992 47.6823 60 47.2875V43.125C60 42.3791 59.7037 41.6637 59.1762 41.1363C58.6488 40.6088 57.9334 40.3125 57.1875 40.3125ZM45 37.5C45 37.2514 45.0988 37.0129 45.2746 36.8371C45.4504 36.6613 45.6889 36.5625 45.9375 36.5625H49.6875C49.9362 36.5625 50.1746 36.6613 50.3504 36.8371C50.5262 37.0129 50.625 37.2514 50.625 37.5V40.3125H45V37.5ZM37.5 43.125C37.5 42.8764 37.5988 42.6379 37.7746 42.4621C37.9504 42.2863 38.1889 42.1875 38.4375 42.1875H57.1875C57.4361 42.1875 57.6746 42.2863 57.8504 42.4621C58.0262 42.6379 58.125 42.8764 58.125 43.125V47.2875C58.1312 47.5017 58.0639 47.7115 57.9343 47.8821C57.8047 48.0526 57.6205 48.1737 57.4125 48.225L48.0375 50.5687C47.7188 50.6531 48.4313 50.7844 38.2125 48.225C38.0045 48.1737 37.8204 48.0526 37.6907 47.8821C37.5611 47.7115 37.4938 47.5017 37.5 47.2875V43.125ZM54.375 58.125H41.25C40.5041 58.125 39.7887 57.8287 39.2613 57.3012C38.7338 56.7738 38.4375 56.0584 38.4375 55.3125V50.1844L47.1281 52.3594C48.0656 52.5844 47.5969 52.5844 57.1875 50.1844V55.3125C57.1875 56.0584 56.8912 56.7738 56.3637 57.3012C55.8363 57.8287 55.1209 58.125 54.375 58.125Z" fill="#033C59"/>
<path d="M47.8125 54.375C49.3658 54.375 50.625 53.1158 50.625 51.5625C50.625 50.0092 49.3658 48.75 47.8125 48.75C46.2592 48.75 45 50.0092 45 51.5625C45 53.1158 46.2592 54.375 47.8125 54.375Z" fill="#2276FF"/>
<path d="M49.6875 1.875H45.9375C45.6889 1.875 45.4504 1.77623 45.2746 1.60041C45.0988 1.4246 45 1.18614 45 0.9375C45 0.68886 45.0988 0.450403 45.2746 0.274587C45.4504 0.0987721 45.6889 0 45.9375 0L49.6875 0C49.9361 0 50.1746 0.0987721 50.3504 0.274587C50.5262 0.450403 50.625 0.68886 50.625 0.9375C50.625 1.18614 50.5262 1.4246 50.3504 1.60041C50.1746 1.77623 49.9361 1.875 49.6875 1.875Z" fill="#2276FF"/>
<path d="M49.6875 5.625H45.9375C45.6889 5.625 45.4504 5.52623 45.2746 5.35041C45.0988 5.1746 45 4.93614 45 4.6875C45 4.43886 45.0988 4.2004 45.2746 4.02459C45.4504 3.84877 45.6889 3.75 45.9375 3.75H49.6875C49.9361 3.75 50.1746 3.84877 50.3504 4.02459C50.5262 4.2004 50.625 4.43886 50.625 4.6875C50.625 4.93614 50.5262 5.1746 50.3504 5.35041C50.1746 5.52623 49.9361 5.625 49.6875 5.625Z" fill="#2276FF"/>
</g>
<defs>
<clipPath id="clip0_1191_48013">
<rect width="60" height="60" fill="white"/>
</clipPath>
</defs>
</svg>
