<svg width="60" height="60" viewBox="0 0 60 60" fill="none" xmlns="http://www.w3.org/2000/svg">
<g clip-path="url(#clip0_1191_48072)">
<path d="M37.5 6.5625L36.5625 12.1875H23.4375L22.5 6.5625L27.1875 8.4375L30 4.6875L32.8125 8.4375L37.5 6.5625Z" fill="#2276FF"/>
<path d="M30 34.6875C35.1777 34.6875 39.375 30.4902 39.375 25.3125C39.375 20.1348 35.1777 15.9375 30 15.9375C24.8223 15.9375 20.625 20.1348 20.625 25.3125C20.625 30.4902 24.8223 34.6875 30 34.6875Z" fill="#96A1C3"/>
<path d="M30 31.875C27.7584 31.8735 25.5915 31.0688 23.8922 29.6069C22.193 28.1449 21.0737 26.1225 20.7375 23.9062C20.5284 25.2436 20.6114 26.6104 20.9808 27.9126C21.3502 29.2148 21.9972 30.4216 22.8773 31.45C23.7574 32.4784 24.8498 33.304 26.0793 33.8701C27.3089 34.4361 28.6464 34.7293 30 34.7293C31.3536 34.7293 32.6911 34.4361 33.9207 33.8701C35.1502 33.304 36.2426 32.4784 37.1227 31.45C38.0028 30.4216 38.6498 29.2148 39.0192 27.9126C39.3886 26.6104 39.4716 25.2436 39.2625 23.9062C38.9263 26.1225 37.807 28.1449 36.1078 29.6069C34.4085 31.0688 32.2416 31.8735 30 31.875Z" fill="#647499"/>
<path d="M33.1047 27.8629C33.8181 27.2328 34.3228 26.4004 34.5516 25.4765C34.7804 24.5526 34.7226 23.5809 34.3857 22.6907C34.0488 21.8005 33.449 21.0339 32.6658 20.4929C31.8827 19.9519 30.9534 19.6621 30.0016 19.6621C29.0497 19.6621 28.1205 19.9519 27.3373 20.4929C26.5542 21.0339 25.9543 21.8005 25.6174 22.6907C25.2806 23.5809 25.2227 24.5526 25.4515 25.4765C25.6804 26.4004 26.185 27.2328 26.8984 27.8629C25.2244 28.6342 23.8906 29.9914 23.1484 31.6785C24.026 32.6241 25.0892 33.3785 26.2717 33.8943C27.4541 34.4101 28.7303 34.6764 30.0203 34.6764C31.3104 34.6764 32.5865 34.4101 33.769 33.8943C34.9514 33.3785 36.0147 32.6241 36.8922 31.6785C36.1409 29.9848 34.7928 28.6267 33.1047 27.8629Z" fill="#F5F7FF"/>
<path d="M24.2406 29.8779C23.7846 30.4215 23.4088 31.0276 23.125 31.6779C24.0025 32.6235 25.0658 33.3779 26.2482 33.8937C27.4306 34.4095 28.7068 34.6758 29.9969 34.6758C31.2869 34.6758 32.5631 34.4095 33.7455 33.8937C34.928 33.3779 35.9912 32.6235 36.8688 31.6779C36.5849 31.0276 36.2092 30.4215 35.7531 29.8779C34.1135 31.1721 32.0857 31.876 29.9969 31.876C27.9081 31.876 25.8802 31.1721 24.2406 29.8779Z" fill="#CCD3EB"/>
<path d="M10.3125 57.1875C14.4546 57.1875 17.8125 53.8296 17.8125 49.6875C17.8125 45.5454 14.4546 42.1875 10.3125 42.1875C6.17036 42.1875 2.8125 45.5454 2.8125 49.6875C2.8125 53.8296 6.17036 57.1875 10.3125 57.1875Z" fill="#96A1C3"/>
<path d="M15.525 52.2652C14.552 53.2031 13.3437 53.8606 12.0278 54.1683C10.7119 54.476 9.33736 54.4224 8.0494 54.0133C6.76144 53.6041 5.60795 52.8546 4.71089 51.8439C3.81382 50.8332 3.2065 49.5989 2.95313 48.2715C2.73967 49.3582 2.76953 50.4787 3.04055 51.5525C3.31157 52.6262 3.81703 53.6267 4.52063 54.4819C5.22422 55.3372 6.10848 56.026 7.1099 56.4989C8.11132 56.9718 9.20504 57.217 10.3125 57.217C11.42 57.217 12.5137 56.9718 13.5151 56.4989C14.5165 56.026 15.4008 55.3372 16.1044 54.4819C16.808 53.6267 17.3134 52.6262 17.5844 51.5525C17.8555 50.4787 17.8853 49.3582 17.6719 48.2715C17.3854 49.7924 16.6355 51.1874 15.525 52.2652Z" fill="#647499"/>
<path d="M12.2828 51.928C12.9774 51.4995 13.5133 50.8561 13.8091 50.0954C14.1049 49.3347 14.1445 48.4983 13.9218 47.7131C13.6991 46.9279 13.2263 46.2368 12.5752 45.7447C11.9241 45.2526 11.1302 44.9863 10.3141 44.9863C9.4979 44.9863 8.70403 45.2526 8.05292 45.7447C7.40182 46.2368 6.92905 46.9279 6.70635 47.7131C6.48366 48.4983 6.52321 49.3347 6.81901 50.0954C7.1148 50.8561 7.65068 51.4995 8.34531 51.928C7.61613 52.2 6.95134 52.6205 6.393 53.1627C5.83465 53.7049 5.3949 54.3571 5.10156 55.078C6.50006 56.4298 8.36903 57.1854 10.3141 57.1854C12.2591 57.1854 14.1281 56.4298 15.5266 55.078C15.2332 54.3571 14.7935 53.7049 14.2351 53.1627C13.6768 52.6205 13.012 52.2 12.2828 51.928Z" fill="#F5F7FF"/>
<path d="M6.33906 53.2217C5.80326 53.756 5.38217 54.394 5.10156 55.0967C6.50006 56.4485 8.36903 57.2041 10.3141 57.2041C12.2591 57.2041 14.1281 56.4485 15.5266 55.0967C15.246 54.394 14.8249 53.756 14.2891 53.2217C13.1002 53.9752 11.7216 54.3753 10.3141 54.3753C8.9065 54.3753 7.52793 53.9752 6.33906 53.2217Z" fill="#CCD3EB"/>
<path d="M49.6875 57.1875C53.8296 57.1875 57.1875 53.8296 57.1875 49.6875C57.1875 45.5454 53.8296 42.1875 49.6875 42.1875C45.5454 42.1875 42.1875 45.5454 42.1875 49.6875C42.1875 53.8296 45.5454 57.1875 49.6875 57.1875Z" fill="#96A1C3"/>
<path d="M54.9 52.2652C53.927 53.2031 52.7187 53.8606 51.4028 54.1683C50.0869 54.476 48.7124 54.4224 47.4244 54.0133C46.1364 53.6041 44.983 52.8546 44.0859 51.8439C43.1888 50.8332 42.5815 49.5989 42.3281 48.2715C42.1147 49.3582 42.1445 50.4787 42.4156 51.5525C42.6866 52.6262 43.192 53.6267 43.8956 54.4819C44.5992 55.3372 45.4835 56.026 46.4849 56.4989C47.4863 56.9718 48.58 57.217 49.6875 57.217C50.795 57.217 51.8887 56.9718 52.8901 56.4989C53.8915 56.026 54.7758 55.3372 55.4794 54.4819C56.183 53.6267 56.6884 52.6262 56.9594 51.5525C57.2305 50.4787 57.2603 49.3582 57.0469 48.2715C56.7604 49.7924 56.0105 51.1874 54.9 52.2652Z" fill="#647499"/>
<path d="M51.6578 51.928C52.3524 51.4995 52.8883 50.8561 53.1841 50.0954C53.4799 49.3347 53.5195 48.4983 53.2968 47.7131C53.0741 46.9279 52.6013 46.2368 51.9502 45.7447C51.2991 45.2526 50.5052 44.9863 49.6891 44.9863C48.8729 44.9863 48.079 45.2526 47.4279 45.7447C46.7768 46.2368 46.304 46.9279 46.0814 47.7131C45.8587 48.4983 45.8982 49.3347 46.194 50.0954C46.4898 50.8561 47.0257 51.4995 47.7203 51.928C46.9911 52.2 46.3263 52.6205 45.768 53.1627C45.2097 53.7049 44.7699 54.3571 44.4766 55.078C45.8751 56.4298 47.744 57.1854 49.6891 57.1854C51.6341 57.1854 53.5031 56.4298 54.9016 55.078C54.6082 54.3571 54.1685 53.7049 53.6101 53.1627C53.0518 52.6205 52.387 52.2 51.6578 51.928Z" fill="#F5F7FF"/>
<path d="M45.7141 53.2217C45.1783 53.756 44.7572 54.394 44.4766 55.0967C45.8751 56.4485 47.744 57.2041 49.6891 57.2041C51.6341 57.2041 53.5031 56.4485 54.9016 55.0967C54.621 54.394 54.1999 53.756 53.6641 53.2217C52.4752 53.9752 51.0966 54.3753 49.6891 54.3753C48.2815 54.3753 46.9029 53.9752 45.7141 53.2217Z" fill="#CCD3EB"/>
<path d="M30 59.0625C34.1421 59.0625 37.5 55.7046 37.5 51.5625C37.5 47.4204 34.1421 44.0625 30 44.0625C25.8579 44.0625 22.5 47.4204 22.5 51.5625C22.5 55.7046 25.8579 59.0625 30 59.0625Z" fill="#96A1C3"/>
<path d="M35.2125 54.1402C34.2395 55.0781 33.0312 55.7356 31.7153 56.0433C30.3994 56.351 29.0249 56.2974 27.7369 55.8883C26.4489 55.4791 25.2955 54.7296 24.3984 53.7189C23.5013 52.7082 22.894 51.4739 22.6406 50.1465C22.4272 51.2332 22.457 52.3537 22.7281 53.4275C22.9991 54.5012 23.5045 55.5017 24.2081 56.3569C24.9117 57.2122 25.796 57.901 26.7974 58.3739C27.7988 58.8468 28.8925 59.092 30 59.092C31.1075 59.092 32.2012 58.8468 33.2026 58.3739C34.204 57.901 35.0883 57.2122 35.7919 56.3569C36.4955 55.5017 37.0009 54.5012 37.2719 53.4275C37.543 52.3537 37.5728 51.2332 37.3594 50.1465C37.0729 51.6674 36.323 53.0624 35.2125 54.1402Z" fill="#647499"/>
<path d="M31.9703 53.803C32.6649 53.3745 33.2008 52.7311 33.4966 51.9704C33.7924 51.2097 33.832 50.3733 33.6093 49.5881C33.3866 48.8029 32.9138 48.1118 32.2627 47.6197C31.6116 47.1276 30.8177 46.8613 30.0016 46.8613C29.1854 46.8613 28.3915 47.1276 27.7404 47.6197C27.0893 48.1118 26.6165 48.8029 26.3939 49.5881C26.1712 50.3733 26.2107 51.2097 26.5065 51.9704C26.8023 52.7311 27.3382 53.3745 28.0328 53.803C27.3036 54.075 26.6388 54.4955 26.0805 55.0377C25.5222 55.5799 25.0824 56.2321 24.7891 56.953C26.1876 58.3048 28.0565 59.0604 30.0016 59.0604C31.9466 59.0604 33.8156 58.3048 35.2141 56.953C34.9207 56.2321 34.481 55.5799 33.9226 55.0377C33.3643 54.4955 32.6995 54.075 31.9703 53.803Z" fill="#F5F7FF"/>
<path d="M26.0266 55.0967C25.4908 55.631 25.0697 56.269 24.7891 56.9717C26.1876 58.3235 28.0565 59.0791 30.0016 59.0791C31.9466 59.0791 33.8156 58.3235 35.2141 56.9717C34.9335 56.269 34.5124 55.631 33.9766 55.0967C32.7877 55.8502 31.4091 56.2503 30.0016 56.2503C28.594 56.2503 27.2154 55.8502 26.0266 55.0967Z" fill="#CCD3EB"/>
<path d="M22.4975 12.3375C22.5334 12.5593 22.6479 12.7609 22.8199 12.9054C22.992 13.05 23.2103 13.1279 23.435 13.125H36.56C36.7847 13.1279 37.003 13.05 37.175 12.9054C37.3471 12.7609 37.4615 12.5593 37.4975 12.3375L38.435 6.7125C38.462 6.5484 38.4448 6.38007 38.3853 6.22478C38.3258 6.0695 38.226 5.93284 38.0962 5.82883C37.9664 5.72482 37.8113 5.65721 37.6468 5.63292C37.4823 5.60863 37.3143 5.62855 37.16 5.69063L33.1287 7.30313L30.7475 4.125C30.6602 4.00857 30.5469 3.91406 30.4167 3.84897C30.2866 3.78389 30.143 3.75 29.9975 3.75C29.8519 3.75 29.7084 3.78389 29.5782 3.84897C29.448 3.91406 29.3348 4.00857 29.2475 4.125L26.8662 7.30313L22.8444 5.69063C22.6896 5.62628 22.5205 5.60458 22.3545 5.62779C22.1885 5.65101 22.0318 5.71829 21.9007 5.82263C21.7695 5.92696 21.6688 6.06455 21.6088 6.22105C21.5489 6.37756 21.5321 6.54726 21.56 6.7125L22.4975 12.3375ZM26.8287 9.30938C27.0213 9.3878 27.2345 9.39997 27.4348 9.34396C27.6351 9.28795 27.811 9.16695 27.935 9L29.9975 6.25313L32.06 9C32.1834 9.16491 32.3578 9.28458 32.556 9.3405C32.7543 9.39642 32.9654 9.38548 33.1569 9.30938L36.2975 8.05313L35.7631 11.25H24.2319L23.6975 8.05313L26.8287 9.30938Z" fill="#033C59"/>
<path d="M30 1.875C30.1854 1.875 30.3667 1.82002 30.5208 1.717C30.675 1.61399 30.7952 1.46757 30.8661 1.29627C30.9371 1.12496 30.9557 0.93646 30.9195 0.754603C30.8833 0.572746 30.794 0.4057 30.6629 0.274588C30.5318 0.143476 30.3648 0.0541879 30.1829 0.0180142C30.001 -0.0181594 29.8125 0.000406201 29.6412 0.0713634C29.4699 0.142321 29.3235 0.262482 29.2205 0.416653C29.1175 0.570824 29.0625 0.75208 29.0625 0.9375C29.0625 1.18614 29.1613 1.4246 29.3371 1.60041C29.5129 1.77623 29.7514 1.875 30 1.875Z" fill="#033C59"/>
<path d="M22.5 3.75C22.6854 3.75 22.8667 3.69502 23.0208 3.592C23.175 3.48899 23.2952 3.34257 23.3661 3.17127C23.4371 2.99996 23.4557 2.81146 23.4195 2.6296C23.3833 2.44775 23.294 2.2807 23.1629 2.14959C23.0318 2.01848 22.8648 1.92919 22.6829 1.89301C22.501 1.85684 22.3125 1.87541 22.1412 1.94636C21.9699 2.01732 21.8235 2.13748 21.7205 2.29165C21.6175 2.44582 21.5625 2.62708 21.5625 2.8125C21.5625 3.06114 21.6613 3.2996 21.8371 3.47541C22.0129 3.65123 22.2514 3.75 22.5 3.75Z" fill="#033C59"/>
<path d="M37.5 3.75C37.6854 3.75 37.8667 3.69502 38.0208 3.592C38.175 3.48899 38.2952 3.34257 38.3661 3.17127C38.4371 2.99996 38.4557 2.81146 38.4195 2.6296C38.3833 2.44775 38.294 2.2807 38.1629 2.14959C38.0318 2.01848 37.8648 1.92919 37.6829 1.89301C37.501 1.85684 37.3125 1.87541 37.1412 1.94636C36.9699 2.01732 36.8235 2.13748 36.7205 2.29165C36.6175 2.44582 36.5625 2.62708 36.5625 2.8125C36.5625 3.06114 36.6613 3.2996 36.8371 3.47541C37.0129 3.65123 37.2514 3.75 37.5 3.75Z" fill="#033C59"/>
<path d="M20.6727 27.1877C20.8041 27.1884 20.9342 27.1614 21.0545 27.1086C21.1748 27.0557 21.2827 26.9781 21.3711 26.8809C21.4595 26.7836 21.5264 26.6689 21.5676 26.5441C21.6088 26.4193 21.6233 26.2873 21.6102 26.1565C21.5633 25.595 21.5633 25.0305 21.6102 24.469C21.6231 24.3465 21.6119 24.2226 21.577 24.1045C21.5421 23.9863 21.4842 23.8762 21.4067 23.7804C21.3292 23.6847 21.2336 23.6051 21.1254 23.5463C21.0171 23.4875 20.8983 23.4506 20.7758 23.4377C20.6526 23.4248 20.528 23.4364 20.4093 23.4719C20.2906 23.5074 20.1801 23.5661 20.0842 23.6445C19.9883 23.723 19.9089 23.8197 19.8506 23.929C19.7923 24.0383 19.7562 24.1581 19.7445 24.2815C19.6789 24.9674 19.6789 25.6581 19.7445 26.344C19.7677 26.5744 19.8753 26.7882 20.0467 26.944C20.2181 27.0997 20.4411 27.1866 20.6727 27.1877Z" fill="#033C59"/>
<path d="M50.625 41.3067V40.3129C50.625 39.567 50.3287 38.8516 49.8012 38.3242C49.2738 37.7967 48.5584 37.5004 47.8125 37.5004H30.9375V35.6254C32.6967 35.4597 34.3837 34.8447 35.8369 33.8395C37.29 32.8343 38.4605 31.4726 39.2361 29.8849C40.0117 28.2973 40.3663 26.537 40.266 24.7729C40.1657 23.0088 39.6138 21.3001 38.6632 19.8106C37.7127 18.3212 36.3953 17.1009 34.8376 16.2669C33.2799 15.4329 31.534 15.0132 29.7674 15.0479C28.0008 15.0826 26.2727 15.5707 24.749 16.4653C23.2252 17.3599 21.9569 18.631 21.0656 20.1567C21.0036 20.2637 20.9634 20.3819 20.9473 20.5045C20.9312 20.6271 20.9395 20.7517 20.9718 20.8711C21.004 20.9904 21.0596 21.1023 21.1352 21.2001C21.2108 21.2979 21.3051 21.3798 21.4125 21.4411C21.6278 21.5633 21.8826 21.5954 22.1215 21.5304C22.3604 21.4654 22.5638 21.3086 22.6875 21.0942C23.6162 19.4856 25.0497 18.2285 26.7657 17.5177C28.4817 16.8069 30.3843 16.6822 32.1784 17.1629C33.9725 17.6437 35.5578 18.7029 36.6885 20.1765C37.8192 21.6501 38.4321 23.4555 38.4321 25.3129C38.4321 27.1703 37.8192 28.9758 36.6885 30.4493C35.5578 31.9229 33.9725 32.9822 32.1784 33.4629C30.3843 33.9436 28.4817 33.8189 26.7657 33.1082C25.0497 32.3974 23.6162 31.1402 22.6875 29.5317C22.5638 29.3172 22.3604 29.1604 22.1215 29.0954C21.8826 29.0304 21.6278 29.0626 21.4125 29.1848C21.3051 29.246 21.2108 29.3279 21.1352 29.4258C21.0596 29.5236 21.004 29.6354 20.9718 29.7548C20.9395 29.8742 20.9312 29.9988 20.9473 30.1214C20.9634 30.244 21.0036 30.3622 21.0656 30.4692C21.8943 31.8954 23.053 33.102 24.4445 33.9878C25.8359 34.8736 27.4196 35.4127 29.0625 35.5598V37.5004H12.1875C11.4416 37.5004 10.7262 37.7967 10.1988 38.3242C9.67133 38.8516 9.37501 39.567 9.37501 40.3129V41.3067C7.23187 41.5463 5.26182 42.5974 3.86945 44.2441C2.47708 45.8909 1.76809 48.0083 1.88808 50.1614C2.00807 52.3146 2.94794 54.34 4.51466 55.8219C6.08138 57.3037 8.15602 58.1294 10.3125 58.1294C12.469 58.1294 14.5436 57.3037 16.1104 55.8219C17.6771 54.34 18.6169 52.3146 18.7369 50.1614C18.8569 48.0083 18.1479 45.8909 16.7556 44.2441C15.3632 42.5974 13.3931 41.5463 11.25 41.3067V40.3129C11.25 40.0643 11.3488 39.8258 11.5246 39.65C11.7004 39.4742 11.9389 39.3754 12.1875 39.3754H29.0625V43.1817C26.9194 43.4213 24.9493 44.4724 23.557 46.1191C22.1646 47.7659 21.4556 49.8833 21.5756 52.0364C21.6956 54.1896 22.6354 56.215 24.2022 57.6969C25.7689 59.1787 27.8435 60.0044 30 60.0044C32.1565 60.0044 34.2311 59.1787 35.7979 57.6969C37.3646 56.215 38.3044 54.1896 38.4244 52.0364C38.5444 49.8833 37.8354 47.7659 36.4431 46.1191C35.0507 44.4724 33.0806 43.4213 30.9375 43.1817V39.3754H47.8125C48.0611 39.3754 48.2996 39.4742 48.4754 39.65C48.6512 39.8258 48.75 40.0643 48.75 40.3129V41.316C47.4364 41.4607 46.1751 41.9119 45.0678 42.6332C43.9605 43.3546 43.0381 44.326 42.375 45.4692C42.3135 45.5763 42.2736 45.6945 42.2577 45.817C42.2418 45.9395 42.2502 46.0639 42.2824 46.1832C42.3147 46.3025 42.37 46.4142 42.4454 46.5121C42.5208 46.6099 42.6148 46.692 42.7219 46.7535C42.829 46.8151 42.9472 46.855 43.0697 46.8708C43.1922 46.8867 43.3167 46.8783 43.4359 46.8461C43.5552 46.8139 43.6669 46.7585 43.7648 46.6831C43.8627 46.6077 43.9447 46.5138 44.0063 46.4067C44.8032 45.0284 46.074 43.9868 47.5819 43.4759C49.0898 42.9651 50.732 43.0199 52.2025 43.63C53.673 44.2402 54.8716 45.3641 55.575 46.7924C56.2783 48.2207 56.4384 49.856 56.0254 51.3936C55.6125 52.9312 54.6546 54.2663 53.3303 55.1501C52.0061 56.0338 50.4056 56.406 48.8273 56.1973C47.2489 55.9886 45.8003 55.2133 44.7512 54.0157C43.7021 52.8181 43.1242 51.28 43.125 49.6879C43.125 49.4393 43.0262 49.2008 42.8504 49.025C42.6746 48.8492 42.4361 48.7504 42.1875 48.7504C41.9389 48.7504 41.7004 48.8492 41.5246 49.025C41.3488 49.2008 41.25 49.4393 41.25 49.6879C41.2492 51.3169 41.72 52.9113 42.6055 54.2785C43.491 55.6458 44.7534 56.7275 46.2402 57.3931C47.727 58.0586 49.3746 58.2795 50.9843 58.0292C52.5939 57.7788 54.0966 57.0679 55.311 55.9822C56.5254 54.8965 57.3996 53.4825 57.828 51.9109C58.2564 50.3392 58.2207 48.6772 57.7252 47.1254C57.2297 45.5737 56.2956 44.1985 55.0357 43.166C53.7758 42.1334 52.2439 41.4877 50.625 41.3067ZM16.875 49.6879C16.875 50.9859 16.4901 52.2547 15.769 53.3339C15.0479 54.4131 14.023 55.2542 12.8239 55.7509C11.6247 56.2476 10.3052 56.3775 9.03223 56.1243C7.75923 55.8711 6.5899 55.2461 5.67212 54.3283C4.75434 53.4105 4.12932 52.2412 3.87611 50.9682C3.62289 49.6952 3.75285 48.3757 4.24955 47.1766C4.74625 45.9774 5.58738 44.9525 6.66658 44.2314C7.74578 43.5103 9.01457 43.1254 10.3125 43.1254C12.053 43.1254 13.7222 43.8168 14.9529 45.0475C16.1836 46.2782 16.875 47.9474 16.875 49.6879ZM36.5625 51.5629C36.5625 52.8609 36.1776 54.1297 35.4565 55.2089C34.7354 56.2881 33.7105 57.1292 32.5114 57.6259C31.3122 58.1226 29.9927 58.2525 28.7197 57.9993C27.4467 57.7461 26.2774 57.1211 25.3596 56.2033C24.4418 55.2855 23.8168 54.1162 23.5636 52.8432C23.3104 51.5702 23.4404 50.2507 23.937 49.0516C24.4338 47.8524 25.2749 46.8275 26.3541 46.1064C27.4333 45.3853 28.7021 45.0004 30 45.0004C31.7405 45.0004 33.4097 45.6918 34.6404 46.9225C35.8711 48.1532 36.5625 49.8224 36.5625 51.5629Z" fill="#033C59"/>
<path d="M11.9195 25.9781L12.1913 25.6969V29.0625C12.1913 29.3111 12.2901 29.5496 12.4659 29.7254C12.6417 29.9012 12.8802 30 13.1288 30C13.3775 30 13.6159 29.9012 13.7917 29.7254C13.9676 29.5496 14.0663 29.3111 14.0663 29.0625V25.6969L14.3382 25.9781C14.5147 26.1547 14.7542 26.2538 15.0038 26.2538C15.2535 26.2538 15.4929 26.1547 15.6695 25.9781C15.846 25.8016 15.9452 25.5622 15.9452 25.3125C15.9452 25.0628 15.846 24.8234 15.6695 24.6469C13.6257 22.6031 13.6351 22.5 13.1288 22.5C12.6226 22.5 12.5945 22.6406 10.5882 24.6469C10.4117 24.8234 10.3125 25.0628 10.3125 25.3125C10.3125 25.5622 10.4117 25.8016 10.5882 25.9781C10.7647 26.1547 11.0042 26.2538 11.2538 26.2538C11.5035 26.2538 11.7429 26.1547 11.9195 25.9781Z" fill="#2276FF"/>
<path d="M49.4195 26.5219C49.3323 26.434 49.2286 26.3643 49.1144 26.3167C49.0001 26.2691 48.8776 26.2446 48.7538 26.2446C48.6301 26.2446 48.5075 26.2691 48.3933 26.3167C48.2791 26.3643 48.1754 26.434 48.0882 26.5219L47.8163 26.8031V23.4375C47.8163 23.1889 47.7176 22.9504 47.5418 22.7746C47.3659 22.5988 47.1275 22.5 46.8788 22.5C46.6302 22.5 46.3917 22.5988 46.2159 22.7746C46.0401 22.9504 45.9413 23.1889 45.9413 23.4375V26.8031L45.6695 26.5219C45.4929 26.3453 45.2535 26.2462 45.0038 26.2462C44.7542 26.2462 44.5147 26.3453 44.3382 26.5219C44.1617 26.6984 44.0625 26.9378 44.0625 27.1875C44.0625 27.4372 44.1617 27.6766 44.3382 27.8531L46.2132 29.7281C46.3004 29.816 46.4041 29.8857 46.5183 29.9333C46.6325 29.9809 46.7551 30.0054 46.8788 30.0054C47.0026 30.0054 47.1251 29.9809 47.2394 29.9333C47.3536 29.8857 47.4573 29.816 47.5445 29.7281L49.4195 27.8531C49.5073 27.766 49.5771 27.6623 49.6247 27.548C49.6723 27.4338 49.6968 27.3113 49.6968 27.1875C49.6968 27.0637 49.6723 26.9412 49.6247 26.827C49.5771 26.7127 49.5073 26.609 49.4195 26.5219Z" fill="#2276FF"/>
<path d="M48.75 33.75C48.5646 33.75 48.3833 33.805 48.2292 33.908C48.075 34.011 47.9548 34.1574 47.8839 34.3287C47.8129 34.5 47.7943 34.6885 47.8305 34.8704C47.8667 35.0523 47.956 35.2193 48.0871 35.3504C48.2182 35.4815 48.3852 35.5708 48.5671 35.607C48.749 35.6432 48.9375 35.6246 49.1088 35.5536C49.2801 35.4827 49.4265 35.3625 49.5295 35.2083C49.6325 35.0542 49.6875 34.8729 49.6875 34.6875C49.6875 34.4389 49.5887 34.2004 49.4129 34.0246C49.2371 33.8488 48.9986 33.75 48.75 33.75Z" fill="#96A1C3"/>
<path d="M45 33.75C44.8146 33.75 44.6333 33.805 44.4792 33.908C44.325 34.011 44.2048 34.1574 44.1339 34.3287C44.0629 34.5 44.0443 34.6885 44.0805 34.8704C44.1167 35.0523 44.206 35.2193 44.3371 35.3504C44.4682 35.4815 44.6352 35.5708 44.8171 35.607C44.999 35.6432 45.1875 35.6246 45.3588 35.5536C45.5301 35.4827 45.6765 35.3625 45.7795 35.2083C45.8825 35.0542 45.9375 34.8729 45.9375 34.6875C45.9375 34.4389 45.8387 34.2004 45.6629 34.0246C45.4871 33.8488 45.2486 33.75 45 33.75Z" fill="#96A1C3"/>
<path d="M15 33.75C14.8146 33.75 14.6333 33.805 14.4792 33.908C14.325 34.011 14.2048 34.1574 14.1339 34.3287C14.0629 34.5 14.0443 34.6885 14.0805 34.8704C14.1167 35.0523 14.206 35.2193 14.3371 35.3504C14.4682 35.4815 14.6352 35.5708 14.8171 35.607C14.999 35.6432 15.1875 35.6246 15.3588 35.5536C15.5301 35.4827 15.6765 35.3625 15.7795 35.2083C15.8825 35.0542 15.9375 34.8729 15.9375 34.6875C15.9375 34.4389 15.8387 34.2004 15.6629 34.0246C15.4871 33.8488 15.2486 33.75 15 33.75Z" fill="#96A1C3"/>
<path d="M11.25 33.75C11.0646 33.75 10.8833 33.805 10.7292 33.908C10.575 34.011 10.4548 34.1574 10.3839 34.3287C10.3129 34.5 10.2943 34.6885 10.3305 34.8704C10.3667 35.0523 10.456 35.2193 10.5871 35.3504C10.7182 35.4815 10.8852 35.5708 11.0671 35.607C11.249 35.6432 11.4375 35.6246 11.6088 35.5536C11.7801 35.4827 11.9265 35.3625 12.0295 35.2083C12.1325 35.0542 12.1875 34.8729 12.1875 34.6875C12.1875 34.4389 12.0887 34.2004 11.9129 34.0246C11.7371 33.8488 11.4986 33.75 11.25 33.75Z" fill="#96A1C3"/>
</g>
<defs>
<clipPath id="clip0_1191_48072">
<rect width="60" height="60" fill="white"/>
</clipPath>
</defs>
</svg>
