<svg width="60" height="60" viewBox="0 0 60 60" fill="none" xmlns="http://www.w3.org/2000/svg">
<g clip-path="url(#clip0_1191_48104)">
<path d="M17.8125 59.0625H12.1875L15.9375 51.5625H21.5625L17.8125 59.0625Z" fill="#2276FF"/>
<path d="M38.4375 59.0625H44.0625L40.3125 51.5625H34.6875L38.4375 59.0625Z" fill="#2276FF"/>
<path d="M28.125 56.25C40.0336 56.25 49.6875 46.5961 49.6875 34.6875C49.6875 22.7789 40.0336 13.125 28.125 13.125C16.2164 13.125 6.5625 22.7789 6.5625 34.6875C6.5625 46.5961 16.2164 56.25 28.125 56.25Z" fill="#CCD3EB"/>
<path d="M28.125 53.4375C22.6499 53.4373 17.3799 51.3542 13.3842 47.611C9.38853 43.8678 6.96645 38.7447 6.60938 33.2812C6.41488 36.2262 6.827 39.1797 7.82023 41.9588C8.81346 44.738 10.3667 47.2837 12.3836 49.4383C14.4006 51.5929 16.8384 53.3104 19.5461 54.4847C22.2538 55.6589 25.1737 56.2648 28.125 56.2648C31.0763 56.2648 33.9962 55.6589 36.7039 54.4847C39.4116 53.3104 41.8494 51.5929 43.8664 49.4383C45.8834 47.2837 47.4365 44.738 48.4298 41.9588C49.423 39.1797 49.8351 36.2262 49.6406 33.2812C49.2836 38.7447 46.8615 43.8678 42.8658 47.611C38.8701 51.3542 33.6001 53.4373 28.125 53.4375Z" fill="#96A1C3"/>
<path d="M28.125 50.625C36.927 50.625 44.0625 43.4895 44.0625 34.6875C44.0625 25.8855 36.927 18.75 28.125 18.75C19.323 18.75 12.1875 25.8855 12.1875 34.6875C12.1875 43.4895 19.323 50.625 28.125 50.625Z" fill="#F5F7FF"/>
<path d="M28.125 47.8125C24.1438 47.8093 20.3079 46.3161 17.3723 43.6269C14.4366 40.9376 12.6138 37.247 12.2625 33.2812C12.0471 35.494 12.297 37.7273 12.9961 39.8376C13.6953 41.948 14.8282 43.8888 16.3221 45.5352C17.816 47.1816 19.6379 48.4973 21.6706 49.3976C23.7033 50.298 25.9018 50.7631 28.125 50.7631C30.3482 50.7631 32.5468 50.298 34.5794 49.3976C36.6121 48.4973 38.434 47.1816 39.9279 45.5352C41.4218 43.8888 42.5547 41.948 43.2539 39.8376C43.953 37.7273 44.2029 35.494 43.9875 33.2812C43.6362 37.247 41.8134 40.9376 38.8777 43.6269C35.9421 46.3161 32.1062 47.8093 28.125 47.8125Z" fill="#CCD3EB"/>
<path d="M28.125 45C33.8204 45 38.4375 40.3829 38.4375 34.6875C38.4375 28.9921 33.8204 24.375 28.125 24.375C22.4296 24.375 17.8125 28.9921 17.8125 34.6875C17.8125 40.3829 22.4296 45 28.125 45Z" fill="#CCD3EB"/>
<path d="M28.125 42.1875C25.6347 42.1859 23.2292 41.2832 21.3526 39.6461C19.476 38.0091 18.2552 35.7483 17.9156 33.2812C17.7072 34.7437 17.8155 36.2338 18.233 37.6507C18.6505 39.0677 19.3675 40.3784 20.3356 41.4942C21.3036 42.6099 22.5001 43.5047 23.844 44.1179C25.1879 44.7312 26.6478 45.0485 28.125 45.0485C29.6022 45.0485 31.0621 44.7312 32.406 44.1179C33.7499 43.5047 34.9464 42.6099 35.9144 41.4942C36.8825 40.3784 37.5995 39.0677 38.017 37.6507C38.4345 36.2338 38.5428 34.7437 38.3344 33.2812C37.9948 35.7483 36.774 38.0091 34.8974 39.6461C33.0208 41.2832 30.6153 42.1859 28.125 42.1875Z" fill="#96A1C3"/>
<path d="M28.125 39.375C30.7138 39.375 32.8125 37.2763 32.8125 34.6875C32.8125 32.0987 30.7138 30 28.125 30C25.5362 30 23.4375 32.0987 23.4375 34.6875C23.4375 37.2763 25.5362 39.375 28.125 39.375Z" fill="#2276FF"/>
<path d="M53.4375 6.5625V29.0625C53.4375 29.8084 53.1412 30.5238 52.6137 31.0512C52.0863 31.5787 51.3709 31.875 50.625 31.875H31.875L28.125 35.625L24.375 31.875H5.625C4.87908 31.875 4.16371 31.5787 3.63626 31.0512C3.10882 30.5238 2.8125 29.8084 2.8125 29.0625V6.5625C2.8125 5.81658 3.10882 5.10121 3.63626 4.57376C4.16371 4.04632 4.87908 3.75 5.625 3.75H50.625C51.3709 3.75 52.0863 4.04632 52.6137 4.57376C53.1412 5.10121 53.4375 5.81658 53.4375 6.5625Z" fill="#F5F7FF"/>
<path d="M53.4386 6.5625V18.0469C44.4949 21.5063 36.2542 12.0281 40.5011 3.75H50.6261C51.372 3.75 52.0874 4.04632 52.6148 4.57376C53.1423 5.10121 53.4386 5.81658 53.4386 6.5625Z" fill="#CCD3EB"/>
<path d="M53.4375 26.25V29.0625C53.4375 29.8084 53.1412 30.5238 52.6137 31.0512C52.0863 31.5787 51.3709 31.875 50.625 31.875H31.875L28.125 35.625L24.375 31.875H5.625C4.87908 31.875 4.16371 31.5787 3.63626 31.0512C3.10882 30.5238 2.8125 29.8084 2.8125 29.0625V26.25C2.8125 26.9959 3.10882 27.7113 3.63626 28.2387C4.16371 28.7662 4.87908 29.0625 5.625 29.0625H50.625C51.3709 29.0625 52.0863 28.7662 52.6137 28.2387C53.1412 27.7113 53.4375 26.9959 53.4375 26.25Z" fill="#CCD3EB"/>
<path d="M12.1875 16.875H8.4375C7.91973 16.875 7.5 17.2947 7.5 17.8125V27.1875C7.5 27.7053 7.91973 28.125 8.4375 28.125H12.1875C12.7053 28.125 13.125 27.7053 13.125 27.1875V17.8125C13.125 17.2947 12.7053 16.875 12.1875 16.875Z" fill="#CCD3EB"/>
<path d="M21.5625 13.125H17.8125C17.2947 13.125 16.875 13.5447 16.875 14.0625V27.1875C16.875 27.7053 17.2947 28.125 17.8125 28.125H21.5625C22.0803 28.125 22.5 27.7053 22.5 27.1875V14.0625C22.5 13.5447 22.0803 13.125 21.5625 13.125Z" fill="#96A1C3"/>
<path d="M30.9375 9.375H27.1875C26.6697 9.375 26.25 9.79473 26.25 10.3125V27.1875C26.25 27.7053 26.6697 28.125 27.1875 28.125H30.9375C31.4553 28.125 31.875 27.7053 31.875 27.1875V10.3125C31.875 9.79473 31.4553 9.375 30.9375 9.375Z" fill="#2276FF"/>
<path d="M49.6875 15.9375C53.8296 15.9375 57.1875 12.5796 57.1875 8.4375C57.1875 4.29536 53.8296 0.9375 49.6875 0.9375C45.5454 0.9375 42.1875 4.29536 42.1875 8.4375C42.1875 12.5796 45.5454 15.9375 49.6875 15.9375Z" fill="#2276FF"/>
<path d="M48.8192 11.184C48.3129 11.184 48.2942 11.0434 46.2879 9.02777C46.1343 8.84843 46.0541 8.61773 46.0632 8.38178C46.0723 8.14584 46.1701 7.92202 46.3371 7.75506C46.5041 7.58809 46.7279 7.49028 46.9638 7.48117C47.1998 7.47205 47.4305 7.55231 47.6098 7.7059L48.8192 8.91527L51.7723 5.97152C51.9517 5.81794 52.1823 5.73768 52.4183 5.74679C52.6542 5.75591 52.8781 5.85372 53.045 6.02068C53.212 6.18765 53.3098 6.41146 53.3189 6.64741C53.328 6.88336 53.2478 7.11405 53.0942 7.2934L49.4848 10.9028C49.398 10.9914 49.2944 11.0618 49.1802 11.1101C49.0659 11.1584 48.9432 11.1835 48.8192 11.184Z" fill="#F5F7FF"/>
<path d="M35.625 24.375H39.375V28.125H35.625V24.375Z" fill="#96A1C3"/>
<path d="M35.625 16.875H39.375V20.625H35.625V16.875Z" fill="#2276FF"/>
<path d="M37.5 4.6875H39.375C39.6236 4.6875 39.8621 4.58873 40.0379 4.41291C40.2137 4.2371 40.3125 3.99864 40.3125 3.75C40.3125 3.50136 40.2137 3.2629 40.0379 3.08709C39.8621 2.91127 39.6236 2.8125 39.375 2.8125H37.5C37.2514 2.8125 37.0129 2.91127 36.8371 3.08709C36.6613 3.2629 36.5625 3.50136 36.5625 3.75C36.5625 3.99864 36.6613 4.2371 36.8371 4.41291C37.0129 4.58873 37.2514 4.6875 37.5 4.6875Z" fill="#033C59"/>
<path d="M8.4375 15.9375C7.94022 15.9375 7.46331 16.135 7.11167 16.4867C6.76004 16.8383 6.5625 17.3152 6.5625 17.8125V27.1875C6.5625 27.6848 6.76004 28.1617 7.11167 28.5133C7.46331 28.865 7.94022 29.0625 8.4375 29.0625H12.1875C12.6848 29.0625 13.1617 28.865 13.5133 28.5133C13.865 28.1617 14.0625 27.6848 14.0625 27.1875V17.8125C14.0625 17.3152 13.865 16.8383 13.5133 16.4867C13.1617 16.135 12.6848 15.9375 12.1875 15.9375H8.4375ZM8.4375 27.1875V17.8125H12.1875V27.1875H8.4375Z" fill="#033C59"/>
<path d="M17.8125 12.1875C17.3152 12.1875 16.8383 12.385 16.4867 12.7367C16.135 13.0883 15.9375 13.5652 15.9375 14.0625V27.1875C15.9375 27.6848 16.135 28.1617 16.4867 28.5133C16.8383 28.865 17.3152 29.0625 17.8125 29.0625H21.5625C22.0598 29.0625 22.5367 28.865 22.8883 28.5133C23.24 28.1617 23.4375 27.6848 23.4375 27.1875V14.0625C23.4375 13.5652 23.24 13.0883 22.8883 12.7367C22.5367 12.385 22.0598 12.1875 21.5625 12.1875H17.8125ZM17.8125 27.1875V14.0625H21.5625V27.1875H17.8125Z" fill="#033C59"/>
<path d="M27.1875 8.4375C26.6902 8.4375 26.2133 8.63504 25.8617 8.98668C25.51 9.33831 25.3125 9.81522 25.3125 10.3125V27.1875C25.3125 27.6848 25.51 28.1617 25.8617 28.5133C26.2133 28.865 26.6902 29.0625 27.1875 29.0625H30.9375C31.4348 29.0625 31.9117 28.865 32.2633 28.5133C32.615 28.1617 32.8125 27.6848 32.8125 27.1875V10.3125C32.8125 9.81522 32.615 9.33831 32.2633 8.98668C31.9117 8.63504 31.4348 8.4375 30.9375 8.4375H27.1875ZM27.1875 27.1875V10.3125H30.9375V27.1875H27.1875Z" fill="#033C59"/>
<path d="M58.125 8.43718C58.128 6.64549 57.5607 4.89935 56.505 3.45166C55.4494 2.00397 53.9603 0.929892 52.2535 0.385003C50.5467 -0.159885 48.7107 -0.147297 47.0115 0.420943C45.3123 0.989184 43.8381 2.08357 42.8025 3.5456C41.7668 5.00764 41.2234 6.7614 41.251 8.55287C41.2786 10.3444 41.8758 12.0805 42.956 13.51C44.0363 14.9394 45.5435 15.9878 47.2594 16.5034C48.9753 17.019 50.8108 16.975 52.5 16.3778V29.0622C52.5 29.5595 52.3025 30.0364 51.9508 30.388C51.5992 30.7396 51.1223 30.9372 50.625 30.9372H31.875C31.7516 30.9365 31.6293 30.9601 31.5151 31.0068C31.4009 31.0534 31.297 31.1222 31.2094 31.2091L28.125 34.3028L25.0406 31.2091C24.953 31.1222 24.8491 31.0534 24.7349 31.0068C24.6207 30.9601 24.4984 30.9365 24.375 30.9372H5.625C5.12772 30.9372 4.65081 30.7396 4.29917 30.388C3.94754 30.0364 3.75 29.5595 3.75 29.0622V6.56218C3.75 6.0649 3.94754 5.58799 4.29917 5.23636C4.65081 4.88473 5.12772 4.68718 5.625 4.68718H33.75C33.9986 4.68718 34.2371 4.58841 34.4129 4.41259C34.5887 4.23678 34.6875 3.99832 34.6875 3.74968C34.6875 3.50104 34.5887 3.26258 34.4129 3.08677C34.2371 2.91095 33.9986 2.81218 33.75 2.81218H5.625C4.63044 2.81218 3.67661 3.20727 2.97335 3.91053C2.27009 4.61379 1.875 5.56762 1.875 6.56218V29.0622C1.875 30.0567 2.27009 31.0106 2.97335 31.7138C3.67661 32.4171 4.63044 32.8122 5.625 32.8122C5.83125 32.8122 5.625 32.6716 5.625 34.6872C5.62974 38.1312 6.42505 41.5282 7.94966 44.6165C9.47426 47.7047 11.6875 50.4017 14.4187 52.4997L11.3531 58.6309C11.279 58.774 11.243 58.9337 11.2486 59.0947C11.2542 59.2557 11.3012 59.4126 11.3851 59.5502C11.4689 59.6877 11.5868 59.8014 11.7274 59.8801C11.8679 59.9588 12.0264 60 12.1875 59.9997H17.8125C17.9856 59.9992 18.1552 59.9507 18.3025 59.8597C18.4498 59.7687 18.569 59.6387 18.6469 59.4841L20.475 55.8466C25.4226 57.6282 30.8367 57.6282 35.7844 55.8466L37.6031 59.4747C37.6797 59.631 37.7984 59.763 37.9457 59.8557C38.0931 59.9484 38.2634 59.9983 38.4375 59.9997H44.0625C44.2223 59.9992 44.3793 59.9579 44.5187 59.8796C44.658 59.8014 44.7751 59.6888 44.8587 59.5526C44.9423 59.4164 44.9897 59.2611 44.9963 59.1014C45.003 58.9418 44.9688 58.783 44.8969 58.6403L41.85 52.4997C44.4595 50.5014 46.598 47.9542 48.1143 45.0381C49.6307 42.1221 50.4878 38.9085 50.625 35.6247C50.625 35.376 50.5262 35.1376 50.3504 34.9618C50.1746 34.786 49.9361 34.6872 49.6875 34.6872C49.4389 34.6872 49.2004 34.786 49.0246 34.9618C48.8488 35.1376 48.75 35.376 48.75 35.6247C48.5787 39.5675 47.2767 43.3779 44.9994 46.6011C42.722 49.8243 39.5654 52.3243 35.9062 53.8028C35.8751 53.7987 35.8436 53.7987 35.8125 53.8028C32.5374 55.1162 28.9801 55.5673 25.4808 55.1131C21.9815 54.6588 18.6573 53.3144 15.826 51.2084C12.9948 49.1023 10.7512 46.3051 9.30988 43.0843C7.86855 39.8634 7.27767 36.3266 7.59375 32.8122H11.3438C11.0694 35.1765 11.2983 37.5722 12.0154 39.8418C12.7325 42.1114 13.9217 44.2037 15.5048 45.9811C17.0879 47.7585 19.0291 49.181 21.2009 50.155C23.3727 51.129 25.726 51.6325 28.1062 51.6325C30.4865 51.6325 32.8398 51.129 35.0116 50.155C37.1834 49.181 39.1246 47.7585 40.7077 45.9811C42.2908 44.2037 43.48 42.1114 44.1971 39.8418C44.9142 37.5722 45.1431 35.1765 44.8688 32.8122H50.625C51.6196 32.8122 52.5734 32.4171 53.2766 31.7138C53.9799 31.0106 54.375 30.0567 54.375 29.0622V15.4497C55.5283 14.6791 56.4739 13.6361 57.1279 12.4129C57.782 11.1898 58.1245 9.82424 58.125 8.43718ZM42.5438 58.1247H39.0187L37.5 55.1434C38.4699 54.7031 39.4095 54.1989 40.3125 53.6341L42.5438 58.1247ZM17.2312 58.1247H13.7063L15.9375 53.6059C16.8369 54.1798 17.7769 54.6873 18.75 55.1247L17.2312 58.1247ZM28.125 44.0622C26.737 44.0583 25.3672 43.7463 24.1145 43.1486C22.8618 42.551 21.7574 41.6827 20.8811 40.6063C20.0047 39.53 19.3783 38.2725 19.0471 36.9246C18.7159 35.5767 18.688 34.1721 18.9656 32.8122H22.8281C22.5247 33.6611 22.4298 34.5705 22.5514 35.4638C22.673 36.3571 23.0074 37.208 23.5267 37.945C24.0459 38.682 24.7347 39.2834 25.5349 39.6985C26.3352 40.1136 27.2235 40.3303 28.125 40.3303C29.0265 40.3303 29.9148 40.1136 30.7151 39.6985C31.5153 39.2834 32.2041 38.682 32.7233 37.945C33.2426 37.208 33.577 36.3571 33.6986 35.4638C33.8202 34.5705 33.7253 33.6611 33.4219 32.8122H37.2844C37.562 34.1721 37.5341 35.5767 37.2029 36.9246C36.8717 38.2725 36.2453 39.53 35.3689 40.6063C34.4926 41.6827 33.3882 42.551 32.1355 43.1486C30.8828 43.7463 29.513 44.0583 28.125 44.0622ZM27.4594 36.2903C27.5465 36.3782 27.6502 36.4479 27.7645 36.4955C27.8787 36.5431 28.0012 36.5676 28.125 36.5676C28.2488 36.5676 28.3713 36.5431 28.4855 36.4955C28.5998 36.4479 28.7035 36.3782 28.7906 36.2903L31.6031 33.4309C31.8136 33.998 31.8838 34.6076 31.8077 35.2076C31.7316 35.8077 31.5115 36.3804 31.1661 36.877C30.8208 37.3736 30.3604 37.7793 29.8243 38.0594C29.2883 38.3396 28.6924 38.4859 28.0875 38.4859C27.4826 38.4859 26.8867 38.3396 26.3507 38.0594C25.8146 37.7793 25.3542 37.3736 25.0089 36.877C24.6635 36.3804 24.4434 35.8077 24.3673 35.2076C24.2912 34.6076 24.3614 33.998 24.5719 33.4309L27.4594 36.2903ZM28.125 49.6872C25.998 49.6853 23.8958 49.231 21.9577 48.3546C20.0197 47.4781 18.2902 46.1995 16.8841 44.6037C15.478 43.0078 14.4273 41.1311 13.8018 39.0981C13.1763 37.0652 12.9904 34.9225 13.2563 32.8122H17.0062C16.7317 34.4261 16.8126 36.0804 17.2434 37.6598C17.6743 39.2391 18.4446 40.7054 19.5006 41.9563C20.5567 43.2072 21.873 44.2126 23.3577 44.9022C24.8425 45.5918 26.4598 45.9491 28.0969 45.9491C29.7339 45.9491 31.3513 45.5918 32.836 44.9022C34.3207 44.2126 35.6371 43.2072 36.6931 41.9563C37.7492 40.7054 38.5195 39.2391 38.9503 37.6598C39.3811 36.0804 39.4621 34.4261 39.1875 32.8122H42.9375C43.2028 34.9178 43.0183 37.0557 42.3961 39.0848C41.774 41.1138 40.7283 42.9877 39.3283 44.5826C37.9283 46.1776 36.2057 47.4573 34.2745 48.3373C32.3432 49.2172 30.2472 49.6773 28.125 49.6872ZM43.125 8.43718C43.125 7.13924 43.5099 5.87045 44.231 4.79125C44.9521 3.71205 45.977 2.87092 47.1761 2.37422C48.3753 1.87752 49.6948 1.74756 50.9678 2.00078C52.2408 2.25399 53.4101 2.87901 54.3279 3.79679C55.2457 4.71458 55.8707 5.8839 56.1239 7.1569C56.3771 8.4299 56.2472 9.7494 55.7505 10.9485C55.2538 12.1477 54.4126 13.1726 53.3334 13.8937C52.2542 14.6148 50.9854 14.9997 49.6875 14.9997C47.947 14.9997 46.2778 14.3083 45.0471 13.0776C43.8164 11.8469 43.125 10.1777 43.125 8.43718Z" fill="#033C59"/>
<path d="M39.375 23.4375H35.625C35.3764 23.4375 35.1379 23.5363 34.9621 23.7121C34.7863 23.8879 34.6875 24.1264 34.6875 24.375V28.125C34.6875 28.3736 34.7863 28.6121 34.9621 28.7879C35.1379 28.9637 35.3764 29.0625 35.625 29.0625H39.375C39.6236 29.0625 39.8621 28.9637 40.0379 28.7879C40.2137 28.6121 40.3125 28.3736 40.3125 28.125V24.375C40.3125 24.1264 40.2137 23.8879 40.0379 23.7121C39.8621 23.5363 39.6236 23.4375 39.375 23.4375ZM38.4375 27.1875H36.5625V25.3125H38.4375V27.1875Z" fill="#033C59"/>
<path d="M34.6875 20.625C34.6875 20.8736 34.7863 21.1121 34.9621 21.2879C35.1379 21.4637 35.3764 21.5625 35.625 21.5625H39.375C39.6236 21.5625 39.8621 21.4637 40.0379 21.2879C40.2137 21.1121 40.3125 20.8736 40.3125 20.625V16.875C40.3125 16.6264 40.2137 16.3879 40.0379 16.2121C39.8621 16.0363 39.6236 15.9375 39.375 15.9375H35.625C35.3764 15.9375 35.1379 16.0363 34.9621 16.2121C34.7863 16.3879 34.6875 16.6264 34.6875 16.875V20.625ZM36.5625 17.8125H38.4375V19.6875H36.5625V17.8125Z" fill="#033C59"/>
<path d="M43.125 19.6875H45C45.2486 19.6875 45.4871 19.5887 45.6629 19.4129C45.8387 19.2371 45.9375 18.9986 45.9375 18.75C45.9375 18.5014 45.8387 18.2629 45.6629 18.0871C45.4871 17.9113 45.2486 17.8125 45 17.8125H43.125C42.8764 17.8125 42.6379 17.9113 42.4621 18.0871C42.2863 18.2629 42.1875 18.5014 42.1875 18.75C42.1875 18.9986 42.2863 19.2371 42.4621 19.4129C42.6379 19.5887 42.8764 19.6875 43.125 19.6875Z" fill="#96A1C3"/>
<path d="M49.6875 25.3125H43.125C42.8764 25.3125 42.6379 25.4113 42.4621 25.5871C42.2863 25.7629 42.1875 26.0014 42.1875 26.25C42.1875 26.4986 42.2863 26.7371 42.4621 26.9129C42.6379 27.0887 42.8764 27.1875 43.125 27.1875H49.6875C49.9361 27.1875 50.1746 27.0887 50.3504 26.9129C50.5262 26.7371 50.625 26.4986 50.625 26.25C50.625 26.0014 50.5262 25.7629 50.3504 25.5871C50.1746 25.4113 49.9361 25.3125 49.6875 25.3125Z" fill="#96A1C3"/>
<path d="M9.375 12.1875H7.5C7.25136 12.1875 7.0129 12.2863 6.83709 12.4621C6.66127 12.6379 6.5625 12.8764 6.5625 13.125C6.5625 13.3736 6.66127 13.6121 6.83709 13.7879C7.0129 13.9637 7.25136 14.0625 7.5 14.0625H9.375C9.62364 14.0625 9.8621 13.9637 10.0379 13.7879C10.2137 13.6121 10.3125 13.3736 10.3125 13.125C10.3125 12.8764 10.2137 12.6379 10.0379 12.4621C9.8621 12.2863 9.62364 12.1875 9.375 12.1875Z" fill="#96A1C3"/>
<path d="M9.375 8.4375H7.5C7.25136 8.4375 7.0129 8.53627 6.83709 8.71209C6.66127 8.8879 6.5625 9.12636 6.5625 9.375C6.5625 9.62364 6.66127 9.8621 6.83709 10.0379C7.0129 10.2137 7.25136 10.3125 7.5 10.3125H9.375C9.62364 10.3125 9.8621 10.2137 10.0379 10.0379C10.2137 9.8621 10.3125 9.62364 10.3125 9.375C10.3125 9.12636 10.2137 8.8879 10.0379 8.71209C9.8621 8.53627 9.62364 8.4375 9.375 8.4375Z" fill="#96A1C3"/>
</g>
<defs>
<clipPath id="clip0_1191_48104">
<rect width="60" height="60" fill="white"/>
</clipPath>
</defs>
</svg>
