<svg width="62" height="62" viewBox="0 0 62 62" fill="none" xmlns="http://www.w3.org/2000/svg">
<g clip-path="url(#clip0_1457_32715)">
<path d="M47.5499 42.6188C55.1219 34.9923 56.3804 23.8952 50.3606 17.8322C44.3416 11.7699 33.3248 13.0373 25.7532 20.6633C18.1816 28.2896 20.3719 42.8598 22.943 45.4499C25.0206 47.5426 39.9787 50.2448 47.5499 42.6188Z" fill="#F89939"/>
<path d="M16.4863 31.5985C12.0936 27.174 5.70087 26.4374 2.20761 29.9557C-1.28476 33.4736 -0.554588 39.9136 3.83899 44.3374C8.23257 48.7633 16.626 47.4831 18.1168 45.9802C19.3232 44.7671 20.8803 36.0234 16.4863 31.5985Z" fill="#3499CD"/>
<path d="M31.6376 40.7496C30.8616 41.4691 30.1808 42.0001 29.5957 42.3412C29.0106 42.6835 28.4526 42.8544 27.9216 42.8544C27.3108 42.8544 26.8181 42.616 26.4445 42.1388C26.0702 41.6612 25.8838 41.0207 25.8838 40.215C25.8838 39.0078 26.1436 37.5584 26.6632 35.8686C27.1818 34.1774 27.8134 32.6191 28.5552 31.1935L30.7303 30.3823C30.7985 30.3594 30.8504 30.3477 30.8848 30.3477C31.0498 30.3477 31.1862 30.4702 31.2908 30.714C31.3966 30.959 31.4498 31.2883 31.4498 31.7022C31.4498 32.8752 31.1817 34.0108 30.6445 35.1091C30.1075 36.2077 29.2686 37.3803 28.1271 38.6281C28.0812 39.2262 28.0584 39.6369 28.0584 39.8614C28.0584 40.362 28.1497 40.7581 28.3323 41.0516C28.5152 41.3454 28.7575 41.4914 29.0603 41.4914C29.369 41.4914 29.697 41.3801 30.0453 41.1558C30.393 40.9311 30.9239 40.4659 31.6373 39.7581V40.7496H31.6376ZM28.3583 37.3778C29.0831 36.566 29.6717 35.6556 30.1224 34.6483C30.5731 33.6406 30.7983 32.7738 30.7983 32.0476C30.7983 31.8359 30.7672 31.6639 30.7048 31.5346C30.642 31.4051 30.5615 31.3401 30.4647 31.3401C30.2543 31.3401 29.9469 31.8697 29.5443 32.9292C29.1416 33.9885 28.7464 35.4716 28.3583 37.3778Z" fill="#010101"/>
<path d="M38.0461 40.7495C37.3213 41.469 36.6707 42 36.0939 42.3411C35.5171 42.6834 34.8812 42.8543 34.1844 42.8543C33.4079 42.8543 32.7815 42.6041 32.3041 42.1045C31.8277 41.6034 31.5898 40.9456 31.5898 40.1289C31.5898 38.9101 32.009 37.8074 32.8492 36.8213C33.6876 35.8347 34.6185 35.3418 35.6402 35.3418C36.1712 35.3418 36.596 35.4803 36.9162 35.7561C37.2359 36.0325 37.3957 36.3943 37.3957 36.8429C37.3957 38.0335 36.1399 38.9989 33.6281 39.7409C33.8562 40.8616 34.4526 41.4228 35.4176 41.4228C35.7945 41.4228 36.1538 41.3208 36.4961 41.1172C36.8392 40.9128 37.3555 40.4592 38.0463 39.7582L38.0461 40.7495ZM33.559 39.1543C35.0201 38.7399 35.7511 37.9756 35.7511 36.86C35.7511 36.3081 35.551 36.0322 35.152 36.0322C34.775 36.0322 34.4158 36.3207 34.0735 36.8992C33.7301 37.4768 33.559 38.2281 33.559 39.1543Z" fill="#010101"/>
<path d="M47.1952 40.7495C46.2817 41.6235 45.628 42.1934 45.2345 42.4583C44.8406 42.7226 44.4639 42.8546 44.1039 42.8546C43.2018 42.8546 42.7768 42.0527 42.828 40.4482C42.2572 41.2702 41.7303 41.8768 41.2478 42.2687C40.7658 42.6596 40.2679 42.8546 39.7535 42.8546C39.2518 42.8546 38.8252 42.6179 38.4735 42.1435C38.1219 41.669 37.9473 41.0871 37.9473 40.3964C37.9473 39.5344 38.1822 38.712 38.6529 37.9295C39.1244 37.1474 39.728 36.5155 40.4642 36.0325C41.2004 35.5495 41.8519 35.3076 42.4164 35.3076C43.1303 35.3076 43.6299 35.6384 43.9154 36.2993L45.6655 35.3252H46.1458L45.3899 37.852C45.0018 39.1232 44.807 39.9945 44.807 40.4658C44.807 40.9601 44.9807 41.2073 45.3293 41.2073C45.5511 41.2073 45.7965 41.0882 46.0651 40.8493C46.3336 40.6104 46.7096 40.2467 47.1947 39.758V40.7495H47.1952ZM40.927 41.2245C41.4978 41.2245 42.0357 40.7345 42.5418 39.7542C43.0471 38.7735 43.2995 37.8687 43.2995 37.0409C43.2995 36.7193 43.2275 36.4673 43.0856 36.2865C42.9422 36.1048 42.7511 36.0147 42.5119 36.0147C41.9407 36.0147 41.3992 36.5034 40.8892 37.4811C40.3784 38.4589 40.1224 39.3588 40.1224 40.1803C40.1224 40.4912 40.1984 40.7428 40.3495 40.9355C40.5006 41.1283 40.6925 41.2245 40.927 41.2245Z" fill="#010101"/>
<path d="M53.5933 40.7498C52.1602 42.1642 51.0553 42.872 50.2791 42.872C49.9305 42.872 49.6363 42.7238 49.3971 42.4286C49.1579 42.1322 49.0374 41.7654 49.0374 41.3281C49.0374 40.5174 49.4689 39.4311 50.3307 38.068C49.908 38.2867 49.4461 38.4384 48.9435 38.5249C48.5724 39.2149 47.9897 39.9569 47.1965 40.7495H47V39.9742C47.4449 39.5085 47.8475 39.0079 48.2073 38.4731C47.7156 38.2545 47.4706 37.9295 47.4706 37.4989C47.4706 37.0555 47.62 36.5829 47.9204 36.0791C48.22 35.5765 48.6323 35.3252 49.1579 35.3252C49.6032 35.3252 49.8255 35.5544 49.8255 36.0147C49.8255 36.377 49.6971 36.8943 49.4398 37.5674C50.3873 37.4636 51.2152 36.734 51.9234 35.3765L52.7024 35.3419L51.906 37.5498C51.5751 38.4814 51.3609 39.116 51.2641 39.452C51.1673 39.788 51.1184 40.0861 51.1184 40.3444C51.1184 40.5863 51.1743 40.7795 51.2851 40.9223C51.3965 41.0671 51.5467 41.1382 51.735 41.1382C51.9402 41.1382 52.1376 41.0675 52.3259 40.9274C52.5141 40.7854 52.9367 40.3962 53.5935 39.758V40.7498H53.5933Z" fill="#010101"/>
<path d="M62.0032 40.7503C60.6846 42.1541 59.5536 42.8554 58.6121 42.8554C58.2296 42.8554 57.9213 42.7202 57.6872 42.4498C57.4527 42.1798 57.3358 41.8177 57.3358 41.3635C57.3358 40.7483 57.5873 39.8079 58.0899 38.5434C58.3579 37.8647 58.4925 37.4328 58.4925 37.2495C58.4925 37.0653 58.4205 36.9732 58.2786 36.9732C58.1987 36.9732 58.0925 37.0137 57.9615 37.0937C57.841 37.1741 57.7013 37.2871 57.5414 37.4306C57.399 37.5625 57.2387 37.7235 57.0619 37.9127C56.9074 38.075 56.7417 38.2588 56.5658 38.4651L56.0856 39.0262C55.8747 39.2848 55.7433 39.5575 55.6921 39.8453C55.606 40.3339 55.5492 40.7829 55.5204 41.1917C55.5029 41.4957 55.4947 41.9064 55.4947 42.425L53.6022 42.8727C53.5398 42.0965 53.5078 41.5184 53.5078 41.1394C53.5078 40.2137 53.6149 39.3366 53.8293 38.5088C54.0433 37.6801 54.3869 36.7491 54.8611 35.7137L56.9501 35.3086C56.5108 36.4992 56.2226 37.436 56.0856 38.1199C57.0219 37.0678 57.7641 36.3395 58.3143 35.9335C58.8636 35.5279 59.3528 35.3262 59.7803 35.3262C60.0707 35.3262 60.3135 35.4365 60.5069 35.6574C60.7011 35.8785 60.7977 36.1562 60.7977 36.4881C60.7977 37.0396 60.5522 37.9483 60.062 39.2138C59.7248 40.0817 59.5563 40.6449 59.5563 40.905C59.5563 41.2511 59.6964 41.4241 59.9768 41.4241C60.3942 41.4241 61.0703 40.869 62.0032 39.7592V40.7503Z" fill="#010101"/>
<path d="M44.7462 28.5083H45.2047V29.2671H45.6356V29.6401H45.2047V31.414C45.2047 31.5087 45.2366 31.5722 45.3005 31.6043C45.3357 31.6229 45.3945 31.6322 45.4768 31.6322C45.4987 31.6322 45.5222 31.6322 45.5474 31.6322C45.5726 31.6305 45.602 31.628 45.6356 31.6246V31.985C45.5835 32.0002 45.5289 32.0112 45.4718 32.018C45.4164 32.0247 45.3559 32.0281 45.2904 32.0281C45.0788 32.0281 44.9351 31.974 44.8596 31.8657C44.784 31.7557 44.7462 31.6136 44.7462 31.4394V29.6401H44.3809V29.2671H44.7462V28.5083Z" fill="white"/>
<path d="M43.5029 29.2795H43.964V31.9847H43.5029V29.2795ZM43.5029 28.2568H43.964V28.7745H43.5029V28.2568Z" fill="white"/>
<path d="M40.915 28.2568H41.3509V30.4215L42.5149 29.2668H43.0944L42.0614 30.2845L43.1523 31.9847H42.5728L41.7313 30.6144L41.3509 30.9646V31.9847H40.915V28.2568Z" fill="white"/>
<path d="M39.7793 29.2795H40.2404V31.9847H39.7793V29.2795ZM39.7793 28.2568H40.2404V28.7745H39.7793V28.2568Z" fill="white"/>
<path d="M38.2342 29.1885C38.5382 29.1885 38.7851 29.2629 38.9749 29.4118C39.1664 29.5607 39.2815 29.817 39.3201 30.1807H38.8792C38.8523 30.0132 38.791 29.8745 38.6953 29.7645C38.5995 29.6529 38.4459 29.597 38.2342 29.597C37.9453 29.597 37.7387 29.7392 37.6144 30.0234C37.5338 30.2078 37.4935 30.4353 37.4935 30.706C37.4935 30.9784 37.5506 31.2077 37.6648 31.3938C37.779 31.5799 37.9588 31.6729 38.204 31.6729C38.3921 31.6729 38.5408 31.6154 38.6499 31.5003C38.7608 31.3836 38.8372 31.2246 38.8792 31.0232H39.3201C39.2697 31.3836 39.1438 31.6475 38.9422 31.815C38.7406 31.9808 38.4828 32.0637 38.1687 32.0637C37.816 32.0637 37.5347 31.9343 37.3247 31.6754C37.1147 31.4149 37.0098 31.0901 37.0098 30.701C37.0098 30.2239 37.1248 29.8525 37.3549 29.5869C37.585 29.3213 37.8781 29.1885 38.2342 29.1885Z" fill="white"/>
<path d="M34.887 31.1326C34.9005 31.2848 34.9383 31.4016 35.0004 31.4828C35.1146 31.63 35.3128 31.7036 35.595 31.7036C35.763 31.7036 35.9108 31.6672 36.0384 31.5944C36.1661 31.52 36.2299 31.4058 36.2299 31.2518C36.2299 31.1351 36.1787 31.0463 36.0762 30.9854C36.0107 30.9482 35.8814 30.905 35.6882 30.856L35.3279 30.7646C35.0978 30.7071 34.9282 30.6428 34.819 30.5717C34.6242 30.4482 34.5268 30.2774 34.5268 30.0591C34.5268 29.802 34.6183 29.5939 34.8014 29.4348C34.9861 29.2758 35.2339 29.1963 35.5446 29.1963C35.9511 29.1963 36.2442 29.3164 36.4239 29.5566C36.5364 29.7089 36.591 29.873 36.5877 30.049H36.1594C36.151 29.9458 36.1149 29.8519 36.051 29.7673C35.9469 29.6472 35.7663 29.5871 35.5093 29.5871C35.338 29.5871 35.2079 29.6201 35.1188 29.6861C35.0315 29.752 34.9878 29.8392 34.9878 29.9475C34.9878 30.0659 35.0458 30.1606 35.1617 30.2317C35.2288 30.274 35.3279 30.3112 35.459 30.3433L35.7588 30.4169C36.0846 30.4964 36.303 30.5734 36.4138 30.6479C36.5902 30.7646 36.6784 30.9482 36.6784 31.1986C36.6784 31.4405 36.5868 31.6494 36.4038 31.8254C36.2224 32.0013 35.9452 32.0893 35.5723 32.0893C35.1709 32.0893 34.8862 31.9979 34.7182 31.8152C34.552 31.6308 34.4629 31.4033 34.4512 31.1326H34.887Z" fill="white"/>
</g>
<defs>
<clipPath id="clip0_1457_32715">
<rect width="62" height="62" fill="white"/>
</clipPath>
</defs>
</svg>
