<svg width="125" height="125" viewBox="0 0 125 125" fill="none" xmlns="http://www.w3.org/2000/svg">
<circle cx="62.5" cy="62.5" r="62.5" fill="white"/>
<g clip-path="url(#clip0_732_17672)">
<path d="M63.0838 94.6849C80.9973 94.6849 95.5191 80.1865 95.5191 62.3019C95.5191 44.4173 80.9973 29.9189 63.0838 29.9189C45.1702 29.9189 30.6484 44.4173 30.6484 62.3019C30.6484 80.1865 45.1702 94.6849 63.0838 94.6849Z" fill="white"/>
<path d="M63.0876 30.633C70.4194 30.6378 77.5227 33.1845 83.1874 37.8393C88.8521 42.494 92.7277 48.9687 94.154 56.1605C95.5803 63.3522 94.469 70.816 91.0094 77.2802C87.5498 83.7445 81.956 88.8093 75.181 91.6118C68.4059 94.4143 60.8688 94.7811 53.8536 92.6497C46.8384 90.5184 40.7793 86.0207 36.7083 79.9229C32.6374 73.8251 30.8066 66.5045 31.5278 59.2083C32.2489 51.9121 35.4775 45.0916 40.6635 39.9088C43.6039 36.9565 47.1001 34.6161 50.9502 33.0228C54.8003 31.4295 58.928 30.6148 63.0947 30.6259M63.0947 29.1978C44.786 29.1978 29.9453 44.0147 29.9453 62.2829C29.9453 80.5511 44.7789 95.4085 63.0876 95.4085C81.3963 95.4085 96.237 80.5916 96.237 62.3234C96.237 44.0551 81.3963 29.2049 63.0876 29.2049L63.0947 29.1978Z" fill="#4385F4"/>
<path d="M63.0526 92.9947C80.0117 92.9947 93.7575 79.268 93.7575 62.335C93.7575 45.4021 80.0117 31.6777 63.0526 31.6777C46.0935 31.6777 32.3477 45.4045 32.3477 62.335C32.3477 79.2656 46.0958 92.9947 63.0526 92.9947Z" stroke="#4385F4" stroke-width="2" stroke-miterlimit="10" stroke-dasharray="3 3"/>
<path d="M65.5029 62.6136H61.7422L62.3848 61.2474L62.9394 59.9668H64.3081L64.8627 61.2474L65.5029 62.6136Z" fill="#FF7058"/>
<path d="M67.8956 62.6135H59.3506C59.1246 62.6141 58.9079 62.704 58.7479 62.8636C58.5879 63.0232 58.4973 63.2396 58.4961 63.4656V66.2386H68.7096V63.4656C68.7173 63.355 68.7018 63.244 68.6641 63.1397C68.6264 63.0353 68.5673 62.9401 68.4907 62.8599C68.4141 62.7797 68.3216 62.7163 68.2192 62.6739C68.1167 62.6315 68.0065 62.6109 67.8956 62.6135Z" fill="#FFD15C"/>
<mask id="mask0_732_17672" style="mask-type:luminance" maskUnits="userSpaceOnUse" x="62" y="59" width="3" height="3">
<path d="M64.8606 61.2472C64.5271 61.4236 64.1847 61.5825 63.8348 61.7233L63.6205 61.7661L63.4087 61.6804C63.0585 61.5401 62.7161 61.3812 62.3828 61.2044L62.9374 59.9238H64.2608L64.8606 61.2472Z" fill="white"/>
</mask>
<g mask="url(#mask0_732_17672)">
<path d="M66.0494 58.7339H61.1914V62.9493H66.0494V58.7339Z" fill="#F1543F"/>
</g>
<path d="M70.2882 45.7593H56.9589C56.8232 45.7611 56.6935 45.8159 56.5974 45.9119C56.5014 46.0079 56.4467 46.1376 56.4448 46.2734C56.4416 46.3437 56.4525 46.4139 56.4767 46.48C56.5009 46.5461 56.538 46.6067 56.5858 46.6583C56.6336 46.7099 56.6913 46.7515 56.7553 46.7806C56.8194 46.8098 56.8886 46.8259 56.9589 46.828H70.2882C70.4236 46.8255 70.5527 46.7705 70.6482 46.6746C70.7437 46.5786 70.7981 46.4492 70.8 46.3139C70.8031 46.2438 70.7924 46.1737 70.7684 46.1078C70.7443 46.0419 70.7074 45.9814 70.6598 45.9298C70.6122 45.8782 70.5549 45.8366 70.4911 45.8073C70.4273 45.7781 70.3583 45.7617 70.2882 45.7593ZM53.3672 48.1062V49.8556C53.3742 51.8867 53.9827 53.8702 55.1158 55.5558C56.249 57.2413 57.8561 58.5535 59.7343 59.3266C62.225 60.3517 65.0198 60.3517 67.5105 59.3266C69.3887 58.5535 70.9958 57.2413 72.1289 55.5558C73.2621 53.8702 73.8706 51.8867 73.8776 49.8556V48.1062H53.3672ZM72.171 49.8556C72.1715 51.8369 71.4756 53.7553 70.2049 55.2754C69.4019 56.2436 68.3966 57.0241 67.2595 57.562C66.1225 58.0999 64.8814 58.3821 63.6236 58.3888C62.3645 58.3915 61.1207 58.1135 59.9826 57.5749C58.8445 57.0363 57.8408 56.2508 57.0446 55.2754C55.7843 53.7494 55.0898 51.8348 55.0786 49.8556V49.8128H72.1281V49.8556H72.171Z" fill="#F8B64C"/>
<path d="M70.2902 46.8281V51.4339C70.2868 53.5323 69.6483 55.5805 68.4587 57.3092C67.2692 59.0379 65.5842 60.366 63.6256 61.119C61.6652 60.3566 59.9804 59.0205 58.7914 57.2854C57.6024 55.5503 56.9644 53.4968 56.9609 51.3934V46.8281H70.2902Z" fill="#FFD15C"/>
<mask id="mask1_732_17672" style="mask-type:luminance" maskUnits="userSpaceOnUse" x="56" y="46" width="15" height="2">
<path d="M70.2458 46.8281H56.957V47.4684H70.2458V46.8281Z" fill="white"/>
</mask>
<g mask="url(#mask1_732_17672)">
<path d="M71.4346 45.6382H55.7656V48.6587H71.4346V45.6382Z" fill="#FFC952"/>
</g>
<path d="M63.0346 51.6836C63.0346 51.6836 62.6513 51.6455 62.6513 51.9835V53.4854H65.1768V53.9353C65.1783 53.9664 65.1731 53.9975 65.1615 54.0264C65.1499 54.0553 65.1322 54.0814 65.1096 54.1029C65.087 54.1244 65.06 54.1407 65.0306 54.1508C65.0011 54.1609 64.9697 54.1645 64.9387 54.1614H62.6537V56.1132H65.4148C65.4148 56.1132 67.0809 55.8585 67.0976 54.1614V51.6836H63.0346ZM66.9476 49.251H62.0349C60.2568 49.6723 60.2188 51.1552 60.2188 51.1552V56.1251H62.1229V51.6026C62.1221 51.4952 62.1576 51.3906 62.2237 51.3059C62.2898 51.2212 62.3827 51.1614 62.4871 51.1361H66.95L66.9476 49.251Z" fill="white"/>
<path opacity="0.5" d="M47.5988 85.9446L47.5727 85.9279C47.5727 85.9279 47.5822 85.935 47.5988 85.9446ZM43.9404 82.9717L43.9214 82.9526C43.9214 82.9526 43.9285 82.9621 43.9404 82.9717ZM36.1523 63.1706V63.1563C36.1523 63.1563 36.1523 63.1634 36.1523 63.1729V63.1706ZM36.5308 59.0671C36.5308 59.0504 36.5308 59.0409 36.5308 59.0433C36.5308 59.0456 36.5284 59.0552 36.5308 59.0694V59.0671ZM37.3948 55.0207C37.3948 55.0207 37.3948 55.0207 37.3948 55.0207Z" fill="#4385F4"/>
<g opacity="0.5">
<path d="M62.4746 87.0277C60.1352 87.1328 57.7944 86.853 55.5457 86.1994C56.3503 85.1569 55.0221 84.1191 53.7487 83.1194L51.0804 81.1272C51.0495 81.151 52.6514 82.7457 52.5086 84.1358C52.4567 84.4519 52.4656 84.7751 52.5348 85.0879C52.1706 84.9189 51.8207 84.7451 51.4589 84.5595C52.3943 83.6621 51.3351 82.3768 50.3164 81.1581C49.2405 79.9275 48.1552 78.7208 48.1528 78.7184C48.1504 78.716 49.3429 80.594 48.9478 81.9626C48.8415 82.2685 48.7915 82.591 48.8002 82.9147C48.4836 82.6767 48.1742 82.453 47.8743 82.2007C48.9263 81.458 48.1599 79.9918 47.3982 78.616C46.5985 77.2188 45.7725 75.8621 45.7725 75.8597C45.7725 75.8573 46.5771 77.8996 45.9439 79.2063C45.7861 79.4949 45.6805 79.8092 45.6321 80.1346C45.3703 79.8553 45.1164 79.5721 44.8704 79.2849C45.9963 78.7065 45.5583 77.1427 45.0799 75.6527C44.5491 74.1412 43.9779 72.725 43.9826 72.7036C43.9874 72.6821 44.4087 74.8267 43.5613 76.0359C43.3555 76.2988 43.1946 76.5939 43.0853 76.9094C42.8822 76.592 42.687 76.2747 42.4997 75.9573C43.6898 75.5384 43.5447 73.9294 43.3328 72.406C43.0734 70.8494 42.7544 69.3831 42.7544 69.3665C42.7544 69.3498 42.8234 71.5087 41.788 72.5703C41.5458 72.8017 41.3417 73.07 41.1835 73.3653C41.0906 73.1487 40.9978 72.9321 40.9097 72.7131C40.8431 72.5441 40.7765 72.3751 40.7146 72.2037C41.9213 71.98 42.0284 70.4542 42.0618 69.0071C42.0618 67.5289 41.9761 66.1317 41.9689 66.1175C41.9618 66.1032 41.7309 68.1002 40.5908 68.9737C40.3254 69.1589 40.0915 69.3855 39.8981 69.645C39.7791 69.188 39.6601 68.731 39.5792 68.2692C40.7693 68.2359 41.1002 66.8411 41.3358 65.4867C41.5714 64.1324 41.6571 62.7994 41.6452 62.7994C41.6333 62.7994 41.1692 64.6013 39.9791 65.2487C39.6968 65.3901 39.4396 65.5766 39.2174 65.8009C39.1603 65.2804 39.1182 64.7591 39.0913 64.2371C40.2385 64.3751 40.7265 63.1184 41.1192 61.8973C41.3637 61.091 41.5671 60.2727 41.7285 59.4457C41.7143 59.4457 41.0597 61.0595 39.8624 61.5022C39.5745 61.5965 39.3042 61.7381 39.0627 61.9211C39.077 61.457 39.1008 60.9928 39.1341 60.5335C39.1341 60.424 39.1531 60.3145 39.1603 60.2074C40.1957 60.4954 40.8407 59.379 41.3358 58.3032C41.8309 57.2273 42.1808 56.0872 42.1808 56.0848C42.1808 56.0824 41.3786 57.513 40.2076 57.7676C39.932 57.8149 39.6659 57.9065 39.4197 58.039C39.5149 57.432 39.6316 56.8274 39.7649 56.2252C40.6741 56.5942 41.3929 55.654 41.9594 54.7138C42.3374 54.062 42.6807 53.3906 42.9877 52.7025C42.9877 52.7025 42.088 53.9759 40.9811 54.0569C40.7429 54.0666 40.5077 54.1131 40.2837 54.1949C40.4646 53.5697 40.6646 52.9445 40.8836 52.3193C41.6548 52.712 42.3974 51.9361 43.0067 51.1292C43.4333 50.5412 43.8259 49.9292 44.1826 49.2964C44.1826 49.2964 43.2114 50.4389 42.1879 50.3723C41.9988 50.3562 41.8083 50.365 41.6214 50.3985C41.8737 49.7923 42.1427 49.1845 42.4283 48.5752L42.4783 48.4562C43.1186 48.8513 43.8588 48.2182 44.4944 47.5041C44.9637 46.9624 45.4046 46.3967 45.8154 45.8094C45.8154 45.8094 44.7681 46.8519 43.8517 46.6686C43.6641 46.6229 43.4703 46.6085 43.2781 46.6258C43.9145 45.2719 44.6298 43.9566 45.4203 42.6865C44.5277 43.9956 43.7351 45.281 43.04 46.5544C42.9578 46.3241 42.8415 46.1075 42.6949 45.9117C42.4021 45.5166 42.395 44.8787 42.4997 44.3336C42.5656 43.9945 42.6652 43.6628 42.7973 43.3435C42.3245 44.1056 41.9464 44.9224 41.6714 45.7761C41.3072 46.9805 41.3191 48.1206 42.1475 48.2634C41.8166 48.9299 41.5143 49.5987 41.2335 50.2628C41.118 50.0772 40.9797 49.9068 40.8217 49.7558C40.4432 49.3964 40.3456 48.7585 40.3623 48.2039C40.3775 47.858 40.4302 47.5149 40.5194 47.1804C40.1364 47.9989 39.8589 48.8627 39.6934 49.751C39.4887 50.9697 39.6411 52.1075 40.4861 52.2003C40.2718 52.8128 40.0759 53.4253 39.8981 54.0378C39.7563 53.883 39.5965 53.7455 39.4221 53.6284C38.5033 53.0405 38.6842 51.2077 38.7176 51.0697C38.4283 51.9471 38.2547 52.8585 38.201 53.7808C38.1511 55.0375 38.4557 56.1824 39.3388 56.1919C39.3388 56.1919 39.3388 56.1919 39.3388 56.2062C39.2198 56.7664 39.1151 57.3305 39.0246 57.8985C38.8549 57.7659 38.6704 57.6532 38.4748 57.5629C37.4299 57.0869 37.3751 55.1827 37.3918 55.0328C37.2028 55.9771 37.1411 56.9426 37.2085 57.9033C37.3227 59.2172 37.7988 60.3764 38.7342 60.2526C38.6914 60.781 38.6612 61.3094 38.6438 61.8378C38.444 61.7165 38.2307 61.619 38.0082 61.5474C36.8729 61.1975 36.5444 59.3195 36.5277 59.0839C36.4588 60.0886 36.5245 61.098 36.7229 62.0854C37.0038 63.4421 37.7179 64.637 38.6723 64.3371C38.6977 64.8226 38.7374 65.3082 38.7913 65.7938C38.5555 65.6817 38.3057 65.6017 38.0487 65.5557C36.7896 65.3487 36.1826 63.3588 36.1445 63.1755C36.2103 64.2525 36.4242 65.3154 36.7801 66.3341C37.2799 67.7455 38.2225 68.9285 39.196 68.4096C39.2888 68.8523 39.3912 69.2951 39.5078 69.7354C39.2285 69.6439 38.9375 69.5926 38.6438 69.5831C37.268 69.545 36.3302 67.4552 36.2992 67.3266C36.5258 68.4608 36.9121 69.5571 37.4465 70.5828C38.2058 72.0276 39.4078 73.1606 40.3552 72.3917C40.5027 72.7821 40.6614 73.1685 40.8312 73.5509C40.5132 73.4873 40.1874 73.4721 39.8648 73.5057C38.401 73.6675 37.0681 71.5396 37.0538 71.4611C37.4671 72.6299 38.051 73.7311 38.7866 74.7291C39.8339 76.1573 41.312 77.1831 42.1689 76.1811C42.3593 76.4984 42.5577 76.8158 42.7639 77.1332C42.4384 77.1145 42.112 77.1442 41.7952 77.2212C40.3361 77.5925 38.6271 75.586 38.6557 75.5551C39.2523 76.6736 40.0192 77.6926 40.9288 78.5756C42.2189 79.849 43.8779 80.6535 44.5681 79.5277C44.8062 79.818 45.0751 80.1061 45.3417 80.3869C45.015 80.4152 44.6942 80.4914 44.3896 80.613C43.04 81.1891 41.1359 79.6514 40.955 79.461C41.7516 80.4792 42.695 81.3736 43.7541 82.115C45.3084 83.1908 47.1055 83.6859 47.6101 82.5029C47.9163 82.7537 48.2337 82.9917 48.5622 83.217C48.2283 83.2947 47.9076 83.4205 47.6101 83.5907C46.3628 84.3333 44.1588 83.1266 43.935 82.9623C44.9243 83.8434 46.0384 84.5733 47.2411 85.1283C49.0144 85.9352 50.94 86.1114 51.2375 84.8903C51.5946 85.0807 51.9516 85.2592 52.3324 85.4306C52.015 85.5608 51.7176 85.7355 51.4494 85.9495C50.3188 86.8802 47.879 86.0733 47.5934 85.9495C48.7674 86.6548 50.0408 87.1795 51.3708 87.5062C53.3202 87.9822 55.3196 87.8061 55.4172 86.5826C57.6957 87.2503 60.0696 87.5335 62.4413 87.4205L62.4746 87.0277Z" fill="#4385F4"/>
</g>
<path d="M72.3199 81.3652C72.38 81.2851 72.4111 81.1868 72.4079 81.0867C72.4079 81.0677 72.4079 81.0319 72.4079 80.9772C72.4079 80.9225 72.4079 80.8844 72.4079 80.8653C72.411 80.7648 72.379 80.6664 72.3175 80.5868C72.288 80.5535 72.2511 80.5276 72.2097 80.511C72.1684 80.4945 72.1238 80.4879 72.0795 80.4916C72.0351 80.4882 71.9906 80.495 71.9494 80.5116C71.9081 80.5281 71.8712 80.5538 71.8414 80.5868C71.7807 80.6667 71.7496 80.7651 71.7534 80.8653V80.9772V81.0867C71.7499 81.1873 71.7819 81.2859 71.8438 81.3652C71.874 81.3975 71.9111 81.4226 71.9523 81.4387C71.9935 81.4547 72.0377 81.4614 72.0818 81.458C72.1259 81.4615 72.1703 81.455 72.2115 81.4389C72.2527 81.4228 72.2898 81.3976 72.3199 81.3652ZM71.5677 81.577C71.5049 81.5147 71.4551 81.4405 71.4212 81.3588C71.3873 81.2771 71.37 81.1894 71.3701 81.101V80.851C71.37 80.7624 71.3876 80.6746 71.422 80.5928C71.4563 80.511 71.5067 80.437 71.5701 80.375C71.7189 80.2639 71.8997 80.2039 72.0854 80.2039C72.2711 80.2039 72.4519 80.2639 72.6007 80.375C72.6641 80.437 72.7145 80.511 72.7489 80.5928C72.7832 80.6746 72.8008 80.7624 72.8007 80.851C72.8007 80.8725 72.8007 80.9153 72.8007 80.9772C72.8007 81.0391 72.8007 81.0796 72.8007 81.101C72.8014 81.1895 72.7843 81.2773 72.7503 81.3591C72.7164 81.4409 72.6663 81.515 72.6031 81.577C72.4534 81.6881 72.2719 81.7481 72.0854 81.7481C71.8989 81.7481 71.7174 81.6881 71.5677 81.577ZM69.9349 81.577C69.8715 81.5151 69.8214 81.441 69.7875 81.3592C69.7535 81.2774 69.7364 81.1895 69.7373 81.101V80.9867V80.8725C69.7369 80.784 69.7541 80.6963 69.788 80.6145C69.8219 80.5327 69.8719 80.4586 69.9349 80.3964C70.0737 80.276 70.2536 80.2138 70.4371 80.2227C70.5684 80.2188 70.6988 80.2457 70.8179 80.3012C70.9126 80.345 70.9945 80.4122 71.056 80.4964C71.102 80.5617 71.1299 80.6381 71.1369 80.7178C71.1378 80.727 71.1366 80.7363 71.1333 80.745C71.13 80.7537 71.1247 80.7615 71.1178 80.7677C71.104 80.7799 71.0863 80.7867 71.0679 80.7868H70.8156C70.8 80.7916 70.7835 80.7916 70.7679 80.7868C70.7553 80.773 70.7456 80.7568 70.7394 80.7392C70.7183 80.677 70.6794 80.6224 70.6275 80.5821C70.5744 80.548 70.512 80.5313 70.449 80.5345C70.405 80.5295 70.3604 80.5352 70.319 80.5509C70.2776 80.5666 70.2406 80.592 70.211 80.6249C70.1501 80.7056 70.119 80.8048 70.1229 80.9058V81.1057C70.1356 81.3533 70.2403 81.477 70.4371 81.477C70.5008 81.4793 70.5637 81.4628 70.618 81.4294C70.6695 81.3883 70.7076 81.3328 70.7275 81.27C70.7333 81.2528 70.7431 81.2373 70.756 81.2247C70.7695 81.214 70.7865 81.2089 70.8037 81.2105H71.056C71.0744 81.2106 71.0921 81.2173 71.1059 81.2295C71.1128 81.2358 71.1181 81.2436 71.1214 81.2522C71.1247 81.2609 71.1259 81.2703 71.125 81.2795C71.1177 81.3565 71.0907 81.4303 71.0464 81.4937C70.9862 81.5803 70.9041 81.6493 70.8084 81.6937C70.6885 81.7522 70.5562 81.7808 70.4228 81.777C70.2429 81.7751 70.0704 81.7054 69.9396 81.5818L69.9349 81.577ZM69.0613 81.7032C69.0552 81.6969 69.0503 81.6894 69.047 81.6813C69.0438 81.6731 69.0422 81.6644 69.0423 81.6556V81.3652C69.0416 81.3559 69.0429 81.3466 69.0461 81.3379C69.0493 81.3292 69.0544 81.3213 69.0609 81.3148C69.0675 81.3082 69.0754 81.3032 69.0841 81.2999C69.0928 81.2967 69.1021 81.2954 69.1113 81.2962H69.3993C69.4081 81.296 69.4169 81.2976 69.425 81.3009C69.4332 81.3042 69.4406 81.309 69.4469 81.3152C69.4537 81.3216 69.4591 81.3294 69.4628 81.338C69.4664 81.3466 69.4683 81.3558 69.4683 81.3652V81.6532C69.4685 81.662 69.4669 81.6707 69.4636 81.6789C69.4603 81.6871 69.4555 81.6945 69.4493 81.7008C69.4432 81.7079 69.4355 81.7136 69.4268 81.7173C69.4181 81.721 69.4087 81.7227 69.3993 81.7222H69.1113C69.1013 81.7242 69.091 81.7239 69.0811 81.7215C69.0713 81.719 69.0621 81.7144 69.0542 81.7079L69.0613 81.7032ZM67.7403 81.6865C67.6573 81.6531 67.5832 81.601 67.5237 81.5342C67.4848 81.4931 67.4606 81.4404 67.4547 81.3842C67.454 81.3759 67.4551 81.3676 67.458 81.3598C67.4609 81.352 67.4654 81.3449 67.4713 81.339C67.4836 81.3273 67.4997 81.3205 67.5166 81.32H67.7546C67.7627 81.3205 67.7706 81.3229 67.7776 81.3271C67.7847 81.3312 67.7906 81.3369 67.795 81.3438L67.8593 81.3985C67.931 81.4591 68.0225 81.4913 68.1164 81.489C68.181 81.4918 68.2452 81.4769 68.302 81.4461C68.3243 81.433 68.3427 81.4141 68.3552 81.3915C68.3678 81.369 68.3741 81.3434 68.3734 81.3176C68.3746 81.2835 68.3627 81.2503 68.3401 81.2247C68.3068 81.1945 68.2668 81.1725 68.2235 81.1605C68.1401 81.1324 68.055 81.1093 67.9688 81.0915C67.8378 81.0723 67.7144 81.018 67.6118 80.9344C67.5729 80.8995 67.5423 80.8564 67.5221 80.8082C67.5019 80.7601 67.4927 80.708 67.4951 80.6559C67.496 80.5784 67.52 80.503 67.5642 80.4393C67.6165 80.3672 67.6872 80.3105 67.7689 80.275C67.8706 80.2298 67.9812 80.2078 68.0926 80.2108C68.2066 80.2076 68.32 80.2278 68.4258 80.2703C68.5071 80.3033 68.5802 80.3537 68.64 80.4179C68.6807 80.4589 68.706 80.5127 68.7114 80.5702C68.7118 80.5781 68.7105 80.586 68.7076 80.5934C68.7047 80.6007 68.7004 80.6074 68.6948 80.613C68.689 80.6192 68.682 80.6241 68.6742 80.6274C68.6664 80.6307 68.658 80.6323 68.6495 80.6321H68.4353C68.4262 80.6327 68.4171 80.6311 68.4088 80.6274C68.4005 80.6237 68.3932 80.6179 68.3877 80.6106C68.3652 80.5938 68.3437 80.5755 68.3235 80.5559C68.293 80.5316 68.2594 80.5116 68.2235 80.4964C68.1821 80.479 68.1374 80.4709 68.0926 80.4726C68.0349 80.4675 67.9774 80.4836 67.9307 80.5178C67.9124 80.5322 67.8977 80.5507 67.8878 80.5718C67.8779 80.5928 67.873 80.6159 67.8736 80.6392C67.872 80.67 67.8812 80.7003 67.8998 80.7249C67.9311 80.7541 67.9685 80.7761 68.0093 80.7892C68.087 80.815 68.1666 80.8349 68.2473 80.8487C68.59 80.9153 68.7614 81.0653 68.7614 81.2985C68.762 81.3637 68.7462 81.4279 68.7154 81.4853C68.6846 81.5427 68.6399 81.5914 68.5853 81.627C68.4388 81.7188 68.2675 81.7628 68.095 81.7532C67.9714 81.758 67.8481 81.7369 67.7332 81.6913L67.7403 81.6865ZM64.9769 81.7032C64.9707 81.6969 64.9658 81.6894 64.9626 81.6813C64.9593 81.6731 64.9577 81.6644 64.9578 81.6556V80.306C64.9579 80.2876 64.9647 80.2698 64.9769 80.256C64.9909 80.2445 65.0087 80.2385 65.0268 80.2393H65.2506C65.2596 80.2386 65.2687 80.2397 65.2773 80.2425C65.2859 80.2454 65.2938 80.25 65.3006 80.256C65.307 80.2626 65.312 80.2704 65.3153 80.279C65.3186 80.2876 65.3201 80.2968 65.3196 80.306V80.4131C65.3685 80.3505 65.4315 80.3004 65.5035 80.2669C65.5755 80.2334 65.6544 80.2174 65.7338 80.2203C65.8244 80.2126 65.9153 80.2327 65.9943 80.2777C66.0733 80.3228 66.1369 80.3907 66.1765 80.4726C66.2244 80.3955 66.2917 80.3323 66.3717 80.2893C66.4544 80.2427 66.548 80.2188 66.643 80.2203C66.7146 80.218 66.7858 80.2311 66.8519 80.2586C66.918 80.2861 66.9774 80.3274 67.0262 80.3798C67.1322 80.5103 67.1849 80.6761 67.1738 80.8439V81.6651C67.1739 81.6739 67.1723 81.6826 67.169 81.6908C67.1658 81.699 67.1609 81.7064 67.1548 81.7127C67.1486 81.7198 67.1409 81.7255 67.1323 81.7292C67.1236 81.7329 67.1142 81.7346 67.1048 81.7341H66.8668C66.8574 81.7341 66.8482 81.7322 66.8396 81.7285C66.831 81.7249 66.8232 81.7195 66.8168 81.7127C66.8106 81.7064 66.8058 81.699 66.8025 81.6908C66.7992 81.6826 66.7976 81.6739 66.7977 81.6651V80.8677C66.8059 80.7747 66.7787 80.6821 66.7216 80.6083C66.6965 80.5813 66.6658 80.5601 66.6317 80.5461C66.5976 80.5321 66.5608 80.5257 66.524 80.5273C66.4884 80.527 66.4531 80.5341 66.4204 80.548C66.3876 80.5619 66.3581 80.5824 66.3336 80.6083C66.275 80.6814 66.2469 80.7743 66.255 80.8677V81.6651C66.2552 81.6739 66.2535 81.6826 66.2503 81.6908C66.247 81.699 66.2422 81.7064 66.236 81.7127C66.2298 81.7198 66.2221 81.7255 66.2135 81.7292C66.2048 81.7329 66.1954 81.7346 66.186 81.7341H65.948C65.9301 81.733 65.9131 81.7254 65.9004 81.7126C65.8877 81.6999 65.8801 81.683 65.879 81.6651V80.8677C65.8878 80.7747 65.8605 80.6818 65.8028 80.6083C65.7772 80.5819 65.7465 80.5611 65.7125 80.5472C65.6785 80.5332 65.642 80.5265 65.6052 80.5273C65.5697 80.5272 65.5344 80.5343 65.5017 80.5482C65.469 80.5621 65.4394 80.5826 65.4148 80.6083C65.3562 80.6814 65.3281 80.7743 65.3363 80.8677V81.6651C65.3369 81.6737 65.3357 81.6824 65.3328 81.6906C65.3299 81.6988 65.3255 81.7063 65.3196 81.7127C65.3132 81.7195 65.3054 81.7249 65.2968 81.7285C65.2882 81.7322 65.279 81.7341 65.2696 81.7341H65.0316C65.0199 81.7354 65.0081 81.7336 64.9973 81.7291C64.9864 81.7245 64.9769 81.7172 64.9697 81.7079L64.9769 81.7032ZM63.7867 81.7032C63.7806 81.6969 63.7757 81.6894 63.7725 81.6813C63.7692 81.6731 63.7676 81.6644 63.7677 81.6556V80.3107C63.7674 80.2915 63.7742 80.2729 63.7867 80.2584C63.7933 80.2519 63.8011 80.2469 63.8097 80.2436C63.8183 80.2403 63.8275 80.2389 63.8367 80.2393H64.0748C64.0843 80.2387 64.0939 80.2401 64.1029 80.2433C64.112 80.2466 64.1202 80.2517 64.1271 80.2584C64.1397 80.2729 64.1464 80.2915 64.1462 80.3107V80.4274C64.1938 80.3643 64.2564 80.3141 64.3283 80.2813C64.4002 80.2484 64.4791 80.234 64.5579 80.2393H64.677C64.686 80.2386 64.6951 80.2397 64.7037 80.2425C64.7123 80.2454 64.7202 80.25 64.7269 80.256C64.7334 80.2626 64.7384 80.2704 64.7417 80.279C64.745 80.2876 64.7464 80.2968 64.746 80.306V80.5154C64.7467 80.5243 64.7454 80.5332 64.7421 80.5415C64.7388 80.5498 64.7336 80.5571 64.7269 80.563C64.7208 80.5702 64.7131 80.5758 64.7044 80.5795C64.6958 80.5833 64.6864 80.5849 64.677 80.5845H64.4532C64.4146 80.5823 64.3759 80.5879 64.3395 80.601C64.3031 80.6141 64.2698 80.6344 64.2414 80.6606C64.2144 80.6887 64.1936 80.7219 64.1801 80.7584C64.1665 80.7948 64.1607 80.8337 64.1628 80.8725V81.6556C64.1636 81.6644 64.1622 81.6734 64.1589 81.6816C64.1556 81.6899 64.1504 81.6973 64.1438 81.7032C64.1378 81.7099 64.1305 81.7152 64.1223 81.7189C64.1141 81.7226 64.1052 81.7246 64.0962 81.7246H63.8225C63.8042 81.7259 63.7863 81.7199 63.7725 81.7079L63.7867 81.7032ZM62.1872 81.7032C62.1811 81.6969 62.1762 81.6894 62.173 81.6813C62.1697 81.6731 62.1681 81.6644 62.1682 81.6556V80.544H61.9302C61.9209 80.5447 61.9116 80.5434 61.9029 80.5402C61.8942 80.537 61.8863 80.5319 61.8798 80.5254C61.8732 80.5188 61.8682 80.5109 61.8649 80.5022C61.8617 80.4935 61.8604 80.4842 61.8611 80.475V80.306C61.8614 80.2883 61.8682 80.2713 61.8802 80.2584C61.8867 80.2519 61.8946 80.2469 61.9032 80.2436C61.9118 80.2403 61.921 80.2389 61.9302 80.2393H62.1682V80.1251C62.1628 80.0542 62.1725 79.9829 62.1967 79.916C62.2209 79.8491 62.2591 79.7881 62.3086 79.7371C62.4281 79.6434 62.5786 79.5984 62.7299 79.611H63.3226C63.3316 79.6102 63.3407 79.6113 63.3493 79.6141C63.3579 79.617 63.3658 79.6216 63.3726 79.6276C63.3848 79.6414 63.3915 79.6592 63.3916 79.6776V79.8466C63.3916 79.8559 63.3897 79.8652 63.386 79.8738C63.3824 79.8824 63.377 79.8901 63.3702 79.8966C63.3639 79.9027 63.3565 79.9076 63.3483 79.9109C63.3401 79.9141 63.3314 79.9157 63.3226 79.9156H62.7442C62.7156 79.9129 62.6868 79.9164 62.6597 79.9259C62.6326 79.9353 62.6078 79.9505 62.5871 79.9704C62.5538 80.0202 62.5379 80.0796 62.5419 80.1394V80.2393H63.3226C63.3316 80.2386 63.3407 80.2397 63.3493 80.2425C63.3579 80.2454 63.3658 80.25 63.3726 80.256C63.3848 80.2698 63.3915 80.2876 63.3916 80.306V81.6556C63.3918 81.6644 63.3901 81.6731 63.3869 81.6813C63.3836 81.6894 63.3787 81.6969 63.3726 81.7032C63.3664 81.7103 63.3587 81.716 63.3501 81.7197C63.3414 81.7234 63.332 81.7251 63.3226 81.7246H63.0846C63.0666 81.7235 63.0497 81.7158 63.037 81.7031C63.0243 81.6904 63.0167 81.6735 63.0156 81.6556V80.544H62.5395V81.6556C62.5403 81.6644 62.5389 81.6734 62.5356 81.6816C62.5323 81.6899 62.5271 81.6973 62.5205 81.7032C62.5143 81.7103 62.5066 81.716 62.498 81.7197C62.4893 81.7234 62.4799 81.7251 62.4705 81.7246H62.2325C62.2219 81.7266 62.2111 81.7262 62.2007 81.7233C62.1904 81.7204 62.1809 81.7151 62.173 81.7079L62.1872 81.7032ZM61.1328 81.3438C61.1871 81.2689 61.217 81.1792 61.2185 81.0867C61.2185 81.0629 61.2185 81.0272 61.2185 80.9772C61.2185 80.9272 61.2185 80.8891 61.2185 80.8653C61.2166 80.7784 61.1856 80.6945 61.1304 80.6273C61.1009 80.5937 61.0641 80.5672 61.0229 80.5499C60.9817 80.5326 60.937 80.5249 60.8924 80.5273C60.6901 80.5273 60.5806 80.6535 60.5663 80.9058V81.0772C60.5806 81.3152 60.6901 81.4532 60.8924 81.4532C60.9383 81.4557 60.9842 81.447 61.026 81.428C61.0679 81.4089 61.1045 81.38 61.1328 81.3438ZM60.3402 81.5818C60.2294 81.4415 60.1698 81.2677 60.1712 81.0891V80.8891C60.1695 80.7115 60.2283 80.5386 60.3378 80.3988C60.393 80.3361 60.4618 80.2867 60.5389 80.2546C60.616 80.2224 60.6995 80.2082 60.7829 80.2132C60.865 80.2096 60.9468 80.2247 61.0222 80.2573C61.0977 80.2899 61.1647 80.339 61.2185 80.4012V79.7657C61.2185 79.7563 61.2204 79.7471 61.2241 79.7385C61.2277 79.7299 61.2331 79.7221 61.2399 79.7157C61.2463 79.7098 61.2538 79.7053 61.262 79.7025C61.2702 79.6996 61.2789 79.6984 61.2875 79.699H61.5255C61.5346 79.6983 61.5436 79.6993 61.5522 79.7022C61.5608 79.7051 61.5688 79.7097 61.5755 79.7157C61.582 79.7222 61.587 79.7301 61.5903 79.7387C61.5936 79.7473 61.595 79.7565 61.5946 79.7657V81.6698C61.5953 81.6787 61.594 81.6876 61.5907 81.6959C61.5874 81.7042 61.5822 81.7115 61.5755 81.7175C61.5694 81.7246 61.5617 81.7302 61.553 81.7339C61.5443 81.7377 61.5349 81.7393 61.5255 81.7389H61.2875C61.2696 81.7378 61.2527 81.7301 61.24 81.7174C61.2272 81.7047 61.2196 81.6878 61.2185 81.6698V81.5627C61.1626 81.6254 61.0943 81.6758 61.0181 81.711C60.9418 81.7461 60.8591 81.7652 60.7751 81.767C60.6912 81.7687 60.6078 81.7532 60.5301 81.7214C60.4524 81.6895 60.3821 81.642 60.3235 81.5818H60.3402ZM59.4286 81.3842C59.4887 81.3041 59.5198 81.2059 59.5166 81.1057C59.5166 81.0867 59.5166 81.051 59.5166 80.9962C59.5166 80.9415 59.5166 80.9034 59.5166 80.8844C59.5194 80.7843 59.4884 80.6862 59.4286 80.6059C59.3989 80.5727 59.362 80.5469 59.3207 80.5303C59.2794 80.5138 59.2349 80.5071 59.1905 80.5107C59.1462 80.5075 59.1018 80.5143 59.0605 80.5308C59.0193 80.5473 58.9824 80.573 58.9525 80.6059C58.8927 80.6862 58.8616 80.7843 58.8644 80.8844V81.1057C58.8613 81.2059 58.8923 81.3041 58.9525 81.3842C58.9828 81.4164 59.0199 81.4414 59.061 81.4575C59.1022 81.4735 59.1465 81.4802 59.1905 81.477C59.2378 81.4802 59.2851 81.4716 59.3283 81.4521C59.3715 81.4326 59.4092 81.4028 59.4381 81.3652L59.4286 81.3842ZM58.6764 81.5961C58.6136 81.5337 58.5638 81.4595 58.5299 81.3778C58.496 81.2961 58.4787 81.2085 58.4788 81.12V80.8701C58.4787 80.7814 58.4963 80.6936 58.5307 80.6118C58.565 80.5301 58.6154 80.456 58.6788 80.394C58.8234 80.2726 59.0091 80.2113 59.1977 80.2227C59.3847 80.2115 59.5688 80.2729 59.7118 80.394C59.7752 80.456 59.8256 80.5301 59.8599 80.6118C59.8943 80.6936 59.9119 80.7814 59.9117 80.8701C59.9117 80.8915 59.9117 80.9344 59.9117 80.9962C59.9117 81.0581 59.9117 81.0986 59.9117 81.12C59.9119 81.2085 59.8946 81.2961 59.8607 81.3778C59.8267 81.4595 59.777 81.5337 59.7142 81.5961C59.5641 81.7074 59.3822 81.7675 59.1953 81.7675C59.0084 81.7675 58.8265 81.7074 58.6764 81.5961ZM57.7362 81.3842C57.7966 81.3043 57.827 81.2057 57.8219 81.1057C57.824 81.0693 57.824 81.0327 57.8219 80.9962C57.824 80.959 57.824 80.9216 57.8219 80.8844C57.8257 80.7841 57.7945 80.6857 57.7338 80.6059C57.7043 80.5726 57.6674 80.5466 57.6261 80.5301C57.5848 80.5135 57.5402 80.5069 57.4958 80.5107C57.4515 80.5073 57.407 80.5141 57.3657 80.5306C57.3245 80.5471 57.2875 80.5729 57.2578 80.6059C57.1962 80.6854 57.1643 80.7839 57.1673 80.8844V81.1057C57.1638 81.2063 57.1959 81.3049 57.2578 81.3842C57.3214 81.4464 57.4068 81.4813 57.4958 81.4813C57.5848 81.4813 57.6702 81.4464 57.7338 81.3842H57.7362ZM56.9841 81.5961C56.9209 81.534 56.8708 81.4599 56.8368 81.3781C56.8029 81.2964 56.7858 81.2086 56.7865 81.12V80.8701C56.7864 80.7814 56.804 80.6936 56.8383 80.6118C56.8727 80.5301 56.923 80.456 56.9864 80.394C57.1353 80.283 57.316 80.223 57.5018 80.223C57.6875 80.223 57.8682 80.283 58.0171 80.394C58.0805 80.456 58.1309 80.5301 58.1652 80.6118C58.1995 80.6936 58.2172 80.7814 58.217 80.8701C58.217 80.8915 58.217 80.9344 58.217 80.9962C58.217 81.0581 58.217 81.0986 58.217 81.12C58.2172 81.2085 58.1998 81.2961 58.1659 81.3778C58.132 81.4595 58.0822 81.5337 58.0195 81.5961C57.8697 81.7072 57.6882 81.7672 57.5018 81.7672C57.3153 81.7672 57.1338 81.7072 56.9841 81.5961ZM55.9844 81.32C56.038 81.2473 56.0687 81.1603 56.0724 81.07C56.0741 81.0391 56.0741 81.0081 56.0724 80.9772C56.0741 80.9471 56.0741 80.9169 56.0724 80.8868C56.0687 80.7958 56.0381 80.708 55.9844 80.6344C55.9552 80.6003 55.9186 80.5733 55.8773 80.5555C55.836 80.5378 55.7912 80.5298 55.7463 80.5321C55.5393 80.5321 55.4322 80.6583 55.4203 80.9106V80.9772C55.4203 81.2747 55.5297 81.4247 55.7487 81.4247C55.7958 81.4272 55.8428 81.418 55.8856 81.3981C55.9283 81.3782 55.9655 81.3481 55.9939 81.3104L55.9844 81.32ZM55.3441 82.272C55.2534 82.2293 55.176 82.1626 55.1203 82.0792C55.0829 82.0241 55.0607 81.9601 55.0561 81.8936C55.0557 81.8848 55.0572 81.8759 55.0604 81.8677C55.0637 81.8595 55.0687 81.8521 55.0751 81.846C55.0883 81.8346 55.1053 81.8287 55.1227 81.8293H55.3774C55.3934 81.8281 55.4093 81.8323 55.4226 81.8412C55.4369 81.8537 55.4469 81.8704 55.4512 81.8888C55.4722 81.938 55.5049 81.9813 55.5464 82.015C55.6034 82.0545 55.6724 82.073 55.7416 82.0673C55.7876 82.0763 55.8351 82.0737 55.8799 82.0597C55.9246 82.0458 55.9652 82.0209 55.998 81.9874C56.0308 81.9539 56.0548 81.9128 56.0678 81.8678C56.0807 81.8227 56.0824 81.7752 56.0724 81.7294V81.5342C55.9547 81.651 55.7956 81.7166 55.6297 81.7166C55.4638 81.7166 55.3047 81.651 55.187 81.5342C55.08 81.3934 55.0238 81.2206 55.0275 81.0438V80.9653V80.8891C55.0258 80.7123 55.0827 80.5399 55.1894 80.3988C55.2441 80.3355 55.3128 80.2858 55.3901 80.2536C55.4673 80.2213 55.551 80.2075 55.6345 80.2132C55.7266 80.211 55.8179 80.2305 55.9011 80.2703C55.9745 80.3061 56.0388 80.3582 56.0891 80.4226V80.3131C56.0888 80.3034 56.0905 80.2937 56.0942 80.2846C56.0979 80.2756 56.1034 80.2675 56.1105 80.2608C56.1171 80.2543 56.1249 80.2493 56.1335 80.246C56.1421 80.2427 56.1513 80.2413 56.1605 80.2417H56.3985C56.4077 80.2413 56.4169 80.2427 56.4255 80.246C56.4341 80.2493 56.4419 80.2543 56.4485 80.2608C56.461 80.2753 56.4678 80.2939 56.4676 80.3131V81.6889C56.4738 81.7784 56.4613 81.8681 56.431 81.9526C56.4007 82.037 56.3531 82.1141 56.2914 82.1792C56.2185 82.2423 56.1339 82.2903 56.0424 82.3205C55.9509 82.3508 55.8543 82.3626 55.7582 82.3554C55.6186 82.3611 55.4796 82.3325 55.3536 82.272H55.3441Z" fill="black"/>
<path d="M101.523 68.5596H92.857V81.7984H101.523L98.7386 75.5812L101.523 68.5596ZM24.4922 68.5596H33.1586V81.7984H24.4922L27.2747 75.5812L24.4922 68.5596Z" fill="#2C72C6"/>
<path d="M97.24 64.0156L92.858 68.5381V81.7769L97.24 77.4234V64.0156ZM28.8633 64.0156L33.2548 68.7309V81.7911L28.8633 77.4115V64.0156Z" fill="#3D597A"/>
<path d="M28.7695 77.34H97.2343L97.2272 63.9346H28.7695V77.34Z" fill="#4385F4"/>
<path opacity="0.5" d="M63.832 87.2108C66.1903 87.3173 68.55 87.0375 70.818 86.3825C70.0063 85.3352 71.3464 84.2927 72.6293 83.2882C73.9742 82.2885 75.3214 81.2912 75.3214 81.2865C75.3214 81.2817 73.7361 82.9122 73.8932 84.307C73.9452 84.6231 73.9363 84.9463 73.8671 85.2591C74.2336 85.0924 74.5946 84.9163 74.9501 84.7306C73.998 83.8309 75.0762 82.5432 76.1021 81.3198C77.1875 80.0868 78.2824 78.8753 78.2824 78.8705C78.2824 78.8658 77.078 80.7533 77.4826 82.1267C77.5896 82.4323 77.6397 82.7551 77.6302 83.0788C77.9491 82.8407 78.261 82.617 78.5632 82.3647C77.5017 81.6173 78.2776 80.1463 79.0393 78.7682C79.8462 77.3639 80.6793 76.0047 80.6793 76.0024C80.6793 76 79.8676 78.0494 80.5055 79.3609C80.664 79.6494 80.7704 79.9636 80.8197 80.2891C81.0839 80.0107 81.341 79.7274 81.5861 79.4394C80.4531 78.8563 80.8959 77.2829 81.3767 75.7929C81.9122 74.2791 82.4882 72.8581 82.4811 72.8367C82.512 72.8367 82.0527 74.967 82.9072 76.169C83.1128 76.432 83.2737 76.7271 83.3832 77.0425C83.5879 76.7252 83.7847 76.4078 83.9735 76.0904C82.7643 75.6715 82.9214 74.0553 83.1357 72.5201C83.3951 70.961 83.7164 69.4901 83.7164 69.4734C83.7164 69.4567 83.6498 71.6156 84.6923 72.6867C84.9368 72.9182 85.1425 73.1874 85.3017 73.4841C85.3969 73.2675 85.4897 73.0485 85.5778 72.8295C85.6468 72.6605 85.7111 72.4915 85.7753 72.3202C84.559 72.0821 84.4495 70.5635 84.4162 69.1116C84.4162 67.6311 84.5043 66.2292 84.5114 66.2149C84.5186 66.2006 84.7495 68.2047 85.8991 69.0711C86.1668 69.2579 86.403 69.4861 86.5989 69.7471C86.7179 69.2877 86.825 68.8284 86.9202 68.3642C85.7134 68.3333 85.385 66.9242 85.1493 65.5746C84.9137 64.225 84.8351 62.8968 84.847 62.8826C84.8589 62.8683 85.3374 64.6915 86.5346 65.3413C86.819 65.4828 87.0786 65.6692 87.3034 65.8935C87.3606 65.3699 87.4034 64.8486 87.432 64.325C86.2728 64.463 85.7801 63.2039 85.385 61.9781C85.1385 61.1695 84.9335 60.3488 84.7709 59.5193C84.7875 59.5193 85.4469 61.1379 86.6536 61.583C86.9431 61.6773 87.2149 61.8189 87.4581 62.0019C87.4439 61.5258 87.4224 61.0712 87.3867 60.6094C87.3867 60.5 87.3701 60.3928 87.3606 60.2834C86.3156 60.5737 85.6658 59.4527 85.1684 58.3792C84.6709 57.3057 84.3163 56.156 84.3163 56.1537C84.3163 56.1513 85.1255 57.5818 86.3037 57.8412C86.5798 57.8903 86.846 57.9844 87.0916 58.1197C86.9916 57.5104 86.8774 56.9034 86.7417 56.2989C85.8253 56.6702 85.0993 55.7252 84.5281 54.7827C84.1477 54.1293 83.8021 53.4564 83.4927 52.7666C83.5046 52.7666 84.3996 54.0424 85.5159 54.1233C85.7596 54.1321 86.0005 54.1787 86.23 54.2614C86.0459 53.6267 85.8436 52.9999 85.623 52.381C84.8447 52.7737 84.0973 51.9978 83.4808 51.1909C83.0496 50.6006 82.6523 49.9863 82.2907 49.351C82.3026 49.351 83.2737 50.4982 84.302 50.4316C84.4927 50.4143 84.6849 50.4231 84.8732 50.4578C84.6209 49.8484 84.3504 49.2391 84.0616 48.6298L84.0116 48.5108C83.3665 48.9059 82.6192 48.2727 81.9789 47.5587C81.5052 47.0159 81.0602 46.4486 80.6459 45.8592C80.6602 45.8592 81.7028 46.9041 82.6263 46.7208C82.8184 46.6783 83.0163 46.6678 83.2118 46.6899C82.5698 45.332 81.8506 44.012 81.0577 42.7363C81.9551 44.0526 82.7548 45.3546 83.4618 46.6185C83.5448 46.3874 83.662 46.1699 83.8093 45.9734C84.1044 45.5783 84.1116 44.938 84.0068 44.3906C83.9373 44.0505 83.8369 43.7175 83.7069 43.3957C84.1816 44.1614 84.5628 44.9813 84.8423 45.8378C85.2065 47.0445 85.1969 48.1894 84.3662 48.3322C84.6995 49.0011 85.0041 49.6699 85.2874 50.3388C85.4039 50.1519 85.5439 49.9807 85.7039 49.8294C86.0848 49.47 86.18 48.8273 86.1657 48.2727C86.1492 47.9262 86.0966 47.5824 86.0086 47.2469C86.3934 48.0677 86.6733 48.9338 86.8417 49.8246C87.0464 51.0481 86.8917 52.1882 86.0395 52.281C86.2561 52.8951 86.4537 53.5069 86.6346 54.1233C86.7767 53.9687 86.9365 53.8313 87.1106 53.7139C88.027 53.1117 87.8461 51.2861 87.8247 51.148C88.1167 52.0273 88.2912 52.9413 88.3436 53.8663C88.3936 55.1278 88.0889 56.2751 87.1987 56.2846C87.1987 56.2846 87.1987 56.2846 87.1987 56.2989C87.3193 56.8606 87.4256 57.4263 87.5177 57.996C87.6861 57.8594 87.8699 57.7428 88.0651 57.6484C89.1195 57.1581 89.1743 55.2539 89.1576 55.1111C89.3481 56.0585 89.4106 57.0272 89.3433 57.9912C89.2267 59.3075 88.7482 60.469 87.8057 60.3476C87.8485 60.876 87.8795 61.4044 87.8961 61.9376C88.0972 61.815 88.3121 61.7167 88.5364 61.6448C89.6813 61.2949 90.0098 59.4098 90.0288 59.1718C90.0999 60.1836 90.0342 61.2004 89.8336 62.1947C89.548 63.5538 88.8292 64.751 87.8675 64.4511C87.839 64.9272 87.8009 65.427 87.7462 65.9126C87.9849 65.8017 88.2369 65.7217 88.4959 65.6746C89.767 65.4675 90.3763 63.4729 90.4001 63.2801C90.3344 64.3606 90.1189 65.4268 89.7598 66.4481C89.2576 67.8763 88.3055 69.0497 87.3249 68.5308C87.232 68.9736 87.1273 69.4187 87.0107 69.859C87.2924 69.7673 87.5857 69.7161 87.8818 69.7067C89.2671 69.6686 90.2145 67.5645 90.243 67.4431C90.0175 68.5819 89.6278 69.6819 89.0862 70.7087C88.3246 72.1583 87.1106 73.296 86.1562 72.5249C86.0086 72.9152 85.8499 73.3024 85.6801 73.6864C86.0006 73.6229 86.3287 73.6077 86.6536 73.6412C88.1294 73.803 89.4742 71.6703 89.4885 71.5894C89.0734 72.764 88.4845 73.8696 87.7414 74.8694C86.687 76.2975 85.1969 77.3282 84.3329 76.3237C84.1393 76.6506 83.9394 76.9679 83.7331 77.2758C84.061 77.2571 84.3898 77.2868 84.709 77.3639C86.18 77.7375 87.9032 75.7239 87.8747 75.6977C87.2654 76.8292 86.4823 77.8581 85.554 78.7468C84.2544 80.0226 82.5811 80.8295 81.8837 79.6989C81.6337 79.9916 81.3743 80.2772 81.1053 80.5605C81.4384 80.5908 81.7649 80.671 82.0741 80.7985C83.4165 81.3483 85.3516 79.806 85.5278 79.6227C84.7256 80.6418 83.7767 81.5362 82.712 82.2766C81.1434 83.3549 79.3321 83.8523 78.8227 82.667C78.5133 82.9169 78.1943 83.1573 77.8706 83.393C78.2043 83.4712 78.5249 83.597 78.8227 83.7667C80.0795 84.5117 82.3026 83.2906 82.5263 83.1359C81.5293 84.0214 80.4063 84.7538 79.194 85.309C77.4065 86.1183 75.4642 86.2945 75.1643 85.071C74.8025 85.2591 74.4336 85.4423 74.0599 85.6137C74.3742 85.7427 74.669 85.915 74.9358 86.1255C76.0759 87.0585 78.5442 86.2492 78.8227 86.1255C77.6431 86.8337 76.3643 87.3616 75.0286 87.6916C73.0625 88.1677 71.0489 87.9916 70.9537 86.7657C68.6568 87.4355 66.2647 87.7195 63.8749 87.606L63.832 87.2108Z" fill="#4385F4"/>
<path d="M63.4345 33.2393L64.8388 36.0812L67.9783 36.5359L65.7052 38.759L66.2431 41.8795L63.4345 40.4061L60.6282 41.8795L61.1637 38.759L58.8906 36.5478L62.0301 36.0931L63.4345 33.2393Z" fill="#FFA829"/>
<path d="M54.732 38.778L53.8918 37.0737L53.0492 38.778L51.1641 39.0517L52.5279 40.3775L52.2066 42.2507L53.8918 41.3653L55.5746 42.2507L55.2533 40.3775L56.6172 39.0517L54.732 38.778Z" fill="#F8B64C"/>
<path d="M75.7085 39.0517L73.8234 38.778L72.9832 37.0737L72.1406 38.778L70.2578 39.0517L71.6193 40.3775L71.298 42.2507L72.9832 41.3653L74.666 42.2507L74.3447 40.3775L75.7085 39.0517Z" fill="#F8B64C"/>
<path d="M50.05 43.2217L49.5454 42.1982L49.0408 43.2217L47.9102 43.386L48.7266 44.181L48.5338 45.3044L49.5454 44.776L50.5546 45.3044L50.3618 44.181L51.1806 43.386L50.05 43.2217Z" fill="#FFD15C"/>
<path d="M78.9618 43.386L77.8312 43.2217L77.3266 42.1982L76.822 43.2217L75.6914 43.386L76.5102 44.181L76.3174 45.3044L77.3266 44.776L78.3382 45.3044L78.1454 44.181L78.9618 43.386Z" fill="#FFD15C"/>
<path d="M39.7589 69.811V67.4522H38.9258V66.9595H41.1918V67.4522H40.3563V69.811H39.7589Z" fill="white"/>
<path d="M44.0226 68.3878C44.0226 69.2923 43.4918 69.8611 42.6492 69.8611C41.8066 69.8611 41.2734 69.2923 41.2734 68.3878C41.2734 67.4833 41.8018 66.9097 42.6492 66.9097C43.4966 66.9097 44.0226 67.4785 44.0226 68.3878ZM41.8804 68.3878C41.8804 68.9828 42.1803 69.3613 42.6492 69.3613C43.1181 69.3613 43.4133 68.9828 43.4133 68.3878C43.4133 67.7927 43.1134 67.4095 42.6492 67.4095C42.1851 67.4095 41.8804 67.7975 41.8804 68.3878Z" fill="white"/>
<path d="M45.5964 66.9598C45.7272 66.9516 45.8583 66.9711 45.9811 67.0171C46.1038 67.0631 46.2155 67.1345 46.3088 67.2266C46.402 67.3188 46.4748 67.4295 46.5222 67.5518C46.5697 67.674 46.5908 67.8048 46.5842 67.9357C46.5878 68.0683 46.5636 68.2003 46.5133 68.323C46.463 68.4457 46.3875 68.5566 46.2918 68.6485C46.1961 68.7404 46.0823 68.8112 45.9576 68.8566C45.8329 68.9019 45.7002 68.9206 45.5678 68.9116H45.0037V69.8113H44.4062V66.9551L45.5964 66.9598ZM45.0037 68.4451H45.4369C45.5062 68.4499 45.5758 68.4403 45.6413 68.417C45.7068 68.3938 45.7668 68.3573 45.8176 68.3099C45.8684 68.2624 45.9089 68.2051 45.9366 68.1413C45.9643 68.0776 45.9786 68.0088 45.9786 67.9393C45.9786 67.8698 45.9643 67.801 45.9366 67.7373C45.9089 67.6735 45.8684 67.6162 45.8176 67.5687C45.7668 67.5213 45.7068 67.4848 45.6413 67.4616C45.5758 67.4383 45.5062 67.4287 45.4369 67.4335H45.0037V68.4451Z" fill="white"/>
<path d="M48.971 69.8113H48.4069L47.6523 66.9551H48.2783L48.7258 69.0211H48.7425L49.2757 66.9551H49.7803L50.3134 69.0211H50.3301L50.78 66.9551H51.3988L50.6419 69.8113H50.0778L49.5375 67.8643H49.5184L48.971 69.8113Z" fill="white"/>
<path d="M53.6008 69.8113H51.7109V66.9551H53.6008V67.4478H52.3084V68.1357H53.5271V68.5927H52.3084V69.3067H53.6008V69.8113Z" fill="white"/>
<path d="M54.0312 69.8113V66.9551H55.288C55.8236 66.9551 56.1592 67.2312 56.1592 67.6691C56.1586 67.8189 56.1046 67.9636 56.0069 68.077C55.9091 68.1905 55.774 68.2653 55.626 68.288V68.3023C55.8054 68.3084 55.9754 68.3837 56.1005 68.5124C56.2256 68.641 56.2961 68.8131 56.2972 68.9926C56.2972 69.4948 55.9188 69.809 55.3118 69.809L54.0312 69.8113ZM54.6263 68.1452H55.0738C55.3927 68.1452 55.5736 68.0048 55.5736 67.7644C55.5736 67.524 55.4142 67.4049 55.1357 67.4049H54.6263V68.1452ZM55.1595 69.3662C55.5022 69.3662 55.6879 69.2211 55.6879 68.9473C55.6879 68.6736 55.4975 68.5379 55.1452 68.5379H54.6263V69.3662H55.1595Z" fill="white"/>
<path d="M58.6051 66.9596C59.462 66.9596 59.9642 67.469 59.9642 68.3734C59.9642 69.2779 59.462 69.8016 58.6051 69.8016H57.5078V66.9453L58.6051 66.9596ZM58.1029 69.316H58.5337C59.0692 69.316 59.3572 68.9923 59.3572 68.3758C59.3572 67.7593 59.0597 67.4523 58.5337 67.4523H58.1029V69.316Z" fill="white"/>
<path d="M62.2376 69.8113H60.3477V66.9551H62.2376V67.4478H60.9451V68.1357H62.1638V68.5927H60.9451V69.3067H62.2376V69.8113Z" fill="white"/>
<path d="M63.4443 69.8113L62.4922 66.9551H63.1586L63.8108 69.1925H63.8251L64.4773 66.9551H65.1271L64.175 69.8113H63.4443Z" fill="white"/>
<path d="M67.3007 69.8113H65.418V66.9551H67.3055V67.4478H66.0154V68.1357H67.2341V68.5927H66.0154V69.3067H67.3055L67.3007 69.8113Z" fill="white"/>
<path d="M69.5751 69.8113H67.7305V66.9551H68.3279V69.3115H69.5751V69.8113Z" fill="white"/>
<path d="M72.4742 68.3878C72.4742 69.2923 71.941 69.8611 71.0984 69.8611C70.2558 69.8611 69.7227 69.2923 69.7227 68.3878C69.7227 67.4833 70.2534 66.9097 71.0984 66.9097C71.9434 66.9097 72.4742 67.4785 72.4742 68.3878ZM70.332 68.3878C70.332 68.9828 70.6295 69.3613 71.0984 69.3613C71.5673 69.3613 71.8625 68.9828 71.8625 68.3878C71.8625 67.7927 71.565 67.4095 71.0984 67.4095C70.6319 67.4095 70.332 67.7975 70.332 68.3878Z" fill="white"/>
<path d="M74.0456 66.9598C74.1763 66.952 74.3073 66.9718 74.4299 67.0179C74.5525 67.064 74.664 67.1354 74.7571 67.2275C74.8503 67.3195 74.9231 67.4302 74.9707 67.5522C75.0183 67.6742 75.0396 67.8049 75.0334 67.9357C75.037 68.0686 75.0128 68.2007 74.9624 68.3236C74.9119 68.4465 74.8362 68.5575 74.7403 68.6494C74.6443 68.7413 74.5302 68.8122 74.4052 68.8573C74.2802 68.9025 74.1472 68.921 74.0146 68.9116H73.4505V69.8113H72.8555V66.9551L74.0456 66.9598ZM73.4505 68.4451H73.8837C73.9531 68.4499 74.0226 68.4403 74.0881 68.417C74.1536 68.3938 74.2136 68.3573 74.2644 68.3099C74.3152 68.2624 74.3558 68.2051 74.3834 68.1413C74.4111 68.0776 74.4254 68.0088 74.4254 67.9393C74.4254 67.8698 74.4111 67.801 74.3834 67.7373C74.3558 67.6735 74.3152 67.6162 74.2644 67.5687C74.2136 67.5213 74.1536 67.4848 74.0881 67.4616C74.0226 67.4383 73.9531 67.4287 73.8837 67.4335H73.4481L73.4505 68.4451Z" fill="white"/>
<path d="M78.4033 69.8113H77.8702V67.8857H77.8559L77.0799 69.7899H76.7062L75.9303 67.8857H75.916V69.8113H75.3828V66.9551H76.0755L76.8847 68.9759H76.9014L77.7107 66.9551H78.4033V69.8113Z" fill="white"/>
<path d="M80.7664 69.8113H78.8789V66.9551H80.7664V67.4478H79.4763V68.1357H80.695V68.5927H79.4763V69.3067H80.7664V69.8113Z" fill="white"/>
<path d="M81.1953 69.8113V66.9551H81.6928L83.0257 68.8117H83.0424V66.9551H83.6136V69.8113H83.1185L81.7856 67.9452H81.7666V69.8113H81.1953Z" fill="white"/>
<path d="M84.7784 69.811V67.4522H83.9453V66.9595H86.2113V67.4522H85.3758V69.811H84.7784Z" fill="white"/>
<path d="M53.1211 73.241C53.1211 72.3222 53.6447 71.7652 54.4707 71.7652C54.778 71.7472 55.0804 71.8489 55.3143 72.0491C55.5482 72.2493 55.6954 72.5323 55.7251 72.8387H55.1443C55.1232 72.6762 55.0427 72.5272 54.9184 72.4204C54.794 72.3136 54.6345 72.2566 54.4707 72.2603C54.0208 72.2603 53.7304 72.6364 53.7304 73.2386C53.7304 73.8408 54.0161 74.224 54.4683 74.224C54.6281 74.2335 54.7856 74.1828 54.9098 74.0819C55.0341 73.981 55.116 73.8372 55.1395 73.6789H55.7203C55.6537 74.3145 55.1657 74.7191 54.4659 74.7191C53.6424 74.7167 53.1211 74.1597 53.1211 73.241Z" fill="white"/>
<path d="M58.7515 73.2433C58.7515 74.1501 58.2208 74.7166 57.3758 74.7166C56.5308 74.7166 56 74.1501 56 73.2433C56 72.3364 56.5308 71.7651 57.3758 71.7651C58.2208 71.7651 58.7515 72.334 58.7515 73.2433ZM56.6093 73.2433C56.6093 73.8383 56.9069 74.2168 57.3758 74.2168C57.8447 74.2168 58.1398 73.8383 58.1398 73.2433C58.1398 72.6482 57.8423 72.265 57.3758 72.265C56.9092 72.265 56.6093 72.6434 56.6093 73.2433Z" fill="white"/>
<path d="M62.1548 74.6668H61.6241V72.7436H61.6074L60.8338 74.6478H60.4577L59.6842 72.7436H59.6675V74.6668H59.1367V71.8105H59.827L60.6386 73.8314H60.6553L61.467 71.8105H62.1572L62.1548 74.6668Z" fill="white"/>
<path d="M63.8205 71.8153C63.9514 71.8071 64.0825 71.8266 64.2052 71.8726C64.328 71.9186 64.4397 71.99 64.5329 72.0821C64.6262 72.1742 64.6989 72.285 64.7464 72.4072C64.7939 72.5294 64.815 72.6603 64.8083 72.7912C64.812 72.9238 64.7878 73.0557 64.7375 73.1785C64.6872 73.3012 64.6117 73.4121 64.516 73.504C64.4203 73.5958 64.3065 73.6667 64.1818 73.712C64.0571 73.7573 63.9243 73.7761 63.792 73.7671H63.2279V74.6668H62.6328V71.8105L63.8205 71.8153ZM63.2279 73.3006H63.6611C63.7304 73.3053 63.8 73.2958 63.8655 73.2725C63.931 73.2493 63.991 73.2128 64.0418 73.1653C64.0926 73.1179 64.1331 73.0605 64.1608 72.9968C64.1885 72.933 64.2028 72.8643 64.2028 72.7948C64.2028 72.7253 64.1885 72.6565 64.1608 72.5928C64.1331 72.529 64.0926 72.4716 64.0418 72.4242C63.991 72.3768 63.931 72.3403 63.8655 72.317C63.8 72.2938 63.7304 72.2842 63.6611 72.289H63.2279V73.3006Z" fill="white"/>
<path d="M66.543 73.9859H65.541L65.3244 74.6785H64.7031L65.6909 71.8223H66.3931L67.3856 74.6785H66.7501L66.543 73.9859ZM65.6695 73.5408H66.4145L66.0503 72.3721H66.0361L65.6695 73.5408Z" fill="white"/>
<path d="M67.6875 74.6668V71.8105H68.185L69.5179 73.6671H69.5322V71.8105H70.1034V74.6668H69.6107L68.2754 72.796H68.2588V74.6621L67.6875 74.6668Z" fill="white"/>
<path d="M71.3871 74.6669V73.603L70.3945 71.8154H71.0443L71.6822 73.0317H71.6965L72.3368 71.8154H72.9771L71.9821 73.603V74.6669H71.3871Z" fill="white"/>
</g>
<defs>
<clipPath id="clip0_732_17672">
<rect width="78" height="66.8486" fill="white" transform="translate(24 29)"/>
</clipPath>
</defs>
</svg>
