<svg width="125" height="125" viewBox="0 0 125 125" fill="none" xmlns="http://www.w3.org/2000/svg">
<circle cx="62.5" cy="62.5" r="62.5" fill="white"/>
<path d="M61.7662 56.1664C61.6791 56.1664 61.6791 56.0697 61.7662 56.1664L61.3164 55.8763L61.2245 55.7796L50.5175 47.6234C50.5052 47.6235 50.493 47.6209 50.4818 47.616C50.4705 47.611 50.4605 47.6037 50.4522 47.5946C50.444 47.5854 50.4378 47.5747 50.4341 47.563C50.4303 47.5513 50.4291 47.5389 50.4304 47.5267L50.2467 47.3333L50.1548 47.2366H49.9565L46.8711 44.9062L52.95 45.8732C53.1724 45.8927 53.3882 45.9585 53.5835 46.0666C53.6787 46.0832 53.7702 46.1159 53.8544 46.1633C54.0462 46.2405 54.2294 46.3377 54.4008 46.4534C54.5846 46.5501 54.6717 46.6468 54.8554 46.7483C54.9473 46.845 55.1263 46.9417 55.1263 47.0384C55.2181 47.1351 55.31 47.1351 55.3971 47.2318C55.5808 47.3285 55.6727 47.4252 55.6727 47.5219C55.8885 47.8044 56.1314 48.0651 56.3981 48.3003L61.2245 55.6104L61.3164 55.7071L61.7662 56.1664Z" fill="#18AAD1"/>
<path d="M61.7682 67.4266L61.3185 66.6482L61.2266 66.5515L46.9844 44.9062L50.0698 47.2366L50.6114 47.6234L61.3185 55.7796H61.4055L61.7682 56.0697C61.7807 56.0697 61.7931 56.0722 61.8045 56.0772C61.816 56.0821 61.8264 56.0893 61.835 56.0983C61.8435 56.1074 61.8502 56.1181 61.8545 56.1298C61.8589 56.1415 61.8607 56.154 61.8601 56.1664L62.3147 55.7796L76.7407 44.9062L62.2325 66.6627L62.1406 66.7642L61.7682 67.4266Z" fill="#2AD2FF"/>
<path d="M61.7673 52.4773L61.3175 51.6989L61.2256 51.6022L57.6953 46.3613L61.2353 47.1397H61.3272L61.7769 47.2364L62.2315 47.1397L65.6796 46.2646L62.2315 51.6989V51.8005L61.7673 52.4773Z" fill="#18AAD1"/>
<path d="M76.829 44.8096L72.2928 45.4864L70.5712 45.7814C69.8701 45.8838 69.1993 46.1359 68.6044 46.5205C68.0094 46.905 67.5042 47.4131 67.1231 48.0102L62.316 55.3881L62.2241 55.4847L61.7695 56.1664L62.316 55.5863L62.4079 55.4847L61.7695 56.1664L74.0193 46.8498L76.829 44.8096Z" fill="#18AAD1"/>
<path d="M64.0371 29.474C64.0371 33.7431 57.1457 35.9768 57.1457 40.5408C57.0819 41.613 57.3004 42.6832 57.7793 43.6447C57.7793 43.6447 55.1484 40.9276 55.1484 38.0122C55.1484 35.0968 57.6874 30.76 57.6874 30.76C57.6874 32.694 58.4128 33.2838 59.1382 33.3805H59.2301C60.0474 33.3805 60.5019 32.6988 60.5019 31.727C60.5019 30.7552 59.5009 29.7931 59.5009 27.8592C59.5009 26.0171 61.682 23.0244 61.682 23.0244C63.1757 24.8452 64.0062 27.1194 64.0371 29.474Z" fill="#2AD2FF"/>
<path d="M62.1341 45.003C59.9579 45.003 58.3281 43.1609 58.3281 40.9273V40.8306C58.3281 35.8798 64.7649 35.3915 64.7649 28.6953C64.9487 28.9854 66.6703 31.5091 66.6703 34.2263C66.6703 37.6106 63.6768 38.5002 63.6768 40.1489C63.6768 40.8306 63.9525 41.3141 64.8568 41.3141C64.9071 41.3203 64.9582 41.3148 65.006 41.298C65.0538 41.2812 65.0971 41.2536 65.1325 41.2174C66.0043 40.8071 66.7455 40.1635 67.2739 39.3579C67.8022 38.5524 68.0972 37.6162 68.126 36.6533C68.126 36.7549 69.0303 45.003 62.1341 45.003Z" fill="#2AD2FF"/>
<path d="M64.9468 41.3141C64.9964 41.3207 65.0468 41.3153 65.0939 41.2985C65.141 41.2817 65.1834 41.2539 65.2176 41.2174C64.3133 41.5075 60.957 42.3826 60.957 39.8588C60.957 36.75 65.943 36.0732 65.943 33.4527C65.9638 31.792 65.5575 30.1539 64.763 28.6953C64.9468 28.9854 66.6684 31.5091 66.6684 34.2263C66.6684 37.6106 63.6749 38.5002 63.6749 40.1489C63.6771 40.3104 63.7123 40.4698 63.7784 40.6172C63.8445 40.7646 63.94 40.8969 64.0592 41.0061C64.1783 41.1152 64.3185 41.1988 64.4711 41.2518C64.6238 41.3048 64.7856 41.3259 64.9468 41.3141Z" fill="#18AAD1"/>
<path d="M62.0503 31.2191C62.0503 33.6365 59.1486 33.4528 58.9648 33.3561H59.2357C60.053 33.3561 60.5075 32.6744 60.5075 31.7026C60.5075 30.7308 59.5113 29.7687 59.5113 27.8348C59.5113 25.9927 61.6875 23 61.6875 23C60.995 24.2204 60.5914 25.5832 60.5075 26.9839C60.5269 29.1788 62.0503 29.3771 62.0503 31.2191Z" fill="#18AAD1"/>
<path d="M60.5129 73.7412L58.4141 72.2521H60.9917L61.8477 69.564L62.6118 72.2521H65.1845L63.0905 73.7412L63.8498 76.3326L61.7509 74.7372L59.5602 76.3326L60.5129 73.7412Z" fill="#2AD2FF"/>
<path d="M71.7199 73.7412L69.6211 72.2521H72.2035L73.0644 69.564L73.8285 72.2521H76.4012L74.3024 73.7412L75.0665 76.3326L72.9676 74.7372L70.7769 76.3326L71.7199 73.7412Z" fill="#2AD2FF"/>
<path d="M82.8449 73.7412L80.7461 72.2521H83.3285L84.1894 69.564L84.9535 72.2521H87.5262L85.4274 73.7412L86.1915 76.3326L84.0926 74.7372L81.9019 76.3326L82.8449 73.7412Z" fill="#2AD2FF"/>
<path d="M48.9934 73.7412L46.8945 72.2521H49.477L50.3378 69.564L51.1019 72.2521H53.6747L51.5758 73.7412L52.3399 76.3326L50.2411 74.7372L48.1422 76.3326L48.9934 73.7412Z" fill="#2AD2FF"/>
<path d="M37.8684 73.7412L35.7695 72.2521H38.352L39.2128 69.564L39.9769 72.2521H42.5497L40.4508 73.7412L41.2149 76.3326L39.1161 74.7372L37.0172 76.3326L37.8684 73.7412Z" fill="#2AD2FF"/>
<path d="M88.5495 92.2007H35.6914V101H88.5495V92.2007Z" fill="black"/>
<path d="M39.736 87.8013H29L31.2246 92.2009L29 96.6006H34.9677L35.0161 91.8141L39.736 87.8013Z" fill="black"/>
<path d="M84.5195 87.8013H95.2072L92.9826 92.2009L95.2072 96.6006H89.2589V91.8141L84.5195 87.8013Z" fill="black"/>
<path d="M41.0445 95.0533C41.3237 95.1966 41.558 95.414 41.7216 95.6818C41.869 95.9664 41.9516 96.2801 41.9634 96.6004C41.9577 96.9216 41.8747 97.2366 41.7216 97.519C41.5704 97.7967 41.3327 98.0174 41.0445 98.1475C40.7449 98.301 40.414 98.3837 40.0773 98.3893H38.5781V94.7632H40.0773C40.4175 94.7855 40.7482 94.8847 41.0445 95.0533ZM40.706 97.664C40.8946 97.5703 41.0474 97.4175 41.1412 97.2289C41.2356 97.0328 41.2845 96.818 41.2845 96.6004C41.2845 96.3828 41.2356 96.168 41.1412 95.9719C41.0474 95.7833 40.8946 95.6305 40.706 95.5367C40.5114 95.4379 40.2956 95.3881 40.0773 95.3917H39.2552V97.8091H40.0773C40.295 97.8072 40.5095 97.7577 40.706 97.664Z" fill="white"/>
<path d="M42.5391 94.8213H45.1989V95.4015H43.2645V96.3201H45.0055V96.9002H43.2645V97.8188H45.2956V98.399H42.5391V94.8213Z" fill="white"/>
<path d="M47.7138 95.4884C47.5426 95.4286 47.3631 95.396 47.1818 95.3917C47.0473 95.3949 46.9152 95.4279 46.795 95.4884C46.7505 95.511 46.7134 95.5457 46.6877 95.5885C46.6621 95.6312 46.649 95.6803 46.6499 95.7301C46.6515 95.8198 46.6859 95.9058 46.7466 95.9719C46.8076 96.0472 46.8932 96.0986 46.9884 96.1169L47.4236 96.262C47.6171 96.3103 47.8105 96.407 48.004 96.4554C48.1541 96.5414 48.2856 96.6565 48.3909 96.7938C48.4533 96.8755 48.4984 96.9691 48.5234 97.0689C48.5483 97.1687 48.5526 97.2725 48.5359 97.374C48.5461 97.5847 48.4771 97.7916 48.3425 97.9541C48.2036 98.1087 48.0402 98.2394 47.8589 98.3409C47.6287 98.4355 47.3824 98.4847 47.1335 98.486C46.8528 98.4891 46.574 98.4399 46.3113 98.3409C46.0496 98.2321 45.8052 98.0855 45.5859 97.9058L45.8761 97.3256C46.0673 97.4823 46.2787 97.6124 46.5048 97.7124C46.7012 97.8061 46.9158 97.8556 47.1335 97.8574C47.2835 97.8537 47.4313 97.8209 47.5687 97.7607C47.7622 97.664 47.7622 97.4223 47.6655 97.2289L47.6171 97.1806C47.5204 97.1322 47.472 97.0355 47.3753 97.0355C47.2355 96.9725 47.0897 96.9239 46.94 96.8905C46.7466 96.8421 46.5532 96.7454 46.3597 96.6971C46.2119 96.6285 46.0801 96.5297 45.9728 96.407C45.9135 96.333 45.8699 96.2477 45.845 96.1562C45.82 96.0647 45.8141 95.969 45.8277 95.8752C45.8235 95.6876 45.8739 95.5028 45.9728 95.3434C46.1117 95.1888 46.2751 95.0581 46.4564 94.9566C46.6867 94.862 46.933 94.8128 47.1818 94.8115C47.4106 94.8165 47.6379 94.849 47.8589 94.9082C48.085 94.9641 48.2983 95.0626 48.4876 95.1983L48.1974 95.7785C48.0755 95.6278 47.9042 95.5251 47.7138 95.4884Z" fill="white"/>
<path d="M49.2656 94.8213H49.9427V98.4474H49.2656V94.8213Z" fill="white"/>
<path d="M53.2785 96.6004H53.8588V98.0025C53.6486 98.1438 53.421 98.2576 53.1818 98.3409C52.9359 98.4399 52.673 98.4892 52.408 98.486C52.0713 98.4804 51.7404 98.3977 51.4408 98.2442C51.1484 98.0969 50.9111 97.8596 50.7637 97.5673C50.5881 97.2765 50.5039 96.9396 50.5219 96.6004C50.5213 96.2784 50.6046 95.9618 50.7637 95.6818C50.9425 95.3969 51.1926 95.1637 51.4891 95.0049C51.7888 94.8514 52.1197 94.7687 52.4563 94.7632C52.7209 94.7644 52.9831 94.8136 53.2301 94.9082C53.4708 94.978 53.688 95.1117 53.8588 95.295L53.4719 95.8268C53.3419 95.6858 53.174 95.5851 52.9883 95.5367C52.816 95.4812 52.6372 95.4487 52.4563 95.44C52.2381 95.4365 52.0223 95.4863 51.8277 95.5851C51.5479 95.754 51.3456 96.0258 51.2642 96.3423C51.1828 96.6587 51.2288 96.9944 51.3924 97.2773C51.501 97.4644 51.6559 97.6205 51.8422 97.7306C52.0285 97.8407 52.24 97.901 52.4563 97.9058C52.5872 97.9136 52.7183 97.8972 52.8432 97.8574C52.9851 97.823 53.1174 97.7569 53.2301 97.664L53.2785 96.6004Z" fill="white"/>
<path d="M57.2413 94.8213H57.9184V98.4474H57.2897L55.4036 95.9333V98.4474H54.7266V94.8213H55.4036L57.2897 97.3354L57.2413 94.8213Z" fill="white"/>
<path d="M61.0855 98.4375L60.4568 97.3739H59.4896V98.4375H58.8125V94.8211H60.3117C60.704 94.7961 61.0939 94.8978 61.424 95.1112C61.6681 95.3551 61.8069 95.6848 61.8109 96.0298C61.8155 96.2849 61.7485 96.5361 61.6174 96.755C61.4758 96.9389 61.2938 97.0878 61.0855 97.1901L61.9076 98.3988L61.0855 98.4375ZM59.4896 96.7453H60.3117C60.5374 96.7563 60.7598 96.6879 60.9404 96.552C61.0058 96.4903 61.057 96.415 61.0904 96.3315C61.1238 96.2481 61.1386 96.1583 61.1338 96.0685C61.1431 95.9783 61.1303 95.8871 61.0966 95.8029C61.0629 95.7187 61.0093 95.644 60.9404 95.585C60.7701 95.4696 60.5646 95.4183 60.36 95.44H59.4896V96.7453Z" fill="#30E7FF"/>
<path d="M63.3824 97.6158C63.5627 97.758 63.7819 97.8423 64.0111 97.8575C64.2437 97.8594 64.4684 97.773 64.6398 97.6158C64.7903 97.4216 64.875 97.1845 64.8816 96.9389V94.8213H65.5586V96.9486C65.5694 97.235 65.5025 97.519 65.3652 97.7705C65.2398 97.9931 65.0558 98.177 64.8332 98.3023C64.5816 98.4397 64.2976 98.5065 64.0111 98.4957C63.7097 98.5014 63.4112 98.4351 63.1406 98.3023C63.0209 98.2537 62.9121 98.1816 62.8208 98.0902C62.7294 97.9989 62.6573 97.8902 62.6086 97.7705C62.4713 97.519 62.4044 97.235 62.4152 96.9486V94.8213H63.0922V96.9486C63.1396 97.1893 63.2386 97.417 63.3824 97.6158Z" fill="#30E7FF"/>
<path d="M68.1747 95.4884C68.0036 95.4286 67.8241 95.396 67.6428 95.3917C67.5082 95.3949 67.3761 95.4279 67.2559 95.4884C67.2115 95.511 67.1743 95.5457 67.1487 95.5885C67.123 95.6312 67.1099 95.6803 67.1108 95.7301C67.1125 95.8198 67.1469 95.9058 67.2075 95.9719C67.2685 96.0472 67.3542 96.0986 67.4493 96.1169L67.8846 96.262C68.078 96.3103 68.2715 96.407 68.4649 96.4554C68.615 96.5414 68.7465 96.6565 68.8518 96.7938C68.9143 96.8755 68.9594 96.9691 68.9843 97.0689C69.0093 97.1687 69.0135 97.2725 68.9969 97.374C69.007 97.5847 68.938 97.7916 68.8034 97.9541C68.6645 98.1087 68.5011 98.2394 68.3198 98.3409C68.0896 98.4355 67.8433 98.4847 67.5944 98.486C67.3137 98.4891 67.0349 98.4399 66.7723 98.3409C66.5105 98.2321 66.2661 98.0855 66.0469 97.9058L66.337 97.3256C66.5282 97.4823 66.7397 97.6124 66.9657 97.7124C67.1622 97.8061 67.3768 97.8556 67.5944 97.8574C67.7444 97.8537 67.8922 97.8209 68.0297 97.7607C68.2231 97.664 68.2231 97.4223 68.1264 97.2289L68.078 97.1806C67.9813 97.1322 67.9329 97.0355 67.8362 97.0355C67.6965 96.9725 67.5506 96.9239 67.401 96.8905C67.2075 96.8421 67.0141 96.7454 66.8206 96.6971C66.6728 96.6285 66.541 96.5297 66.4338 96.407C66.3744 96.333 66.3309 96.2477 66.3059 96.1562C66.2809 96.0647 66.2751 95.969 66.2887 95.8752C66.2844 95.6876 66.3348 95.5028 66.4338 95.3434C66.5727 95.1888 66.736 95.0581 66.9174 94.9566C67.1476 94.862 67.3939 94.8128 67.6428 94.8115C67.8715 94.8165 68.0988 94.849 68.3198 94.9082C68.5459 94.9641 68.7593 95.0626 68.9485 95.1983L68.6584 95.7785C68.5364 95.6278 68.3651 95.5251 68.1747 95.4884Z" fill="#30E7FF"/>
<path d="M69.7188 94.8213H70.3958V96.3684H72.1851V94.8213H72.8622V98.4474H72.2045V96.9969H70.4151V98.4474H69.7381L69.7188 94.8213Z" fill="#30E7FF"/>
<path d="M74.1702 97.8091C74.2385 97.8898 74.2732 97.9937 74.2669 98.0992C74.2569 98.2019 74.2238 98.3011 74.1702 98.3893C74.1041 98.4499 74.0181 98.4843 73.9284 98.486C73.8387 98.4843 73.7527 98.4499 73.6866 98.3893C73.6329 98.3011 73.5999 98.2019 73.5898 98.0992C73.5999 97.9965 73.6329 97.8973 73.6866 97.8091C73.7527 97.7484 73.8387 97.714 73.9284 97.7124C74.0181 97.714 74.1041 97.7484 74.1702 97.8091Z" fill="white"/>
<path d="M76.1026 96.2137C75.9006 96.2221 75.7099 96.3088 75.5707 96.4554C75.4361 96.6179 75.3671 96.8248 75.3772 97.0356C75.368 97.1404 75.3805 97.2459 75.4137 97.3457C75.447 97.4455 75.5004 97.5374 75.5707 97.6157C75.7099 97.7623 75.9006 97.849 76.1026 97.8575C76.2425 97.8685 76.3828 97.8431 76.5099 97.7838C76.637 97.7245 76.7466 97.6333 76.828 97.519L77.2633 97.8575C77.1393 98.0392 76.9734 98.1884 76.7797 98.2926C76.5495 98.3872 76.3032 98.4364 76.0543 98.4376C75.7991 98.4423 75.5478 98.3753 75.3289 98.2443C75.1229 98.1351 74.9545 97.9667 74.8453 97.7608C74.7263 97.5376 74.6641 97.2885 74.6641 97.0356C74.6641 96.7826 74.7263 96.5336 74.8453 96.3104C74.9545 96.1045 75.1229 95.9361 75.3289 95.8269C75.5565 95.7178 75.8025 95.6522 76.0543 95.6335C76.288 95.6299 76.5195 95.6795 76.7313 95.7785C76.9229 95.864 77.0894 95.9972 77.2149 96.1653L76.828 96.5521C76.7383 96.4472 76.6271 96.3627 76.502 96.3043C76.3769 96.2459 76.2407 96.215 76.1026 96.2137Z" fill="white"/>
<path d="M79.7311 95.8274C79.9414 95.9481 80.1229 96.113 80.2631 96.3108C80.3942 96.5297 80.4612 96.781 80.4565 97.0361C80.4674 97.2918 80.3999 97.5449 80.2631 97.7613C80.1353 97.9697 79.9508 98.1374 79.7311 98.2447C79.4886 98.3598 79.2255 98.4256 78.9574 98.4381C78.6862 98.4491 78.4177 98.3819 78.1836 98.2447C77.9733 98.124 77.7918 97.9591 77.6516 97.7613C77.5205 97.5424 77.4535 97.2911 77.4582 97.0361C77.4473 96.7803 77.5148 96.5272 77.6516 96.3108C77.7794 96.1024 77.9639 95.9347 78.1836 95.8274C78.4177 95.6902 78.6862 95.623 78.9574 95.634C79.2285 95.623 79.497 95.6902 79.7311 95.8274ZM78.4254 96.4559C78.288 96.6274 78.2132 96.8405 78.2132 97.0602C78.2132 97.2799 78.288 97.4931 78.4254 97.6646C78.5009 97.7418 78.5912 97.8031 78.6909 97.8446C78.7906 97.8861 78.8977 97.9071 79.0057 97.9063C79.222 97.8986 79.4282 97.8127 79.586 97.6646C79.7234 97.4931 79.7982 97.2799 79.7982 97.0602C79.7982 96.8405 79.7234 96.6274 79.586 96.4559C79.5105 96.3786 79.4202 96.3174 79.3205 96.2759C79.2208 96.2343 79.1137 96.2133 79.0057 96.2141C78.8964 96.2023 78.786 96.2183 78.6845 96.2606C78.5831 96.3028 78.4939 96.37 78.4254 96.4559Z" fill="white"/>
<path d="M85.39 95.9235C85.5838 96.1337 85.688 96.4112 85.6802 96.697V98.4375H85.0031V96.8904C85.007 96.718 84.9563 96.5488 84.8581 96.4069C84.7391 96.295 84.5856 96.2268 84.4228 96.2136C84.2208 96.222 84.0301 96.3087 83.8909 96.4553C83.8206 96.5336 83.7672 96.6255 83.7339 96.7253C83.7007 96.8251 83.6882 96.9307 83.6974 97.0355V98.3892H83.0204V96.8904C83.0243 96.718 82.9735 96.5488 82.8753 96.4069C82.7563 96.295 82.6029 96.2268 82.44 96.2136C82.238 96.222 82.0473 96.3087 81.9081 96.4553C81.838 96.5326 81.788 96.626 81.7627 96.7272C81.7374 96.8284 81.7375 96.9343 81.763 97.0355V98.3892H81.0859V95.6334H81.763V96.1652C81.9337 95.9144 82.1915 95.7359 82.4864 95.6644C82.7813 95.5929 83.0923 95.6336 83.3589 95.7784C83.5237 95.8961 83.6432 96.0668 83.6974 96.2619C83.7749 96.0573 83.9145 95.882 84.0966 95.7607C84.2787 95.6393 84.4942 95.5779 84.713 95.585C84.9739 95.6064 85.2164 95.7276 85.39 95.9235Z" fill="white"/>
<path d="M46.3711 83.0809V79.534H48.104C48.5499 79.534 48.8844 79.6184 49.1073 79.7873C49.3336 79.9562 49.4468 80.1792 49.4468 80.4562C49.4468 80.642 49.4012 80.8041 49.31 80.9426C49.2188 81.0777 49.0938 81.1825 48.935 81.2568C48.7763 81.3311 48.5939 81.3683 48.3878 81.3683L48.4841 81.1605C48.707 81.1605 48.9046 81.1977 49.0769 81.272C49.2492 81.3429 49.3826 81.4493 49.4772 81.5912C49.5752 81.7331 49.6242 81.9071 49.6242 82.1131C49.6242 82.4171 49.5042 82.6553 49.2644 82.8276C49.0246 82.9965 48.6715 83.0809 48.2054 83.0809H46.3711ZM47.1869 82.4627H48.1446C48.3574 82.4627 48.5178 82.429 48.6259 82.3614C48.7374 82.2905 48.7932 82.179 48.7932 82.027C48.7932 81.8783 48.7374 81.7686 48.6259 81.6976C48.5178 81.6233 48.3574 81.5861 48.1446 81.5861H47.1261V80.9882H48.0027C48.202 80.9882 48.354 80.9544 48.4587 80.8869C48.5668 80.8159 48.6209 80.7095 48.6209 80.5677C48.6209 80.4292 48.5668 80.3261 48.4587 80.2586C48.354 80.1876 48.202 80.1522 48.0027 80.1522H47.1869V82.4627Z" fill="black"/>
<path d="M51.0006 80.9629H52.7082V81.6013H51.0006V80.9629ZM51.0614 82.4222H52.992V83.0809H50.2456V79.534H52.9261V80.1927H51.0614V82.4222Z" fill="black"/>
<path d="M54.8105 83.1417C54.5268 83.1417 54.2549 83.1046 53.9947 83.0303C53.7346 82.9526 53.5252 82.8529 53.3664 82.7313L53.6451 82.1131C53.7971 82.2212 53.9762 82.3107 54.1822 82.3817C54.3917 82.4492 54.6028 82.483 54.8156 82.483C54.9778 82.483 55.1078 82.4678 55.2058 82.4374C55.3071 82.4036 55.3814 82.358 55.4287 82.3006C55.476 82.2432 55.4997 82.1773 55.4997 82.103C55.4997 82.0084 55.4625 81.9341 55.3882 81.88C55.3139 81.8226 55.2159 81.777 55.0943 81.7432C54.9727 81.7061 54.8376 81.6723 54.6889 81.6419C54.5437 81.6081 54.3967 81.5676 54.2481 81.5203C54.1028 81.473 53.9694 81.4122 53.8478 81.3379C53.7262 81.2635 53.6265 81.1656 53.5488 81.044C53.4745 80.9224 53.4374 80.767 53.4374 80.5778C53.4374 80.3751 53.4914 80.191 53.5995 80.0255C53.711 79.8566 53.8765 79.7231 54.0961 79.6252C54.319 79.5238 54.5977 79.4732 54.9322 79.4732C55.1551 79.4732 55.3747 79.5002 55.5909 79.5542C55.8071 79.6049 55.9979 79.6826 56.1635 79.7873L55.9101 80.4106C55.7446 80.316 55.5791 80.2467 55.4135 80.2028C55.248 80.1555 55.0859 80.1319 54.9271 80.1319C54.7683 80.1319 54.6383 80.1505 54.5369 80.1876C54.4356 80.2248 54.363 80.2738 54.319 80.3346C54.2751 80.392 54.2532 80.4596 54.2532 80.5373C54.2532 80.6285 54.2903 80.7028 54.3646 80.7602C54.439 80.8143 54.5369 80.8582 54.6585 80.892C54.7801 80.9257 54.9136 80.9595 55.0588 80.9933C55.2075 81.0271 55.3544 81.0659 55.4997 81.1098C55.6483 81.1538 55.7834 81.2129 55.905 81.2872C56.0266 81.3615 56.1246 81.4595 56.1989 81.5811C56.2766 81.7027 56.3155 81.8564 56.3155 82.0422C56.3155 82.2415 56.2597 82.4239 56.1483 82.5894C56.0368 82.755 55.8696 82.8884 55.6466 82.9897C55.427 83.0911 55.1484 83.1417 54.8105 83.1417Z" fill="black"/>
<path d="M57.5616 83.0809V80.2028H56.4266V79.534H59.5175V80.2028H58.3825V83.0809H57.5616Z" fill="black"/>
<path d="M60.928 83.0809L62.5089 79.534H63.3197L64.9057 83.0809H64.0443L62.7471 79.9495H63.0714L61.7692 83.0809H60.928ZM61.7185 82.3209L61.9364 81.6976H63.7605L63.9835 82.3209H61.7185Z" fill="black"/>
<path d="M65.2737 83.0809V79.534H66.809C67.1265 79.534 67.4002 79.5863 67.6299 79.6911C67.8596 79.7924 68.0369 79.9393 68.1619 80.1319C68.2869 80.3244 68.3494 80.5541 68.3494 80.821C68.3494 81.0845 68.2869 81.3125 68.1619 81.5051C68.0369 81.6942 67.8596 81.8395 67.6299 81.9408C67.4002 82.0422 67.1265 82.0929 66.809 82.0929H65.7297L66.0945 81.7331V83.0809H65.2737ZM67.5285 83.0809L66.6418 81.7939H67.5184L68.4153 83.0809H67.5285ZM66.0945 81.8243L65.7297 81.4392H66.7634C67.0167 81.4392 67.2059 81.3852 67.3309 81.2771C67.4559 81.1656 67.5184 81.0136 67.5184 80.821C67.5184 80.6251 67.4559 80.4731 67.3309 80.365C67.2059 80.2569 67.0167 80.2028 66.7634 80.2028H65.7297L66.0945 79.8127V81.8243Z" fill="black"/>
<path d="M68.412 83.5876L70.0841 78.8145H70.7884L69.1163 83.5876H68.412Z" fill="black"/>
<path d="M72.2015 83.0809L70.6713 79.534H71.558L72.8957 82.6756H72.3738L73.7318 79.534H74.5476L73.0122 83.0809H72.2015Z" fill="black"/>
<path d="M74.8437 83.0809V79.534H76.379C76.6966 79.534 76.9702 79.5863 77.1999 79.6911C77.4296 79.7924 77.607 79.9393 77.732 80.1319C77.8569 80.3244 77.9194 80.5541 77.9194 80.821C77.9194 81.0845 77.8569 81.3125 77.732 81.5051C77.607 81.6942 77.4296 81.8395 77.1999 81.9408C76.9702 82.0422 76.6966 82.0929 76.379 82.0929H75.2998L75.6646 81.7331V83.0809H74.8437ZM77.0986 83.0809L76.2118 81.7939H77.0884L77.9853 83.0809H77.0986ZM75.6646 81.8243L75.2998 81.4392H76.3334C76.5868 81.4392 76.776 81.3852 76.901 81.2771C77.0259 81.1656 77.0884 81.0136 77.0884 80.821C77.0884 80.6251 77.0259 80.4731 76.901 80.365C76.776 80.2569 76.5868 80.2028 76.3334 80.2028H75.2998L75.6646 79.8127V81.8243Z" fill="black"/>
<path d="M48.384 89.2338L49.965 85.6869H50.7757L52.3617 89.2338H51.5003L50.2031 86.1024H50.5274L49.2252 89.2338H48.384ZM49.1745 88.4738L49.3924 87.8505H51.2165L51.4395 88.4738H49.1745Z" fill="black"/>
<path d="M54.3929 89.2946C54.1125 89.2946 53.8541 89.2507 53.6176 89.1629C53.3845 89.0717 53.1802 88.9433 53.0045 88.7778C52.8322 88.6123 52.6971 88.418 52.5991 88.1951C52.5045 87.9721 52.4572 87.7272 52.4572 87.4603C52.4572 87.1935 52.5045 86.9486 52.5991 86.7256C52.6971 86.5027 52.8339 86.3084 53.0096 86.1429C53.1852 85.9774 53.3913 85.8507 53.6277 85.7629C53.8642 85.6717 54.1243 85.6261 54.4081 85.6261C54.7222 85.6261 55.0043 85.6784 55.2543 85.7831C55.5076 85.8879 55.7204 86.0399 55.8927 86.2392L55.3658 86.7256C55.2374 86.5905 55.0972 86.4908 54.9452 86.4267C54.7932 86.3591 54.6276 86.3253 54.4486 86.3253C54.2763 86.3253 54.1192 86.3523 53.9774 86.4064C53.8355 86.4604 53.7122 86.5381 53.6075 86.6395C53.5061 86.7408 53.4267 86.8607 53.3693 86.9992C53.3153 87.1377 53.2882 87.2914 53.2882 87.4603C53.2882 87.6259 53.3153 87.7779 53.3693 87.9164C53.4267 88.0549 53.5061 88.1765 53.6075 88.2812C53.7122 88.3825 53.8338 88.4602 53.9723 88.5143C54.1142 88.5683 54.2696 88.5954 54.4385 88.5954C54.6006 88.5954 54.7577 88.57 54.9097 88.5194C55.0651 88.4653 55.2154 88.3758 55.3607 88.2508L55.8269 88.8436C55.6343 88.9889 55.4097 89.1004 55.1529 89.1781C54.8996 89.2558 54.6462 89.2946 54.3929 89.2946ZM55.0769 88.7372V87.4046H55.8269V88.8436L55.0769 88.7372Z" fill="black"/>
<path d="M57.3444 87.1158H59.052V87.7542H57.3444V87.1158ZM57.4052 88.5751H59.3357V89.2338H56.5894V85.6869H59.2699V86.3456H57.4052V88.5751Z" fill="black"/>
<path d="M59.9889 89.2338V85.6869H60.6679L62.7606 88.2407H62.4312V85.6869H63.2419V89.2338H62.568L60.4702 86.68H60.7996V89.2338H59.9889Z" fill="black"/>
<path d="M65.7786 89.2946C65.505 89.2946 65.2499 89.2507 65.0135 89.1629C64.7804 89.0717 64.5777 88.9433 64.4054 88.7778C64.2331 88.6123 64.098 88.418 64.0001 88.1951C63.9055 87.9721 63.8582 87.7272 63.8582 87.4603C63.8582 87.1935 63.9055 86.9486 64.0001 86.7256C64.098 86.5027 64.2331 86.3084 64.4054 86.1429C64.5811 85.9774 64.7854 85.8507 65.0185 85.7629C65.2516 85.6717 65.5067 85.6261 65.7837 85.6261C66.0911 85.6261 66.3681 85.6801 66.6147 85.7882C66.8646 85.8929 67.0741 86.0483 67.243 86.2544L66.716 86.7408C66.5944 86.6023 66.4593 86.4993 66.3106 86.4317C66.162 86.3608 65.9999 86.3253 65.8242 86.3253C65.6587 86.3253 65.5067 86.3523 65.3682 86.4064C65.2297 86.4604 65.1097 86.5381 65.0084 86.6395C64.9071 86.7408 64.8277 86.8607 64.7702 86.9992C64.7162 87.1377 64.6892 87.2914 64.6892 87.4603C64.6892 87.6292 64.7162 87.7829 64.7702 87.9214C64.8277 88.0599 64.9071 88.1799 65.0084 88.2812C65.1097 88.3825 65.2297 88.4602 65.3682 88.5143C65.5067 88.5683 65.6587 88.5954 65.8242 88.5954C65.9999 88.5954 66.162 88.5616 66.3106 88.494C66.4593 88.4231 66.5944 88.3167 66.716 88.1748L67.243 88.6612C67.0741 88.8673 66.8646 89.0244 66.6147 89.1325C66.3681 89.2406 66.0894 89.2946 65.7786 89.2946Z" fill="black"/>
<path d="M67.7973 89.2338V85.6869H68.6182V89.2338H67.7973Z" fill="black"/>
<path d="M70.2149 87.1158H71.9225V87.7542H70.2149V87.1158ZM70.2757 88.5751H72.2063V89.2338H69.4599V85.6869H72.1404V86.3456H70.2757V88.5751Z" fill="black"/>
<path d="M74.0249 89.2946C73.7411 89.2946 73.4692 89.2575 73.2091 89.1831C72.949 89.1054 72.7395 89.0058 72.5808 88.8842L72.8594 88.266C73.0115 88.3741 73.1905 88.4636 73.3966 88.5346C73.606 88.6021 73.8171 88.6359 74.0299 88.6359C74.1921 88.6359 74.3221 88.6207 74.4201 88.5903C74.5214 88.5565 74.5958 88.5109 74.6431 88.4535C74.6903 88.3961 74.714 88.3302 74.714 88.2559C74.714 88.1613 74.6768 88.087 74.6025 88.0329C74.5282 87.9755 74.4302 87.9299 74.3086 87.8961C74.187 87.8589 74.0519 87.8252 73.9033 87.7948C73.758 87.761 73.6111 87.7204 73.4624 87.6732C73.3172 87.6259 73.1837 87.5651 73.0621 87.4907C72.9405 87.4164 72.8409 87.3185 72.7632 87.1968C72.6888 87.0752 72.6517 86.9198 72.6517 86.7307C72.6517 86.528 72.7057 86.3439 72.8138 86.1784C72.9253 86.0095 73.0908 85.876 73.3104 85.7781C73.5334 85.6767 73.8121 85.6261 74.1465 85.6261C74.3694 85.6261 74.589 85.6531 74.8052 85.7071C75.0214 85.7578 75.2123 85.8355 75.3778 85.9402L75.1244 86.5635C74.9589 86.4689 74.7934 86.3996 74.6279 86.3557C74.4623 86.3084 74.3002 86.2848 74.1414 86.2848C73.9826 86.2848 73.8526 86.3034 73.7512 86.3405C73.6499 86.3777 73.5773 86.4267 73.5334 86.4875C73.4894 86.5449 73.4675 86.6124 73.4675 86.6901C73.4675 86.7813 73.5046 86.8557 73.579 86.9131C73.6533 86.9671 73.7512 87.0111 73.8729 87.0448C73.9945 87.0786 74.1279 87.1124 74.2732 87.1462C74.4218 87.18 74.5687 87.2188 74.714 87.2627C74.8626 87.3066 74.9977 87.3657 75.1194 87.4401C75.241 87.5144 75.3389 87.6123 75.4132 87.734C75.4909 87.8556 75.5298 88.0093 75.5298 88.1951C75.5298 88.3944 75.4741 88.5768 75.3626 88.7423C75.2511 88.9078 75.0839 89.0413 74.8609 89.1426C74.6414 89.2439 74.3627 89.2946 74.0249 89.2946Z" fill="black"/>
</svg>
